<?xml version="1.0" encoding="UTF-8" standalone="no"?>
<!-- Created with Inkscape (http://www.inkscape.org/) -->

<svg
   xmlns:dc="http://purl.org/dc/elements/1.1/"
   xmlns:cc="http://creativecommons.org/ns#"
   xmlns:rdf="http://www.w3.org/1999/02/22-rdf-syntax-ns#"
   xmlns:svg="http://www.w3.org/2000/svg"
   xmlns="http://www.w3.org/2000/svg"
   xmlns:sodipodi="http://sodipodi.sourceforge.net/DTD/sodipodi-0.dtd"
   xmlns:inkscape="http://www.inkscape.org/namespaces/inkscape"
   width="88.962631mm"
   height="101.87681mm"
   viewBox="0 0 88.962631 101.87681"
   version="1.1"
   id="svg7367"
   inkscape:version="0.92.4 (5da689c313, 2019-01-14)">
  <defs
     id="defs7361" />
  <sodipodi:namedview
     id="base"
     pagecolor="#ffffff"
     bordercolor="#666666"
     borderopacity="1.0"
     inkscape:pageopacity="0.0"
     inkscape:pageshadow="2"
     inkscape:zoom="0.35"
     inkscape:cx="520.72441"
     inkscape:cy="-184.17293"
     inkscape:document-units="mm"
     inkscape:current-layer="layer1"
     showgrid="false" />
  <metadata
     id="metadata7364">
    <rdf:RDF>
      <cc:Work
         rdf:about="">
        <dc:format>image/svg+xml</dc:format>
        <dc:type
           rdf:resource="http://purl.org/dc/dcmitype/StillImage" />
        <dc:title></dc:title>
      </cc:Work>
    </rdf:RDF>
  </metadata>
  <g
     inkscape:label="Layer 1"
     inkscape:groupmode="layer"
     id="layer1"
     transform="translate(-2.3877265,-157.61516)">
    <g
       transform="translate(-813.16427,-231.75068)"
       id="g9195">
      <path
         style="display:inline;opacity:1;fill:#005687;fill-opacity:1;stroke:#000000;stroke-width:0.10306702;stroke-miterlimit:4;stroke-dasharray:none;stroke-opacity:1"
         d="m 816.12233,389.53823 h 87.8144 c 0.2874,0 0.5188,0.23139 0.5188,0.51881 v 49.69074 c 0,0.28739 -0.2314,0.51881 -0.5188,0.51881 h -87.8144 c -0.2874,0 -0.5188,-0.2314 -0.5188,-0.51881 v -49.69074 c 0,-0.28741 0.2314,-0.51881 0.5188,-0.51881 z"
         id="path4920"
         inkscape:connector-curvature="0" />
      <path
         style="color:#000000;font-style:normal;font-variant:normal;font-weight:normal;font-stretch:normal;font-size:medium;line-height:normal;font-family:sans-serif;font-variant-ligatures:normal;font-variant-position:normal;font-variant-caps:normal;font-variant-numeric:normal;font-variant-alternates:normal;font-feature-settings:normal;text-indent:0;text-align:start;text-decoration:none;text-decoration-line:none;text-decoration-style:solid;text-decoration-color:#000000;letter-spacing:normal;word-spacing:normal;text-transform:none;writing-mode:lr-tb;direction:ltr;text-orientation:mixed;dominant-baseline:auto;baseline-shift:baseline;text-anchor:start;white-space:normal;shape-padding:0;clip-rule:nonzero;display:inline;overflow:visible;visibility:visible;opacity:1;isolation:auto;mix-blend-mode:normal;color-interpolation:sRGB;color-interpolation-filters:linearRGB;solid-color:#000000;solid-opacity:1;vector-effect:none;fill:#ffffff;fill-opacity:1;fill-rule:nonzero;stroke:none;stroke-width:0.26458332px;stroke-linecap:butt;stroke-linejoin:miter;stroke-miterlimit:4;stroke-dasharray:none;stroke-dashoffset:0;stroke-opacity:1;color-rendering:auto;image-rendering:auto;shape-rendering:auto;text-rendering:auto;enable-background:accumulate"
         d="m 823.69323,433.39348 c -0.015,5.3e-4 -0.046,10e-4 -0.1094,0.002 -0.1272,0.002 -0.3833,0.004 -0.8906,0.006 -1.0146,0.004 -3.039,0.008 -7.0821,0.008 v 0.26563 c 4.0433,0 6.0687,-0.006 7.084,-0.01 0.5077,-0.002 0.7621,-0.004 0.8907,-0.006 0.064,-8e-4 0.098,-10e-4 0.1152,-0.002 0.01,-2.5e-4 0.013,2.6e-4 0.018,0 0,-1.4e-4 0.01,3e-5 0.01,0 1e-4,-2e-5 0.012,-0.002 0.012,-0.002 0,0 0,-0.002 0,-0.002 0,0 0.01,0 0.01,0 0,0 -0.037,-0.1289 -0.037,-0.1289 0,0 -0.035,-0.12696 -0.035,-0.12696 0,0 0.01,0 0.01,0 0,1e-5 0.016,-0.004 0.016,-0.004 0,6e-5 -10e-4,-1.3e-4 -0.01,0 z"
         id="path4922"
         inkscape:connector-curvature="0" />
      <path
         style="color:#000000;font-style:normal;font-variant:normal;font-weight:normal;font-stretch:normal;font-size:medium;line-height:normal;font-family:sans-serif;font-variant-ligatures:normal;font-variant-position:normal;font-variant-caps:normal;font-variant-numeric:normal;font-variant-alternates:normal;font-feature-settings:normal;text-indent:0;text-align:start;text-decoration:none;text-decoration-line:none;text-decoration-style:solid;text-decoration-color:#000000;letter-spacing:normal;word-spacing:normal;text-transform:none;writing-mode:lr-tb;direction:ltr;text-orientation:mixed;dominant-baseline:auto;baseline-shift:baseline;text-anchor:start;white-space:normal;shape-padding:0;clip-rule:nonzero;display:inline;overflow:visible;visibility:visible;opacity:1;isolation:auto;mix-blend-mode:normal;color-interpolation:sRGB;color-interpolation-filters:linearRGB;solid-color:#000000;solid-opacity:1;vector-effect:none;fill:#ffffff;fill-opacity:1;fill-rule:nonzero;stroke:none;stroke-width:0.26458332px;stroke-linecap:butt;stroke-linejoin:miter;stroke-miterlimit:4;stroke-dasharray:none;stroke-dashoffset:0;stroke-opacity:1;color-rendering:auto;image-rendering:auto;shape-rendering:auto;text-rendering:auto;enable-background:accumulate"
         d="m 825.63263,429.35215 c 0,0 -0.2656,0.003 -0.2656,0.004 0,7.9e-4 0,0.002 0,0.004 0,0.004 0,0.0128 0,0.0293 0,0.033 0,0.0986 0,0.23243 -10e-5,0.26771 0,0.80575 0,1.88477 h 0.2656 c 0,-1.079 0,-1.61711 0,-1.88477 1e-4,-0.13384 0,-0.19952 0,-0.23243 1e-4,-0.0165 0,-0.0235 0,-0.0273 0,-0.002 0,-0.004 0,-0.004 0,0 -0.1328,-0.002 -0.1328,-0.002 z"
         id="path4924"
         inkscape:connector-curvature="0" />
      <path
         style="color:#000000;font-style:normal;font-variant:normal;font-weight:normal;font-stretch:normal;font-size:medium;line-height:normal;font-family:sans-serif;font-variant-ligatures:normal;font-variant-position:normal;font-variant-caps:normal;font-variant-numeric:normal;font-variant-alternates:normal;font-feature-settings:normal;text-indent:0;text-align:start;text-decoration:none;text-decoration-line:none;text-decoration-style:solid;text-decoration-color:#000000;letter-spacing:normal;word-spacing:normal;text-transform:none;writing-mode:lr-tb;direction:ltr;text-orientation:mixed;dominant-baseline:auto;baseline-shift:baseline;text-anchor:start;white-space:normal;shape-padding:0;clip-rule:nonzero;display:inline;overflow:visible;visibility:visible;opacity:1;isolation:auto;mix-blend-mode:normal;color-interpolation:sRGB;color-interpolation-filters:linearRGB;solid-color:#000000;solid-opacity:1;vector-effect:none;fill:#ffffff;fill-opacity:1;fill-rule:nonzero;stroke:none;stroke-width:0.26458332px;stroke-linecap:butt;stroke-linejoin:miter;stroke-miterlimit:4;stroke-dasharray:none;stroke-dashoffset:0;stroke-opacity:1;color-rendering:auto;image-rendering:auto;shape-rendering:auto;text-rendering:auto;enable-background:accumulate"
         d="m 825.35143,423.69426 c 0,0 -9e-4,0.0248 0.016,2.23243 l 0.2656,-0.002 c -0.016,-2.2076 -0.018,-2.23048 -0.018,-2.23048 z"
         id="path4926"
         inkscape:connector-curvature="0" />
      <path
         style="color:#000000;font-style:normal;font-variant:normal;font-weight:normal;font-stretch:normal;font-size:medium;line-height:normal;font-family:sans-serif;font-variant-ligatures:normal;font-variant-position:normal;font-variant-caps:normal;font-variant-numeric:normal;font-variant-alternates:normal;font-feature-settings:normal;text-indent:0;text-align:start;text-decoration:none;text-decoration-line:none;text-decoration-style:solid;text-decoration-color:#000000;letter-spacing:normal;word-spacing:normal;text-transform:none;writing-mode:lr-tb;direction:ltr;text-orientation:mixed;dominant-baseline:auto;baseline-shift:baseline;text-anchor:start;white-space:normal;shape-padding:0;clip-rule:nonzero;display:inline;overflow:visible;visibility:visible;opacity:1;isolation:auto;mix-blend-mode:normal;color-interpolation:sRGB;color-interpolation-filters:linearRGB;solid-color:#000000;solid-opacity:1;vector-effect:none;fill:#ffffff;fill-opacity:1;fill-rule:nonzero;stroke:none;stroke-width:0.26458332px;stroke-linecap:butt;stroke-linejoin:miter;stroke-miterlimit:4;stroke-dasharray:none;stroke-dashoffset:0;stroke-opacity:1;color-rendering:auto;image-rendering:auto;shape-rendering:auto;text-rendering:auto;enable-background:accumulate"
         d="m 825.59753,404.17864 c 0,0 -0.1309,0.002 -0.1309,0.002 l 0.1309,0.006 c 0,0 -0.2637,-0.004 -0.2637,-0.004 0,0 0,0.002 0,0.002 0,0.004 0,0.0103 0,0.0254 10e-5,0.0302 -2.9e-4,0.0916 0,0.21485 5e-4,0.24656 0,0.74166 0,1.73632 0,1.98934 0.01,5.97633 0.021,13.9668 h 0.2656 c -0.012,-7.99048 -0.02,-11.97743 -0.023,-13.9668 0,-0.99468 -10e-4,-1.48969 0,-1.73632 -2e-4,-0.12332 10e-5,-0.18447 0,-0.21485 0,-0.0152 10e-5,-0.0235 0,-0.0273 0,0 0,-0.002 0,-0.002 0,0 0,-0.002 0,-0.002 z"
         id="path4928"
         inkscape:connector-curvature="0" />
      <path
         inkscape:connector-curvature="0"
         style="color:#000000;font-style:normal;font-variant:normal;font-weight:normal;font-stretch:normal;font-size:medium;line-height:normal;font-family:sans-serif;font-variant-ligatures:normal;font-variant-position:normal;font-variant-caps:normal;font-variant-numeric:normal;font-variant-alternates:normal;font-feature-settings:normal;text-indent:0;text-align:start;text-decoration:none;text-decoration-line:none;text-decoration-style:solid;text-decoration-color:#000000;letter-spacing:normal;word-spacing:normal;text-transform:none;writing-mode:lr-tb;direction:ltr;text-orientation:mixed;dominant-baseline:auto;baseline-shift:baseline;text-anchor:start;white-space:normal;shape-padding:0;clip-rule:nonzero;display:inline;overflow:visible;visibility:visible;opacity:1;isolation:auto;mix-blend-mode:normal;color-interpolation:sRGB;color-interpolation-filters:linearRGB;solid-color:#000000;solid-opacity:1;vector-effect:none;fill:#ffffff;fill-opacity:1;fill-rule:nonzero;stroke:none;stroke-width:0.26660362px;stroke-linecap:butt;stroke-linejoin:miter;stroke-miterlimit:4;stroke-dasharray:none;stroke-dashoffset:0;stroke-opacity:1;color-rendering:auto;image-rendering:auto;shape-rendering:auto;text-rendering:auto;enable-background:accumulate"
         d="m 830.35723,399.33492 v 0.26355 c 4.4223,-2.5e-4 8.8438,-2.2e-4 13.26549,0 a 16.92547,16.669924 0 0 1 -0.01,-0.13384 16.92547,16.669924 0 0 1 0,-0.12971 c -4.42081,-2.3e-4 -8.84141,-2.6e-4 -13.26291,0 z"
         id="path4930" />
      <path
         inkscape:connector-curvature="0"
         style="color:#000000;font-style:normal;font-variant:normal;font-weight:normal;font-stretch:normal;font-size:medium;line-height:normal;font-family:sans-serif;font-variant-ligatures:normal;font-variant-position:normal;font-variant-caps:normal;font-variant-numeric:normal;font-variant-alternates:normal;font-feature-settings:normal;text-indent:0;text-align:start;text-decoration:none;text-decoration-line:none;text-decoration-style:solid;text-decoration-color:#000000;letter-spacing:normal;word-spacing:normal;text-transform:none;writing-mode:lr-tb;direction:ltr;text-orientation:mixed;dominant-baseline:auto;baseline-shift:baseline;text-anchor:start;white-space:normal;shape-padding:0;clip-rule:nonzero;display:inline;overflow:visible;visibility:visible;opacity:1;isolation:auto;mix-blend-mode:normal;color-interpolation:sRGB;color-interpolation-filters:linearRGB;solid-color:#000000;solid-opacity:1;vector-effect:none;fill:#2b5d0a;fill-opacity:1;fill-rule:nonzero;stroke:none;stroke-width:0.26458332px;stroke-linecap:butt;stroke-linejoin:miter;stroke-miterlimit:4;stroke-dasharray:none;stroke-dashoffset:0;stroke-opacity:1;color-rendering:auto;image-rendering:auto;shape-rendering:auto;text-rendering:auto;enable-background:accumulate"
         d="m 843.94433,399.5964 v 0.002 0 z"
         id="path4932" />
      <path
         inkscape:connector-curvature="0"
         style="display:inline;opacity:1;fill:#ffffff;fill-opacity:1;stroke:#ffffff;stroke-width:0.21121019;stroke-opacity:1"
         d="m 846.79372,389.47145 a 16.58,16.58 0 0 0 -3.2897,9.88001 16.58,16.58 0 0 0 16.58041,16.57986 16.58,16.58 0 0 0 16.5799,-16.57986 16.58,16.58 0 0 0 -3.2877,-9.88001 z"
         id="path4934" />
      <g
         style="display:inline;fill:#000000;fill-opacity:1"
         transform="matrix(0.75165498,0,0,0.75165498,910.86493,300.56405)"
         id="g4960">
        <path
           style="font-style:normal;font-variant:normal;font-weight:normal;font-stretch:normal;font-size:35.27777481px;line-height:1em;font-family:NordiquePro-Bold;-inkscape-font-specification:'NordiquePro-Bold, Normal';font-variant-ligatures:normal;font-variant-caps:normal;font-variant-numeric:normal;font-feature-settings:normal;text-align:start;letter-spacing:0px;word-spacing:0.0079375px;writing-mode:lr-tb;text-anchor:start;fill:#000000;fill-opacity:1"
           d="m -66.619081,128.5544 v 5.77918 h 1.029201 v -2.56796 h 2.473908 v 2.56796 h 1.029199 v -5.77918 h -1.029199 v 2.18202 h -2.473908 v -2.18202 z"
           id="path4936"
           inkscape:connector-curvature="0" />
        <path
           id="path4938"
           style="font-style:normal;font-variant:normal;font-weight:normal;font-stretch:normal;font-size:35.27777481px;line-height:1em;font-family:NordiquePro-Bold;-inkscape-font-specification:'NordiquePro-Bold, Normal';font-variant-ligatures:normal;font-variant-caps:normal;font-variant-numeric:normal;font-feature-settings:normal;text-align:start;letter-spacing:0px;word-spacing:0.0079375px;writing-mode:lr-tb;text-anchor:start;fill:#000000;fill-opacity:1"
           d="m -78.511489,130.3144 h 1.029161 v 2.08208 c 0,0.64916 -0.158332,1.13207 -0.474997,1.45666 -0.316665,0.32458 -0.744163,0.48291 -1.266661,0.48291 -0.530414,0 -0.949995,-0.15833 -1.26666,-0.48291 -0.316665,-0.32459 -0.474998,-0.8075 -0.474998,-1.45666 v -2.08208 h 1.029162 v 2.08208 c 0,0.32458 0.05542,0.56208 0.166249,0.71249 0.110833,0.15042 0.292915,0.22167 0.546247,0.22167 0.245416,0 0.427498,-0.0712 0.538331,-0.22167 0.110833,-0.15041 0.174166,-0.38791 0.174166,-0.71249 z"
           inkscape:connector-curvature="0" />
        <path
           id="path4940"
           d="m -76.755853,129.72066 c 0.118749,0.11874 0.269165,0.17416 0.443331,0.17416 0.166249,0 0.308748,-0.0554 0.427498,-0.17416 0.118749,-0.11875 0.182082,-0.26917 0.182082,-0.44334 0,-0.16624 -0.06333,-0.30874 -0.182082,-0.42749 -0.11875,-0.11875 -0.261249,-0.18209 -0.427498,-0.18209 -0.174166,0 -0.324582,0.0633 -0.443331,0.18209 -0.11875,0.11875 -0.174166,0.26125 -0.174166,0.42749 0,0.17417 0.05542,0.32459 0.174166,0.44334 z"
           style="font-style:normal;font-variant:normal;font-weight:normal;font-stretch:normal;font-size:35.27777481px;line-height:1em;font-family:NordiquePro-Bold;-inkscape-font-specification:'NordiquePro-Bold, Normal';font-variant-ligatures:normal;font-variant-caps:normal;font-variant-numeric:normal;font-feature-settings:normal;text-align:start;letter-spacing:0px;word-spacing:0.0079375px;writing-mode:lr-tb;text-anchor:start;fill:#000000;fill-opacity:1"
           inkscape:connector-curvature="0" />
        <path
           id="path4942"
           d="m -76.827103,130.36709 v 3.95832 h 1.029162 v -3.95832 z"
           style="font-style:normal;font-variant:normal;font-weight:normal;font-stretch:normal;font-size:35.27777481px;line-height:1em;font-family:NordiquePro-Bold;-inkscape-font-specification:'NordiquePro-Bold, Normal';font-variant-ligatures:normal;font-variant-caps:normal;font-variant-numeric:normal;font-feature-settings:normal;text-align:start;letter-spacing:0px;word-spacing:0.0079375px;writing-mode:lr-tb;text-anchor:start;fill:#000000;fill-opacity:1"
           inkscape:connector-curvature="0" />
        <path
           id="path4944"
           style="font-style:normal;font-variant:normal;font-weight:normal;font-stretch:normal;font-size:35.27777481px;line-height:1em;font-family:NordiquePro-Bold;-inkscape-font-specification:'NordiquePro-Bold, Normal';font-variant-ligatures:normal;font-variant-caps:normal;font-variant-numeric:normal;font-feature-settings:normal;text-align:start;letter-spacing:0px;word-spacing:0.0079375px;writing-mode:lr-tb;text-anchor:start;fill:#000000;fill-opacity:1"
           d="m -75.074559,134.32541 h 1.029161 v -5.54164 h -1.029161 z"
           inkscape:connector-curvature="0" />
        <path
           id="path4946"
           style="font-style:normal;font-variant:normal;font-weight:normal;font-stretch:normal;font-size:35.27777481px;line-height:1em;font-family:NordiquePro-Bold;-inkscape-font-specification:'NordiquePro-Bold, Normal';font-variant-ligatures:normal;font-variant-caps:normal;font-variant-numeric:normal;font-feature-settings:normal;text-align:start;letter-spacing:0px;word-spacing:0.0079375px;writing-mode:lr-tb;text-anchor:start;fill:#000000;fill-opacity:1"
           d="m -69.814331,133.32272 c 0.182083,-0.31666 0.277082,-0.65708 0.277082,-1.02916 v -3.56248 h -1.037079 v 1.82082 c -0.284999,-0.19791 -0.617496,-0.30083 -0.997495,-0.30083 -0.372081,0 -0.712497,0.095 -1.021245,0.27708 -0.316664,0.18208 -0.56208,0.4275 -0.744162,0.74416 -0.19,0.31667 -0.277082,0.65708 -0.277082,1.02125 0,0.37208 0.08708,0.7125 0.277082,1.02916 0.182082,0.31667 0.427498,0.56208 0.744162,0.74416 0.308748,0.18209 0.649164,0.26917 1.021245,0.26917 0.364165,0 0.704579,-0.0871 1.021246,-0.26917 0.308748,-0.18208 0.554163,-0.42749 0.736246,-0.74416 z m -2.485821,-1.76541 c 0.189998,-0.19791 0.427498,-0.30083 0.720412,-0.30083 0.284998,0 0.530416,0.10292 0.72833,0.30083 0.19,0.19792 0.292916,0.44333 0.292916,0.73625 0,0.30083 -0.102916,0.54625 -0.292916,0.74416 -0.197914,0.19792 -0.443332,0.29292 -0.72833,0.29292 -0.292914,0 -0.530414,-0.095 -0.720412,-0.29292 -0.19,-0.19791 -0.284998,-0.44333 -0.284998,-0.74416 0,-0.29292 0.095,-0.53833 0.284998,-0.73625 z"
           inkscape:connector-curvature="0" />
        <path
           inkscape:connector-curvature="0"
           id="path4948"
           style="font-style:normal;font-variant:normal;font-weight:normal;font-stretch:normal;font-size:35.27777481px;line-height:1em;font-family:NordiquePro-Bold;-inkscape-font-specification:'NordiquePro-Bold, Normal';font-variant-ligatures:normal;font-variant-caps:normal;font-variant-numeric:normal;font-feature-settings:normal;text-align:start;letter-spacing:0px;word-spacing:0.0079375px;writing-mode:lr-tb;text-anchor:start;fill:#000000;fill-opacity:1"
           d="m -61.242817,131.28815 c -0.174165,0.31666 -0.261249,0.64916 -0.261249,1.01333 0,0.37208 0.08708,0.71249 0.269164,1.02124 0.182083,0.31667 0.427498,0.56208 0.744165,0.74416 0.308748,0.18209 0.649162,0.26917 1.029162,0.26917 0.411663,0 0.783746,-0.11083 1.12416,-0.34042 0.332499,-0.22166 0.585831,-0.52249 0.75208,-0.88666 l -1.227079,-0.008 c -0.08708,0.0712 -0.182082,0.12666 -0.284998,0.16624 -0.102916,0.0475 -0.237498,0.0633 -0.39583,0.0633 -0.2375,0 -0.435415,-0.0554 -0.593748,-0.16625 -0.158332,-0.11083 -0.261248,-0.26917 -0.308748,-0.46708 h 2.937068 c 0.02375,-0.15834 0.03167,-0.31667 0.03167,-0.49083 -0.01584,-0.39584 -0.118748,-0.74417 -0.32458,-1.045 -0.205834,-0.29291 -0.459166,-0.51458 -0.767914,-0.67291 -0.316665,-0.15833 -0.641247,-0.2375 -0.973744,-0.2375 -0.372082,0 -0.712496,0.095 -1.021246,0.285 -0.308748,0.19 -0.554163,0.43541 -0.728329,0.75208 z m 2.715402,0.58583 h -1.868323 c 0.07917,-0.19 0.205832,-0.34042 0.364165,-0.45125 0.158332,-0.11083 0.348332,-0.16625 0.569998,-0.16625 0.197914,0 0.379997,0.0633 0.554163,0.17417 0.174165,0.11083 0.300833,0.26125 0.379997,0.44333 z" />
        <path
           inkscape:connector-curvature="0"
           id="path4950"
           style="font-style:normal;font-variant:normal;font-weight:normal;font-stretch:normal;font-size:35.27777481px;line-height:1em;font-family:NordiquePro-Bold;-inkscape-font-specification:'NordiquePro-Bold, Normal';font-variant-ligatures:normal;font-variant-caps:normal;font-variant-numeric:normal;font-feature-settings:normal;text-align:start;letter-spacing:0px;word-spacing:0.0079375px;writing-mode:lr-tb;text-anchor:start;fill:#000000;fill-opacity:1"
           d="m -56.758417,134.32541 h 1.029161 v -5.54164 h -1.029161 z" />
        <path
           inkscape:connector-curvature="0"
           id="path4952"
           style="font-style:normal;font-variant:normal;font-weight:normal;font-stretch:normal;font-size:35.27777481px;line-height:1em;font-family:NordiquePro-Bold;-inkscape-font-specification:'NordiquePro-Bold, Normal';font-variant-ligatures:normal;font-variant-caps:normal;font-variant-numeric:normal;font-feature-settings:normal;text-align:start;letter-spacing:0px;word-spacing:0.0079375px;writing-mode:lr-tb;text-anchor:start;fill:#000000;fill-opacity:1"
           d="m -54.985216,134.32541 h 1.029161 v -5.54164 h -1.029161 z" />
        <path
           inkscape:connector-curvature="0"
           id="path4954"
           style="font-style:normal;font-variant:normal;font-weight:normal;font-stretch:normal;font-size:35.27777481px;line-height:1em;font-family:NordiquePro-Bold;-inkscape-font-specification:'NordiquePro-Bold, Normal';font-variant-ligatures:normal;font-variant-caps:normal;font-variant-numeric:normal;font-feature-settings:normal;text-align:start;letter-spacing:0px;word-spacing:0.0079375px;writing-mode:lr-tb;text-anchor:start;fill:#000000;fill-opacity:1"
           d="m -50.342485,130.52815 c -0.316665,-0.18208 -0.657079,-0.27708 -1.021245,-0.27708 -0.37208,0 -0.712496,0.095 -1.029161,0.27708 -0.316665,0.18208 -0.56208,0.4275 -0.744163,0.74416 -0.182083,0.31667 -0.269164,0.65708 -0.269164,1.02125 0,0.37208 0.08708,0.7125 0.269164,1.02916 0.182083,0.31667 0.427498,0.56208 0.744163,0.74416 0.316665,0.18209 0.657081,0.26917 1.029161,0.26917 0.364166,0 0.70458,-0.0871 1.021245,-0.26917 0.316667,-0.18208 0.562082,-0.42749 0.744165,-0.74416 0.18208,-0.31666 0.277081,-0.65708 0.277081,-1.02916 0,-0.36417 -0.095,-0.70458 -0.277081,-1.02125 -0.182083,-0.31666 -0.427498,-0.56208 -0.744165,-0.74416 z m -1.741658,1.02916 c 0.189999,-0.19791 0.435415,-0.30083 0.72833,-0.30083 0.284999,0 0.530414,0.10292 0.720414,0.30083 0.189998,0.19792 0.284999,0.44333 0.284999,0.73625 0,0.30083 -0.095,0.54625 -0.284999,0.74416 -0.19,0.19792 -0.435415,0.29292 -0.720414,0.29292 -0.292915,0 -0.538331,-0.095 -0.72833,-0.29292 -0.197915,-0.19791 -0.292914,-0.44333 -0.292914,-0.74416 0,-0.29292 0.095,-0.53833 0.292914,-0.73625 z" />
        <g
           transform="matrix(0.22440837,0,0,0.22440837,-85.810103,112.32673)"
           id="g4958"
           style="font-style:normal;font-variant:normal;font-weight:normal;font-stretch:normal;font-size:35.27777481px;line-height:1em;font-family:NordiquePro-Bold;-inkscape-font-specification:'NordiquePro-Bold, Normal';font-variant-ligatures:normal;font-variant-caps:normal;font-variant-numeric:normal;font-feature-settings:normal;text-align:start;letter-spacing:0px;word-spacing:0.0079375px;writing-mode:lr-tb;text-anchor:start;fill:#000000;fill-opacity:1">
          <path
             inkscape:connector-curvature="0"
             id="path4956"
             d="M 0.06304166,72.28233 V 97.999624 H 9.2960738 c 2.8823972,0 5.1044742,-0.625699 6.6662562,-1.877405 1.561756,-1.251714 2.342489,-3.02596 2.342489,-5.322672 0,-1.745503 -0.476224,-3.198543 -1.429385,-4.358391 -0.941652,-1.171327 -2.268009,-1.940398 -3.979069,-2.307869 1.423961,-0.229671 2.503091,-0.809778 3.23805,-1.739945 0.734933,-0.930176 1.102757,-2.18156 1.102757,-3.75481 0,-2.032597 -0.717894,-3.600138 -2.153338,-4.702556 -1.43547,-1.102426 -3.47972,-1.653646 -6.1324593,-1.653646 z m 4.48963514,3.427699 h 4.1966356 c 1.3848556,0 2.4139786,0.262003 3.0876876,0.785998 0.683048,0.523994 1.024731,1.314603 1.024731,2.371949 0,1.066701 -0.341683,1.861906 -1.024731,2.3859 -0.673709,0.514638 -1.702832,0.772046 -3.0876876,0.772046 H 4.5526768 Z m 0.015002,10.26759 H 9.483637 c 1.648883,0 2.86811,0.338719 3.65715,1.016475 0.799148,0.667643 1.198377,1.7097 1.198377,3.125908 0,1.406096 -0.399229,2.453021 -1.198377,3.140893 -0.78904,0.677759 -2.008267,1.016476 -3.65715,1.016476 H 4.5676787 Z"
             style="fill:#000000;fill-opacity:1" />
        </g>
      </g>
      <text
         xml:space="preserve"
         style="font-style:normal;font-variant:normal;font-weight:normal;font-stretch:normal;font-size:2.82222223px;line-height:1em;font-family:NordiquePro-Bold;-inkscape-font-specification:'NordiquePro-Bold, Normal';font-variant-ligatures:normal;font-variant-caps:normal;font-variant-numeric:normal;font-feature-settings:normal;text-align:start;letter-spacing:0px;word-spacing:0.0079375px;writing-mode:lr-tb;text-anchor:start;display:inline;fill:#ffffff;fill-opacity:1;stroke:none;stroke-width:0.26458332"
         x="830.5119"
         y="428.30582"
         id="text4966"><tspan
           sodipodi:role="line"
           id="tspan4962"
           x="830.5119"
           y="428.30582"
           style="font-style:normal;font-variant:normal;font-weight:normal;font-stretch:normal;font-size:2.82222223px;font-family:NordiquePro-Bold;-inkscape-font-specification:'NordiquePro-Bold, Normal';font-variant-ligatures:normal;font-variant-caps:normal;font-variant-numeric:normal;font-feature-settings:normal;text-align:start;writing-mode:lr-tb;text-anchor:start;fill:#ffffff;stroke-width:0.26458332">yuri@buildhello.ca</tspan><tspan
           sodipodi:role="line"
           x="830.5119"
           y="431.18515"
           style="font-style:normal;font-variant:normal;font-weight:normal;font-stretch:normal;font-size:2.82222223px;font-family:NordiquePro-Bold;-inkscape-font-specification:'NordiquePro-Bold, Normal';font-variant-ligatures:normal;font-variant-caps:normal;font-variant-numeric:normal;font-feature-settings:normal;text-align:start;writing-mode:lr-tb;text-anchor:start;fill:#ffffff;stroke-width:0.26458332"
           id="tspan4964" /></text>
      <text
         xml:space="preserve"
         style="font-style:normal;font-variant:normal;font-weight:normal;font-stretch:normal;font-size:2.82222223px;line-height:1em;font-family:NordiquePro-Bold;-inkscape-font-specification:'NordiquePro-Bold, Normal';font-variant-ligatures:normal;font-variant-caps:normal;font-variant-numeric:normal;font-feature-settings:normal;text-align:start;letter-spacing:0px;word-spacing:0.0079375px;writing-mode:lr-tb;text-anchor:start;display:inline;fill:#ffffff;fill-opacity:1;stroke:none;stroke-width:0.26458332"
         x="830.38654"
         y="423.00034"
         id="text4970"><tspan
           sodipodi:role="line"
           id="tspan4968"
           x="830.38654"
           y="423.00034"
           style="fill:#ffffff;stroke-width:0.26458332">Yuri Tricys - Business Development</tspan></text>
      <text
         xml:space="preserve"
         style="font-style:normal;font-variant:normal;font-weight:normal;font-stretch:normal;font-size:2.82222223px;line-height:1em;font-family:NordiquePro-Bold;-inkscape-font-specification:'NordiquePro-Bold, Normal';font-variant-ligatures:normal;font-variant-caps:normal;font-variant-numeric:normal;font-feature-settings:normal;text-align:start;letter-spacing:0px;word-spacing:0.0079375px;writing-mode:lr-tb;text-anchor:start;display:inline;fill:#ffffff;fill-opacity:1;stroke:none;stroke-width:0.26458332"
         x="830.5462"
         y="434.46857"
         id="text4974"><tspan
           sodipodi:role="line"
           id="tspan4972"
           x="830.5462"
           y="434.46857"
           style="fill:#ffffff;stroke-width:0.26458332">604-441-9933</tspan></text>
      <g
         transform="translate(-539.95498,46.62686)"
         aria-label="Web Development"
         style="font-style:normal;font-variant:normal;font-weight:normal;font-stretch:normal;font-size:2.82222223px;line-height:1em;font-family:NordiquePro-Bold;-inkscape-font-specification:'NordiquePro-Bold, Normal';font-variant-ligatures:normal;font-variant-caps:normal;font-variant-numeric:normal;font-feature-settings:normal;text-align:start;letter-spacing:0px;word-spacing:0.0079375px;writing-mode:lr-tb;text-anchor:start;display:inline;fill:#000000;fill-opacity:1;stroke:none;stroke-width:0.26458332"
         id="g5005">
        <path
           inkscape:connector-curvature="0"
           d="m 1391.2726,357.36414 h -0.3894 l -0.3584,1.34055 -0.4657,-1.34055 h -0.3217 l -0.4714,1.34055 -0.3527,-1.34055 h -0.3895 l 0.5588,1.97555 h 0.3669 l 0.4487,-1.35749 0.4431,1.35749 h 0.3669 z"
           style="font-style:normal;font-variant:normal;font-weight:normal;font-stretch:normal;font-size:2.82222223px;font-family:NordiquePro-Bold;-inkscape-font-specification:'NordiquePro-Bold, Normal';font-variant-ligatures:normal;font-variant-caps:normal;font-variant-numeric:normal;font-feature-settings:normal;text-align:start;writing-mode:lr-tb;text-anchor:start;fill:#000000;fill-opacity:1;stroke-width:0.26458332"
           id="path4976" />
        <path
           inkscape:connector-curvature="0"
           d="m 1391.1845,358.27571 c -0.062,0.11289 -0.093,0.23143 -0.093,0.36125 0,0.13264 0.031,0.254 0.096,0.36406 0.065,0.11289 0.1524,0.20038 0.2653,0.26529 0.1101,0.0649 0.2314,0.096 0.3669,0.096 0.1468,0 0.2794,-0.0395 0.4008,-0.12136 0.1185,-0.079 0.2088,-0.18626 0.2681,-0.31609 l -0.4375,-0.003 c -0.031,0.0254 -0.065,0.0452 -0.1016,0.0593 -0.037,0.0169 -0.085,0.0226 -0.1411,0.0226 -0.085,0 -0.1552,-0.0198 -0.2117,-0.0593 -0.056,-0.0395 -0.093,-0.096 -0.11,-0.16651 h 1.047 c 0.01,-0.0565 0.011,-0.11289 0.011,-0.17498 -0.01,-0.14111 -0.042,-0.26529 -0.1157,-0.37253 -0.073,-0.10442 -0.1637,-0.18345 -0.2738,-0.23989 -0.1128,-0.0565 -0.2286,-0.0847 -0.3471,-0.0847 -0.1326,0 -0.254,0.0339 -0.3641,0.1016 -0.11,0.0677 -0.1975,0.15522 -0.2596,0.26811 z m 0.968,0.20885 h -0.666 c 0.028,-0.0677 0.073,-0.12136 0.1298,-0.16087 0.056,-0.0395 0.1242,-0.0593 0.2032,-0.0593 0.071,0 0.1355,0.0226 0.1976,0.0621 0.062,0.0395 0.1072,0.0931 0.1354,0.15805 z"
           style="font-style:normal;font-variant:normal;font-weight:normal;font-stretch:normal;font-size:2.82222223px;font-family:NordiquePro-Bold;-inkscape-font-specification:'NordiquePro-Bold, Normal';font-variant-ligatures:normal;font-variant-caps:normal;font-variant-numeric:normal;font-feature-settings:normal;text-align:start;writing-mode:lr-tb;text-anchor:start;fill:#000000;fill-opacity:1;stroke-width:0.26458332"
           id="path4978" />
        <path
           inkscape:connector-curvature="0"
           d="m 1392.6985,357.36414 v 1.27 c 0,0.13264 0.031,0.254 0.096,0.36688 0.065,0.11289 0.1524,0.20038 0.2653,0.26529 0.1101,0.0649 0.2315,0.096 0.3641,0.096 0.1298,0 0.2512,-0.0311 0.3641,-0.096 0.11,-0.0649 0.1975,-0.1524 0.2653,-0.26529 0.065,-0.11288 0.099,-0.23424 0.099,-0.36688 0,-0.12983 -0.034,-0.25118 -0.099,-0.36407 -0.068,-0.11289 -0.1553,-0.20038 -0.2653,-0.26529 -0.1129,-0.0649 -0.2343,-0.0988 -0.3641,-0.0988 -0.1383,0 -0.2568,0.0367 -0.3556,0.10725 v -0.64911 z m 0.4685,1.00753 c 0.068,-0.0706 0.1552,-0.10725 0.2596,-0.10725 0.1016,0 0.1891,0.0367 0.2568,0.10725 0.068,0.0706 0.1016,0.15804 0.1016,0.26247 0,0.10724 -0.034,0.19473 -0.1016,0.26528 -0.068,0.0706 -0.1552,0.10443 -0.2568,0.10443 -0.1044,0 -0.1919,-0.0339 -0.2596,-0.10443 -0.071,-0.0706 -0.1044,-0.15804 -0.1044,-0.26528 0,-0.10443 0.034,-0.19192 0.1044,-0.26247 z"
           style="font-style:normal;font-variant:normal;font-weight:normal;font-stretch:normal;font-size:2.82222223px;font-family:NordiquePro-Bold;-inkscape-font-specification:'NordiquePro-Bold, Normal';font-variant-ligatures:normal;font-variant-caps:normal;font-variant-numeric:normal;font-feature-settings:normal;text-align:start;writing-mode:lr-tb;text-anchor:start;fill:#000000;fill-opacity:1;stroke-width:0.26458332"
           id="path4980" />
        <path
           inkscape:connector-curvature="0"
           d="m 1395.5639,357.51103 v 1.59991 h 0.3362 q 0.4258,0 0.6229,-0.19293 0.1984,-0.19292 0.1984,-0.60909 0,-0.41341 -0.1984,-0.60496 -0.1971,-0.19293 -0.6229,-0.19293 z m -0.2784,-0.22875 h 0.5719 q 0.5981,0 0.8778,0.24943 0.2797,0.24804 0.2797,0.77721 0,0.53192 -0.2811,0.78135 -0.2811,0.24942 -0.8764,0.24942 h -0.5719 z"
           style="font-style:normal;font-variant:normal;font-weight:normal;font-stretch:normal;font-size:2.82222223px;font-family:NordiquePro-Bold;-inkscape-font-specification:'NordiquePro-Bold, Normal';font-variant-ligatures:normal;font-variant-caps:normal;font-variant-numeric:normal;font-feature-settings:normal;text-align:start;writing-mode:lr-tb;text-anchor:start;fill:#000000;fill-opacity:1;stroke-width:0.26458332"
           id="path4982" />
        <path
           inkscape:connector-curvature="0"
           d="m 1397.344,358.27571 c -0.062,0.11289 -0.093,0.23143 -0.093,0.36125 0,0.13264 0.031,0.254 0.096,0.36406 0.065,0.11289 0.1524,0.20038 0.2653,0.26529 0.1101,0.0649 0.2314,0.096 0.3669,0.096 0.1468,0 0.2794,-0.0395 0.4008,-0.12136 0.1185,-0.079 0.2088,-0.18626 0.2681,-0.31609 l -0.4375,-0.003 c -0.031,0.0254 -0.065,0.0452 -0.1016,0.0593 -0.037,0.0169 -0.085,0.0226 -0.1411,0.0226 -0.085,0 -0.1552,-0.0198 -0.2117,-0.0593 -0.056,-0.0395 -0.093,-0.096 -0.11,-0.16651 h 1.047 c 0.01,-0.0565 0.011,-0.11289 0.011,-0.17498 -0.01,-0.14111 -0.042,-0.26529 -0.1157,-0.37253 -0.073,-0.10442 -0.1637,-0.18345 -0.2738,-0.23989 -0.1128,-0.0565 -0.2286,-0.0847 -0.3471,-0.0847 -0.1326,0 -0.254,0.0339 -0.3641,0.1016 -0.11,0.0677 -0.1975,0.15522 -0.2596,0.26811 z m 0.968,0.20885 h -0.666 c 0.028,-0.0677 0.073,-0.12136 0.1298,-0.16087 0.056,-0.0395 0.1242,-0.0593 0.2032,-0.0593 0.071,0 0.1355,0.0226 0.1976,0.0621 0.062,0.0395 0.1072,0.0931 0.1354,0.15805 z"
           style="font-style:normal;font-variant:normal;font-weight:normal;font-stretch:normal;font-size:2.82222223px;font-family:NordiquePro-Bold;-inkscape-font-specification:'NordiquePro-Bold, Normal';font-variant-ligatures:normal;font-variant-caps:normal;font-variant-numeric:normal;font-feature-settings:normal;text-align:start;writing-mode:lr-tb;text-anchor:start;fill:#000000;fill-opacity:1;stroke-width:0.26458332"
           id="path4984" />
        <path
           inkscape:connector-curvature="0"
           d="m 1398.7182,357.92858 0.5221,1.41111 h 0.3669 l 0.5249,-1.41111 h -0.3838 l -0.3245,0.92851 -0.3218,-0.92851 z"
           style="font-style:normal;font-variant:normal;font-weight:normal;font-stretch:normal;font-size:2.82222223px;font-family:NordiquePro-Bold;-inkscape-font-specification:'NordiquePro-Bold, Normal';font-variant-ligatures:normal;font-variant-caps:normal;font-variant-numeric:normal;font-feature-settings:normal;text-align:start;writing-mode:lr-tb;text-anchor:start;fill:#000000;fill-opacity:1;stroke-width:0.26458332"
           id="path4986" />
        <path
           inkscape:connector-curvature="0"
           d="m 1400.2158,358.27571 c -0.062,0.11289 -0.093,0.23143 -0.093,0.36125 0,0.13264 0.031,0.254 0.096,0.36406 0.065,0.11289 0.1524,0.20038 0.2652,0.26529 0.1101,0.0649 0.2315,0.096 0.3669,0.096 0.1468,0 0.2794,-0.0395 0.4008,-0.12136 0.1185,-0.079 0.2088,-0.18626 0.2681,-0.31609 l -0.4374,-0.003 c -0.031,0.0254 -0.065,0.0452 -0.1016,0.0593 -0.037,0.0169 -0.085,0.0226 -0.1412,0.0226 -0.085,0 -0.1552,-0.0198 -0.2116,-0.0593 -0.056,-0.0395 -0.093,-0.096 -0.1101,-0.16651 h 1.0471 c 0.01,-0.0565 0.011,-0.11289 0.011,-0.17498 -0.01,-0.14111 -0.042,-0.26529 -0.1157,-0.37253 -0.073,-0.10442 -0.1637,-0.18345 -0.2737,-0.23989 -0.1129,-0.0565 -0.2286,-0.0847 -0.3472,-0.0847 -0.1326,0 -0.254,0.0339 -0.364,0.1016 -0.1101,0.0677 -0.1976,0.15522 -0.2597,0.26811 z m 0.9681,0.20885 h -0.6661 c 0.028,-0.0677 0.073,-0.12136 0.1298,-0.16087 0.056,-0.0395 0.1242,-0.0593 0.2032,-0.0593 0.071,0 0.1355,0.0226 0.1976,0.0621 0.062,0.0395 0.1072,0.0931 0.1355,0.15805 z"
           style="font-style:normal;font-variant:normal;font-weight:normal;font-stretch:normal;font-size:2.82222223px;font-family:NordiquePro-Bold;-inkscape-font-specification:'NordiquePro-Bold, Normal';font-variant-ligatures:normal;font-variant-caps:normal;font-variant-numeric:normal;font-feature-settings:normal;text-align:start;writing-mode:lr-tb;text-anchor:start;fill:#000000;fill-opacity:1;stroke-width:0.26458332"
           id="path4988" />
        <path
           inkscape:connector-curvature="0"
           d="m 1401.7298,359.33969 h 0.3669 v -1.97555 h -0.3669 z"
           style="font-style:normal;font-variant:normal;font-weight:normal;font-stretch:normal;font-size:2.82222223px;font-family:NordiquePro-Bold;-inkscape-font-specification:'NordiquePro-Bold, Normal';font-variant-ligatures:normal;font-variant-caps:normal;font-variant-numeric:normal;font-feature-settings:normal;text-align:start;writing-mode:lr-tb;text-anchor:start;fill:#000000;fill-opacity:1;stroke-width:0.26458332"
           id="path4990" />
        <path
           inkscape:connector-curvature="0"
           d="m 1403.3426,358.00478 c -0.1129,-0.0649 -0.2343,-0.0988 -0.3641,-0.0988 -0.1326,0 -0.254,0.0339 -0.3669,0.0988 -0.1129,0.0649 -0.2003,0.1524 -0.2653,0.26529 -0.065,0.11289 -0.096,0.23424 -0.096,0.36407 0,0.13264 0.031,0.254 0.096,0.36688 0.065,0.11289 0.1524,0.20038 0.2653,0.26529 0.1129,0.0649 0.2343,0.096 0.3669,0.096 0.1298,0 0.2512,-0.0311 0.3641,-0.096 0.1129,-0.0649 0.2004,-0.1524 0.2653,-0.26529 0.065,-0.11288 0.099,-0.23424 0.099,-0.36688 0,-0.12983 -0.034,-0.25118 -0.099,-0.36407 -0.065,-0.11289 -0.1524,-0.20038 -0.2653,-0.26529 z m -0.6209,0.36689 c 0.068,-0.0706 0.1552,-0.10725 0.2596,-0.10725 0.1016,0 0.1891,0.0367 0.2569,0.10725 0.068,0.0706 0.1016,0.15804 0.1016,0.26247 0,0.10724 -0.034,0.19473 -0.1016,0.26528 -0.068,0.0706 -0.1553,0.10443 -0.2569,0.10443 -0.1044,0 -0.1919,-0.0339 -0.2596,-0.10443 -0.071,-0.0706 -0.1044,-0.15804 -0.1044,-0.26528 0,-0.10443 0.034,-0.19192 0.1044,-0.26247 z"
           style="font-style:normal;font-variant:normal;font-weight:normal;font-stretch:normal;font-size:2.82222223px;font-family:NordiquePro-Bold;-inkscape-font-specification:'NordiquePro-Bold, Normal';font-variant-ligatures:normal;font-variant-caps:normal;font-variant-numeric:normal;font-feature-settings:normal;text-align:start;writing-mode:lr-tb;text-anchor:start;fill:#000000;fill-opacity:1;stroke-width:0.26458332"
           id="path4992" />
        <path
           inkscape:connector-curvature="0"
           d="m 1403.959,358.27007 c -0.065,0.11289 -0.096,0.23424 -0.096,0.36407 v 1.27 h 0.3697 v -0.64912 c 0.099,0.0734 0.2173,0.10725 0.3556,0.10725 0.1299,0 0.2512,-0.0311 0.3641,-0.096 0.1101,-0.0649 0.1976,-0.1524 0.2653,-0.26529 0.065,-0.11288 0.099,-0.23424 0.099,-0.36688 0,-0.12983 -0.034,-0.25118 -0.099,-0.36407 -0.068,-0.11289 -0.1552,-0.20038 -0.2653,-0.26529 -0.1129,-0.0649 -0.2342,-0.0988 -0.3641,-0.0988 -0.1326,0 -0.254,0.0339 -0.364,0.0988 -0.1129,0.0649 -0.2004,0.1524 -0.2653,0.26529 z m 0.889,0.62935 c -0.068,0.0706 -0.1552,0.10443 -0.2568,0.10443 -0.1045,0 -0.192,-0.0339 -0.2597,-0.10443 -0.071,-0.0706 -0.1044,-0.15804 -0.1044,-0.26528 0,-0.10443 0.034,-0.19192 0.1044,-0.26247 0.068,-0.0706 0.1552,-0.10725 0.2597,-0.10725 0.1016,0 0.189,0.0367 0.2568,0.10725 0.068,0.0706 0.1016,0.15804 0.1016,0.26247 0,0.10724 -0.034,0.19473 -0.1016,0.26528 z"
           style="font-style:normal;font-variant:normal;font-weight:normal;font-stretch:normal;font-size:2.82222223px;font-family:NordiquePro-Bold;-inkscape-font-specification:'NordiquePro-Bold, Normal';font-variant-ligatures:normal;font-variant-caps:normal;font-variant-numeric:normal;font-feature-settings:normal;text-align:start;writing-mode:lr-tb;text-anchor:start;fill:#000000;fill-opacity:1;stroke-width:0.26458332"
           id="path4994" />
        <path
           inkscape:connector-curvature="0"
           d="m 1407.4707,358.08098 c -0.1185,-0.11571 -0.2709,-0.17498 -0.46,-0.17498 -0.096,0 -0.1806,0.0169 -0.2597,0.0508 -0.079,0.0339 -0.1411,0.0819 -0.1919,0.14394 -0.051,-0.0621 -0.1157,-0.11007 -0.1947,-0.14394 -0.079,-0.0339 -0.1637,-0.0508 -0.2568,-0.0508 -0.1919,0 -0.3443,0.0593 -0.4601,0.17498 -0.1185,0.11853 -0.1749,0.29069 -0.1749,0.51647 v 0.74224 h 0.3669 v -0.74224 c 0,-0.11289 0.02,-0.19474 0.065,-0.25118 0.045,-0.0536 0.1129,-0.0819 0.2032,-0.0819 0.09,0 0.158,0.0282 0.2032,0.0819 0.042,0.0564 0.065,0.13829 0.065,0.25118 v 0.74224 h 0.3669 v -0.74224 c 0,-0.11289 0.02,-0.19474 0.065,-0.25118 0.045,-0.0536 0.1129,-0.0819 0.2032,-0.0819 0.09,0 0.158,0.0282 0.2032,0.0819 0.042,0.0564 0.065,0.13829 0.065,0.25118 v 0.74224 h 0.3669 v -0.74224 c 0,-0.22578 -0.059,-0.39794 -0.175,-0.51647 z"
           style="font-style:normal;font-variant:normal;font-weight:normal;font-stretch:normal;font-size:2.82222223px;font-family:NordiquePro-Bold;-inkscape-font-specification:'NordiquePro-Bold, Normal';font-variant-ligatures:normal;font-variant-caps:normal;font-variant-numeric:normal;font-feature-settings:normal;text-align:start;writing-mode:lr-tb;text-anchor:start;fill:#000000;fill-opacity:1;stroke-width:0.26458332"
           id="path4997" />
        <path
           inkscape:connector-curvature="0"
           d="m 1407.8943,358.27571 c -0.062,0.11289 -0.093,0.23143 -0.093,0.36125 0,0.13264 0.031,0.254 0.096,0.36406 0.065,0.11289 0.1524,0.20038 0.2653,0.26529 0.11,0.0649 0.2314,0.096 0.3669,0.096 0.1467,0 0.2794,-0.0395 0.4007,-0.12136 0.1185,-0.079 0.2089,-0.18626 0.2681,-0.31609 l -0.4374,-0.003 c -0.031,0.0254 -0.065,0.0452 -0.1016,0.0593 -0.037,0.0169 -0.085,0.0226 -0.1411,0.0226 -0.085,0 -0.1553,-0.0198 -0.2117,-0.0593 -0.056,-0.0395 -0.093,-0.096 -0.1101,-0.16651 h 1.0471 c 0.01,-0.0565 0.011,-0.11289 0.011,-0.17498 -0.01,-0.14111 -0.042,-0.26529 -0.1157,-0.37253 -0.073,-0.10442 -0.1637,-0.18345 -0.2738,-0.23989 -0.1129,-0.0565 -0.2286,-0.0847 -0.3471,-0.0847 -0.1327,0 -0.254,0.0339 -0.3641,0.1016 -0.1101,0.0677 -0.1976,0.15522 -0.2596,0.26811 z m 0.968,0.20885 h -0.6661 c 0.028,-0.0677 0.073,-0.12136 0.1299,-0.16087 0.056,-0.0395 0.1241,-0.0593 0.2032,-0.0593 0.071,0 0.1354,0.0226 0.1975,0.0621 0.062,0.0395 0.1073,0.0931 0.1355,0.15805 z"
           style="font-style:normal;font-variant:normal;font-weight:normal;font-stretch:normal;font-size:2.82222223px;font-family:NordiquePro-Bold;-inkscape-font-specification:'NordiquePro-Bold, Normal';font-variant-ligatures:normal;font-variant-caps:normal;font-variant-numeric:normal;font-feature-settings:normal;text-align:start;writing-mode:lr-tb;text-anchor:start;fill:#000000;fill-opacity:1;stroke-width:0.26458332"
           id="path4999" />
        <path
           inkscape:connector-curvature="0"
           d="m 1410.65,358.59745 v 0.74224 h -0.3669 v -0.74224 c 0,-0.11289 -0.023,-0.19756 -0.062,-0.25118 -0.04,-0.0536 -0.1044,-0.0819 -0.1919,-0.0819 -0.09,0 -0.1552,0.0282 -0.1947,0.0819 -0.039,0.0536 -0.059,0.13829 -0.059,0.25118 v 0.74224 h -0.3669 v -0.74224 c 0,-0.2286 0.056,-0.40076 0.1694,-0.51647 0.1129,-0.11571 0.2624,-0.17498 0.4515,-0.17498 0.1863,0 0.3387,0.0593 0.4516,0.17498 0.1129,0.11571 0.1693,0.28787 0.1693,0.51647 z"
           style="font-style:normal;font-variant:normal;font-weight:normal;font-stretch:normal;font-size:2.82222223px;font-family:NordiquePro-Bold;-inkscape-font-specification:'NordiquePro-Bold, Normal';font-variant-ligatures:normal;font-variant-caps:normal;font-variant-numeric:normal;font-feature-settings:normal;text-align:start;writing-mode:lr-tb;text-anchor:start;fill:#000000;fill-opacity:1;stroke-width:0.26458332"
           id="path5001" />
        <path
           inkscape:connector-curvature="0"
           d="m 1411.3005,358.287 h 0.254 v -0.35842 h -0.254 v -0.56162 h -0.3669 v 0.56162 h -0.2089 v 0.35842 h 0.2089 v 0.38665 c 0,0.2286 0.054,0.39793 0.1665,0.508 0.1129,0.11289 0.2624,0.16651 0.4544,0.16651 v -0.35842 c -0.09,0 -0.1553,-0.0226 -0.1948,-0.0734 -0.039,-0.048 -0.059,-0.12982 -0.059,-0.24271 z"
           style="font-style:normal;font-variant:normal;font-weight:normal;font-stretch:normal;font-size:2.82222223px;font-family:NordiquePro-Bold;-inkscape-font-specification:'NordiquePro-Bold, Normal';font-variant-ligatures:normal;font-variant-caps:normal;font-variant-numeric:normal;font-feature-settings:normal;text-align:start;writing-mode:lr-tb;text-anchor:start;fill:#000000;fill-opacity:1;stroke-width:0.26458332"
           id="path5003" />
      </g>
      <path
         id="path5008"
         d="m 816.12203,440.36963 h 87.76 c 0.2873,0 0.51849,0.23125 0.51849,0.5185 v 49.66001 c 0,0.28724 -0.23119,0.51848 -0.51849,0.51848 h -87.76 c -0.2872,0 -0.5185,-0.23124 -0.5185,-0.51848 v -49.66002 c 0,-0.28724 0.2313,-0.51849 0.5185,-0.51849 z"
         style="display:inline;opacity:1;fill:#005687;fill-opacity:1;stroke:#000000;stroke-width:0.1030033;stroke-miterlimit:4;stroke-dasharray:none;stroke-opacity:1"
         inkscape:connector-curvature="0" />
      <path
         inkscape:connector-curvature="0"
         style="display:inline;opacity:1;fill:#ffffff;fill-opacity:1;stroke:#ffffff;stroke-width:0.24897368;stroke-opacity:1"
         d="m 870.51654,440.32534 c -1.20445,0.0159 -5.43314,0.0443 -21.07777,0.0445 a 26.489975,26.489975 0 0 0 -15.9267,24.25846 26.489975,26.489975 0 0 0 26.48987,26.48987 26.489975,26.489975 0 0 0 26.48985,-26.48992 26.489975,26.489975 0 0 0 -15.97525,-24.30291 z"
         id="path5010" />
      <g
         transform="matrix(0.95609906,0,0,0.95609906,-478.69226,64.176688)"
         aria-label="www.buildhello.ca"
         style="font-style:normal;font-variant:normal;font-weight:normal;font-stretch:normal;font-size:6.3499999px;line-height:1em;font-family:NordiquePro-Bold;-inkscape-font-specification:'NordiquePro-Bold, Normal';font-variant-ligatures:normal;font-variant-caps:normal;font-variant-numeric:normal;font-feature-settings:normal;text-align:start;letter-spacing:0px;word-spacing:0.0079375px;writing-mode:lr-tb;text-anchor:start;display:inline;fill:#000000;fill-opacity:1;stroke:none;stroke-width:0.27673215"
         id="g5047">
        <path
           inkscape:connector-curvature="0"
           d="m 1380.2229,417.24874 h -0.8382 l -0.5651,2.08915 -0.5652,-2.08915 h -0.8255 l -0.5715,2.08915 -0.5588,-2.08915 h -0.8382 l 0.9843,3.175 h 0.8255 l 0.5715,-1.905 0.5651,1.905 h 0.8255 z"
           style="font-style:normal;font-variant:normal;font-weight:normal;font-stretch:normal;font-size:6.3499999px;font-family:NordiquePro-Bold;-inkscape-font-specification:'NordiquePro-Bold, Normal';font-variant-ligatures:normal;font-variant-caps:normal;font-variant-numeric:normal;font-feature-settings:normal;text-align:start;writing-mode:lr-tb;text-anchor:start;fill:#000000;fill-opacity:1;stroke-width:0.27673215"
           id="path5012" />
        <path
           inkscape:connector-curvature="0"
           d="m 1384.9854,417.24874 h -0.8382 l -0.5651,2.08915 -0.5652,-2.08915 h -0.8255 l -0.5715,2.08915 -0.5588,-2.08915 h -0.8382 l 0.9843,3.175 h 0.8255 l 0.5715,-1.905 0.5651,1.905 h 0.8255 z"
           style="font-style:normal;font-variant:normal;font-weight:normal;font-stretch:normal;font-size:6.3499999px;font-family:NordiquePro-Bold;-inkscape-font-specification:'NordiquePro-Bold, Normal';font-variant-ligatures:normal;font-variant-caps:normal;font-variant-numeric:normal;font-feature-settings:normal;text-align:start;writing-mode:lr-tb;text-anchor:start;fill:#000000;fill-opacity:1;stroke-width:0.27673215"
           id="path5014" />
        <path
           inkscape:connector-curvature="0"
           d="m 1389.7479,417.24874 h -0.8382 l -0.5651,2.08915 -0.5652,-2.08915 h -0.8255 l -0.5715,2.08915 -0.5588,-2.08915 h -0.8382 l 0.9843,3.175 h 0.8255 l 0.5715,-1.905 0.5651,1.905 h 0.8255 z"
           style="font-style:normal;font-variant:normal;font-weight:normal;font-stretch:normal;font-size:6.3499999px;font-family:NordiquePro-Bold;-inkscape-font-specification:'NordiquePro-Bold, Normal';font-variant-ligatures:normal;font-variant-caps:normal;font-variant-numeric:normal;font-feature-settings:normal;text-align:start;writing-mode:lr-tb;text-anchor:start;fill:#000000;fill-opacity:1;stroke-width:0.27673215"
           id="path5016" />
        <path
           inkscape:connector-curvature="0"
           d="m 1389.7207,420.42374 v -0.83185 h 0.8255 v 0.83185 z"
           style="font-style:normal;font-variant:normal;font-weight:normal;font-stretch:normal;font-size:6.3499999px;font-family:NordiquePro-Bold;-inkscape-font-specification:'NordiquePro-Bold, Normal';font-variant-ligatures:normal;font-variant-caps:normal;font-variant-numeric:normal;font-feature-settings:normal;text-align:start;writing-mode:lr-tb;text-anchor:start;fill:#000000;fill-opacity:1;stroke-width:0.27673215"
           id="path5018" />
        <path
           inkscape:connector-curvature="0"
           d="m 1390.8934,415.97874 v 2.8575 c 0,0.29845 0.07,0.5715 0.2159,0.8255 0.1461,0.254 0.3429,0.45085 0.5969,0.5969 0.2477,0.14605 0.5207,0.2159 0.8192,0.2159 0.2921,0 0.5651,-0.0698 0.8191,-0.2159 0.2477,-0.14605 0.4445,-0.3429 0.5969,-0.5969 0.1461,-0.254 0.2223,-0.52705 0.2223,-0.8255 0,-0.2921 -0.076,-0.56515 -0.2223,-0.81915 -0.1524,-0.254 -0.3492,-0.45085 -0.5969,-0.5969 -0.254,-0.14605 -0.527,-0.22225 -0.8191,-0.22225 -0.3112,0 -0.5779,0.0825 -0.8001,0.2413 v -1.4605 z m 1.0541,2.26695 c 0.1524,-0.15875 0.3493,-0.2413 0.5842,-0.2413 0.2286,0 0.4255,0.0826 0.5779,0.2413 0.1524,0.15875 0.2286,0.3556 0.2286,0.59055 0,0.2413 -0.076,0.43815 -0.2286,0.5969 -0.1524,0.15875 -0.3493,0.23495 -0.5779,0.23495 -0.2349,0 -0.4318,-0.0762 -0.5842,-0.23495 -0.1587,-0.15875 -0.2349,-0.3556 -0.2349,-0.5969 0,-0.23495 0.076,-0.4318 0.2349,-0.59055 z"
           style="font-style:normal;font-variant:normal;font-weight:normal;font-stretch:normal;font-size:6.3499999px;font-family:NordiquePro-Bold;-inkscape-font-specification:'NordiquePro-Bold, Normal';font-variant-ligatures:normal;font-variant-caps:normal;font-variant-numeric:normal;font-feature-settings:normal;text-align:start;writing-mode:lr-tb;text-anchor:start;fill:#000000;fill-opacity:1;stroke-width:0.27673215"
           id="path5020" />
        <path
           inkscape:connector-curvature="0"
           d="m 1396.4834,417.24874 h 0.8255 v 1.67005 c 0,0.5207 -0.127,0.90805 -0.381,1.1684 -0.254,0.26035 -0.5969,0.38735 -1.016,0.38735 -0.4254,0 -0.762,-0.127 -1.016,-0.38735 -0.254,-0.26035 -0.381,-0.6477 -0.381,-1.1684 v -1.67005 h 0.8255 v 1.67005 c 0,0.26035 0.044,0.45085 0.1334,0.5715 0.089,0.12065 0.2349,0.1778 0.4381,0.1778 0.1969,0 0.3429,-0.0571 0.4318,-0.1778 0.089,-0.12065 0.1397,-0.31115 0.1397,-0.5715 z"
           style="font-style:normal;font-variant:normal;font-weight:normal;font-stretch:normal;font-size:6.3499999px;font-family:NordiquePro-Bold;-inkscape-font-specification:'NordiquePro-Bold, Normal';font-variant-ligatures:normal;font-variant-caps:normal;font-variant-numeric:normal;font-feature-settings:normal;text-align:start;writing-mode:lr-tb;text-anchor:start;fill:#000000;fill-opacity:1;stroke-width:0.27673215"
           id="path5022" />
        <path
           inkscape:connector-curvature="0"
           d="m 1397.8916,416.77249 c 0.095,0.0953 0.2159,0.1397 0.3556,0.1397 0.1334,0 0.2477,-0.0444 0.3429,-0.1397 0.095,-0.0953 0.1461,-0.2159 0.1461,-0.3556 0,-0.13335 -0.051,-0.24765 -0.1461,-0.3429 -0.095,-0.0952 -0.2095,-0.14605 -0.3429,-0.14605 -0.1397,0 -0.2603,0.0508 -0.3556,0.14605 -0.095,0.0953 -0.1397,0.20955 -0.1397,0.3429 0,0.1397 0.044,0.26035 0.1397,0.3556 z m -0.057,0.47625 v 3.175 h 0.8255 v -3.175 z"
           style="font-style:normal;font-variant:normal;font-weight:normal;font-stretch:normal;font-size:6.3499999px;font-family:NordiquePro-Bold;-inkscape-font-specification:'NordiquePro-Bold, Normal';font-variant-ligatures:normal;font-variant-caps:normal;font-variant-numeric:normal;font-feature-settings:normal;text-align:start;writing-mode:lr-tb;text-anchor:start;fill:#000000;fill-opacity:1;stroke-width:0.27673215"
           id="path5024" />
        <path
           inkscape:connector-curvature="0"
           d="m 1399.2402,420.42374 h 0.8255 v -4.445 h -0.8255 z"
           style="font-style:normal;font-variant:normal;font-weight:normal;font-stretch:normal;font-size:6.3499999px;font-family:NordiquePro-Bold;-inkscape-font-specification:'NordiquePro-Bold, Normal';font-variant-ligatures:normal;font-variant-caps:normal;font-variant-numeric:normal;font-feature-settings:normal;text-align:start;writing-mode:lr-tb;text-anchor:start;fill:#000000;fill-opacity:1;stroke-width:0.27673215"
           id="path5026" />
        <path
           inkscape:connector-curvature="0"
           d="m 1403.4595,419.66174 c 0.146,-0.254 0.2222,-0.52705 0.2222,-0.8255 v -2.8575 h -0.8318 v 1.4605 c -0.2286,-0.15875 -0.4953,-0.2413 -0.8001,-0.2413 -0.2985,0 -0.5715,0.0762 -0.8192,0.22225 -0.254,0.14605 -0.4508,0.3429 -0.5969,0.5969 -0.1524,0.254 -0.2222,0.52705 -0.2222,0.81915 0,0.29845 0.07,0.5715 0.2222,0.8255 0.1461,0.254 0.3429,0.45085 0.5969,0.5969 0.2477,0.14605 0.5207,0.2159 0.8192,0.2159 0.2921,0 0.5651,-0.0698 0.8191,-0.2159 0.2477,-0.14605 0.4445,-0.3429 0.5906,-0.5969 z m -1.9939,-1.41605 c 0.1524,-0.15875 0.3429,-0.2413 0.5778,-0.2413 0.2286,0 0.4255,0.0826 0.5842,0.2413 0.1524,0.15875 0.235,0.3556 0.235,0.59055 0,0.2413 -0.083,0.43815 -0.235,0.5969 -0.1587,0.15875 -0.3556,0.23495 -0.5842,0.23495 -0.2349,0 -0.4254,-0.0762 -0.5778,-0.23495 -0.1524,-0.15875 -0.2286,-0.3556 -0.2286,-0.5969 0,-0.23495 0.076,-0.4318 0.2286,-0.59055 z"
           style="font-style:normal;font-variant:normal;font-weight:normal;font-stretch:normal;font-size:6.3499999px;font-family:NordiquePro-Bold;-inkscape-font-specification:'NordiquePro-Bold, Normal';font-variant-ligatures:normal;font-variant-caps:normal;font-variant-numeric:normal;font-feature-settings:normal;text-align:start;writing-mode:lr-tb;text-anchor:start;fill:#000000;fill-opacity:1;stroke-width:0.27673215"
           id="path5028" />
        <path
           inkscape:connector-curvature="0"
           d="m 1406.6017,417.59164 c -0.254,-0.26035 -0.5969,-0.3937 -1.016,-0.3937 -0.2286,0 -0.4191,0.0571 -0.5715,0.15875 v -1.37795 h -0.8255 v 4.445 h 0.8255 v -1.67005 c 0,-0.254 0.044,-0.4445 0.1334,-0.56515 0.089,-0.12065 0.2349,-0.18415 0.4381,-0.18415 0.1969,0 0.3429,0.0635 0.4318,0.18415 0.089,0.12065 0.1397,0.31115 0.1397,0.56515 v 1.67005 h 0.8255 v -1.67005 c 0,-0.51435 -0.127,-0.9017 -0.381,-1.16205 z"
           style="font-style:normal;font-variant:normal;font-weight:normal;font-stretch:normal;font-size:6.3499999px;font-family:NordiquePro-Bold;-inkscape-font-specification:'NordiquePro-Bold, Normal';font-variant-ligatures:normal;font-variant-caps:normal;font-variant-numeric:normal;font-feature-settings:normal;text-align:start;writing-mode:lr-tb;text-anchor:start;fill:#000000;fill-opacity:1;stroke-width:0.27673215"
           id="path5030" />
        <path
           inkscape:connector-curvature="0"
           d="m 1407.5415,418.02979 c -0.1397,0.254 -0.2095,0.5207 -0.2095,0.8128 0,0.29845 0.07,0.5715 0.2159,0.81915 0.146,0.254 0.3429,0.45085 0.5969,0.5969 0.2476,0.14605 0.5207,0.2159 0.8255,0.2159 0.3302,0 0.6286,-0.0889 0.9017,-0.27305 0.2667,-0.1778 0.4699,-0.4191 0.6032,-0.7112 l -0.9842,-0.006 c -0.07,0.0571 -0.1461,0.1016 -0.2286,0.13335 -0.083,0.0381 -0.1905,0.0508 -0.3175,0.0508 -0.1905,0 -0.3493,-0.0444 -0.4763,-0.13335 -0.127,-0.0889 -0.2095,-0.2159 -0.2476,-0.37465 h 2.3558 c 0.019,-0.127 0.025,-0.254 0.025,-0.3937 -0.013,-0.3175 -0.095,-0.5969 -0.2603,-0.8382 -0.1651,-0.23495 -0.3683,-0.41275 -0.616,-0.53975 -0.254,-0.127 -0.5143,-0.1905 -0.781,-0.1905 -0.2985,0 -0.5715,0.0762 -0.8192,0.2286 -0.2476,0.1524 -0.4445,0.34925 -0.5842,0.60325 z m 2.1781,0.4699 h -1.4986 c 0.063,-0.1524 0.1651,-0.27305 0.2921,-0.36195 0.127,-0.0889 0.2794,-0.13335 0.4572,-0.13335 0.1587,0 0.3048,0.0508 0.4445,0.1397 0.1397,0.0889 0.2413,0.20955 0.3048,0.3556 z"
           style="font-style:normal;font-variant:normal;font-weight:normal;font-stretch:normal;font-size:6.3499999px;font-family:NordiquePro-Bold;-inkscape-font-specification:'NordiquePro-Bold, Normal';font-variant-ligatures:normal;font-variant-caps:normal;font-variant-numeric:normal;font-feature-settings:normal;text-align:start;writing-mode:lr-tb;text-anchor:start;fill:#000000;fill-opacity:1;stroke-width:0.27673215"
           id="path5032" />
        <path
           inkscape:connector-curvature="0"
           d="m 1410.948,420.42374 h 0.8255 v -4.445 h -0.8255 z"
           style="font-style:normal;font-variant:normal;font-weight:normal;font-stretch:normal;font-size:6.3499999px;font-family:NordiquePro-Bold;-inkscape-font-specification:'NordiquePro-Bold, Normal';font-variant-ligatures:normal;font-variant-caps:normal;font-variant-numeric:normal;font-feature-settings:normal;text-align:start;writing-mode:lr-tb;text-anchor:start;fill:#000000;fill-opacity:1;stroke-width:0.27673215"
           id="path5034" />
        <path
           inkscape:connector-curvature="0"
           d="m 1412.2751,420.42374 h 0.8255 v -4.445 h -0.8255 z"
           style="font-style:normal;font-variant:normal;font-weight:normal;font-stretch:normal;font-size:6.3499999px;font-family:NordiquePro-Bold;-inkscape-font-specification:'NordiquePro-Bold, Normal';font-variant-ligatures:normal;font-variant-caps:normal;font-variant-numeric:normal;font-feature-settings:normal;text-align:start;writing-mode:lr-tb;text-anchor:start;fill:#000000;fill-opacity:1;stroke-width:0.27673215"
           id="path5036" />
        <path
           inkscape:connector-curvature="0"
           d="m 1415.9038,417.42019 c -0.254,-0.14605 -0.5271,-0.22225 -0.8192,-0.22225 -0.2984,0 -0.5715,0.0762 -0.8255,0.22225 -0.254,0.14605 -0.4508,0.3429 -0.5969,0.5969 -0.146,0.254 -0.2159,0.52705 -0.2159,0.81915 0,0.29845 0.07,0.5715 0.2159,0.8255 0.1461,0.254 0.3429,0.45085 0.5969,0.5969 0.254,0.14605 0.5271,0.2159 0.8255,0.2159 0.2921,0 0.5652,-0.0698 0.8192,-0.2159 0.254,-0.14605 0.4508,-0.3429 0.5969,-0.5969 0.146,-0.254 0.2222,-0.52705 0.2222,-0.8255 0,-0.2921 -0.076,-0.56515 -0.2222,-0.81915 -0.1461,-0.254 -0.3429,-0.45085 -0.5969,-0.5969 z m -1.397,0.8255 c 0.1524,-0.15875 0.3492,-0.2413 0.5842,-0.2413 0.2286,0 0.4254,0.0826 0.5778,0.2413 0.1524,0.15875 0.2286,0.3556 0.2286,0.59055 0,0.2413 -0.076,0.43815 -0.2286,0.5969 -0.1524,0.15875 -0.3492,0.23495 -0.5778,0.23495 -0.235,0 -0.4318,-0.0762 -0.5842,-0.23495 -0.1588,-0.15875 -0.235,-0.3556 -0.235,-0.5969 0,-0.23495 0.076,-0.4318 0.235,-0.59055 z"
           style="font-style:normal;font-variant:normal;font-weight:normal;font-stretch:normal;font-size:6.3499999px;font-family:NordiquePro-Bold;-inkscape-font-specification:'NordiquePro-Bold, Normal';font-variant-ligatures:normal;font-variant-caps:normal;font-variant-numeric:normal;font-feature-settings:normal;text-align:start;writing-mode:lr-tb;text-anchor:start;fill:#000000;fill-opacity:1;stroke-width:0.27673215"
           id="path5038" />
        <path
           inkscape:connector-curvature="0"
           d="m 1416.919,420.42374 v -0.83185 h 0.8255 v 0.83185 z"
           style="font-style:normal;font-variant:normal;font-weight:normal;font-stretch:normal;font-size:6.3499999px;font-family:NordiquePro-Bold;-inkscape-font-specification:'NordiquePro-Bold, Normal';font-variant-ligatures:normal;font-variant-caps:normal;font-variant-numeric:normal;font-feature-settings:normal;text-align:start;writing-mode:lr-tb;text-anchor:start;fill:#000000;fill-opacity:1;stroke-width:0.27673215"
           id="path5040" />
        <path
           inkscape:connector-curvature="0"
           d="m 1418.8728,420.25864 c 0.254,0.14605 0.5271,0.2159 0.8255,0.2159 0.3683,0 0.6922,-0.10795 0.9843,-0.32385 0.2857,-0.2159 0.4826,-0.48895 0.5842,-0.83185 h -0.8954 c -0.076,0.1143 -0.1714,0.19685 -0.2857,0.26035 -0.1143,0.0635 -0.2413,0.0889 -0.381,0.0889 -0.235,0 -0.4318,-0.0762 -0.5842,-0.23495 -0.1588,-0.15875 -0.235,-0.3556 -0.235,-0.5969 0,-0.23495 0.076,-0.4318 0.235,-0.59055 0.1524,-0.15875 0.3492,-0.2413 0.5842,-0.2413 0.146,0 0.2794,0.0381 0.4,0.1016 0.1207,0.0698 0.2159,0.1651 0.2921,0.2794 h 0.8763 c -0.1016,-0.3429 -0.2921,-0.62865 -0.5842,-0.8509 -0.2921,-0.22225 -0.6223,-0.33655 -0.9906,-0.33655 -0.2984,0 -0.5715,0.0762 -0.8255,0.22225 -0.254,0.14605 -0.4508,0.3429 -0.5969,0.5969 -0.146,0.254 -0.2159,0.52705 -0.2159,0.81915 0,0.29845 0.07,0.5715 0.2159,0.8255 0.1461,0.254 0.3429,0.45085 0.5969,0.5969 z"
           style="font-style:normal;font-variant:normal;font-weight:normal;font-stretch:normal;font-size:6.3499999px;font-family:NordiquePro-Bold;-inkscape-font-specification:'NordiquePro-Bold, Normal';font-variant-ligatures:normal;font-variant-caps:normal;font-variant-numeric:normal;font-feature-settings:normal;text-align:start;writing-mode:lr-tb;text-anchor:start;fill:#000000;fill-opacity:1;stroke-width:0.27673215"
           id="path5043" />
        <path
           inkscape:connector-curvature="0"
           d="m 1422.4138,420.25864 c 0.2477,0.14605 0.5207,0.2159 0.8192,0.2159 0.1778,0 0.3429,-0.0381 0.5016,-0.1143 0.1524,-0.0762 0.254,-0.1651 0.3048,-0.27305 v 0.33655 h 0.8255 v -1.5875 c 0,-0.2921 -0.076,-0.56515 -0.2222,-0.81915 -0.1461,-0.254 -0.3429,-0.45085 -0.5906,-0.5969 -0.254,-0.14605 -0.527,-0.22225 -0.8191,-0.22225 -0.2985,0 -0.5715,0.0762 -0.8192,0.22225 -0.254,0.14605 -0.4508,0.3429 -0.5969,0.5969 -0.1524,0.254 -0.2222,0.52705 -0.2222,0.81915 0,0.29845 0.07,0.5715 0.2222,0.8255 0.1461,0.254 0.3429,0.45085 0.5969,0.5969 z m 1.4034,-0.8255 c -0.1524,0.15875 -0.3493,0.23495 -0.5779,0.23495 -0.2349,0 -0.4318,-0.0762 -0.5842,-0.23495 -0.1587,-0.15875 -0.2349,-0.3556 -0.2349,-0.5969 0,-0.23495 0.076,-0.4318 0.2349,-0.59055 0.1524,-0.15875 0.3493,-0.2413 0.5842,-0.2413 0.2286,0 0.4255,0.0826 0.5779,0.2413 0.1524,0.15875 0.2286,0.3556 0.2286,0.59055 0,0.2413 -0.076,0.43815 -0.2286,0.5969 z"
           style="font-style:normal;font-variant:normal;font-weight:normal;font-stretch:normal;font-size:6.3499999px;font-family:NordiquePro-Bold;-inkscape-font-specification:'NordiquePro-Bold, Normal';font-variant-ligatures:normal;font-variant-caps:normal;font-variant-numeric:normal;font-feature-settings:normal;text-align:start;writing-mode:lr-tb;text-anchor:start;fill:#000000;fill-opacity:1;stroke-width:0.27673215"
           id="path5045" />
      </g>
      <path
         style="color:#000000;font-style:normal;font-variant:normal;font-weight:normal;font-stretch:normal;font-size:medium;line-height:normal;font-family:sans-serif;font-variant-ligatures:normal;font-variant-position:normal;font-variant-caps:normal;font-variant-numeric:normal;font-variant-alternates:normal;font-feature-settings:normal;text-indent:0;text-align:start;text-decoration:none;text-decoration-line:none;text-decoration-style:solid;text-decoration-color:#000000;letter-spacing:normal;word-spacing:normal;text-transform:none;writing-mode:lr-tb;direction:ltr;text-orientation:mixed;dominant-baseline:auto;baseline-shift:baseline;text-anchor:start;white-space:normal;shape-padding:0;clip-rule:nonzero;display:inline;overflow:visible;visibility:visible;opacity:1;isolation:auto;mix-blend-mode:normal;color-interpolation:sRGB;color-interpolation-filters:linearRGB;solid-color:#000000;solid-opacity:1;vector-effect:none;fill:#ffffff;fill-opacity:1;fill-rule:nonzero;stroke:none;stroke-width:0.26458332px;stroke-linecap:butt;stroke-linejoin:miter;stroke-miterlimit:4;stroke-dasharray:none;stroke-dashoffset:0;stroke-opacity:1;color-rendering:auto;image-rendering:auto;shape-rendering:auto;text-rendering:auto;enable-background:accumulate"
         d="m 886.29203,464.48941 v 0.26562 h 18.2226 v -0.26562 z"
         id="path5049"
         inkscape:connector-curvature="0" />
      <g
         style="fill:#ffffff"
         id="g5055"
         transform="matrix(0.98174868,0,0,0.98174868,863.45868,380.63094)">
        <circle
           style="opacity:1;fill:#ffffff;fill-opacity:1;stroke:#ffffff;stroke-width:0.18086794;stroke-opacity:1"
           id="circle5051"
           cx="-38.588959"
           cy="18.866577"
           r="4.8645" />
        <path
           style="opacity:1;fill:#ffffff;fill-opacity:1;stroke:none;stroke-width:0.27916574;stroke-opacity:1"
           d="m -38.590767,14.00201 a 4.8645,4.8645 0 0 0 -0.409794,0.02067 4.8645,4.8645 0 0 1 0.409794,-0.02067 z m 0.413928,0.02067 a 4.8645,4.8645 0 0 1 0.244947,0.02946 4.8645,4.8645 0 0 0 -0.244947,-0.02946 z m -1.069702,0.02946 a 4.8645,4.8645 0 0 0 -0.239262,0.03669 4.8645,4.8645 0 0 1 0.239262,-0.03669 z m 1.556494,0.03669 a 4.8645,4.8645 0 0 1 0.224793,0.05064 4.8645,4.8645 0 0 0 -0.224793,-0.05064 z m -2.028817,0.05219 a 4.8645,4.8645 0 0 0 -0.240295,0.06098 4.8645,4.8645 0 0 1 0.240295,-0.06098 z m 2.50424,0.06201 a 4.8645,4.8645 0 0 1 0.221692,0.0739 4.8645,4.8645 0 0 0 -0.221692,-0.0739 z m -2.975529,0.07597 a 4.8645,4.8645 0 0 0 -0.224275,0.08165 4.8645,4.8645 0 0 1 0.224275,-0.08165 z m 3.427181,0.08217 a 4.8645,4.8645 0 0 1 0.227377,0.101285 4.8645,4.8645 0 0 0 -0.227377,-0.101285 z m -3.876249,0.100254 a 4.8645,4.8645 0 0 0 -0.219108,0.105936 4.8645,4.8645 0 0 1 0.219108,-0.105936 z m 4.317049,0.104386 a 4.8645,4.8645 0 0 1 0.221175,0.127124 4.8645,4.8645 0 0 0 -0.221175,-0.127124 z m -4.745446,0.121438 a 4.8645,4.8645 0 0 0 -0.205156,0.126093 4.8645,4.8645 0 0 1 0.205156,-0.126093 z m 5.161442,0.125058 a 4.8645,4.8645 0 0 1 0.202054,0.144177 4.8645,4.8645 0 0 0 -0.202054,-0.144177 z m -5.571752,0.147278 a 4.8645,4.8645 0 0 0 -0.187069,0.142626 4.8645,4.8645 0 0 1 0.187069,-0.142626 z m 5.969144,0.145727 a 4.8645,4.8645 0 0 1 0.175183,0.153995 4.8645,4.8645 0 0 0 -0.175183,-0.153995 z m -6.340699,0.159163 a 4.8645,4.8645 0 0 0 -0.177249,0.164332 4.8645,4.8645 0 0 1 0.177249,-0.164332 z m 6.698299,0.164848 a 4.8645,4.8645 0 0 1 0.170016,0.182417 4.8645,4.8645 0 0 0 -0.170016,-0.182417 z m -7.039881,0.176734 a 4.8645,4.8645 0 0 0 -0.161745,0.183452 4.8645,4.8645 0 0 1 0.161745,-0.183452 z m 7.363376,0.180351 a 4.8645,4.8645 0 0 1 0.156579,0.206189 4.8645,4.8645 0 0 0 -0.156579,-0.206189 z m -7.673433,0.198437 a 4.8645,4.8645 0 0 0 -0.137975,0.19327 4.8645,4.8645 0 0 1 0.137975,-0.19327 z m 7.961787,0.19172 a 4.8645,4.8645 0 0 1 0.132292,0.21549 4.8645,4.8645 0 0 0 -0.132292,-0.21549 z m -8.231538,0.216008 a 4.8645,4.8645 0 0 0 -0.117306,0.204637 4.8645,4.8645 0 0 1 0.117306,-0.204637 z m 1.10019,0.158129 v 2.944005 c 0,0.307501 0.07223,0.588886 0.222727,0.850596 0.150499,0.261689 0.353249,0.464468 0.614949,0.61495 0.2551,0.150508 0.535859,0.222207 0.843359,0.222207 0.301,0 0.582693,-0.07177 0.844393,-0.222207 0.2552,-0.150482 0.457949,-0.353261 0.61495,-0.61495 0.0612,-0.10626 0.107177,-0.217054 0.144177,-0.330213 v 1.164788 h 0.850594 v -1.720826 c 0,-0.26171 0.04646,-0.458073 0.137459,-0.582393 0.0916,-0.12437 0.241835,-0.189653 0.451135,-0.189653 0.2028,0 0.352934,0.06532 0.444935,0.189653 0.0916,0.12432 0.14376,0.320683 0.14366,0.582393 v 1.720826 h 0.850594 v -1.720826 c 0,-0.52995 -0.130524,-0.929103 -0.392224,-1.197343 -0.2617,-0.268261 -0.615065,-0.405659 -1.046965,-0.405659 -0.2355,0 -0.431594,0.0585 -0.588594,0.163295 v -1.41955 h -0.850594 v 2.380734 c -0.0369,-0.112771 -0.08318,-0.223446 -0.144177,-0.329697 -0.157001,-0.2617 -0.35975,-0.46446 -0.61495,-0.61495 -0.2617,-0.150429 -0.543393,-0.228926 -0.844393,-0.228926 -0.3205,0 -0.594722,0.08497 -0.823722,0.248563 v -1.504817 z m 7.381979,0.04806 a 4.8645,4.8645 0 0 1 0.104903,0.217558 4.8645,4.8645 0 0 0 -0.104903,-0.217558 z m -8.705411,0.217558 a 4.8645,4.8645 0 0 0 -0.100253,0.224793 4.8645,4.8645 0 0 1 0.100253,-0.224793 z m 8.91005,0.223243 a 4.8645,4.8645 0 0 1 0.08216,0.224792 4.8645,4.8645 0 0 0 -0.08216,-0.224792 z m -9.093502,0.229444 a 4.8645,4.8645 0 0 0 -0.07545,0.22634 4.8645,4.8645 0 0 1 0.07545,-0.22634 z m 9.254215,0.230476 a 4.8645,4.8645 0 0 1 0.05788,0.227375 4.8645,4.8645 0 0 0 -0.05788,-0.227375 z m -9.391674,0.238744 a 4.8645,4.8645 0 0 0 -0.05168,0.23151 4.8645,4.8645 0 0 1 0.05168,-0.23151 z m 9.505363,0.236161 a 4.8645,4.8645 0 0 1 0.03514,0.235128 4.8645,4.8645 0 0 0 -0.03514,-0.235128 z m -9.593731,0.234612 a 4.8645,4.8645 0 0 0 -0.02945,0.24598 4.8645,4.8645 0 0 1 0.02945,-0.24598 z m 9.658326,0.239778 a 4.8645,4.8645 0 0 1 0.02067,0.417545 4.8645,4.8645 0 0 0 -0.02067,-0.417545 z m -6.237862,0.188619 c 0.2356,0 0.438213,0.08541 0.595313,0.249082 0.1566,0.163568 0.235644,0.366151 0.235644,0.608229 0,0.248611 -0.07865,0.45139 -0.235644,0.61495 -0.1571,0.163642 -0.359713,0.241848 -0.595313,0.241848 -0.242,0 -0.444414,-0.07831 -0.601514,-0.241848 -0.1633,-0.16356 -0.242362,-0.366339 -0.242362,-0.61495 0,-0.242078 0.07886,-0.444661 0.242362,-0.608229 0.1571,-0.163582 0.359514,-0.249082 0.601514,-0.249082 z m -3.470589,0.230995 a 4.8645,4.8645 0 0 0 0.02067,0.409276 4.8645,4.8645 0 0 1 -0.02067,-0.409276 z m 9.707934,0.417028 a 4.8645,4.8645 0 0 1 -0.02842,0.236678 4.8645,4.8645 0 0 0 0.02842,-0.236678 z m -9.65729,0.240295 a 4.8645,4.8645 0 0 0 0.03617,0.238228 4.8645,4.8645 0 0 1 -0.03617,-0.238228 z m 9.593212,0.233576 a 4.8645,4.8645 0 0 1 -0.05581,0.248566 4.8645,4.8645 0 0 0 0.05581,-0.248566 z m -9.505881,0.234612 a 4.8645,4.8645 0 0 0 0.06253,0.24443 4.8645,4.8645 0 0 1 -0.06253,-0.24443 z m 9.392192,0.239778 a 4.8645,4.8645 0 0 1 -0.07855,0.23513 4.8645,4.8645 0 0 0 0.07855,-0.23513 z m -9.254731,0.228413 a 4.8645,4.8645 0 0 0 0.08475,0.233058 4.8645,4.8645 0 0 1 -0.08475,-0.233058 z m 9.094018,0.232026 a 4.8645,4.8645 0 0 1 -0.0987,0.221176 4.8645,4.8645 0 0 0 0.0987,-0.221176 z m -8.912117,0.217556 a 4.8645,4.8645 0 0 0 0.108003,0.224793 4.8645,4.8645 0 0 1 -0.108003,-0.224793 z m 8.707478,0.222726 a 4.8645,4.8645 0 0 1 -0.121439,0.211873 4.8645,4.8645 0 0 0 0.121439,-0.211873 z m -8.480103,0.209807 a 4.8645,4.8645 0 0 0 0.128675,0.209291 4.8645,4.8645 0 0 1 -0.128675,-0.209291 z m 8.231539,0.209291 a 4.8645,4.8645 0 0 1 -0.141593,0.197919 4.8645,4.8645 0 0 0 0.141593,-0.197919 z m -7.96282,0.195852 a 4.8645,4.8645 0 0 0 0.147278,0.194302 4.8645,4.8645 0 0 1 -0.147278,-0.194302 z m 7.676016,0.19327 a 4.8645,4.8645 0 0 1 -0.165365,0.188103 4.8645,4.8645 0 0 0 0.165365,-0.188103 z m -7.367509,0.184484 a 4.8645,4.8645 0 0 0 0.165365,0.177252 4.8645,4.8645 0 0 1 -0.165365,-0.177252 z m 7.040397,0.177252 a 4.8645,4.8645 0 0 1 -0.171049,0.159163 4.8645,4.8645 0 0 0 0.171049,-0.159163 z m -6.694163,0.168463 a 4.8645,4.8645 0 0 0 0.175699,0.15503 4.8645,4.8645 0 0 1 -0.175699,-0.15503 z m 6.328811,0.161232 a 4.8645,4.8645 0 0 1 -0.181901,0.138493 4.8645,4.8645 0 0 0 0.181901,-0.138493 z m -5.948473,0.148828 a 4.8645,4.8645 0 0 0 0.189135,0.134874 4.8645,4.8645 0 0 1 -0.189135,-0.134874 z m 5.562967,0.135392 a 4.8645,4.8645 0 0 1 -0.21239,0.130226 4.8645,4.8645 0 0 0 0.21239,-0.130226 z m -5.166093,0.127125 a 4.8645,4.8645 0 0 0 0.211873,0.121954 4.8645,4.8645 0 0 1 -0.211873,-0.121954 z m 4.749581,0.119888 a 4.8645,4.8645 0 0 1 -0.224276,0.108521 4.8645,4.8645 0 0 0 0.224276,-0.108521 z m -4.323251,0.10542 a 4.8645,4.8645 0 0 0 0.227377,0.101286 4.8645,4.8645 0 0 1 -0.227377,-0.101286 z m 3.880384,0.10077 a 4.8645,4.8645 0 0 1 -0.22531,0.08217 4.8645,4.8645 0 0 0 0.22531,-0.08217 z m -3.425114,0.08372 a 4.8645,4.8645 0 0 0 0.225826,0.07493 4.8645,4.8645 0 0 1 -0.225826,-0.07493 z m 2.96571,0.07648 a 4.8645,4.8645 0 0 1 -0.240812,0.06149 4.8645,4.8645 0 0 0 0.240812,-0.06149 z m -2.493388,0.06149 a 4.8645,4.8645 0 0 0 0.227377,0.05116 4.8645,4.8645 0 0 1 -0.227377,-0.05116 z m 2.024683,0.05116 a 4.8645,4.8645 0 0 1 -0.244946,0.03669 4.8645,4.8645 0 0 0 0.244946,-0.03669 z m -1.555977,0.03669 a 4.8645,4.8645 0 0 0 0.244946,0.02946 4.8645,4.8645 0 0 1 -0.244946,-0.02946 z m 1.069185,0.02946 a 4.8645,4.8645 0 0 1 -0.412378,0.02067 4.8645,4.8645 0 0 0 0.412378,-0.02067 z"
           id="path5053"
           inkscape:connector-curvature="0" />
      </g>
      <circle
         style="opacity:1;fill:#ffffff;fill-opacity:1;stroke:none;stroke-width:0.32071179;stroke-miterlimit:4;stroke-dasharray:none;stroke-opacity:1"
         id="circle5057"
         cx="825.47961"
         cy="427.52463"
         r="1.845" />
      <path
         inkscape:connector-curvature="0"
         id="path5059"
         d="m 825.47942,425.62063 a 1.9040079,1.9040079 0 0 0 -1.904,1.904 1.9040079,1.9040079 0 0 0 1.904,1.904 1.9040079,1.9040079 0 0 0 1.90441,-1.904 1.9040079,1.9040079 0 0 0 -1.90441,-1.904 z m 4e-4,0.20587 a 1.6980835,1.6980835 0 0 1 1.69773,1.69813 1.6980835,1.6980835 0 0 1 -1.69773,1.69813 1.6980835,1.6980835 0 0 1 -1.69812,-1.69813 1.6980835,1.6980835 0 0 1 1.69812,-1.69813 z"
         style="display:inline;opacity:1;fill:#ffffff;fill-opacity:1;stroke-width:0.18133411" />
      <circle
         r="1.845"
         cy="433.29501"
         cx="825.47205"
         id="circle5061"
         style="opacity:1;fill:#ffffff;fill-opacity:1;stroke:none;stroke-width:0.32071179;stroke-miterlimit:4;stroke-dasharray:none;stroke-opacity:1" />
      <path
         id="path5063"
         d="m 826.39717,426.60708 h -1.83515 c -0.11646,0 -0.21171,0.0953 -0.21171,0.21175 v 1.41164 c 0,0.11646 0.0952,0.21175 0.21171,0.21175 h 1.83515 c 0.11647,0 0.21177,-0.0953 0.21177,-0.21175 v -1.41164 c 0,-0.11647 -0.0953,-0.21175 -0.21177,-0.21175 z m -1.16743,0.93169 -0.59714,0.46513 v -1.10645 z m -0.49043,-0.64936 h 1.48056 l -0.74027,0.55591 z m 0.51374,0.67434 0.22654,0.24322 0.2266,-0.24322 0.46444,0.59614 h -1.38201 z m 0.4764,-0.025 0.59713,-0.64132 v 1.10644 z"
         inkscape:connector-curvature="0"
         style="fill:#000000;fill-opacity:1;stroke-width:0.14116479" />
      <g
         style="fill:#ffffff"
         id="g5069"
         transform="translate(578.42322,402.47095)">
        <circle
           style="opacity:1;fill:#ffffff;fill-opacity:1;stroke:none;stroke-width:0.32071179;stroke-miterlimit:4;stroke-dasharray:none;stroke-opacity:1"
           id="circle5065"
           cx="247.0688"
           cy="19.489698"
           r="1.845" />
        <path
           inkscape:connector-curvature="0"
           id="path5067"
           d="m 247.06859,17.585698 a 1.9040079,1.9040079 0 0 0 -1.904,1.904 1.9040079,1.9040079 0 0 0 1.904,1.904 1.9040079,1.9040079 0 0 0 1.90441,-1.904 1.9040079,1.9040079 0 0 0 -1.90441,-1.904 z m 4e-4,0.205877 a 1.6980835,1.6980835 0 0 1 1.69773,1.698123 1.6980835,1.6980835 0 0 1 -1.69773,1.698131 1.6980835,1.6980835 0 0 1 -1.69812,-1.698131 1.6980835,1.6980835 0 0 1 1.69812,-1.698123 z"
           style="display:inline;opacity:1;fill:#ffffff;fill-opacity:1;stroke-width:0.18133411" />
      </g>
      <g
         transform="matrix(0.79201658,0,0,0.79201658,67.713212,298.71405)"
         id="g5086"
         style="fill:#000000;fill-opacity:1">
        <g
           transform="matrix(1.0000062,0,0,1.0000062,-0.91966688,20.357365)"
           id="g5084"
           style="fill:#000000;fill-opacity:1">
          <g
             id="g5082"
             transform="translate(5.0255445,60.270439)"
             style="fill:#000000;fill-opacity:1">
            <g
               transform="matrix(1.9727627,0,0,1.9727627,-917.94862,-116.99041)"
               id="g5080"
               style="fill:#000000;fill-opacity:1">
              <g
                 id="g5078"
                 style="fill:#000000;fill-opacity:1">
                <g
                   transform="translate(2.6823635,-21.727144)"
                   id="g5076"
                   style="fill:#000000;fill-opacity:1">
                  <path
                     style="fill:#000000;fill-opacity:1;stroke-width:0.26458332"
                     d="m 945.13831,118.73886 c 0,-0.21907 0.1778,-0.39687 0.39687,-0.39687 0.21908,0 0.39688,0.1778 0.39688,0.39687 0,0.21908 -0.1778,0.39688 -0.39688,0.39688 -0.21907,0 -0.39687,-0.1778 -0.39687,-0.39688 z"
                     id="path5071"
                     inkscape:connector-curvature="0" />
                  <path
                     style="fill:#000000;fill-opacity:1;stroke-width:0.26458332"
                     d="m 945.79977,119.20654 h -0.52917 c -0.21828,0 -0.39687,0.11906 -0.39687,0.26458 v 0.26458 h 1.32291 v -0.26458 c 0,-0.14552 -0.17859,-0.26458 -0.39687,-0.26458 z"
                     id="path5074"
                     inkscape:connector-curvature="0" />
                </g>
              </g>
            </g>
          </g>
        </g>
      </g>
      <path
         style="display:inline;opacity:1;fill:#000000;fill-opacity:1;stroke:none;stroke-width:0.27162951;stroke-opacity:1"
         d="m 825.57234,394.41988 a 4.7331802,4.7331802 0 0 0 -0.3987,0.0201 4.7331802,4.7331802 0 0 1 0.3987,-0.0201 z m 0.4028,0.0201 a 4.7331802,4.7331802 0 0 1 0.2383,0.0287 4.7331802,4.7331802 0 0 0 -0.2383,-0.0287 z m -1.0409,0.0287 a 4.7331802,4.7331802 0 0 0 -0.2328,0.0357 4.7331802,4.7331802 0 0 1 0.2328,-0.0357 z m 1.5145,0.0357 a 4.7331802,4.7331802 0 0 1 0.2187,0.0493 4.7331802,4.7331802 0 0 0 -0.2187,-0.0493 z m -1.974,0.0508 a 4.7331802,4.7331802 0 0 0 -0.2338,0.0593 4.7331802,4.7331802 0 0 1 0.2338,-0.0593 z m 2.4366,0.0603 a 4.7331802,4.7331802 0 0 1 0.2157,0.0719 4.7331802,4.7331802 0 0 0 -0.2157,-0.0719 z m -2.8952,0.0739 a 4.7331802,4.7331802 0 0 0 -0.2182,0.0795 4.7331802,4.7331802 0 0 1 0.2182,-0.0795 z m 3.3347,0.0799 a 4.7331802,4.7331802 0 0 1 0.2212,0.0985 4.7331802,4.7331802 0 0 0 -0.2212,-0.0985 z m -3.7716,0.0976 a 4.7331802,4.7331802 0 0 0 -0.2132,0.10308 4.7331802,4.7331802 0 0 1 0.2132,-0.10308 z m 4.2005,0.10157 a 4.7331802,4.7331802 0 0 1 0.2152,0.12369 4.7331802,4.7331802 0 0 0 -0.2152,-0.12369 z m -4.6174,0.11816 a 4.7331802,4.7331802 0 0 0 -0.1996,0.12269 4.7331802,4.7331802 0 0 1 0.1996,-0.12269 z m 5.0221,0.12168 a 4.7331802,4.7331802 0 0 1 0.1966,0.14028 4.7331802,4.7331802 0 0 0 -0.1966,-0.14028 z m -5.4213,0.1433 a 4.7331802,4.7331802 0 0 0 -0.182,0.13878 4.7331802,4.7331802 0 0 1 0.182,-0.13878 z m 5.808,0.14179 a 4.7331802,4.7331802 0 0 1 0.1704,0.14984 4.7331802,4.7331802 0 0 0 -0.1704,-0.14984 z m -6.1695,0.15487 a 4.7331802,4.7331802 0 0 0 -0.1725,0.1599 4.7331802,4.7331802 0 0 1 0.1725,-0.1599 z m 6.5174,0.1604 a 4.7331802,4.7331802 0 0 1 0.1655,0.17749 4.7331802,4.7331802 0 0 0 -0.1655,-0.17749 z m -6.8498,0.17196 a 4.7331802,4.7331802 0 0 0 -0.1574,0.1785 4.7331802,4.7331802 0 0 1 0.1574,-0.1785 z m 7.1646,0.17548 a 4.7331802,4.7331802 0 0 1 0.1524,0.20063 4.7331802,4.7331802 0 0 0 -0.1524,-0.20063 z m -7.4663,0.19308 a 4.7331802,4.7331802 0 0 0 -0.1342,0.18806 4.7331802,4.7331802 0 0 1 0.1342,-0.18806 z m 7.7469,0.18655 a 4.7331802,4.7331802 0 0 1 0.1287,0.20967 4.7331802,4.7331802 0 0 0 -0.1287,-0.20967 z m -8.0093,0.21018 a 4.7331802,4.7331802 0 0 0 -0.1142,0.19911 4.7331802,4.7331802 0 0 1 0.1142,-0.19911 z m 1.0704,0.15386 v 2.86453 c 0,0.2992 0.07,0.57298 0.2168,0.82763 0.1464,0.25462 0.3437,0.45193 0.5983,0.59835 0.2482,0.14644 0.5214,0.21621 0.8206,0.21621 0.2929,0 0.567,-0.0698 0.8216,-0.21621 0.2483,-0.14642 0.4456,-0.34373 0.5983,-0.59835 0.06,-0.10339 0.1043,-0.2112 0.1403,-0.3213 v 1.13334 h 0.8277 v -1.67437 c 0,-0.25464 0.045,-0.4457 0.1337,-0.56667 0.089,-0.12101 0.2353,-0.18453 0.439,-0.18453 0.1973,0 0.3434,0.0636 0.4329,0.18453 0.089,0.12097 0.1399,0.31203 0.1398,0.56667 v 1.67437 h 0.8276 v -1.67437 c 0,-0.51564 -0.127,-0.90402 -0.3816,-1.16502 -0.2547,-0.26102 -0.5985,-0.39471 -1.0187,-0.39471 -0.2292,0 -0.42,0.0569 -0.5727,0.15889 v -1.38123 h -0.8277 v 2.31647 c -0.036,-0.10973 -0.081,-0.21742 -0.1403,-0.3208 -0.1527,-0.25463 -0.35,-0.45192 -0.5983,-0.59835 -0.2546,-0.14637 -0.5287,-0.22274 -0.8216,-0.22274 -0.3119,0 -0.5787,0.0827 -0.8015,0.24185 v -1.46419 z m 7.1827,0.0468 a 4.7331802,4.7331802 0 0 1 0.1021,0.21168 4.7331802,4.7331802 0 0 0 -0.1021,-0.21168 z m -8.4704,0.21168 a 4.7331802,4.7331802 0 0 0 -0.097,0.21873 4.7331802,4.7331802 0 0 1 0.097,-0.21873 z m 8.6696,0.21722 a 4.7331802,4.7331802 0 0 1 0.08,0.21872 4.7331802,4.7331802 0 0 0 -0.08,-0.21872 z m -8.8481,0.22325 a 4.7331802,4.7331802 0 0 0 -0.073,0.22023 4.7331802,4.7331802 0 0 1 0.073,-0.22023 z m 9.0044,0.22425 a 4.7331802,4.7331802 0 0 1 0.056,0.22124 4.7331802,4.7331802 0 0 0 -0.056,-0.22124 z m -9.1381,0.2323 a 4.7331802,4.7331802 0 0 0 -0.05,0.22526 4.7331802,4.7331802 0 0 1 0.05,-0.22526 z m 9.2487,0.22979 a 4.7331802,4.7331802 0 0 1 0.034,0.22878 4.7331802,4.7331802 0 0 0 -0.034,-0.22878 z m -9.3347,0.22828 a 4.7331802,4.7331802 0 0 0 -0.029,0.23934 4.7331802,4.7331802 0 0 1 0.029,-0.23934 z m 9.3976,0.2333 a 4.7331802,4.7331802 0 0 1 0.02,0.40628 4.7331802,4.7331802 0 0 0 -0.02,-0.40628 z m -6.0695,0.18353 c 0.2293,0 0.4264,0.0831 0.5793,0.24236 0.1523,0.15915 0.2293,0.35626 0.2293,0.59181 0,0.2419 -0.077,0.4392 -0.2293,0.59835 -0.1529,0.15922 -0.35,0.23531 -0.5793,0.23531 -0.2354,0 -0.4324,-0.0762 -0.5852,-0.23531 -0.1589,-0.15915 -0.2359,-0.35645 -0.2359,-0.59835 0,-0.23555 0.077,-0.43266 0.2359,-0.59181 0.1528,-0.15917 0.3498,-0.24236 0.5852,-0.24236 z m -3.3769,0.22476 a 4.7331802,4.7331802 0 0 0 0.02,0.39823 4.7331802,4.7331802 0 0 1 -0.02,-0.39823 z m 9.4459,0.40577 a 4.7331802,4.7331802 0 0 1 -0.028,0.23029 4.7331802,4.7331802 0 0 0 0.028,-0.23029 z m -9.3966,0.23381 a 4.7331802,4.7331802 0 0 0 0.035,0.23179 4.7331802,4.7331802 0 0 1 -0.035,-0.23179 z m 9.3342,0.22727 a 4.7331802,4.7331802 0 0 1 -0.054,0.24185 4.7331802,4.7331802 0 0 0 0.054,-0.24185 z m -9.2492,0.22828 a 4.7331802,4.7331802 0 0 0 0.061,0.23783 4.7331802,4.7331802 0 0 1 -0.061,-0.23783 z m 9.1386,0.2333 a 4.7331802,4.7331802 0 0 1 -0.076,0.22878 4.7331802,4.7331802 0 0 0 0.076,-0.22878 z m -9.0049,0.22225 a 4.7331802,4.7331802 0 0 0 0.082,0.22676 4.7331802,4.7331802 0 0 1 -0.082,-0.22676 z m 8.8486,0.22576 a 4.7331802,4.7331802 0 0 1 -0.096,0.2152 4.7331802,4.7331802 0 0 0 0.096,-0.2152 z m -8.6716,0.21168 a 4.7331802,4.7331802 0 0 0 0.1051,0.21873 4.7331802,4.7331802 0 0 1 -0.1051,-0.21873 z m 8.4724,0.21672 a 4.7331802,4.7331802 0 0 1 -0.1181,0.20615 4.7331802,4.7331802 0 0 0 0.1181,-0.20615 z m -8.2511,0.20414 a 4.7331802,4.7331802 0 0 0 0.1252,0.20364 4.7331802,4.7331802 0 0 1 -0.1252,-0.20364 z m 8.0093,0.20364 a 4.7331802,4.7331802 0 0 1 -0.1378,0.19258 4.7331802,4.7331802 0 0 0 0.1378,-0.19258 z m -7.7479,0.19057 a 4.7331802,4.7331802 0 0 0 0.1433,0.18905 4.7331802,4.7331802 0 0 1 -0.1433,-0.18905 z m 7.4688,0.18805 a 4.7331802,4.7331802 0 0 1 -0.1609,0.18302 4.7331802,4.7331802 0 0 0 0.1609,-0.18302 z m -7.1686,0.1795 a 4.7331802,4.7331802 0 0 0 0.1609,0.17247 4.7331802,4.7331802 0 0 1 -0.1609,-0.17247 z m 6.8503,0.17247 a 4.7331802,4.7331802 0 0 1 -0.1664,0.15486 4.7331802,4.7331802 0 0 0 0.1664,-0.15486 z m -6.5134,0.16391 a 4.7331802,4.7331802 0 0 0 0.1709,0.15085 4.7331802,4.7331802 0 0 1 -0.1709,-0.15085 z m 6.158,0.15688 a 4.7331802,4.7331802 0 0 1 -0.177,0.13476 4.7331802,4.7331802 0 0 0 0.177,-0.13476 z m -5.7879,0.14481 a 4.7331802,4.7331802 0 0 0 0.184,0.13124 4.7331802,4.7331802 0 0 1 -0.184,-0.13124 z m 5.4128,0.13174 a 4.7331802,4.7331802 0 0 1 -0.2067,0.12671 4.7331802,4.7331802 0 0 0 0.2067,-0.12671 z m -5.0267,0.12369 a 4.7331802,4.7331802 0 0 0 0.2062,0.11867 4.7331802,4.7331802 0 0 1 -0.2062,-0.11867 z m 4.6214,0.11666 a 4.7331802,4.7331802 0 0 1 -0.2182,0.10559 4.7331802,4.7331802 0 0 0 0.2182,-0.10559 z m -4.2066,0.10257 a 4.7331802,4.7331802 0 0 0 0.2213,0.0985 4.7331802,4.7331802 0 0 1 -0.2213,-0.0985 z m 3.7757,0.0981 a 4.7331802,4.7331802 0 0 1 -0.2193,0.0799 4.7331802,4.7331802 0 0 0 0.2193,-0.0799 z m -3.3327,0.0815 a 4.7331802,4.7331802 0 0 0 0.2198,0.0729 4.7331802,4.7331802 0 0 1 -0.2198,-0.0729 z m 2.8857,0.0744 a 4.7331802,4.7331802 0 0 1 -0.2343,0.0598 4.7331802,4.7331802 0 0 0 0.2343,-0.0598 z m -2.4261,0.0598 a 4.7331802,4.7331802 0 0 0 0.2212,0.0498 4.7331802,4.7331802 0 0 1 -0.2212,-0.0498 z m 1.97,0.0498 a 4.7331802,4.7331802 0 0 1 -0.2383,0.0357 4.7331802,4.7331802 0 0 0 0.2383,-0.0357 z m -1.514,0.0357 a 4.7331802,4.7331802 0 0 0 0.2384,0.0287 4.7331802,4.7331802 0 0 1 -0.2384,-0.0287 z m 1.0404,0.0287 a 4.7331802,4.7331802 0 0 1 -0.4013,0.0201 4.7331802,4.7331802 0 0 0 0.4013,-0.0201 z"
         id="path5088"
         inkscape:connector-curvature="0" />
      <g
         id="g5096"
         style="fill:#000000;fill-opacity:1"
         transform="matrix(0.79201658,0,0,0.79201658,61.216301,309.57429)">
        <path
           style="fill:#000000;fill-opacity:1;stroke-width:0.15856597"
           inkscape:connector-curvature="0"
           d="m 965.50417,156.44762 c -0.15857,0.15856 -0.15857,0.31713 -0.31712,0.31713 -0.15858,0 -0.31714,-0.15857 -0.4757,-0.31713 -0.15858,-0.15857 -0.31714,-0.31714 -0.31714,-0.4757 0,-0.15857 0.15856,-0.15857 0.31714,-0.31714 0.15856,-0.15856 -0.31714,-0.63426 -0.4757,-0.63426 -0.15858,0 -0.4757,0.4757 -0.4757,0.4757 0,0.31713 0.32585,0.96011 0.63426,1.26853 0.30841,0.3084 0.95139,0.63426 1.26851,0.63426 0,0 0.47573,-0.31713 0.47573,-0.4757 0,-0.15856 -0.47573,-0.63426 -0.63428,-0.47569 z"
           id="path5094" />
      </g>
    </g>
  </g>
</svg>
