<?xml version="1.0" encoding="UTF-8" standalone="no"?>
<!-- Created with Inkscape (http://www.inkscape.org/) -->

<svg
   xmlns:dc="http://purl.org/dc/elements/1.1/"
   xmlns:cc="http://creativecommons.org/ns#"
   xmlns:rdf="http://www.w3.org/1999/02/22-rdf-syntax-ns#"
   xmlns:svg="http://www.w3.org/2000/svg"
   xmlns="http://www.w3.org/2000/svg"
   xmlns:sodipodi="http://sodipodi.sourceforge.net/DTD/sodipodi-0.dtd"
   xmlns:inkscape="http://www.inkscape.org/namespaces/inkscape"
   width="88.997635mm"
   height="101.65486mm"
   viewBox="0 0 88.997635 101.65486"
   version="1.1"
   id="svg7367"
   inkscape:version="0.92.4 (5da689c313, 2019-01-14)">
  <defs
     id="defs7361" />
  <sodipodi:namedview
     id="base"
     pagecolor="#ffffff"
     bordercolor="#666666"
     borderopacity="1.0"
     inkscape:pageopacity="0.0"
     inkscape:pageshadow="2"
     inkscape:zoom="0.35"
     inkscape:cx="-23.630697"
     inkscape:cy="112.7788"
     inkscape:document-units="mm"
     inkscape:current-layer="layer1"
     showgrid="false" />
  <metadata
     id="metadata7364">
    <rdf:RDF>
      <cc:Work
         rdf:about="">
        <dc:format>image/svg+xml</dc:format>
        <dc:type
           rdf:resource="http://purl.org/dc/dcmitype/StillImage" />
        <dc:title></dc:title>
      </cc:Work>
    </rdf:RDF>
  </metadata>
  <g
     inkscape:label="Layer 1"
     inkscape:groupmode="layer"
     id="layer1"
     transform="translate(-67.382136,-30.726136)">
    <g
       transform="translate(-949.87443,-215.17778)"
       id="g8502">
      <path
         style="display:inline;opacity:1;fill:#ffffff;fill-opacity:1;stroke:#000000;stroke-width:0.10306702;stroke-miterlimit:4;stroke-dasharray:none;stroke-opacity:1"
         d="m 1017.8269,245.95545 h 87.8144 c 0.2874,0 0.5188,0.23139 0.5188,0.51881 v 49.69075 c 0,0.28739 -0.2314,0.51881 -0.5188,0.51881 h -87.8144 c -0.2874,0 -0.5188,-0.2314 -0.5188,-0.51881 v -49.69075 c 0,-0.28741 0.2314,-0.51881 0.5188,-0.51881 z"
         id="path5260"
         inkscape:connector-curvature="0" />
      <path
         style="color:#000000;font-style:normal;font-variant:normal;font-weight:normal;font-stretch:normal;font-size:medium;line-height:normal;font-family:sans-serif;font-variant-ligatures:normal;font-variant-position:normal;font-variant-caps:normal;font-variant-numeric:normal;font-variant-alternates:normal;font-feature-settings:normal;text-indent:0;text-align:start;text-decoration:none;text-decoration-line:none;text-decoration-style:solid;text-decoration-color:#000000;letter-spacing:normal;word-spacing:normal;text-transform:none;writing-mode:lr-tb;direction:ltr;text-orientation:mixed;dominant-baseline:auto;baseline-shift:baseline;text-anchor:start;white-space:normal;shape-padding:0;clip-rule:nonzero;display:inline;overflow:visible;visibility:visible;opacity:1;isolation:auto;mix-blend-mode:normal;color-interpolation:sRGB;color-interpolation-filters:linearRGB;solid-color:#000000;solid-opacity:1;vector-effect:none;fill:#000000;fill-opacity:1;fill-rule:nonzero;stroke:none;stroke-width:0.26458332px;stroke-linecap:butt;stroke-linejoin:miter;stroke-miterlimit:4;stroke-dasharray:none;stroke-dashoffset:0;stroke-opacity:1;color-rendering:auto;image-rendering:auto;shape-rendering:auto;text-rendering:auto;enable-background:accumulate"
         d="m 1025.4328,289.83409 c -0.015,5.3e-4 -0.046,10e-4 -0.1094,0.002 -0.1272,0.002 -0.3833,0.004 -0.8906,0.006 -1.0146,0.004 -3.039,0.008 -7.0821,0.008 v 0.26563 c 4.0433,0 6.0687,-0.006 7.084,-0.01 0.5077,-0.002 0.7621,-0.004 0.8907,-0.006 0.064,-8e-4 0.098,-10e-4 0.1152,-0.002 0.01,-2.5e-4 0.013,2.6e-4 0.018,0 0,-1.4e-4 0.01,3e-5 0.01,0 10e-5,-2e-5 0.012,-0.002 0.012,-0.002 0,0 0,-0.002 0,-0.002 0,0 0.01,0 0.01,0 0,0 -0.037,-0.1289 -0.037,-0.1289 0,0 -0.035,-0.12696 -0.035,-0.12696 0,0 0.01,0 0.01,0 0,1e-5 0.016,-0.004 0.016,-0.004 0,6e-5 -10e-4,-1.3e-4 -0.01,0 z"
         id="path5262"
         inkscape:connector-curvature="0" />
      <path
         style="color:#000000;font-style:normal;font-variant:normal;font-weight:normal;font-stretch:normal;font-size:medium;line-height:normal;font-family:sans-serif;font-variant-ligatures:normal;font-variant-position:normal;font-variant-caps:normal;font-variant-numeric:normal;font-variant-alternates:normal;font-feature-settings:normal;text-indent:0;text-align:start;text-decoration:none;text-decoration-line:none;text-decoration-style:solid;text-decoration-color:#000000;letter-spacing:normal;word-spacing:normal;text-transform:none;writing-mode:lr-tb;direction:ltr;text-orientation:mixed;dominant-baseline:auto;baseline-shift:baseline;text-anchor:start;white-space:normal;shape-padding:0;clip-rule:nonzero;display:inline;overflow:visible;visibility:visible;opacity:1;isolation:auto;mix-blend-mode:normal;color-interpolation:sRGB;color-interpolation-filters:linearRGB;solid-color:#000000;solid-opacity:1;vector-effect:none;fill:#000000;fill-opacity:1;fill-rule:nonzero;stroke:none;stroke-width:0.26458332px;stroke-linecap:butt;stroke-linejoin:miter;stroke-miterlimit:4;stroke-dasharray:none;stroke-dashoffset:0;stroke-opacity:1;color-rendering:auto;image-rendering:auto;shape-rendering:auto;text-rendering:auto;enable-background:accumulate"
         d="m 1027.3722,285.99229 c 0,0 -0.2656,0.003 -0.2656,0.004 0,7.9e-4 0,0.002 0,0.004 0,0.004 0,0.0128 0,0.0293 0,0.033 0,0.0986 0,0.23243 -10e-5,0.26771 0,0.80575 0,1.88477 h 0.2656 c 0,-1.079 0,-1.61711 0,-1.88477 10e-5,-0.13384 0,-0.19952 0,-0.23243 10e-5,-0.0165 0,-0.0235 0,-0.0273 0,-0.002 0,-0.004 0,-0.004 0,0 -0.1328,-0.002 -0.1328,-0.002 z"
         id="path5264"
         inkscape:connector-curvature="0" />
      <path
         style="color:#000000;font-style:normal;font-variant:normal;font-weight:normal;font-stretch:normal;font-size:medium;line-height:normal;font-family:sans-serif;font-variant-ligatures:normal;font-variant-position:normal;font-variant-caps:normal;font-variant-numeric:normal;font-variant-alternates:normal;font-feature-settings:normal;text-indent:0;text-align:start;text-decoration:none;text-decoration-line:none;text-decoration-style:solid;text-decoration-color:#000000;letter-spacing:normal;word-spacing:normal;text-transform:none;writing-mode:lr-tb;direction:ltr;text-orientation:mixed;dominant-baseline:auto;baseline-shift:baseline;text-anchor:start;white-space:normal;shape-padding:0;clip-rule:nonzero;display:inline;overflow:visible;visibility:visible;opacity:1;isolation:auto;mix-blend-mode:normal;color-interpolation:sRGB;color-interpolation-filters:linearRGB;solid-color:#000000;solid-opacity:1;vector-effect:none;fill:#000000;fill-opacity:1;fill-rule:nonzero;stroke:none;stroke-width:0.26458332px;stroke-linecap:butt;stroke-linejoin:miter;stroke-miterlimit:4;stroke-dasharray:none;stroke-dashoffset:0;stroke-opacity:1;color-rendering:auto;image-rendering:auto;shape-rendering:auto;text-rendering:auto;enable-background:accumulate"
         d="m 1027.091,280.13487 c 0,0 -9e-4,0.0248 0.016,2.23243 l 0.2656,-0.002 c -0.016,-2.2076 -0.018,-2.23048 -0.018,-2.23048 z"
         id="path5266"
         inkscape:connector-curvature="0" />
      <path
         style="color:#000000;font-style:normal;font-variant:normal;font-weight:normal;font-stretch:normal;font-size:medium;line-height:normal;font-family:sans-serif;font-variant-ligatures:normal;font-variant-position:normal;font-variant-caps:normal;font-variant-numeric:normal;font-variant-alternates:normal;font-feature-settings:normal;text-indent:0;text-align:start;text-decoration:none;text-decoration-line:none;text-decoration-style:solid;text-decoration-color:#000000;letter-spacing:normal;word-spacing:normal;text-transform:none;writing-mode:lr-tb;direction:ltr;text-orientation:mixed;dominant-baseline:auto;baseline-shift:baseline;text-anchor:start;white-space:normal;shape-padding:0;clip-rule:nonzero;display:inline;overflow:visible;visibility:visible;opacity:1;isolation:auto;mix-blend-mode:normal;color-interpolation:sRGB;color-interpolation-filters:linearRGB;solid-color:#000000;solid-opacity:1;vector-effect:none;fill:#000000;fill-opacity:1;fill-rule:nonzero;stroke:none;stroke-width:0.26458332px;stroke-linecap:butt;stroke-linejoin:miter;stroke-miterlimit:4;stroke-dasharray:none;stroke-dashoffset:0;stroke-opacity:1;color-rendering:auto;image-rendering:auto;shape-rendering:auto;text-rendering:auto;enable-background:accumulate"
         d="m 1027.3371,260.61925 c 0,0 -0.1309,0.002 -0.1309,0.002 l 0.1309,0.006 c 0,0 -0.2637,-0.004 -0.2637,-0.004 0,0 0,0.002 0,0.002 0,0.004 0,0.0103 0,0.0254 10e-5,0.0302 -3e-4,0.0916 0,0.21485 5e-4,0.24656 0,0.74166 0,1.73632 0,1.98934 0.01,5.97633 0.021,13.9668 h 0.2656 c -0.012,-7.99048 -0.02,-11.97743 -0.023,-13.9668 0,-0.99468 -10e-4,-1.48969 0,-1.73632 -2e-4,-0.12332 10e-5,-0.18447 0,-0.21485 0,-0.0152 10e-5,-0.0235 0,-0.0273 0,0 0,-0.002 0,-0.002 0,0 0,-0.002 0,-0.002 z"
         id="path5270"
         inkscape:connector-curvature="0" />
      <path
         inkscape:connector-curvature="0"
         style="color:#000000;font-style:normal;font-variant:normal;font-weight:normal;font-stretch:normal;font-size:medium;line-height:normal;font-family:sans-serif;font-variant-ligatures:normal;font-variant-position:normal;font-variant-caps:normal;font-variant-numeric:normal;font-variant-alternates:normal;font-feature-settings:normal;text-indent:0;text-align:start;text-decoration:none;text-decoration-line:none;text-decoration-style:solid;text-decoration-color:#000000;letter-spacing:normal;word-spacing:normal;text-transform:none;writing-mode:lr-tb;direction:ltr;text-orientation:mixed;dominant-baseline:auto;baseline-shift:baseline;text-anchor:start;white-space:normal;shape-padding:0;clip-rule:nonzero;display:inline;overflow:visible;visibility:visible;opacity:1;isolation:auto;mix-blend-mode:normal;color-interpolation:sRGB;color-interpolation-filters:linearRGB;solid-color:#000000;solid-opacity:1;vector-effect:none;fill:#000000;fill-opacity:1;fill-rule:nonzero;stroke:none;stroke-width:0.26660362px;stroke-linecap:butt;stroke-linejoin:miter;stroke-miterlimit:4;stroke-dasharray:none;stroke-dashoffset:0;stroke-opacity:1;color-rendering:auto;image-rendering:auto;shape-rendering:auto;text-rendering:auto;enable-background:accumulate"
         d="m 1032.0968,255.77553 v 0.26355 c 4.4223,-2.5e-4 8.8438,-2.2e-4 13.2655,0 a 16.92547,16.669924 0 0 1 -0.01,-0.13384 16.92547,16.669924 0 0 1 0,-0.12971 c -4.4208,-2.3e-4 -8.8414,-2.6e-4 -13.2629,0 z"
         id="path5272" />
      <path
         inkscape:connector-curvature="0"
         style="color:#000000;font-style:normal;font-variant:normal;font-weight:normal;font-stretch:normal;font-size:medium;line-height:normal;font-family:sans-serif;font-variant-ligatures:normal;font-variant-position:normal;font-variant-caps:normal;font-variant-numeric:normal;font-variant-alternates:normal;font-feature-settings:normal;text-indent:0;text-align:start;text-decoration:none;text-decoration-line:none;text-decoration-style:solid;text-decoration-color:#000000;letter-spacing:normal;word-spacing:normal;text-transform:none;writing-mode:lr-tb;direction:ltr;text-orientation:mixed;dominant-baseline:auto;baseline-shift:baseline;text-anchor:start;white-space:normal;shape-padding:0;clip-rule:nonzero;display:inline;overflow:visible;visibility:visible;opacity:1;isolation:auto;mix-blend-mode:normal;color-interpolation:sRGB;color-interpolation-filters:linearRGB;solid-color:#000000;solid-opacity:1;vector-effect:none;fill:#2b5d0a;fill-opacity:1;fill-rule:nonzero;stroke:none;stroke-width:0.26458332px;stroke-linecap:butt;stroke-linejoin:miter;stroke-miterlimit:4;stroke-dasharray:none;stroke-dashoffset:0;stroke-opacity:1;color-rendering:auto;image-rendering:auto;shape-rendering:auto;text-rendering:auto;enable-background:accumulate"
         d="m 1045.6839,256.03701 v 0.002 0 z"
         id="path5274" />
      <path
         inkscape:connector-curvature="0"
         style="display:inline;opacity:1;fill:#005687;fill-opacity:1;stroke-width:0.21121019"
         d="m 1048.5333,245.91206 a 16.58,16.58 0 0 0 -3.2897,9.88001 16.58,16.58 0 0 0 16.5804,16.57986 16.58,16.58 0 0 0 16.5799,-16.57986 16.58,16.58 0 0 0 -3.2877,-9.88001 z"
         id="path5276" />
      <g
         style="display:inline;fill:#ffffff;fill-opacity:1"
         transform="matrix(0.75165498,0,0,0.75165498,1112.6046,157.00468)"
         id="g5302">
        <path
           style="font-style:normal;font-variant:normal;font-weight:normal;font-stretch:normal;font-size:35.27777481px;line-height:1em;font-family:NordiquePro-Bold;-inkscape-font-specification:'NordiquePro-Bold, Normal';font-variant-ligatures:normal;font-variant-caps:normal;font-variant-numeric:normal;font-feature-settings:normal;text-align:start;letter-spacing:0px;word-spacing:0.0079375px;writing-mode:lr-tb;text-anchor:start;fill:#ffffff;fill-opacity:1"
           d="m -66.619081,128.5544 v 5.77918 h 1.029201 v -2.56796 h 2.473908 v 2.56796 h 1.029199 v -5.77918 h -1.029199 v 2.18202 h -2.473908 v -2.18202 z"
           id="path5278"
           inkscape:connector-curvature="0" />
        <path
           id="path5280"
           style="font-style:normal;font-variant:normal;font-weight:normal;font-stretch:normal;font-size:35.27777481px;line-height:1em;font-family:NordiquePro-Bold;-inkscape-font-specification:'NordiquePro-Bold, Normal';font-variant-ligatures:normal;font-variant-caps:normal;font-variant-numeric:normal;font-feature-settings:normal;text-align:start;letter-spacing:0px;word-spacing:0.0079375px;writing-mode:lr-tb;text-anchor:start;fill:#ffffff;fill-opacity:1"
           d="m -78.511489,130.3144 h 1.029161 v 2.08208 c 0,0.64916 -0.158332,1.13207 -0.474997,1.45666 -0.316665,0.32458 -0.744163,0.48291 -1.266661,0.48291 -0.530414,0 -0.949995,-0.15833 -1.26666,-0.48291 -0.316665,-0.32459 -0.474998,-0.8075 -0.474998,-1.45666 v -2.08208 h 1.029162 v 2.08208 c 0,0.32458 0.05542,0.56208 0.166249,0.71249 0.110833,0.15042 0.292915,0.22167 0.546247,0.22167 0.245416,0 0.427498,-0.0712 0.538331,-0.22167 0.110833,-0.15041 0.174166,-0.38791 0.174166,-0.71249 z"
           inkscape:connector-curvature="0" />
        <path
           id="path5282"
           d="m -76.755853,129.72066 c 0.118749,0.11874 0.269165,0.17416 0.443331,0.17416 0.166249,0 0.308748,-0.0554 0.427498,-0.17416 0.118749,-0.11875 0.182082,-0.26917 0.182082,-0.44334 0,-0.16624 -0.06333,-0.30874 -0.182082,-0.42749 -0.11875,-0.11875 -0.261249,-0.18209 -0.427498,-0.18209 -0.174166,0 -0.324582,0.0633 -0.443331,0.18209 -0.11875,0.11875 -0.174166,0.26125 -0.174166,0.42749 0,0.17417 0.05542,0.32459 0.174166,0.44334 z"
           style="font-style:normal;font-variant:normal;font-weight:normal;font-stretch:normal;font-size:35.27777481px;line-height:1em;font-family:NordiquePro-Bold;-inkscape-font-specification:'NordiquePro-Bold, Normal';font-variant-ligatures:normal;font-variant-caps:normal;font-variant-numeric:normal;font-feature-settings:normal;text-align:start;letter-spacing:0px;word-spacing:0.0079375px;writing-mode:lr-tb;text-anchor:start;fill:#ffffff;fill-opacity:1"
           inkscape:connector-curvature="0" />
        <path
           id="path5284"
           d="m -76.827103,130.36709 v 3.95832 h 1.029162 v -3.95832 z"
           style="font-style:normal;font-variant:normal;font-weight:normal;font-stretch:normal;font-size:35.27777481px;line-height:1em;font-family:NordiquePro-Bold;-inkscape-font-specification:'NordiquePro-Bold, Normal';font-variant-ligatures:normal;font-variant-caps:normal;font-variant-numeric:normal;font-feature-settings:normal;text-align:start;letter-spacing:0px;word-spacing:0.0079375px;writing-mode:lr-tb;text-anchor:start;fill:#ffffff;fill-opacity:1"
           inkscape:connector-curvature="0" />
        <path
           id="path5286"
           style="font-style:normal;font-variant:normal;font-weight:normal;font-stretch:normal;font-size:35.27777481px;line-height:1em;font-family:NordiquePro-Bold;-inkscape-font-specification:'NordiquePro-Bold, Normal';font-variant-ligatures:normal;font-variant-caps:normal;font-variant-numeric:normal;font-feature-settings:normal;text-align:start;letter-spacing:0px;word-spacing:0.0079375px;writing-mode:lr-tb;text-anchor:start;fill:#ffffff;fill-opacity:1"
           d="m -75.074559,134.32541 h 1.029161 v -5.54164 h -1.029161 z"
           inkscape:connector-curvature="0" />
        <path
           id="path5288"
           style="font-style:normal;font-variant:normal;font-weight:normal;font-stretch:normal;font-size:35.27777481px;line-height:1em;font-family:NordiquePro-Bold;-inkscape-font-specification:'NordiquePro-Bold, Normal';font-variant-ligatures:normal;font-variant-caps:normal;font-variant-numeric:normal;font-feature-settings:normal;text-align:start;letter-spacing:0px;word-spacing:0.0079375px;writing-mode:lr-tb;text-anchor:start;fill:#ffffff;fill-opacity:1"
           d="m -69.814331,133.32272 c 0.182083,-0.31666 0.277082,-0.65708 0.277082,-1.02916 v -3.56248 h -1.037079 v 1.82082 c -0.284999,-0.19791 -0.617496,-0.30083 -0.997495,-0.30083 -0.372081,0 -0.712497,0.095 -1.021245,0.27708 -0.316664,0.18208 -0.56208,0.4275 -0.744162,0.74416 -0.19,0.31667 -0.277082,0.65708 -0.277082,1.02125 0,0.37208 0.08708,0.7125 0.277082,1.02916 0.182082,0.31667 0.427498,0.56208 0.744162,0.74416 0.308748,0.18209 0.649164,0.26917 1.021245,0.26917 0.364165,0 0.704579,-0.0871 1.021246,-0.26917 0.308748,-0.18208 0.554163,-0.42749 0.736246,-0.74416 z m -2.485821,-1.76541 c 0.189998,-0.19791 0.427498,-0.30083 0.720412,-0.30083 0.284998,0 0.530416,0.10292 0.72833,0.30083 0.19,0.19792 0.292916,0.44333 0.292916,0.73625 0,0.30083 -0.102916,0.54625 -0.292916,0.74416 -0.197914,0.19792 -0.443332,0.29292 -0.72833,0.29292 -0.292914,0 -0.530414,-0.095 -0.720412,-0.29292 -0.19,-0.19791 -0.284998,-0.44333 -0.284998,-0.74416 0,-0.29292 0.095,-0.53833 0.284998,-0.73625 z"
           inkscape:connector-curvature="0" />
        <path
           inkscape:connector-curvature="0"
           id="path5290"
           style="font-style:normal;font-variant:normal;font-weight:normal;font-stretch:normal;font-size:35.27777481px;line-height:1em;font-family:NordiquePro-Bold;-inkscape-font-specification:'NordiquePro-Bold, Normal';font-variant-ligatures:normal;font-variant-caps:normal;font-variant-numeric:normal;font-feature-settings:normal;text-align:start;letter-spacing:0px;word-spacing:0.0079375px;writing-mode:lr-tb;text-anchor:start;fill:#ffffff;fill-opacity:1"
           d="m -61.242817,131.28815 c -0.174165,0.31666 -0.261249,0.64916 -0.261249,1.01333 0,0.37208 0.08708,0.71249 0.269164,1.02124 0.182083,0.31667 0.427498,0.56208 0.744165,0.74416 0.308748,0.18209 0.649162,0.26917 1.029162,0.26917 0.411663,0 0.783746,-0.11083 1.12416,-0.34042 0.332499,-0.22166 0.585831,-0.52249 0.75208,-0.88666 l -1.227079,-0.008 c -0.08708,0.0712 -0.182082,0.12666 -0.284998,0.16624 -0.102916,0.0475 -0.237498,0.0633 -0.39583,0.0633 -0.2375,0 -0.435415,-0.0554 -0.593748,-0.16625 -0.158332,-0.11083 -0.261248,-0.26917 -0.308748,-0.46708 h 2.937068 c 0.02375,-0.15834 0.03167,-0.31667 0.03167,-0.49083 -0.01584,-0.39584 -0.118748,-0.74417 -0.32458,-1.045 -0.205834,-0.29291 -0.459166,-0.51458 -0.767914,-0.67291 -0.316665,-0.15833 -0.641247,-0.2375 -0.973744,-0.2375 -0.372082,0 -0.712496,0.095 -1.021246,0.285 -0.308748,0.19 -0.554163,0.43541 -0.728329,0.75208 z m 2.715402,0.58583 h -1.868323 c 0.07917,-0.19 0.205832,-0.34042 0.364165,-0.45125 0.158332,-0.11083 0.348332,-0.16625 0.569998,-0.16625 0.197914,0 0.379997,0.0633 0.554163,0.17417 0.174165,0.11083 0.300833,0.26125 0.379997,0.44333 z" />
        <path
           inkscape:connector-curvature="0"
           id="path5292"
           style="font-style:normal;font-variant:normal;font-weight:normal;font-stretch:normal;font-size:35.27777481px;line-height:1em;font-family:NordiquePro-Bold;-inkscape-font-specification:'NordiquePro-Bold, Normal';font-variant-ligatures:normal;font-variant-caps:normal;font-variant-numeric:normal;font-feature-settings:normal;text-align:start;letter-spacing:0px;word-spacing:0.0079375px;writing-mode:lr-tb;text-anchor:start;fill:#ffffff;fill-opacity:1"
           d="m -56.758417,134.32541 h 1.029161 v -5.54164 h -1.029161 z" />
        <path
           inkscape:connector-curvature="0"
           id="path5294"
           style="font-style:normal;font-variant:normal;font-weight:normal;font-stretch:normal;font-size:35.27777481px;line-height:1em;font-family:NordiquePro-Bold;-inkscape-font-specification:'NordiquePro-Bold, Normal';font-variant-ligatures:normal;font-variant-caps:normal;font-variant-numeric:normal;font-feature-settings:normal;text-align:start;letter-spacing:0px;word-spacing:0.0079375px;writing-mode:lr-tb;text-anchor:start;fill:#ffffff;fill-opacity:1"
           d="m -54.985216,134.32541 h 1.029161 v -5.54164 h -1.029161 z" />
        <path
           inkscape:connector-curvature="0"
           id="path5296"
           style="font-style:normal;font-variant:normal;font-weight:normal;font-stretch:normal;font-size:35.27777481px;line-height:1em;font-family:NordiquePro-Bold;-inkscape-font-specification:'NordiquePro-Bold, Normal';font-variant-ligatures:normal;font-variant-caps:normal;font-variant-numeric:normal;font-feature-settings:normal;text-align:start;letter-spacing:0px;word-spacing:0.0079375px;writing-mode:lr-tb;text-anchor:start;fill:#ffffff;fill-opacity:1"
           d="m -50.342485,130.52815 c -0.316665,-0.18208 -0.657079,-0.27708 -1.021245,-0.27708 -0.37208,0 -0.712496,0.095 -1.029161,0.27708 -0.316665,0.18208 -0.56208,0.4275 -0.744163,0.74416 -0.182083,0.31667 -0.269164,0.65708 -0.269164,1.02125 0,0.37208 0.08708,0.7125 0.269164,1.02916 0.182083,0.31667 0.427498,0.56208 0.744163,0.74416 0.316665,0.18209 0.657081,0.26917 1.029161,0.26917 0.364166,0 0.70458,-0.0871 1.021245,-0.26917 0.316667,-0.18208 0.562082,-0.42749 0.744165,-0.74416 0.18208,-0.31666 0.277081,-0.65708 0.277081,-1.02916 0,-0.36417 -0.095,-0.70458 -0.277081,-1.02125 -0.182083,-0.31666 -0.427498,-0.56208 -0.744165,-0.74416 z m -1.741658,1.02916 c 0.189999,-0.19791 0.435415,-0.30083 0.72833,-0.30083 0.284999,0 0.530414,0.10292 0.720414,0.30083 0.189998,0.19792 0.284999,0.44333 0.284999,0.73625 0,0.30083 -0.095,0.54625 -0.284999,0.74416 -0.19,0.19792 -0.435415,0.29292 -0.720414,0.29292 -0.292915,0 -0.538331,-0.095 -0.72833,-0.29292 -0.197915,-0.19791 -0.292914,-0.44333 -0.292914,-0.74416 0,-0.29292 0.095,-0.53833 0.292914,-0.73625 z" />
        <g
           transform="matrix(0.22440837,0,0,0.22440837,-85.810103,112.32673)"
           id="g5300"
           style="font-style:normal;font-variant:normal;font-weight:normal;font-stretch:normal;font-size:35.27777481px;line-height:1em;font-family:NordiquePro-Bold;-inkscape-font-specification:'NordiquePro-Bold, Normal';font-variant-ligatures:normal;font-variant-caps:normal;font-variant-numeric:normal;font-feature-settings:normal;text-align:start;letter-spacing:0px;word-spacing:0.0079375px;writing-mode:lr-tb;text-anchor:start;fill:#ffffff;fill-opacity:1">
          <path
             inkscape:connector-curvature="0"
             id="path5298"
             d="M 0.06304166,72.28233 V 97.999624 H 9.2960738 c 2.8823972,0 5.1044742,-0.625699 6.6662562,-1.877405 1.561756,-1.251714 2.342489,-3.02596 2.342489,-5.322672 0,-1.745503 -0.476224,-3.198543 -1.429385,-4.358391 -0.941652,-1.171327 -2.268009,-1.940398 -3.979069,-2.307869 1.423961,-0.229671 2.503091,-0.809778 3.23805,-1.739945 0.734933,-0.930176 1.102757,-2.18156 1.102757,-3.75481 0,-2.032597 -0.717894,-3.600138 -2.153338,-4.702556 -1.43547,-1.102426 -3.47972,-1.653646 -6.1324593,-1.653646 z m 4.48963514,3.427699 h 4.1966356 c 1.3848556,0 2.4139786,0.262003 3.0876876,0.785998 0.683048,0.523994 1.024731,1.314603 1.024731,2.371949 0,1.066701 -0.341683,1.861906 -1.024731,2.3859 -0.673709,0.514638 -1.702832,0.772046 -3.0876876,0.772046 H 4.5526768 Z m 0.015002,10.26759 H 9.483637 c 1.648883,0 2.86811,0.338719 3.65715,1.016475 0.799148,0.667643 1.198377,1.7097 1.198377,3.125908 0,1.406096 -0.399229,2.453021 -1.198377,3.140893 -0.78904,0.677759 -2.008267,1.016476 -3.65715,1.016476 H 4.5676787 Z"
             style="fill:#ffffff;fill-opacity:1" />
        </g>
      </g>
      <text
         xml:space="preserve"
         style="font-style:normal;font-variant:normal;font-weight:normal;font-stretch:normal;font-size:2.82222223px;line-height:1em;font-family:NordiquePro-Bold;-inkscape-font-specification:'NordiquePro-Bold, Normal';font-variant-ligatures:normal;font-variant-caps:normal;font-variant-numeric:normal;font-feature-settings:normal;text-align:start;letter-spacing:0px;word-spacing:0.0079375px;writing-mode:lr-tb;text-anchor:start;display:inline;fill:#333333;fill-opacity:1;stroke:none;stroke-width:0.26458332"
         x="1032.2515"
         y="284.74646"
         id="text5308"><tspan
           sodipodi:role="line"
           id="tspan5304"
           x="1032.2515"
           y="284.74646"
           style="font-style:normal;font-variant:normal;font-weight:normal;font-stretch:normal;font-size:2.82222223px;font-family:NordiquePro-Bold;-inkscape-font-specification:'NordiquePro-Bold, Normal';font-variant-ligatures:normal;font-variant-caps:normal;font-variant-numeric:normal;font-feature-settings:normal;text-align:start;writing-mode:lr-tb;text-anchor:start;fill:#333333;stroke-width:0.26458332">yuri@buildhello.ca</tspan><tspan
           sodipodi:role="line"
           x="1032.2515"
           y="287.62579"
           style="font-style:normal;font-variant:normal;font-weight:normal;font-stretch:normal;font-size:2.82222223px;font-family:NordiquePro-Bold;-inkscape-font-specification:'NordiquePro-Bold, Normal';font-variant-ligatures:normal;font-variant-caps:normal;font-variant-numeric:normal;font-feature-settings:normal;text-align:start;writing-mode:lr-tb;text-anchor:start;fill:#333333;stroke-width:0.26458332"
           id="tspan5306" /></text>
      <text
         xml:space="preserve"
         style="font-style:normal;font-variant:normal;font-weight:normal;font-stretch:normal;font-size:2.82222223px;line-height:1em;font-family:NordiquePro-Bold;-inkscape-font-specification:'NordiquePro-Bold, Normal';font-variant-ligatures:normal;font-variant-caps:normal;font-variant-numeric:normal;font-feature-settings:normal;text-align:start;letter-spacing:0px;word-spacing:0.0079375px;writing-mode:lr-tb;text-anchor:start;display:inline;fill:#333333;fill-opacity:1;stroke:none;stroke-width:0.26458332"
         x="1032.1261"
         y="279.44095"
         id="text5312"><tspan
           sodipodi:role="line"
           id="tspan5310"
           x="1032.1261"
           y="279.44095"
           style="fill:#333333;stroke-width:0.26458332">Yuri Tricys - Business Development</tspan></text>
      <text
         xml:space="preserve"
         style="font-style:normal;font-variant:normal;font-weight:normal;font-stretch:normal;font-size:2.82222223px;line-height:1em;font-family:NordiquePro-Bold;-inkscape-font-specification:'NordiquePro-Bold, Normal';font-variant-ligatures:normal;font-variant-caps:normal;font-variant-numeric:normal;font-feature-settings:normal;text-align:start;letter-spacing:0px;word-spacing:0.0079375px;writing-mode:lr-tb;text-anchor:start;display:inline;fill:#333333;fill-opacity:1;stroke:none;stroke-width:0.26458332"
         x="1032.2858"
         y="290.90921"
         id="text5316"><tspan
           sodipodi:role="line"
           id="tspan5314"
           x="1032.2858"
           y="290.90921"
           style="fill:#333333;stroke-width:0.26458332">604-441-9933</tspan></text>
      <g
         transform="translate(-338.21536,-96.603323)"
         aria-label="Web Development"
         style="font-style:normal;font-variant:normal;font-weight:normal;font-stretch:normal;font-size:2.82222223px;line-height:1em;font-family:NordiquePro-Bold;-inkscape-font-specification:'NordiquePro-Bold, Normal';font-variant-ligatures:normal;font-variant-caps:normal;font-variant-numeric:normal;font-feature-settings:normal;text-align:start;letter-spacing:0px;word-spacing:0.0079375px;writing-mode:lr-tb;text-anchor:start;display:inline;fill:#ffffff;fill-opacity:1;stroke:none;stroke-width:0.26458332"
         id="g5346">
        <path
           inkscape:connector-curvature="0"
           d="m 1391.2726,357.36414 h -0.3894 l -0.3584,1.34055 -0.4657,-1.34055 h -0.3217 l -0.4714,1.34055 -0.3527,-1.34055 h -0.3895 l 0.5588,1.97555 h 0.3669 l 0.4487,-1.35749 0.4431,1.35749 h 0.3669 z"
           style="font-style:normal;font-variant:normal;font-weight:normal;font-stretch:normal;font-size:2.82222223px;font-family:NordiquePro-Bold;-inkscape-font-specification:'NordiquePro-Bold, Normal';font-variant-ligatures:normal;font-variant-caps:normal;font-variant-numeric:normal;font-feature-settings:normal;text-align:start;writing-mode:lr-tb;text-anchor:start;fill:#ffffff;stroke-width:0.26458332"
           id="path5318" />
        <path
           inkscape:connector-curvature="0"
           d="m 1391.1845,358.27571 c -0.062,0.11289 -0.093,0.23143 -0.093,0.36125 0,0.13264 0.031,0.254 0.096,0.36406 0.065,0.11289 0.1524,0.20038 0.2653,0.26529 0.1101,0.0649 0.2314,0.096 0.3669,0.096 0.1468,0 0.2794,-0.0395 0.4008,-0.12136 0.1185,-0.079 0.2088,-0.18626 0.2681,-0.31609 l -0.4375,-0.003 c -0.031,0.0254 -0.065,0.0452 -0.1016,0.0593 -0.037,0.0169 -0.085,0.0226 -0.1411,0.0226 -0.085,0 -0.1552,-0.0198 -0.2117,-0.0593 -0.056,-0.0395 -0.093,-0.096 -0.11,-0.16651 h 1.047 c 0.01,-0.0565 0.011,-0.11289 0.011,-0.17498 -0.01,-0.14111 -0.042,-0.26529 -0.1157,-0.37253 -0.073,-0.10442 -0.1637,-0.18345 -0.2738,-0.23989 -0.1128,-0.0565 -0.2286,-0.0847 -0.3471,-0.0847 -0.1326,0 -0.254,0.0339 -0.3641,0.1016 -0.11,0.0677 -0.1975,0.15522 -0.2596,0.26811 z m 0.968,0.20885 h -0.666 c 0.028,-0.0677 0.073,-0.12136 0.1298,-0.16087 0.056,-0.0395 0.1242,-0.0593 0.2032,-0.0593 0.071,0 0.1355,0.0226 0.1976,0.0621 0.062,0.0395 0.1072,0.0931 0.1354,0.15805 z"
           style="font-style:normal;font-variant:normal;font-weight:normal;font-stretch:normal;font-size:2.82222223px;font-family:NordiquePro-Bold;-inkscape-font-specification:'NordiquePro-Bold, Normal';font-variant-ligatures:normal;font-variant-caps:normal;font-variant-numeric:normal;font-feature-settings:normal;text-align:start;writing-mode:lr-tb;text-anchor:start;fill:#ffffff;stroke-width:0.26458332"
           id="path5320" />
        <path
           inkscape:connector-curvature="0"
           d="m 1392.6985,357.36414 v 1.27 c 0,0.13264 0.031,0.254 0.096,0.36688 0.065,0.11289 0.1524,0.20038 0.2653,0.26529 0.1101,0.0649 0.2315,0.096 0.3641,0.096 0.1298,0 0.2512,-0.0311 0.3641,-0.096 0.11,-0.0649 0.1975,-0.1524 0.2653,-0.26529 0.065,-0.11288 0.099,-0.23424 0.099,-0.36688 0,-0.12983 -0.034,-0.25118 -0.099,-0.36407 -0.068,-0.11289 -0.1553,-0.20038 -0.2653,-0.26529 -0.1129,-0.0649 -0.2343,-0.0988 -0.3641,-0.0988 -0.1383,0 -0.2568,0.0367 -0.3556,0.10725 v -0.64911 z m 0.4685,1.00753 c 0.068,-0.0706 0.1552,-0.10725 0.2596,-0.10725 0.1016,0 0.1891,0.0367 0.2568,0.10725 0.068,0.0706 0.1016,0.15804 0.1016,0.26247 0,0.10724 -0.034,0.19473 -0.1016,0.26528 -0.068,0.0706 -0.1552,0.10443 -0.2568,0.10443 -0.1044,0 -0.1919,-0.0339 -0.2596,-0.10443 -0.071,-0.0706 -0.1044,-0.15804 -0.1044,-0.26528 0,-0.10443 0.034,-0.19192 0.1044,-0.26247 z"
           style="font-style:normal;font-variant:normal;font-weight:normal;font-stretch:normal;font-size:2.82222223px;font-family:NordiquePro-Bold;-inkscape-font-specification:'NordiquePro-Bold, Normal';font-variant-ligatures:normal;font-variant-caps:normal;font-variant-numeric:normal;font-feature-settings:normal;text-align:start;writing-mode:lr-tb;text-anchor:start;fill:#ffffff;stroke-width:0.26458332"
           id="path5322" />
        <path
           inkscape:connector-curvature="0"
           d="m 1395.5639,357.51103 v 1.59991 h 0.3362 q 0.4258,0 0.6229,-0.19293 0.1984,-0.19292 0.1984,-0.60909 0,-0.41341 -0.1984,-0.60496 -0.1971,-0.19293 -0.6229,-0.19293 z m -0.2784,-0.22875 h 0.5719 q 0.5981,0 0.8778,0.24943 0.2797,0.24804 0.2797,0.77721 0,0.53192 -0.2811,0.78135 -0.2811,0.24942 -0.8764,0.24942 h -0.5719 z"
           style="font-style:normal;font-variant:normal;font-weight:normal;font-stretch:normal;font-size:2.82222223px;font-family:NordiquePro-Bold;-inkscape-font-specification:'NordiquePro-Bold, Normal';font-variant-ligatures:normal;font-variant-caps:normal;font-variant-numeric:normal;font-feature-settings:normal;text-align:start;writing-mode:lr-tb;text-anchor:start;fill:#ffffff;stroke-width:0.26458332"
           id="path5324" />
        <path
           inkscape:connector-curvature="0"
           d="m 1397.344,358.27571 c -0.062,0.11289 -0.093,0.23143 -0.093,0.36125 0,0.13264 0.031,0.254 0.096,0.36406 0.065,0.11289 0.1524,0.20038 0.2653,0.26529 0.1101,0.0649 0.2314,0.096 0.3669,0.096 0.1468,0 0.2794,-0.0395 0.4008,-0.12136 0.1185,-0.079 0.2088,-0.18626 0.2681,-0.31609 l -0.4375,-0.003 c -0.031,0.0254 -0.065,0.0452 -0.1016,0.0593 -0.037,0.0169 -0.085,0.0226 -0.1411,0.0226 -0.085,0 -0.1552,-0.0198 -0.2117,-0.0593 -0.056,-0.0395 -0.093,-0.096 -0.11,-0.16651 h 1.047 c 0.01,-0.0565 0.011,-0.11289 0.011,-0.17498 -0.01,-0.14111 -0.042,-0.26529 -0.1157,-0.37253 -0.073,-0.10442 -0.1637,-0.18345 -0.2738,-0.23989 -0.1128,-0.0565 -0.2286,-0.0847 -0.3471,-0.0847 -0.1326,0 -0.254,0.0339 -0.3641,0.1016 -0.11,0.0677 -0.1975,0.15522 -0.2596,0.26811 z m 0.968,0.20885 h -0.666 c 0.028,-0.0677 0.073,-0.12136 0.1298,-0.16087 0.056,-0.0395 0.1242,-0.0593 0.2032,-0.0593 0.071,0 0.1355,0.0226 0.1976,0.0621 0.062,0.0395 0.1072,0.0931 0.1354,0.15805 z"
           style="font-style:normal;font-variant:normal;font-weight:normal;font-stretch:normal;font-size:2.82222223px;font-family:NordiquePro-Bold;-inkscape-font-specification:'NordiquePro-Bold, Normal';font-variant-ligatures:normal;font-variant-caps:normal;font-variant-numeric:normal;font-feature-settings:normal;text-align:start;writing-mode:lr-tb;text-anchor:start;fill:#ffffff;stroke-width:0.26458332"
           id="path5326" />
        <path
           inkscape:connector-curvature="0"
           d="m 1398.7182,357.92858 0.5221,1.41111 h 0.3669 l 0.5249,-1.41111 h -0.3838 l -0.3245,0.92851 -0.3218,-0.92851 z"
           style="font-style:normal;font-variant:normal;font-weight:normal;font-stretch:normal;font-size:2.82222223px;font-family:NordiquePro-Bold;-inkscape-font-specification:'NordiquePro-Bold, Normal';font-variant-ligatures:normal;font-variant-caps:normal;font-variant-numeric:normal;font-feature-settings:normal;text-align:start;writing-mode:lr-tb;text-anchor:start;fill:#ffffff;stroke-width:0.26458332"
           id="path5328" />
        <path
           inkscape:connector-curvature="0"
           d="m 1400.2158,358.27571 c -0.062,0.11289 -0.093,0.23143 -0.093,0.36125 0,0.13264 0.031,0.254 0.096,0.36406 0.065,0.11289 0.1524,0.20038 0.2652,0.26529 0.1101,0.0649 0.2315,0.096 0.3669,0.096 0.1468,0 0.2794,-0.0395 0.4008,-0.12136 0.1185,-0.079 0.2088,-0.18626 0.2681,-0.31609 l -0.4374,-0.003 c -0.031,0.0254 -0.065,0.0452 -0.1016,0.0593 -0.037,0.0169 -0.085,0.0226 -0.1412,0.0226 -0.085,0 -0.1552,-0.0198 -0.2116,-0.0593 -0.056,-0.0395 -0.093,-0.096 -0.1101,-0.16651 h 1.0471 c 0.01,-0.0565 0.011,-0.11289 0.011,-0.17498 -0.01,-0.14111 -0.042,-0.26529 -0.1157,-0.37253 -0.073,-0.10442 -0.1637,-0.18345 -0.2737,-0.23989 -0.1129,-0.0565 -0.2286,-0.0847 -0.3472,-0.0847 -0.1326,0 -0.254,0.0339 -0.364,0.1016 -0.1101,0.0677 -0.1976,0.15522 -0.2597,0.26811 z m 0.9681,0.20885 h -0.6661 c 0.028,-0.0677 0.073,-0.12136 0.1298,-0.16087 0.056,-0.0395 0.1242,-0.0593 0.2032,-0.0593 0.071,0 0.1355,0.0226 0.1976,0.0621 0.062,0.0395 0.1072,0.0931 0.1355,0.15805 z"
           style="font-style:normal;font-variant:normal;font-weight:normal;font-stretch:normal;font-size:2.82222223px;font-family:NordiquePro-Bold;-inkscape-font-specification:'NordiquePro-Bold, Normal';font-variant-ligatures:normal;font-variant-caps:normal;font-variant-numeric:normal;font-feature-settings:normal;text-align:start;writing-mode:lr-tb;text-anchor:start;fill:#ffffff;stroke-width:0.26458332"
           id="path5330" />
        <path
           inkscape:connector-curvature="0"
           d="m 1401.7298,359.33969 h 0.3669 v -1.97555 h -0.3669 z"
           style="font-style:normal;font-variant:normal;font-weight:normal;font-stretch:normal;font-size:2.82222223px;font-family:NordiquePro-Bold;-inkscape-font-specification:'NordiquePro-Bold, Normal';font-variant-ligatures:normal;font-variant-caps:normal;font-variant-numeric:normal;font-feature-settings:normal;text-align:start;writing-mode:lr-tb;text-anchor:start;fill:#ffffff;stroke-width:0.26458332"
           id="path5332" />
        <path
           inkscape:connector-curvature="0"
           d="m 1403.3426,358.00478 c -0.1129,-0.0649 -0.2343,-0.0988 -0.3641,-0.0988 -0.1326,0 -0.254,0.0339 -0.3669,0.0988 -0.1129,0.0649 -0.2003,0.1524 -0.2653,0.26529 -0.065,0.11289 -0.096,0.23424 -0.096,0.36407 0,0.13264 0.031,0.254 0.096,0.36688 0.065,0.11289 0.1524,0.20038 0.2653,0.26529 0.1129,0.0649 0.2343,0.096 0.3669,0.096 0.1298,0 0.2512,-0.0311 0.3641,-0.096 0.1129,-0.0649 0.2004,-0.1524 0.2653,-0.26529 0.065,-0.11288 0.099,-0.23424 0.099,-0.36688 0,-0.12983 -0.034,-0.25118 -0.099,-0.36407 -0.065,-0.11289 -0.1524,-0.20038 -0.2653,-0.26529 z m -0.6209,0.36689 c 0.068,-0.0706 0.1552,-0.10725 0.2596,-0.10725 0.1016,0 0.1891,0.0367 0.2569,0.10725 0.068,0.0706 0.1016,0.15804 0.1016,0.26247 0,0.10724 -0.034,0.19473 -0.1016,0.26528 -0.068,0.0706 -0.1553,0.10443 -0.2569,0.10443 -0.1044,0 -0.1919,-0.0339 -0.2596,-0.10443 -0.071,-0.0706 -0.1044,-0.15804 -0.1044,-0.26528 0,-0.10443 0.034,-0.19192 0.1044,-0.26247 z"
           style="font-style:normal;font-variant:normal;font-weight:normal;font-stretch:normal;font-size:2.82222223px;font-family:NordiquePro-Bold;-inkscape-font-specification:'NordiquePro-Bold, Normal';font-variant-ligatures:normal;font-variant-caps:normal;font-variant-numeric:normal;font-feature-settings:normal;text-align:start;writing-mode:lr-tb;text-anchor:start;fill:#ffffff;stroke-width:0.26458332"
           id="path5334" />
        <path
           inkscape:connector-curvature="0"
           d="m 1403.959,358.27007 c -0.065,0.11289 -0.096,0.23424 -0.096,0.36407 v 1.27 h 0.3697 v -0.64912 c 0.099,0.0734 0.2173,0.10725 0.3556,0.10725 0.1299,0 0.2512,-0.0311 0.3641,-0.096 0.1101,-0.0649 0.1976,-0.1524 0.2653,-0.26529 0.065,-0.11288 0.099,-0.23424 0.099,-0.36688 0,-0.12983 -0.034,-0.25118 -0.099,-0.36407 -0.068,-0.11289 -0.1552,-0.20038 -0.2653,-0.26529 -0.1129,-0.0649 -0.2342,-0.0988 -0.3641,-0.0988 -0.1326,0 -0.254,0.0339 -0.364,0.0988 -0.1129,0.0649 -0.2004,0.1524 -0.2653,0.26529 z m 0.889,0.62935 c -0.068,0.0706 -0.1552,0.10443 -0.2568,0.10443 -0.1045,0 -0.192,-0.0339 -0.2597,-0.10443 -0.071,-0.0706 -0.1044,-0.15804 -0.1044,-0.26528 0,-0.10443 0.034,-0.19192 0.1044,-0.26247 0.068,-0.0706 0.1552,-0.10725 0.2597,-0.10725 0.1016,0 0.189,0.0367 0.2568,0.10725 0.068,0.0706 0.1016,0.15804 0.1016,0.26247 0,0.10724 -0.034,0.19473 -0.1016,0.26528 z"
           style="font-style:normal;font-variant:normal;font-weight:normal;font-stretch:normal;font-size:2.82222223px;font-family:NordiquePro-Bold;-inkscape-font-specification:'NordiquePro-Bold, Normal';font-variant-ligatures:normal;font-variant-caps:normal;font-variant-numeric:normal;font-feature-settings:normal;text-align:start;writing-mode:lr-tb;text-anchor:start;fill:#ffffff;stroke-width:0.26458332"
           id="path5336" />
        <path
           inkscape:connector-curvature="0"
           d="m 1407.4707,358.08098 c -0.1185,-0.11571 -0.2709,-0.17498 -0.46,-0.17498 -0.096,0 -0.1806,0.0169 -0.2597,0.0508 -0.079,0.0339 -0.1411,0.0819 -0.1919,0.14394 -0.051,-0.0621 -0.1157,-0.11007 -0.1947,-0.14394 -0.079,-0.0339 -0.1637,-0.0508 -0.2568,-0.0508 -0.1919,0 -0.3443,0.0593 -0.4601,0.17498 -0.1185,0.11853 -0.1749,0.29069 -0.1749,0.51647 v 0.74224 h 0.3669 v -0.74224 c 0,-0.11289 0.02,-0.19474 0.065,-0.25118 0.045,-0.0536 0.1129,-0.0819 0.2032,-0.0819 0.09,0 0.158,0.0282 0.2032,0.0819 0.042,0.0564 0.065,0.13829 0.065,0.25118 v 0.74224 h 0.3669 v -0.74224 c 0,-0.11289 0.02,-0.19474 0.065,-0.25118 0.045,-0.0536 0.1129,-0.0819 0.2032,-0.0819 0.09,0 0.158,0.0282 0.2032,0.0819 0.042,0.0564 0.065,0.13829 0.065,0.25118 v 0.74224 h 0.3669 v -0.74224 c 0,-0.22578 -0.059,-0.39794 -0.175,-0.51647 z"
           style="font-style:normal;font-variant:normal;font-weight:normal;font-stretch:normal;font-size:2.82222223px;font-family:NordiquePro-Bold;-inkscape-font-specification:'NordiquePro-Bold, Normal';font-variant-ligatures:normal;font-variant-caps:normal;font-variant-numeric:normal;font-feature-settings:normal;text-align:start;writing-mode:lr-tb;text-anchor:start;fill:#ffffff;stroke-width:0.26458332"
           id="path5338" />
        <path
           inkscape:connector-curvature="0"
           d="m 1407.8943,358.27571 c -0.062,0.11289 -0.093,0.23143 -0.093,0.36125 0,0.13264 0.031,0.254 0.096,0.36406 0.065,0.11289 0.1524,0.20038 0.2653,0.26529 0.11,0.0649 0.2314,0.096 0.3669,0.096 0.1467,0 0.2794,-0.0395 0.4007,-0.12136 0.1185,-0.079 0.2089,-0.18626 0.2681,-0.31609 l -0.4374,-0.003 c -0.031,0.0254 -0.065,0.0452 -0.1016,0.0593 -0.037,0.0169 -0.085,0.0226 -0.1411,0.0226 -0.085,0 -0.1553,-0.0198 -0.2117,-0.0593 -0.056,-0.0395 -0.093,-0.096 -0.1101,-0.16651 h 1.0471 c 0.01,-0.0565 0.011,-0.11289 0.011,-0.17498 -0.01,-0.14111 -0.042,-0.26529 -0.1157,-0.37253 -0.073,-0.10442 -0.1637,-0.18345 -0.2738,-0.23989 -0.1129,-0.0565 -0.2286,-0.0847 -0.3471,-0.0847 -0.1327,0 -0.254,0.0339 -0.3641,0.1016 -0.1101,0.0677 -0.1976,0.15522 -0.2596,0.26811 z m 0.968,0.20885 h -0.6661 c 0.028,-0.0677 0.073,-0.12136 0.1299,-0.16087 0.056,-0.0395 0.1241,-0.0593 0.2032,-0.0593 0.071,0 0.1354,0.0226 0.1975,0.0621 0.062,0.0395 0.1073,0.0931 0.1355,0.15805 z"
           style="font-style:normal;font-variant:normal;font-weight:normal;font-stretch:normal;font-size:2.82222223px;font-family:NordiquePro-Bold;-inkscape-font-specification:'NordiquePro-Bold, Normal';font-variant-ligatures:normal;font-variant-caps:normal;font-variant-numeric:normal;font-feature-settings:normal;text-align:start;writing-mode:lr-tb;text-anchor:start;fill:#ffffff;stroke-width:0.26458332"
           id="path5340" />
        <path
           inkscape:connector-curvature="0"
           d="m 1410.65,358.59745 v 0.74224 h -0.3669 v -0.74224 c 0,-0.11289 -0.023,-0.19756 -0.062,-0.25118 -0.04,-0.0536 -0.1044,-0.0819 -0.1919,-0.0819 -0.09,0 -0.1552,0.0282 -0.1947,0.0819 -0.039,0.0536 -0.059,0.13829 -0.059,0.25118 v 0.74224 h -0.3669 v -0.74224 c 0,-0.2286 0.056,-0.40076 0.1694,-0.51647 0.1129,-0.11571 0.2624,-0.17498 0.4515,-0.17498 0.1863,0 0.3387,0.0593 0.4516,0.17498 0.1129,0.11571 0.1693,0.28787 0.1693,0.51647 z"
           style="font-style:normal;font-variant:normal;font-weight:normal;font-stretch:normal;font-size:2.82222223px;font-family:NordiquePro-Bold;-inkscape-font-specification:'NordiquePro-Bold, Normal';font-variant-ligatures:normal;font-variant-caps:normal;font-variant-numeric:normal;font-feature-settings:normal;text-align:start;writing-mode:lr-tb;text-anchor:start;fill:#ffffff;stroke-width:0.26458332"
           id="path5342" />
        <path
           inkscape:connector-curvature="0"
           d="m 1411.3005,358.287 h 0.254 v -0.35842 h -0.254 v -0.56162 h -0.3669 v 0.56162 h -0.2089 v 0.35842 h 0.2089 v 0.38665 c 0,0.2286 0.054,0.39793 0.1665,0.508 0.1129,0.11289 0.2624,0.16651 0.4544,0.16651 v -0.35842 c -0.09,0 -0.1553,-0.0226 -0.1948,-0.0734 -0.039,-0.048 -0.059,-0.12982 -0.059,-0.24271 z"
           style="font-style:normal;font-variant:normal;font-weight:normal;font-stretch:normal;font-size:2.82222223px;font-family:NordiquePro-Bold;-inkscape-font-specification:'NordiquePro-Bold, Normal';font-variant-ligatures:normal;font-variant-caps:normal;font-variant-numeric:normal;font-feature-settings:normal;text-align:start;writing-mode:lr-tb;text-anchor:start;fill:#ffffff;stroke-width:0.26458332"
           id="path5344" />
      </g>
      <path
         id="path5348"
         d="m 1017.8616,296.81024 h 87.76 c 0.2873,0 0.5185,0.23125 0.5185,0.5185 v 49.66001 c 0,0.28724 -0.2312,0.51849 -0.5185,0.51849 h -87.76 c -0.2872,0 -0.5185,-0.23125 -0.5185,-0.51849 v -49.66002 c 0,-0.28724 0.2313,-0.51849 0.5185,-0.51849 z"
         style="display:inline;opacity:1;fill:#ffffff;fill-opacity:1;stroke:#000000;stroke-width:0.1030033;stroke-miterlimit:4;stroke-dasharray:none;stroke-opacity:1"
         inkscape:connector-curvature="0" />
      <path
         style="color:#000000;font-style:normal;font-variant:normal;font-weight:normal;font-stretch:normal;font-size:medium;line-height:normal;font-family:sans-serif;font-variant-ligatures:normal;font-variant-position:normal;font-variant-caps:normal;font-variant-numeric:normal;font-variant-alternates:normal;font-feature-settings:normal;text-indent:0;text-align:start;text-decoration:none;text-decoration-line:none;text-decoration-style:solid;text-decoration-color:#000000;letter-spacing:normal;word-spacing:normal;text-transform:none;writing-mode:lr-tb;direction:ltr;text-orientation:mixed;dominant-baseline:auto;baseline-shift:baseline;text-anchor:start;white-space:normal;shape-padding:0;clip-rule:nonzero;display:inline;overflow:visible;visibility:visible;opacity:1;isolation:auto;mix-blend-mode:normal;color-interpolation:sRGB;color-interpolation-filters:linearRGB;solid-color:#000000;solid-opacity:1;vector-effect:none;fill:#000000;fill-opacity:1;fill-rule:nonzero;stroke:none;stroke-width:0.26458332px;stroke-linecap:butt;stroke-linejoin:miter;stroke-miterlimit:4;stroke-dasharray:none;stroke-dashoffset:0;stroke-opacity:1;color-rendering:auto;image-rendering:auto;shape-rendering:auto;text-rendering:auto;enable-background:accumulate"
         d="m 1088.0316,320.93002 v 0.26562 h 18.2226 v -0.26562 z"
         id="path5388"
         inkscape:connector-curvature="0" />
      <path
         inkscape:connector-curvature="0"
         style="display:inline;opacity:1;fill:#005687;fill-opacity:1;stroke-width:0.24897368"
         d="m 1072.2561,296.76595 c -1.2044,0.0159 -5.4331,0.0443 -21.0777,0.0445 a 26.489975,26.489975 0 0 0 -15.9267,24.25846 26.489975,26.489975 0 0 0 26.4898,26.48987 26.489975,26.489975 0 0 0 26.4899,-26.48992 26.489975,26.489975 0 0 0 -15.9753,-24.30291 z"
         id="path5350" />
      <g
         transform="matrix(0.95609906,0,0,0.95609906,-276.95264,-79.573312)"
         aria-label="www.buildhello.ca"
         style="font-style:normal;font-variant:normal;font-weight:normal;font-stretch:normal;font-size:6.3499999px;line-height:1em;font-family:NordiquePro-Bold;-inkscape-font-specification:'NordiquePro-Bold, Normal';font-variant-ligatures:normal;font-variant-caps:normal;font-variant-numeric:normal;font-feature-settings:normal;text-align:start;letter-spacing:0px;word-spacing:0.0079375px;writing-mode:lr-tb;text-anchor:start;display:inline;fill:#ffffff;fill-opacity:1;stroke:none;stroke-width:0.27673215"
         id="g5386">
        <path
           inkscape:connector-curvature="0"
           d="m 1380.2229,417.24874 h -0.8382 l -0.5651,2.08915 -0.5652,-2.08915 h -0.8255 l -0.5715,2.08915 -0.5588,-2.08915 h -0.8382 l 0.9843,3.175 h 0.8255 l 0.5715,-1.905 0.5651,1.905 h 0.8255 z"
           style="font-style:normal;font-variant:normal;font-weight:normal;font-stretch:normal;font-size:6.3499999px;font-family:NordiquePro-Bold;-inkscape-font-specification:'NordiquePro-Bold, Normal';font-variant-ligatures:normal;font-variant-caps:normal;font-variant-numeric:normal;font-feature-settings:normal;text-align:start;writing-mode:lr-tb;text-anchor:start;fill:#ffffff;stroke-width:0.27673215"
           id="path5352" />
        <path
           inkscape:connector-curvature="0"
           d="m 1384.9854,417.24874 h -0.8382 l -0.5651,2.08915 -0.5652,-2.08915 h -0.8255 l -0.5715,2.08915 -0.5588,-2.08915 h -0.8382 l 0.9843,3.175 h 0.8255 l 0.5715,-1.905 0.5651,1.905 h 0.8255 z"
           style="font-style:normal;font-variant:normal;font-weight:normal;font-stretch:normal;font-size:6.3499999px;font-family:NordiquePro-Bold;-inkscape-font-specification:'NordiquePro-Bold, Normal';font-variant-ligatures:normal;font-variant-caps:normal;font-variant-numeric:normal;font-feature-settings:normal;text-align:start;writing-mode:lr-tb;text-anchor:start;fill:#ffffff;stroke-width:0.27673215"
           id="path5354" />
        <path
           inkscape:connector-curvature="0"
           d="m 1389.7479,417.24874 h -0.8382 l -0.5651,2.08915 -0.5652,-2.08915 h -0.8255 l -0.5715,2.08915 -0.5588,-2.08915 h -0.8382 l 0.9843,3.175 h 0.8255 l 0.5715,-1.905 0.5651,1.905 h 0.8255 z"
           style="font-style:normal;font-variant:normal;font-weight:normal;font-stretch:normal;font-size:6.3499999px;font-family:NordiquePro-Bold;-inkscape-font-specification:'NordiquePro-Bold, Normal';font-variant-ligatures:normal;font-variant-caps:normal;font-variant-numeric:normal;font-feature-settings:normal;text-align:start;writing-mode:lr-tb;text-anchor:start;fill:#ffffff;stroke-width:0.27673215"
           id="path5356" />
        <path
           inkscape:connector-curvature="0"
           d="m 1389.7207,420.42374 v -0.83185 h 0.8255 v 0.83185 z"
           style="font-style:normal;font-variant:normal;font-weight:normal;font-stretch:normal;font-size:6.3499999px;font-family:NordiquePro-Bold;-inkscape-font-specification:'NordiquePro-Bold, Normal';font-variant-ligatures:normal;font-variant-caps:normal;font-variant-numeric:normal;font-feature-settings:normal;text-align:start;writing-mode:lr-tb;text-anchor:start;fill:#ffffff;stroke-width:0.27673215"
           id="path5358" />
        <path
           inkscape:connector-curvature="0"
           d="m 1390.8934,415.97874 v 2.8575 c 0,0.29845 0.07,0.5715 0.2159,0.8255 0.1461,0.254 0.3429,0.45085 0.5969,0.5969 0.2477,0.14605 0.5207,0.2159 0.8192,0.2159 0.2921,0 0.5651,-0.0698 0.8191,-0.2159 0.2477,-0.14605 0.4445,-0.3429 0.5969,-0.5969 0.1461,-0.254 0.2223,-0.52705 0.2223,-0.8255 0,-0.2921 -0.076,-0.56515 -0.2223,-0.81915 -0.1524,-0.254 -0.3492,-0.45085 -0.5969,-0.5969 -0.254,-0.14605 -0.527,-0.22225 -0.8191,-0.22225 -0.3112,0 -0.5779,0.0825 -0.8001,0.2413 v -1.4605 z m 1.0541,2.26695 c 0.1524,-0.15875 0.3493,-0.2413 0.5842,-0.2413 0.2286,0 0.4255,0.0826 0.5779,0.2413 0.1524,0.15875 0.2286,0.3556 0.2286,0.59055 0,0.2413 -0.076,0.43815 -0.2286,0.5969 -0.1524,0.15875 -0.3493,0.23495 -0.5779,0.23495 -0.2349,0 -0.4318,-0.0762 -0.5842,-0.23495 -0.1587,-0.15875 -0.2349,-0.3556 -0.2349,-0.5969 0,-0.23495 0.076,-0.4318 0.2349,-0.59055 z"
           style="font-style:normal;font-variant:normal;font-weight:normal;font-stretch:normal;font-size:6.3499999px;font-family:NordiquePro-Bold;-inkscape-font-specification:'NordiquePro-Bold, Normal';font-variant-ligatures:normal;font-variant-caps:normal;font-variant-numeric:normal;font-feature-settings:normal;text-align:start;writing-mode:lr-tb;text-anchor:start;fill:#ffffff;stroke-width:0.27673215"
           id="path5360" />
        <path
           inkscape:connector-curvature="0"
           d="m 1396.4834,417.24874 h 0.8255 v 1.67005 c 0,0.5207 -0.127,0.90805 -0.381,1.1684 -0.254,0.26035 -0.5969,0.38735 -1.016,0.38735 -0.4254,0 -0.762,-0.127 -1.016,-0.38735 -0.254,-0.26035 -0.381,-0.6477 -0.381,-1.1684 v -1.67005 h 0.8255 v 1.67005 c 0,0.26035 0.044,0.45085 0.1334,0.5715 0.089,0.12065 0.2349,0.1778 0.4381,0.1778 0.1969,0 0.3429,-0.0571 0.4318,-0.1778 0.089,-0.12065 0.1397,-0.31115 0.1397,-0.5715 z"
           style="font-style:normal;font-variant:normal;font-weight:normal;font-stretch:normal;font-size:6.3499999px;font-family:NordiquePro-Bold;-inkscape-font-specification:'NordiquePro-Bold, Normal';font-variant-ligatures:normal;font-variant-caps:normal;font-variant-numeric:normal;font-feature-settings:normal;text-align:start;writing-mode:lr-tb;text-anchor:start;fill:#ffffff;stroke-width:0.27673215"
           id="path5362" />
        <path
           inkscape:connector-curvature="0"
           d="m 1397.8916,416.77249 c 0.095,0.0953 0.2159,0.1397 0.3556,0.1397 0.1334,0 0.2477,-0.0444 0.3429,-0.1397 0.095,-0.0953 0.1461,-0.2159 0.1461,-0.3556 0,-0.13335 -0.051,-0.24765 -0.1461,-0.3429 -0.095,-0.0952 -0.2095,-0.14605 -0.3429,-0.14605 -0.1397,0 -0.2603,0.0508 -0.3556,0.14605 -0.095,0.0953 -0.1397,0.20955 -0.1397,0.3429 0,0.1397 0.044,0.26035 0.1397,0.3556 z m -0.057,0.47625 v 3.175 h 0.8255 v -3.175 z"
           style="font-style:normal;font-variant:normal;font-weight:normal;font-stretch:normal;font-size:6.3499999px;font-family:NordiquePro-Bold;-inkscape-font-specification:'NordiquePro-Bold, Normal';font-variant-ligatures:normal;font-variant-caps:normal;font-variant-numeric:normal;font-feature-settings:normal;text-align:start;writing-mode:lr-tb;text-anchor:start;fill:#ffffff;stroke-width:0.27673215"
           id="path5364" />
        <path
           inkscape:connector-curvature="0"
           d="m 1399.2402,420.42374 h 0.8255 v -4.445 h -0.8255 z"
           style="font-style:normal;font-variant:normal;font-weight:normal;font-stretch:normal;font-size:6.3499999px;font-family:NordiquePro-Bold;-inkscape-font-specification:'NordiquePro-Bold, Normal';font-variant-ligatures:normal;font-variant-caps:normal;font-variant-numeric:normal;font-feature-settings:normal;text-align:start;writing-mode:lr-tb;text-anchor:start;fill:#ffffff;stroke-width:0.27673215"
           id="path5366" />
        <path
           inkscape:connector-curvature="0"
           d="m 1403.4595,419.66174 c 0.146,-0.254 0.2222,-0.52705 0.2222,-0.8255 v -2.8575 h -0.8318 v 1.4605 c -0.2286,-0.15875 -0.4953,-0.2413 -0.8001,-0.2413 -0.2985,0 -0.5715,0.0762 -0.8192,0.22225 -0.254,0.14605 -0.4508,0.3429 -0.5969,0.5969 -0.1524,0.254 -0.2222,0.52705 -0.2222,0.81915 0,0.29845 0.07,0.5715 0.2222,0.8255 0.1461,0.254 0.3429,0.45085 0.5969,0.5969 0.2477,0.14605 0.5207,0.2159 0.8192,0.2159 0.2921,0 0.5651,-0.0698 0.8191,-0.2159 0.2477,-0.14605 0.4445,-0.3429 0.5906,-0.5969 z m -1.9939,-1.41605 c 0.1524,-0.15875 0.3429,-0.2413 0.5778,-0.2413 0.2286,0 0.4255,0.0826 0.5842,0.2413 0.1524,0.15875 0.235,0.3556 0.235,0.59055 0,0.2413 -0.083,0.43815 -0.235,0.5969 -0.1587,0.15875 -0.3556,0.23495 -0.5842,0.23495 -0.2349,0 -0.4254,-0.0762 -0.5778,-0.23495 -0.1524,-0.15875 -0.2286,-0.3556 -0.2286,-0.5969 0,-0.23495 0.076,-0.4318 0.2286,-0.59055 z"
           style="font-style:normal;font-variant:normal;font-weight:normal;font-stretch:normal;font-size:6.3499999px;font-family:NordiquePro-Bold;-inkscape-font-specification:'NordiquePro-Bold, Normal';font-variant-ligatures:normal;font-variant-caps:normal;font-variant-numeric:normal;font-feature-settings:normal;text-align:start;writing-mode:lr-tb;text-anchor:start;fill:#ffffff;stroke-width:0.27673215"
           id="path5368" />
        <path
           inkscape:connector-curvature="0"
           d="m 1406.6017,417.59164 c -0.254,-0.26035 -0.5969,-0.3937 -1.016,-0.3937 -0.2286,0 -0.4191,0.0571 -0.5715,0.15875 v -1.37795 h -0.8255 v 4.445 h 0.8255 v -1.67005 c 0,-0.254 0.044,-0.4445 0.1334,-0.56515 0.089,-0.12065 0.2349,-0.18415 0.4381,-0.18415 0.1969,0 0.3429,0.0635 0.4318,0.18415 0.089,0.12065 0.1397,0.31115 0.1397,0.56515 v 1.67005 h 0.8255 v -1.67005 c 0,-0.51435 -0.127,-0.9017 -0.381,-1.16205 z"
           style="font-style:normal;font-variant:normal;font-weight:normal;font-stretch:normal;font-size:6.3499999px;font-family:NordiquePro-Bold;-inkscape-font-specification:'NordiquePro-Bold, Normal';font-variant-ligatures:normal;font-variant-caps:normal;font-variant-numeric:normal;font-feature-settings:normal;text-align:start;writing-mode:lr-tb;text-anchor:start;fill:#ffffff;stroke-width:0.27673215"
           id="path5370" />
        <path
           inkscape:connector-curvature="0"
           d="m 1407.5415,418.02979 c -0.1397,0.254 -0.2095,0.5207 -0.2095,0.8128 0,0.29845 0.07,0.5715 0.2159,0.81915 0.146,0.254 0.3429,0.45085 0.5969,0.5969 0.2476,0.14605 0.5207,0.2159 0.8255,0.2159 0.3302,0 0.6286,-0.0889 0.9017,-0.27305 0.2667,-0.1778 0.4699,-0.4191 0.6032,-0.7112 l -0.9842,-0.006 c -0.07,0.0571 -0.1461,0.1016 -0.2286,0.13335 -0.083,0.0381 -0.1905,0.0508 -0.3175,0.0508 -0.1905,0 -0.3493,-0.0444 -0.4763,-0.13335 -0.127,-0.0889 -0.2095,-0.2159 -0.2476,-0.37465 h 2.3558 c 0.019,-0.127 0.025,-0.254 0.025,-0.3937 -0.013,-0.3175 -0.095,-0.5969 -0.2603,-0.8382 -0.1651,-0.23495 -0.3683,-0.41275 -0.616,-0.53975 -0.254,-0.127 -0.5143,-0.1905 -0.781,-0.1905 -0.2985,0 -0.5715,0.0762 -0.8192,0.2286 -0.2476,0.1524 -0.4445,0.34925 -0.5842,0.60325 z m 2.1781,0.4699 h -1.4986 c 0.063,-0.1524 0.1651,-0.27305 0.2921,-0.36195 0.127,-0.0889 0.2794,-0.13335 0.4572,-0.13335 0.1587,0 0.3048,0.0508 0.4445,0.1397 0.1397,0.0889 0.2413,0.20955 0.3048,0.3556 z"
           style="font-style:normal;font-variant:normal;font-weight:normal;font-stretch:normal;font-size:6.3499999px;font-family:NordiquePro-Bold;-inkscape-font-specification:'NordiquePro-Bold, Normal';font-variant-ligatures:normal;font-variant-caps:normal;font-variant-numeric:normal;font-feature-settings:normal;text-align:start;writing-mode:lr-tb;text-anchor:start;fill:#ffffff;stroke-width:0.27673215"
           id="path5372" />
        <path
           inkscape:connector-curvature="0"
           d="m 1410.948,420.42374 h 0.8255 v -4.445 h -0.8255 z"
           style="font-style:normal;font-variant:normal;font-weight:normal;font-stretch:normal;font-size:6.3499999px;font-family:NordiquePro-Bold;-inkscape-font-specification:'NordiquePro-Bold, Normal';font-variant-ligatures:normal;font-variant-caps:normal;font-variant-numeric:normal;font-feature-settings:normal;text-align:start;writing-mode:lr-tb;text-anchor:start;fill:#ffffff;stroke-width:0.27673215"
           id="path5374" />
        <path
           inkscape:connector-curvature="0"
           d="m 1412.2751,420.42374 h 0.8255 v -4.445 h -0.8255 z"
           style="font-style:normal;font-variant:normal;font-weight:normal;font-stretch:normal;font-size:6.3499999px;font-family:NordiquePro-Bold;-inkscape-font-specification:'NordiquePro-Bold, Normal';font-variant-ligatures:normal;font-variant-caps:normal;font-variant-numeric:normal;font-feature-settings:normal;text-align:start;writing-mode:lr-tb;text-anchor:start;fill:#ffffff;stroke-width:0.27673215"
           id="path5376" />
        <path
           inkscape:connector-curvature="0"
           d="m 1415.9038,417.42019 c -0.254,-0.14605 -0.5271,-0.22225 -0.8192,-0.22225 -0.2984,0 -0.5715,0.0762 -0.8255,0.22225 -0.254,0.14605 -0.4508,0.3429 -0.5969,0.5969 -0.146,0.254 -0.2159,0.52705 -0.2159,0.81915 0,0.29845 0.07,0.5715 0.2159,0.8255 0.1461,0.254 0.3429,0.45085 0.5969,0.5969 0.254,0.14605 0.5271,0.2159 0.8255,0.2159 0.2921,0 0.5652,-0.0698 0.8192,-0.2159 0.254,-0.14605 0.4508,-0.3429 0.5969,-0.5969 0.146,-0.254 0.2222,-0.52705 0.2222,-0.8255 0,-0.2921 -0.076,-0.56515 -0.2222,-0.81915 -0.1461,-0.254 -0.3429,-0.45085 -0.5969,-0.5969 z m -1.397,0.8255 c 0.1524,-0.15875 0.3492,-0.2413 0.5842,-0.2413 0.2286,0 0.4254,0.0826 0.5778,0.2413 0.1524,0.15875 0.2286,0.3556 0.2286,0.59055 0,0.2413 -0.076,0.43815 -0.2286,0.5969 -0.1524,0.15875 -0.3492,0.23495 -0.5778,0.23495 -0.235,0 -0.4318,-0.0762 -0.5842,-0.23495 -0.1588,-0.15875 -0.235,-0.3556 -0.235,-0.5969 0,-0.23495 0.076,-0.4318 0.235,-0.59055 z"
           style="font-style:normal;font-variant:normal;font-weight:normal;font-stretch:normal;font-size:6.3499999px;font-family:NordiquePro-Bold;-inkscape-font-specification:'NordiquePro-Bold, Normal';font-variant-ligatures:normal;font-variant-caps:normal;font-variant-numeric:normal;font-feature-settings:normal;text-align:start;writing-mode:lr-tb;text-anchor:start;fill:#ffffff;stroke-width:0.27673215"
           id="path5378" />
        <path
           inkscape:connector-curvature="0"
           d="m 1416.919,420.42374 v -0.83185 h 0.8255 v 0.83185 z"
           style="font-style:normal;font-variant:normal;font-weight:normal;font-stretch:normal;font-size:6.3499999px;font-family:NordiquePro-Bold;-inkscape-font-specification:'NordiquePro-Bold, Normal';font-variant-ligatures:normal;font-variant-caps:normal;font-variant-numeric:normal;font-feature-settings:normal;text-align:start;writing-mode:lr-tb;text-anchor:start;fill:#ffffff;stroke-width:0.27673215"
           id="path5380" />
        <path
           inkscape:connector-curvature="0"
           d="m 1418.8728,420.25864 c 0.254,0.14605 0.5271,0.2159 0.8255,0.2159 0.3683,0 0.6922,-0.10795 0.9843,-0.32385 0.2857,-0.2159 0.4826,-0.48895 0.5842,-0.83185 h -0.8954 c -0.076,0.1143 -0.1714,0.19685 -0.2857,0.26035 -0.1143,0.0635 -0.2413,0.0889 -0.381,0.0889 -0.235,0 -0.4318,-0.0762 -0.5842,-0.23495 -0.1588,-0.15875 -0.235,-0.3556 -0.235,-0.5969 0,-0.23495 0.076,-0.4318 0.235,-0.59055 0.1524,-0.15875 0.3492,-0.2413 0.5842,-0.2413 0.146,0 0.2794,0.0381 0.4,0.1016 0.1207,0.0698 0.2159,0.1651 0.2921,0.2794 h 0.8763 c -0.1016,-0.3429 -0.2921,-0.62865 -0.5842,-0.8509 -0.2921,-0.22225 -0.6223,-0.33655 -0.9906,-0.33655 -0.2984,0 -0.5715,0.0762 -0.8255,0.22225 -0.254,0.14605 -0.4508,0.3429 -0.5969,0.5969 -0.146,0.254 -0.2159,0.52705 -0.2159,0.81915 0,0.29845 0.07,0.5715 0.2159,0.8255 0.1461,0.254 0.3429,0.45085 0.5969,0.5969 z"
           style="font-style:normal;font-variant:normal;font-weight:normal;font-stretch:normal;font-size:6.3499999px;font-family:NordiquePro-Bold;-inkscape-font-specification:'NordiquePro-Bold, Normal';font-variant-ligatures:normal;font-variant-caps:normal;font-variant-numeric:normal;font-feature-settings:normal;text-align:start;writing-mode:lr-tb;text-anchor:start;fill:#ffffff;stroke-width:0.27673215"
           id="path5382" />
        <path
           inkscape:connector-curvature="0"
           d="m 1422.4138,420.25864 c 0.2477,0.14605 0.5207,0.2159 0.8192,0.2159 0.1778,0 0.3429,-0.0381 0.5016,-0.1143 0.1524,-0.0762 0.254,-0.1651 0.3048,-0.27305 v 0.33655 h 0.8255 v -1.5875 c 0,-0.2921 -0.076,-0.56515 -0.2222,-0.81915 -0.1461,-0.254 -0.3429,-0.45085 -0.5906,-0.5969 -0.254,-0.14605 -0.527,-0.22225 -0.8191,-0.22225 -0.2985,0 -0.5715,0.0762 -0.8192,0.22225 -0.254,0.14605 -0.4508,0.3429 -0.5969,0.5969 -0.1524,0.254 -0.2222,0.52705 -0.2222,0.81915 0,0.29845 0.07,0.5715 0.2222,0.8255 0.1461,0.254 0.3429,0.45085 0.5969,0.5969 z m 1.4034,-0.8255 c -0.1524,0.15875 -0.3493,0.23495 -0.5779,0.23495 -0.2349,0 -0.4318,-0.0762 -0.5842,-0.23495 -0.1587,-0.15875 -0.2349,-0.3556 -0.2349,-0.5969 0,-0.23495 0.076,-0.4318 0.2349,-0.59055 0.1524,-0.15875 0.3493,-0.2413 0.5842,-0.2413 0.2286,0 0.4255,0.0826 0.5779,0.2413 0.1524,0.15875 0.2286,0.3556 0.2286,0.59055 0,0.2413 -0.076,0.43815 -0.2286,0.5969 z"
           style="font-style:normal;font-variant:normal;font-weight:normal;font-stretch:normal;font-size:6.3499999px;font-family:NordiquePro-Bold;-inkscape-font-specification:'NordiquePro-Bold, Normal';font-variant-ligatures:normal;font-variant-caps:normal;font-variant-numeric:normal;font-feature-settings:normal;text-align:start;writing-mode:lr-tb;text-anchor:start;fill:#ffffff;stroke-width:0.27673215"
           id="path5384" />
      </g>
      <g
         transform="translate(106.89167,-2.38125)"
         id="g5394">
        <path
           inkscape:transform-center-y="2.4473958"
           inkscape:transform-center-x="-4.1665857"
           inkscape:connector-curvature="0"
           id="path5390"
           d="m 920.33526,290.31358 a 1.9037329,1.9040079 0 0 0 -1.90349,1.90376 1.9037329,1.9040079 0 0 0 1.90349,1.90428 1.9037329,1.9040079 0 0 0 1.90451,-1.90428 1.9037329,1.9040079 0 0 0 -1.90451,-1.90376 z"
           style="display:inline;opacity:1;fill:#005687;fill-opacity:1;stroke-width:0.18132101" />
        <path
           id="path5392"
           d="m 920.77532,292.40599 c -0.12559,0.12558 -0.12559,0.25117 -0.25116,0.25117 -0.1256,0 -0.25118,-0.12559 -0.37677,-0.25117 -0.12559,-0.12559 -0.25118,-0.25118 -0.25118,-0.37676 0,-0.12559 0.12559,-0.12559 0.25118,-0.25118 0.12559,-0.12559 -0.25118,-0.50235 -0.37676,-0.50235 -0.1256,0 -0.37676,0.37676 -0.37676,0.37676 0,0.25118 0.25808,0.76043 0.50234,1.0047 0.24427,0.24426 0.75352,0.50235 1.00468,0.50235 0,0 0.37679,-0.25118 0.37679,-0.37677 0,-0.12558 -0.37679,-0.50234 -0.50236,-0.37675 z"
           inkscape:connector-curvature="0"
           style="fill:#ffffff;fill-opacity:1;stroke-width:0.12558688" />
      </g>
      <g
         id="g5414"
         transform="translate(106.96067,-2.38125)">
        <path
           style="display:inline;opacity:1;fill:#005687;fill-opacity:1;stroke-width:0.18132101"
           d="m 920.28449,278.93646 a 1.9037329,1.9040079 0 0 0 -1.90349,1.90376 1.9037329,1.9040079 0 0 0 1.90349,1.90428 1.9037329,1.9040079 0 0 0 1.90451,-1.90428 1.9037329,1.9040079 0 0 0 -1.90451,-1.90376 z"
           id="path5396"
           inkscape:connector-curvature="0"
           inkscape:transform-center-x="-4.1665857"
           inkscape:transform-center-y="2.4473958" />
        <g
           transform="matrix(0.79201658,0,0,0.79201658,162.50618,157.59389)"
           id="g5412"
           style="fill:#ffffff;fill-opacity:1">
          <g
             transform="matrix(1.0000062,0,0,1.0000062,-0.91966688,20.357365)"
             id="g5410"
             style="fill:#ffffff;fill-opacity:1">
            <g
               id="g5408"
               transform="translate(5.0255445,60.270439)"
               style="fill:#ffffff;fill-opacity:1">
              <g
                 transform="matrix(1.9727627,0,0,1.9727627,-917.94862,-116.99041)"
                 id="g5406"
                 style="fill:#ffffff;fill-opacity:1">
                <g
                   id="g5404"
                   style="fill:#ffffff;fill-opacity:1">
                  <g
                     transform="translate(2.6823635,-21.727144)"
                     id="g5402"
                     style="fill:#ffffff;fill-opacity:1">
                    <path
                       style="fill:#ffffff;fill-opacity:1;stroke-width:0.26458332"
                       d="m 945.13831,118.73886 c 0,-0.21907 0.1778,-0.39687 0.39687,-0.39687 0.21908,0 0.39688,0.1778 0.39688,0.39687 0,0.21908 -0.1778,0.39688 -0.39688,0.39688 -0.21907,0 -0.39687,-0.1778 -0.39687,-0.39688 z"
                       id="path5398"
                       inkscape:connector-curvature="0" />
                    <path
                       style="fill:#ffffff;fill-opacity:1;stroke-width:0.26458332"
                       d="m 945.79977,119.20654 h -0.52917 c -0.21828,0 -0.39687,0.11906 -0.39687,0.26458 v 0.26458 h 1.32291 v -0.26458 c 0,-0.14552 -0.17859,-0.26458 -0.39687,-0.26458 z"
                       id="path5400"
                       inkscape:connector-curvature="0" />
                  </g>
                </g>
              </g>
            </g>
          </g>
        </g>
      </g>
      <g
         id="g5420"
         transform="translate(106.99202,-2.38125)">
        <path
           style="display:inline;opacity:1;fill:#005687;fill-opacity:1;stroke-width:0.18132101"
           d="m 920.23014,284.5695 a 1.9037329,1.9040079 0 0 0 -1.90349,1.90376 1.9037329,1.9040079 0 0 0 1.90349,1.90428 1.9037329,1.9040079 0 0 0 1.90451,-1.90428 1.9037329,1.9040079 0 0 0 -1.90451,-1.90376 z"
           id="path5416"
           inkscape:connector-curvature="0"
           inkscape:transform-center-x="-4.1665857"
           inkscape:transform-center-y="2.4473958" />
        <path
           id="path5418"
           d="m 921.14819,285.55595 h -1.83515 c -0.11646,0 -0.2117,0.0953 -0.2117,0.21175 v 1.41165 c 0,0.11646 0.0952,0.21174 0.2117,0.21174 h 1.83515 c 0.11648,0 0.21177,-0.0953 0.21177,-0.21174 v -1.41165 c 0,-0.11647 -0.0953,-0.21175 -0.21177,-0.21175 z m -1.16742,0.93169 -0.59714,0.46514 v -1.10645 z m -0.49044,-0.64936 h 1.48057 l -0.74028,0.55591 z m 0.51375,0.67435 0.22654,0.24322 0.22659,-0.24322 0.46444,0.59613 h -1.382 z m 0.47639,-0.0249 0.59714,-0.64132 v 1.10644 z"
           inkscape:connector-curvature="0"
           style="fill:#ffffff;fill-opacity:1;stroke-width:0.14116479" />
      </g>
      <path
         inkscape:connector-curvature="0"
         id="path5268"
         d="m 1027.2359,251.03872 a 4.8645,4.8645 0 0 0 -4.8643,4.86481 4.8645,4.8645 0 0 0 4.8643,4.86431 4.8645,4.8645 0 0 0 4.8648,-4.86431 4.8645,4.8645 0 0 0 -4.8648,-4.86481 z m -3.0815,2.54867 h 0.8573 v 1.50483 c 0.229,-0.16359 0.5032,-0.24858 0.8237,-0.24858 0.301,0 0.5827,0.0785 0.8444,0.22893 0.2552,0.15049 0.458,0.35326 0.615,0.61496 0.061,0.10625 0.1073,0.21692 0.1442,0.32969 v -2.38074 h 0.8505 v 1.41956 c 0.157,-0.1048 0.3531,-0.16331 0.5886,-0.16331 0.4319,0 0.7853,0.13742 1.047,0.40568 0.2617,0.26824 0.3922,0.6674 0.3922,1.19735 v 1.72081 h -0.8506 v -1.72081 c 10e-5,-0.26171 -0.052,-0.45808 -0.1436,-0.5824 -0.092,-0.12433 -0.2422,-0.18967 -0.445,-0.18967 -0.2093,0 -0.3595,0.0653 -0.4511,0.18967 -0.091,0.12432 -0.1375,0.32069 -0.1375,0.5824 v 1.72081 h -0.8505 v -1.16477 c -0.037,0.11316 -0.083,0.22394 -0.1442,0.3302 -0.157,0.26169 -0.3598,0.46447 -0.615,0.61495 -0.2617,0.15044 -0.5434,0.22221 -0.8444,0.22221 -0.3075,0 -0.5882,-0.0717 -0.8433,-0.22221 -0.2617,-0.15048 -0.4645,-0.35326 -0.615,-0.61495 -0.1505,-0.26171 -0.2227,-0.54309 -0.2227,-0.85059 z m 1.6877,2.0867 c -0.242,0 -0.4444,0.0855 -0.6015,0.24908 -0.1635,0.16357 -0.2423,0.36616 -0.2423,0.60824 0,0.24861 0.079,0.45139 0.2423,0.61495 0.1571,0.16354 0.3595,0.24184 0.6015,0.24184 0.2356,0 0.4383,-0.0782 0.5954,-0.24184 0.157,-0.16356 0.2356,-0.36634 0.2356,-0.61495 0,-0.24208 -0.079,-0.44467 -0.2356,-0.60824 -0.1571,-0.16367 -0.3598,-0.24908 -0.5954,-0.24908 z"
         style="display:inline;opacity:1;fill:#005687;fill-opacity:1;stroke-width:0.20383532" />
    </g>
  </g>
</svg>
