<?xml version="1.0" encoding="UTF-8" standalone="no"?>
<!-- Created with Inkscape (http://www.inkscape.org/) -->

<svg
   xmlns:dc="http://purl.org/dc/elements/1.1/"
   xmlns:cc="http://creativecommons.org/ns#"
   xmlns:rdf="http://www.w3.org/1999/02/22-rdf-syntax-ns#"
   xmlns:svg="http://www.w3.org/2000/svg"
   xmlns="http://www.w3.org/2000/svg"
   xmlns:xlink="http://www.w3.org/1999/xlink"
   xmlns:sodipodi="http://sodipodi.sourceforge.net/DTD/sodipodi-0.dtd"
   xmlns:inkscape="http://www.inkscape.org/namespaces/inkscape"
   width="831.1167"
   height="356.91501"
   viewBox="0 0 219.89962 94.433765"
   version="1.1"
   id="svg1392"
   inkscape:version="0.92.4 (5da689c313, 2019-01-14)"
   sodipodi:docname="logo40.svg">
  <defs
     id="defs1386">
    <radialGradient
       inkscape:collect="always"
       xlink:href="#linearGradient9481"
       id="radialGradient1033"
       gradientUnits="userSpaceOnUse"
       gradientTransform="matrix(0.27938717,0,0,0.26328285,76.671452,-98.691438)"
       cx="331.12781"
       cy="184.18874"
       fx="331.12781"
       fy="184.18874"
       r="32.428165" />
    <linearGradient
       inkscape:collect="always"
       id="linearGradient9481">
      <stop
         style="stop-color:#0683b5;stop-opacity:0.01176471"
         offset="0"
         id="stop9477" />
      <stop
         id="stop9485"
         offset="0.91783988"
         style="stop-color:#046b95;stop-opacity:0.62745098;" />
      <stop
         style="stop-color:#0573a0;stop-opacity:1"
         offset="1"
         id="stop9479" />
    </linearGradient>
    <radialGradient
       inkscape:collect="always"
       xlink:href="#linearGradient9497"
       id="radialGradient1035"
       gradientUnits="userSpaceOnUse"
       gradientTransform="matrix(-0.21377956,0.09161983,-0.09903994,-0.23109408,239.73696,-37.985755)"
       cx="226.93288"
       cy="174.28333"
       fx="226.93288"
       fy="174.28333"
       r="23.961483" />
    <linearGradient
       inkscape:collect="always"
       id="linearGradient9497">
      <stop
         style="stop-color:#ffffff;stop-opacity:0.78995436"
         offset="0"
         id="stop9493" />
      <stop
         style="stop-color:#ffffff;stop-opacity:0;"
         offset="1"
         id="stop9495" />
    </linearGradient>
    <radialGradient
       inkscape:collect="always"
       xlink:href="#linearGradient1011"
       id="radialGradient1013"
       cx="487.4256"
       cy="155.99599"
       fx="487.4256"
       fy="155.99599"
       r="9.0600433"
       gradientTransform="matrix(0.38597158,0,0,0.38597482,210.4184,67.80795)"
       gradientUnits="userSpaceOnUse" />
    <linearGradient
       inkscape:collect="always"
       id="linearGradient1011">
      <stop
         style="stop-color:#cda500;stop-opacity:0.00392157"
         offset="0"
         id="stop1007" />
      <stop
         id="stop1015"
         offset="0.95492786"
         style="stop-color:#d6ac00;stop-opacity:0.49803922" />
      <stop
         style="stop-color:#ffcf0d;stop-opacity:1"
         offset="1"
         id="stop1009" />
    </linearGradient>
    <radialGradient
       inkscape:collect="always"
       xlink:href="#linearGradient9497"
       id="radialGradient988"
       gradientUnits="userSpaceOnUse"
       gradientTransform="matrix(-0.08251283,0.03752616,-0.0382266,-0.09465281,425.21153,133.80742)"
       cx="226.93288"
       cy="174.28333"
       fx="226.93288"
       fy="174.28333"
       r="23.961483" />
    <radialGradient
       inkscape:collect="always"
       xlink:href="#linearGradient1011"
       id="radialGradient1050"
       gradientUnits="userSpaceOnUse"
       gradientTransform="matrix(2.0442151,0,0,2.0442323,-784.28449,-136.86488)"
       cx="487.4256"
       cy="155.99599"
       fx="487.4256"
       fy="155.99599"
       r="9.0600433" />
    <radialGradient
       inkscape:collect="always"
       xlink:href="#linearGradient9497"
       id="radialGradient1052"
       gradientUnits="userSpaceOnUse"
       gradientTransform="matrix(-0.4370114,0.19874922,-0.20245894,-0.50130818,355.70609,208.87796)"
       cx="226.93288"
       cy="174.28333"
       fx="226.93288"
       fy="174.28333"
       r="23.961483" />
    <radialGradient
       inkscape:collect="always"
       xlink:href="#linearGradient9481"
       id="radialGradient974"
       gradientUnits="userSpaceOnUse"
       gradientTransform="matrix(0.10783551,0,0,0.10783687,220.43924,175.10167)"
       cx="331.12781"
       cy="184.18874"
       fx="331.12781"
       fy="184.18874"
       r="32.428165" />
    <radialGradient
       inkscape:collect="always"
       xlink:href="#linearGradient9497"
       id="radialGradient976"
       gradientUnits="userSpaceOnUse"
       gradientTransform="matrix(-0.08251284,0.03752617,-0.0382266,-0.09465282,282.8073,200.75298)"
       cx="226.93288"
       cy="174.28333"
       fx="226.93288"
       fy="174.28333"
       r="23.961483" />
  </defs>
  <sodipodi:namedview
     id="base"
     pagecolor="#ffffff"
     bordercolor="#666666"
     borderopacity="1.0"
     inkscape:pageopacity="0.0"
     inkscape:pageshadow="2"
     inkscape:zoom="0.35"
     inkscape:cx="326.98692"
     inkscape:cy="1.3146502"
     inkscape:document-units="mm"
     inkscape:current-layer="layer1"
     showgrid="false"
     units="px" />
  <metadata
     id="metadata1389">
    <rdf:RDF>
      <cc:Work
         rdf:about="">
        <dc:format>image/svg+xml</dc:format>
        <dc:type
           rdf:resource="http://purl.org/dc/dcmitype/StillImage" />
        <dc:title></dc:title>
      </cc:Work>
    </rdf:RDF>
  </metadata>
  <g
     inkscape:label="Layer 1"
     inkscape:groupmode="layer"
     id="layer1"
     transform="translate(-339.84185,128.19309)">
    <g
       transform="translate(176.84825,-150.14736)"
       id="g1289">
      <g
         id="g1242">
        <g
           id="g1219">
          <g
             transform="translate(-20.257161,-47.310807)"
             id="g1146">
            <g
               id="g1126"
               transform="matrix(1.7857268,0,0,1.7857143,-320.57407,-110.15935)">
              <g
                 transform="matrix(2.0442134,0,0,2.16928,195.18599,-267.19607)"
                 inkscape:transform-center-y="-60.411012"
                 inkscape:transform-center-x="67.875821"
                 id="g1031">
                <g
                   transform="translate(-96.687439,235.52916)"
                   id="g1029">
                  <path
                     sodipodi:nodetypes="ccccccccccsccc"
                     inkscape:connector-curvature="0"
                     id="path1023"
                     d="m 166.75584,-41.847567 c -1.78229,-0.455105 -3.22979,-1.274925 -4.38573,-2.484004 -0.85585,-0.895154 -1.37167,-1.727185 -1.81122,-2.921426 -0.31456,-0.854637 -0.37207,-1.194578 -0.42073,-2.486912 -0.0352,-0.935055 -0.003,-1.762117 0.0891,-2.203333 0.5111,-2.482367 2.33496,-4.720403 4.81805,-5.912177 1.32526,-0.636083 2.4505,-0.877339 4.10438,-0.880038 1.6926,-0.0025 2.55257,0.176902 3.94976,0.825223 2.35047,1.090615 4.27119,3.293374 4.932,5.656092 0.30795,1.101155 0.27745,3.185682 -0.0634,4.327487 -0.83503,2.797747 -2.99574,5.003221 -5.7781,5.897827 -0.89803,0.288752 -1.19756,0.327173 -2.80091,0.359269 -1.47252,0.02944 -1.94603,-0.0028 -2.6332,-0.178008 z"
                     style="opacity:1;fill:#0fb8f8;fill-opacity:1;stroke:none;stroke-width:0.90994513;stroke-miterlimit:4;stroke-dasharray:none" />
                  <path
                     style="opacity:1;fill:url(#radialGradient1033);fill-opacity:1;stroke:none;stroke-width:0.90994513;stroke-miterlimit:4;stroke-dasharray:none"
                     d="m 166.75588,-41.847567 c -1.78229,-0.455105 -3.22979,-1.274925 -4.38573,-2.484004 -0.85585,-0.895154 -1.37167,-1.727185 -1.81122,-2.921426 -0.31456,-0.854637 -0.37207,-1.194578 -0.42073,-2.486912 -0.0352,-0.935055 -0.003,-1.762117 0.0891,-2.203333 0.5111,-2.482367 2.33496,-4.720403 4.81805,-5.912177 1.32526,-0.636083 2.4505,-0.877339 4.10438,-0.880038 1.6926,-0.0025 2.55256,0.176902 3.94976,0.825223 2.35047,1.090615 4.27119,3.293374 4.932,5.656092 0.30795,1.101155 0.27745,3.185682 -0.0634,4.327487 -0.83503,2.797747 -2.99574,5.003221 -5.77811,5.897827 -0.89802,0.288752 -1.19755,0.327173 -2.8009,0.359269 -1.47252,0.02944 -1.94603,-0.0028 -2.6332,-0.178008 z"
                     id="path1025"
                     inkscape:connector-curvature="0"
                     sodipodi:nodetypes="ccccccccccsccc" />
                  <path
                     sodipodi:nodetypes="ccccccccccsccc"
                     inkscape:connector-curvature="0"
                     id="path1027"
                     d="m 168.86833,-46.227604 c -1.31695,-0.321133 -2.38652,-0.899615 -3.24066,-1.752772 -0.6324,-0.631641 -1.01354,-1.218742 -1.33833,-2.061424 -0.23243,-0.603055 -0.27493,-0.842925 -0.31089,-1.754826 -0.026,-0.659798 -0.002,-1.24339 0.0658,-1.554725 0.37765,-1.751615 1.72532,-3.330826 3.5601,-4.17177 0.97925,-0.448836 1.8107,-0.619072 3.03277,-0.620977 1.25069,-0.0017 1.88612,0.124827 2.91852,0.582299 1.73679,0.769563 3.15603,2.323881 3.64431,3.99107 0.22755,0.777001 0.20501,2.247894 -0.0469,3.053579 -0.61701,1.974156 -2.21358,3.53039 -4.2695,4.161645 -0.66356,0.203752 -0.88489,0.230861 -2.06962,0.253508 -1.08806,0.02079 -1.43794,-0.002 -1.9457,-0.125607 z"
                     style="opacity:1;fill:url(#radialGradient1035);fill-opacity:1;stroke:none;stroke-width:0.65704894;stroke-miterlimit:4;stroke-dasharray:none" />
                </g>
              </g>
            </g>
            <g
               id="g1134"
               transform="translate(-105.93303,2.6074483)">
              <path
                 inkscape:connector-curvature="0"
                 id="path978"
                 d="m 397.61351,131.43856 c -0.68791,-0.18641 -1.24661,-0.5222 -1.69277,-1.01742 -0.33033,-0.36664 -0.52942,-0.70743 -0.69908,-1.19657 -0.12141,-0.35005 -0.1436,-0.48928 -0.16239,-1.01861 -0.0136,-0.38298 -0.001,-0.72173 0.0344,-0.90245 0.19727,-1.01674 0.90123,-1.93341 1.85963,-2.42154 0.51152,-0.26053 0.94583,-0.35935 1.58418,-0.36045 0.65329,-10e-4 0.98522,0.0725 1.52449,0.338 0.90722,0.4467 1.64856,1.34892 1.90362,2.31665 0.11886,0.45102 0.10708,1.30481 -0.0245,1.77248 -0.3223,1.14592 -1.15628,2.04925 -2.23019,2.41566 -0.34661,0.11827 -0.46222,0.13401 -1.08107,0.14715 -0.56835,0.0121 -0.75111,-0.001 -1.01634,-0.0729 z"
                 style="opacity:1;fill:#ffe061;fill-opacity:1;stroke:none;stroke-width:0.36179721;stroke-miterlimit:4;stroke-dasharray:none" />
              <path
                 inkscape:connector-curvature="0"
                 id="path980"
                 d="m 397.61351,131.43858 c -0.68791,-0.18641 -1.24661,-0.5222 -1.69277,-1.01742 -0.33033,-0.36664 -0.52942,-0.70743 -0.69908,-1.19657 -0.12141,-0.35005 -0.1436,-0.48929 -0.16239,-1.01861 -0.0136,-0.38298 -0.001,-0.72173 0.0344,-0.90245 0.19727,-1.01674 0.90123,-1.93341 1.85963,-2.42154 0.51152,-0.26053 0.94583,-0.35935 1.58418,-0.36045 0.65329,-0.001 0.98521,0.0725 1.52449,0.338 0.90722,0.4467 1.64856,1.34892 1.90362,2.31665 0.11886,0.45102 0.10708,1.30481 -0.0245,1.77248 -0.3223,1.14591 -1.15628,2.04925 -2.23019,2.41566 -0.34661,0.11827 -0.46222,0.13401 -1.08107,0.14715 -0.56835,0.012 -0.75111,-0.001 -1.01634,-0.0729 z"
                 style="opacity:1;fill:url(#radialGradient1013);fill-opacity:1;stroke:none;stroke-width:0.36179721;stroke-miterlimit:4;stroke-dasharray:none" />
              <path
                 inkscape:connector-curvature="0"
                 id="path982"
                 d="m 397.85825,130.43168 c -0.5083,-0.13153 -0.92112,-0.36847 -1.2508,-0.71791 -0.24409,-0.25871 -0.3912,-0.49918 -0.51656,-0.84433 -0.0897,-0.247 -0.10611,-0.34525 -0.11999,-0.71875 -0.01,-0.27025 -7.7e-4,-0.50928 0.0254,-0.6368 0.14576,-0.71743 0.66592,-1.36425 1.37409,-1.70869 0.37797,-0.18384 0.69888,-0.25357 1.17057,-0.25435 0.48273,-7.7e-4 0.72799,0.0511 1.12646,0.2385 0.67035,0.31521 1.21814,0.95183 1.4066,1.63469 0.0878,0.31825 0.0791,0.9207 -0.0181,1.2507 -0.23815,0.80859 -0.85438,1.446 -1.6479,1.70455 -0.25612,0.0835 -0.34155,0.0946 -0.79882,0.10384 -0.41996,0.009 -0.555,-7.7e-4 -0.75098,-0.0514 z"
                 style="opacity:1;fill:url(#radialGradient988);fill-opacity:1;stroke:none;stroke-width:0.26124486;stroke-miterlimit:4;stroke-dasharray:none" />
            </g>
          </g>
          <g
             transform="translate(65.616666,-77.721354)"
             id="g1161">
            <g
               id="g1110"
               transform="matrix(1.7857132,0,0,1.7857132,-221.15186,-192.29976)">
              <path
                 inkscape:transform-center-y="-12.402344"
                 inkscape:transform-center-x="28.938802"
                 style="opacity:1;fill:#ffe061;fill-opacity:1;stroke:none;stroke-width:1.91618085;stroke-miterlimit:4;stroke-dasharray:none"
                 d="m 207.154,200.14099 c -3.64338,-0.98726 -6.60238,-2.76568 -8.96537,-5.38851 -1.74955,-1.94185 -2.80399,-3.74676 -3.70253,-6.3374 -0.64303,-1.85396 -0.76059,-2.59139 -0.86006,-5.39483 -0.072,-2.02839 -0.006,-3.82251 0.18214,-4.77964 1.0448,-5.38495 4.77316,-10.23988 9.84913,-12.82518 2.70912,-1.37984 5.00935,-1.9032 8.39024,-1.90905 3.46003,-0.006 5.218,0.38376 8.07416,1.79014 4.80486,2.36585 8.73123,7.14427 10.08206,12.26967 0.62952,2.3887 0.56717,6.91063 -0.1296,9.38752 -1.70698,6.06911 -6.12394,10.85342 -11.81168,12.79405 -1.83576,0.62639 -2.44807,0.70973 -5.72566,0.77936 -3.01015,0.0638 -3.9781,-0.006 -5.38283,-0.38613 z"
                 id="path1042"
                 inkscape:connector-curvature="0" />
              <path
                 inkscape:transform-center-y="-12.402344"
                 inkscape:transform-center-x="28.938802"
                 style="opacity:1;fill:url(#radialGradient1050);fill-opacity:1;stroke:none;stroke-width:1.91618085;stroke-miterlimit:4;stroke-dasharray:none"
                 d="m 207.154,200.14099 c -3.64338,-0.98726 -6.60238,-2.76568 -8.96537,-5.38851 -1.74955,-1.94185 -2.80399,-3.74676 -3.70253,-6.3374 -0.64303,-1.85396 -0.76059,-2.59139 -0.86006,-5.39483 -0.072,-2.02839 -0.006,-3.82251 0.18214,-4.77964 1.0448,-5.38495 4.77316,-10.23988 9.84913,-12.82518 2.70912,-1.37984 5.00935,-1.9032 8.39024,-1.90905 3.46003,-0.006 5.21798,0.38376 8.07416,1.79014 4.80486,2.36585 8.73123,7.14427 10.08206,12.26967 0.62952,2.3887 0.56717,6.91063 -0.1296,9.38752 -1.70698,6.06911 -6.12394,10.85342 -11.8117,12.79405 -1.83574,0.62639 -2.44805,0.70973 -5.72564,0.77936 -3.01015,0.0638 -3.9781,-0.006 -5.38283,-0.38613 z"
                 id="path1044"
                 inkscape:connector-curvature="0" />
              <path
                 inkscape:transform-center-y="-16.211922"
                 inkscape:transform-center-x="26.553556"
                 style="opacity:1;fill:url(#radialGradient1052);fill-opacity:1;stroke:none;stroke-width:1.38362694;stroke-miterlimit:4;stroke-dasharray:none"
                 d="m 210.83537,190.99905 c -2.69213,-0.69663 -4.87856,-1.95151 -6.62461,-3.80224 -1.29276,-1.37022 -2.07189,-2.6438 -2.73583,-4.47182 -0.47514,-1.3082 -0.56202,-1.82853 -0.63553,-3.80672 -0.0531,-1.43128 -0.004,-2.69726 0.13451,-3.37263 0.772,-3.79974 3.52693,-7.2255 7.27761,-9.04974 2.0018,-0.97366 3.70146,-1.34294 6.19963,-1.34707 2.55668,-0.004 3.85564,0.27077 5.96609,1.26316 3.55037,1.66941 6.4516,5.04116 7.44975,8.65776 0.46516,1.68554 0.41909,4.87631 -0.0959,6.62407 -1.2613,4.28251 -4.52504,7.65841 -8.72778,9.02779 -1.35646,0.442 -1.8089,0.50079 -4.23075,0.54993 -2.22423,0.0452 -2.93946,-0.004 -3.97743,-0.27249 z"
                 id="path1046"
                 inkscape:connector-curvature="0" />
            </g>
            <g
               id="g1151"
               transform="translate(-98.516091,-62.215492)">
              <path
                 style="opacity:1;fill:#0fb8f8;fill-opacity:1;stroke:none;stroke-width:0.36179724;stroke-miterlimit:4;stroke-dasharray:none"
                 d="m 255.20928,198.38411 c -0.68792,-0.18641 -1.24661,-0.52219 -1.69277,-1.01741 -0.33033,-0.36665 -0.52943,-0.70744 -0.69908,-1.19658 -0.12141,-0.35005 -0.14361,-0.48928 -0.16239,-1.0186 -0.0136,-0.38299 -0.001,-0.72174 0.0344,-0.90246 0.19727,-1.01674 0.90123,-1.93341 1.85963,-2.42154 0.51151,-0.26053 0.94582,-0.35934 1.58417,-0.36045 0.6533,-0.001 0.98522,0.0725 1.5245,0.338 0.90721,0.4467 1.64856,1.34892 1.90361,2.31665 0.11886,0.45102 0.10709,1.30481 -0.0245,1.77248 -0.3223,1.14592 -1.15627,2.04925 -2.23018,2.41567 -0.34662,0.11826 -0.46223,0.134 -1.08107,0.14715 -0.56835,0.0121 -0.75112,-0.001 -1.01634,-0.0729 z"
                 id="path966"
                 inkscape:connector-curvature="0"
                 sodipodi:nodetypes="ccccccccccsccc" />
              <path
                 sodipodi:nodetypes="ccccccccccsccc"
                 inkscape:connector-curvature="0"
                 id="path968"
                 d="m 255.20927,198.38411 c -0.68791,-0.18641 -1.24661,-0.52219 -1.69277,-1.01741 -0.33033,-0.36665 -0.52942,-0.70744 -0.69907,-1.19658 -0.12142,-0.35005 -0.14361,-0.48928 -0.16239,-1.0186 -0.0136,-0.38299 -0.001,-0.72174 0.0344,-0.90246 0.19727,-1.01674 0.90122,-1.93341 1.85963,-2.42154 0.51151,-0.26053 0.94582,-0.35934 1.58417,-0.36045 0.6533,-0.001 0.98522,0.0725 1.5245,0.338 0.90721,0.4467 1.64855,1.34892 1.90361,2.31665 0.11886,0.45102 0.10709,1.30481 -0.0245,1.77248 -0.3223,1.14592 -1.15627,2.04925 -2.23019,2.41567 -0.34661,0.11826 -0.46222,0.134 -1.08107,0.14715 -0.56835,0.0121 -0.75111,-0.001 -1.01634,-0.0729 z"
                 style="opacity:1;fill:url(#radialGradient974);fill-opacity:1;stroke:none;stroke-width:0.36179724;stroke-miterlimit:4;stroke-dasharray:none" />
              <path
                 style="opacity:1;fill:url(#radialGradient976);fill-opacity:1;stroke:none;stroke-width:0.26124486;stroke-miterlimit:4;stroke-dasharray:none"
                 d="m 255.45402,197.37724 c -0.50831,-0.13153 -0.92113,-0.36847 -1.2508,-0.71791 -0.24409,-0.25871 -0.3912,-0.49918 -0.51656,-0.84433 -0.0897,-0.24701 -0.10612,-0.34525 -0.12,-0.71875 -0.01,-0.27025 -7.7e-4,-0.50928 0.0254,-0.6368 0.14576,-0.71743 0.66592,-1.36426 1.3741,-1.70869 0.37796,-0.18384 0.69888,-0.25357 1.17056,-0.25435 0.48273,-6.9e-4 0.72799,0.0511 1.12647,0.2385 0.67035,0.31521 1.21813,0.95183 1.4066,1.63469 0.0878,0.31825 0.0791,0.9207 -0.0181,1.2507 -0.23814,0.80859 -0.85437,1.446 -1.6479,1.70455 -0.25612,0.0834 -0.34154,0.0946 -0.79882,0.10383 -0.41996,0.009 -0.555,-8.2e-4 -0.75098,-0.0514 z"
                 id="path970"
                 inkscape:connector-curvature="0"
                 sodipodi:nodetypes="ccccccccccsccc" />
            </g>
          </g>
        </g>
      </g>
      <g
         id="g1179"
         transform="translate(-0.05548533,1.2247933)">
        <path
           inkscape:connector-curvature="0"
           id="path8696"
           style="font-style:normal;font-variant:normal;font-weight:normal;font-stretch:normal;font-size:192px;line-height:1.25;font-family:NordiquePro-Bold;-inkscape-font-specification:'NordiquePro-Bold, Normal';font-variant-ligatures:normal;font-variant-caps:normal;font-variant-numeric:normal;font-feature-settings:normal;text-align:start;letter-spacing:0px;word-spacing:0px;writing-mode:lr-tb;text-anchor:start;fill:#3a9c3a;fill-opacity:1;stroke:none;stroke-width:0.26834363"
           d="m 163.04909,49.80332 v 22.86 c 0,2.3876 0.57479,4.572 1.77664,6.604 1.20185,2.032 2.82173,3.6068 4.9119,4.7752 2.03791,1.1684 4.28484,1.7272 6.74079,1.7272 2.40369,0 4.65063,-0.5588 6.74079,-1.7272 2.03792,-1.1684 3.6578,-2.7432 4.9119,-4.7752 1.20185,-2.032 1.8289,-4.2164 1.8289,-6.604 0,-2.3368 -0.62705,-4.5212 -1.8289,-6.5532 -1.2541,-2.032 -2.87398,-3.6068 -4.9119,-4.7752 -2.09016,-1.1684 -4.3371,-1.778 -6.74079,-1.778 -2.56046,0 -4.75513,0.6604 -6.58403,1.9304 v -11.684 z m 8.6742,18.1356 c 1.2541,-1.27 2.87398,-1.9304 4.80738,-1.9304 1.88116,0 3.50104,0.6604 4.75514,1.9304 1.2541,1.27 1.88115,2.8448 1.88115,4.7244 0,1.9304 -0.62705,3.5052 -1.88115,4.7752 -1.2541,1.27 -2.87398,1.8796 -4.75514,1.8796 -1.9334,0 -3.55328,-0.6096 -4.80738,-1.8796 -1.30636,-1.27 -1.93341,-2.8448 -1.93341,-4.7752 0,-1.8796 0.62705,-3.4544 1.93341,-4.7244 z" />
        <path
           inkscape:connector-curvature="0"
           id="path8698"
           style="font-style:normal;font-variant:normal;font-weight:normal;font-stretch:normal;font-size:192px;line-height:1.25;font-family:NordiquePro-Bold;-inkscape-font-specification:'NordiquePro-Bold, Normal';font-variant-ligatures:normal;font-variant-caps:normal;font-variant-numeric:normal;font-feature-settings:normal;text-align:start;letter-spacing:0px;word-spacing:0px;writing-mode:lr-tb;text-anchor:start;fill:#3a9c3a;fill-opacity:1;stroke:none;stroke-width:0.26834363"
           d="m 209.04913,59.96332 h 6.79305 v 13.3604 c 0,4.1656 -1.04508,7.2644 -3.13525,9.3472 -2.09017,2.0828 -4.9119,3.0988 -8.36068,3.0988 -3.50103,0 -6.2705,-1.016 -8.36067,-3.0988 -2.09017,-2.0828 -3.13525,-5.1816 -3.13525,-9.3472 v -13.3604 h 6.79304 v 13.3604 c 0,2.0828 0.36578,3.6068 1.09734,4.572 0.73156,0.9652 1.93341,1.4224 3.60554,1.4224 1.61989,0 2.82173,-0.4572 3.55329,-1.4224 0.73156,-0.9652 1.14959,-2.4892 1.14959,-4.572 z" />
        <path
           inkscape:connector-curvature="0"
           id="path8700"
           d="m 220.16703,59.96332 v 25.4 h 6.79305 v -25.4 z"
           style="font-style:normal;font-variant:normal;font-weight:normal;font-stretch:normal;font-size:192px;line-height:1.25;font-family:NordiquePro-Bold;-inkscape-font-specification:'NordiquePro-Bold, Normal';font-variant-ligatures:normal;font-variant-caps:normal;font-variant-numeric:normal;font-feature-settings:normal;text-align:start;letter-spacing:0px;word-spacing:0px;writing-mode:lr-tb;text-anchor:start;fill:#3a9c3a;fill-opacity:1;stroke:none;stroke-width:0.26834363" />
        <path
           inkscape:connector-curvature="0"
           id="path8702"
           style="font-style:normal;font-variant:normal;font-weight:normal;font-stretch:normal;font-size:192px;line-height:1.25;font-family:NordiquePro-Bold;-inkscape-font-specification:'NordiquePro-Bold, Normal';font-variant-ligatures:normal;font-variant-caps:normal;font-variant-numeric:normal;font-feature-settings:normal;text-align:start;letter-spacing:0px;word-spacing:0px;writing-mode:lr-tb;text-anchor:start;fill:#3a9c3a;fill-opacity:1;stroke:none;stroke-width:0.26834363"
           d="m 231.73481,85.36332 h 6.79305 v -35.56 h -6.79305 z" />
        <path
           inkscape:connector-curvature="0"
           id="path8704"
           style="font-style:normal;font-variant:normal;font-weight:normal;font-stretch:normal;font-size:192px;line-height:1.25;font-family:NordiquePro-Bold;-inkscape-font-specification:'NordiquePro-Bold, Normal';font-variant-ligatures:normal;font-variant-caps:normal;font-variant-numeric:normal;font-feature-settings:normal;text-align:start;letter-spacing:0px;word-spacing:0px;writing-mode:lr-tb;text-anchor:start;fill:#3a9c3a;fill-opacity:1;stroke:none;stroke-width:0.26834363"
           d="m 266.45529,79.26732 c 1.20185,-2.032 1.8289,-4.2164 1.8289,-6.604 v -22.86 h -6.8453 v 11.684 c -1.88115,-1.27 -4.07583,-1.9304 -6.58403,-1.9304 -2.45595,0 -4.70288,0.6096 -6.7408,1.778 -2.09017,1.1684 -3.71005,2.7432 -4.9119,4.7752 -1.2541,2.032 -1.82889,4.2164 -1.82889,6.5532 0,2.3876 0.57479,4.572 1.82889,6.604 1.20185,2.032 2.82173,3.6068 4.9119,4.7752 2.03792,1.1684 4.28485,1.7272 6.7408,1.7272 2.40369,0 4.65062,-0.5588 6.74079,-1.7272 2.03791,-1.1684 3.6578,-2.7432 4.85964,-4.7752 z m -16.40782,-11.3284 c 1.2541,-1.27 2.82173,-1.9304 4.75513,-1.9304 1.88115,0 3.50103,0.6604 4.80739,1.9304 1.2541,1.27 1.93341,2.8448 1.93341,4.7244 0,1.9304 -0.67931,3.5052 -1.93341,4.7752 -1.30636,1.27 -2.92624,1.8796 -4.80739,1.8796 -1.9334,0 -3.50103,-0.6096 -4.75513,-1.8796 -1.2541,-1.27 -1.88115,-2.8448 -1.88115,-4.7752 0,-1.8796 0.62705,-3.4544 1.88115,-4.7244 z" />
        <path
           inkscape:connector-curvature="0"
           id="path8708"
           style="font-style:normal;font-variant:normal;font-weight:normal;font-stretch:normal;font-size:192px;line-height:1.25;font-family:NordiquePro-Bold;-inkscape-font-specification:'NordiquePro-Bold, Normal';font-variant-ligatures:normal;font-variant-caps:normal;font-variant-numeric:normal;font-feature-settings:normal;text-align:start;letter-spacing:0px;word-spacing:0px;writing-mode:lr-tb;text-anchor:start;fill:#3a9c3a;fill-opacity:1;stroke:none;stroke-width:0.26834363"
           d="m 299.66121,62.70652 c -2.09016,-2.0828 -4.91189,-3.1496 -8.36067,-3.1496 -1.88115,0 -3.44878,0.4572 -4.70288,1.27 v -11.0236 h -6.79305 v 35.56 h 6.79305 v -13.3604 c 0,-2.032 0.36578,-3.556 1.09734,-4.5212 0.73156,-0.9652 1.9334,-1.4732 3.60554,-1.4732 1.61988,0 2.82173,0.508 3.55329,1.4732 0.73156,0.9652 1.14959,2.4892 1.14959,4.5212 v 13.3604 h 6.79305 v -13.3604 c 0,-4.1148 -1.04509,-7.2136 -3.13526,-9.2964 z" />
        <path
           inkscape:connector-curvature="0"
           id="path8710"
           style="font-style:normal;font-variant:normal;font-weight:normal;font-stretch:normal;font-size:192px;line-height:1.25;font-family:NordiquePro-Bold;-inkscape-font-specification:'NordiquePro-Bold, Normal';font-variant-ligatures:normal;font-variant-caps:normal;font-variant-numeric:normal;font-feature-settings:normal;text-align:start;letter-spacing:0px;word-spacing:0px;writing-mode:lr-tb;text-anchor:start;fill:#3a9c3a;fill-opacity:1;stroke:none;stroke-width:0.26834363"
           d="m 307.39484,66.21172 c -1.14959,2.032 -1.72439,4.1656 -1.72439,6.5024 0,2.3876 0.5748,4.572 1.77664,6.5532 1.20185,2.032 2.82173,3.6068 4.9119,4.7752 2.03792,1.1684 4.28485,1.7272 6.79305,1.7272 2.71722,0 5.17317,-0.7112 7.4201,-2.1844 2.19468,-1.4224 3.86681,-3.3528 4.96415,-5.6896 l -8.0994,-0.0508 c -0.5748,0.4572 -1.20185,0.8128 -1.88116,1.0668 -0.6793,0.3048 -1.56762,0.4064 -2.61271,0.4064 -1.56762,0 -2.87398,-0.3556 -3.91906,-1.0668 -1.04509,-0.7112 -1.72439,-1.7272 -2.03792,-2.9972 h 19.38632 c 0.15676,-1.016 0.20901,-2.032 0.20901,-3.1496 -0.1045,-2.54 -0.78381,-4.7752 -2.14242,-6.7056 -1.35861,-1.8796 -3.03074,-3.302 -5.06866,-4.318 -2.09017,-1.016 -4.23259,-1.524 -6.42727,-1.524 -2.45595,0 -4.70288,0.6096 -6.74079,1.8288 -2.03792,1.2192 -3.6578,2.794 -4.80739,4.826 z m 17.9232,3.7592 h -12.332 c 0.52254,-1.2192 1.35861,-2.1844 2.4037,-2.8956 1.04508,-0.7112 2.29918,-1.0668 3.7623,-1.0668 1.30635,0 2.5082,0.4064 3.65779,1.1176 1.1496,0.7112 1.98567,1.6764 2.50821,2.8448 z" />
        <path
           inkscape:connector-curvature="0"
           id="path8712"
           style="font-style:normal;font-variant:normal;font-weight:normal;font-stretch:normal;font-size:192px;line-height:1.25;font-family:NordiquePro-Bold;-inkscape-font-specification:'NordiquePro-Bold, Normal';font-variant-ligatures:normal;font-variant-caps:normal;font-variant-numeric:normal;font-feature-settings:normal;text-align:start;letter-spacing:0px;word-spacing:0px;writing-mode:lr-tb;text-anchor:start;fill:#3a9c3a;fill-opacity:1;stroke:none;stroke-width:0.26834363"
           d="m 335.42678,85.36332 h 6.79305 v -35.56 h -6.79305 z" />
        <path
           inkscape:connector-curvature="0"
           id="path8714"
           style="font-style:normal;font-variant:normal;font-weight:normal;font-stretch:normal;font-size:192px;line-height:1.25;font-family:NordiquePro-Bold;-inkscape-font-specification:'NordiquePro-Bold, Normal';font-variant-ligatures:normal;font-variant-caps:normal;font-variant-numeric:normal;font-feature-settings:normal;text-align:start;letter-spacing:0px;word-spacing:0px;writing-mode:lr-tb;text-anchor:start;fill:#3a9c3a;fill-opacity:1;stroke:none;stroke-width:0.26834363"
           d="m 346.34709,85.36332 h 6.79305 v -35.56 h -6.79305 z" />
        <path
           inkscape:connector-curvature="0"
           id="path8716"
           style="font-style:normal;font-variant:normal;font-weight:normal;font-stretch:normal;font-size:192px;line-height:1.25;font-family:NordiquePro-Bold;-inkscape-font-specification:'NordiquePro-Bold, Normal';font-variant-ligatures:normal;font-variant-caps:normal;font-variant-numeric:normal;font-feature-settings:normal;text-align:start;letter-spacing:0px;word-spacing:0px;writing-mode:lr-tb;text-anchor:start;fill:#3a9c3a;fill-opacity:1;stroke:none;stroke-width:0.26834363"
           d="m 376.20793,61.33492 c -2.09017,-1.1684 -4.3371,-1.778 -6.74079,-1.778 -2.45595,0 -4.70288,0.6096 -6.79305,1.778 -2.09017,1.1684 -3.71005,2.7432 -4.9119,4.7752 -1.20185,2.032 -1.77664,4.2164 -1.77664,6.5532 0,2.3876 0.57479,4.572 1.77664,6.604 1.20185,2.032 2.82173,3.6068 4.9119,4.7752 2.09017,1.1684 4.3371,1.7272 6.79305,1.7272 2.40369,0 4.65062,-0.5588 6.74079,-1.7272 2.09017,-1.1684 3.71005,-2.7432 4.9119,-4.7752 1.20184,-2.032 1.82889,-4.2164 1.82889,-6.604 0,-2.3368 -0.62705,-4.5212 -1.82889,-6.5532 -1.20185,-2.032 -2.82173,-3.6068 -4.9119,-4.7752 z m -11.49593,6.604 c 1.2541,-1.27 2.87398,-1.9304 4.80739,-1.9304 1.88115,0 3.50103,0.6604 4.75513,1.9304 1.2541,1.27 1.88116,2.8448 1.88116,4.7244 0,1.9304 -0.62706,3.5052 -1.88116,4.7752 -1.2541,1.27 -2.87398,1.8796 -4.75513,1.8796 -1.93341,0 -3.55329,-0.6096 -4.80739,-1.8796 -1.30635,-1.27 -1.93341,-2.8448 -1.93341,-4.7752 0,-1.8796 0.62706,-3.4544 1.93341,-4.7244 z" />
      </g>
    </g>
  </g>
</svg>
