<?xml version="1.0" encoding="UTF-8" standalone="no"?>
<!-- Created with Inkscape (http://www.inkscape.org/) -->

<svg
   xmlns:osb="http://www.openswatchbook.org/uri/2009/osb"
   xmlns:dc="http://purl.org/dc/elements/1.1/"
   xmlns:cc="http://creativecommons.org/ns#"
   xmlns:rdf="http://www.w3.org/1999/02/22-rdf-syntax-ns#"
   xmlns:svg="http://www.w3.org/2000/svg"
   xmlns="http://www.w3.org/2000/svg"
   xmlns:sodipodi="http://sodipodi.sourceforge.net/DTD/sodipodi-0.dtd"
   xmlns:inkscape="http://www.inkscape.org/namespaces/inkscape"
   width="807.987"
   height="469.55719"
   viewBox="0 0 213.77989 124.23701"
   version="1.1"
   id="svg8"
   inkscape:version="0.92.4 (5da689c313, 2019-01-14)"
   sodipodi:docname="build-hello-logo-sun-and-forest-backdrop.svg">
  <defs
     id="defs2">
    <linearGradient
       id="linearGradient6498"
       osb:paint="solid">
      <stop
         style="stop-color:#808000;stop-opacity:1;"
         offset="0"
         id="stop6496" />
    </linearGradient>
    <inkscape:path-effect
       effect="powerstroke"
       id="path-effect6212"
       is_visible="true"
       offset_points="0,0.13229166"
       sort_points="true"
       interpolator_type="CubicBezierJohan"
       interpolator_beta="0.2"
       start_linecap_type="zerowidth"
       linejoin_type="extrp_arc"
       miter_limit="4"
       end_linecap_type="zerowidth" />
    <clipPath
       clipPathUnits="userSpaceOnUse"
       id="clipPath6636">
      <path
         style="fill:#ff0000;stroke:#000000;stroke-width:0.99999994px;stroke-linecap:butt;stroke-linejoin:miter;stroke-opacity:1"
         d="M 1114.8358,1047.58 H 597.99251 l 0.96605,-105.3008 -98.53833,0.96609 0.96605,364.20541 970.89252,2.8982 v -85.0135 h 90.8098 l -0.966,83.0814 h 289.8186 l 699.4291,0.9661 -3.8643,-353.57881 -956.4016,0.96605 -476.2686,1.93213 z"
         id="path6638"
         inkscape:connector-curvature="0" />
    </clipPath>
    <clipPath
       clipPathUnits="userSpaceOnUse"
       id="clipPath6640">
      <path
         style="fill:#ff0000;stroke:#000000;stroke-width:0.99999994px;stroke-linecap:butt;stroke-linejoin:miter;stroke-opacity:1"
         d="M 1114.8358,1047.58 H 597.99251 l 0.96605,-105.3008 -98.53833,0.96609 0.96605,364.20541 970.89252,2.8982 v -85.0135 h 90.8098 l -0.966,83.0814 h 289.8186 l 699.4291,0.9661 -3.8643,-353.57881 -956.4016,0.96605 -476.2686,1.93213 z"
         id="path6642"
         inkscape:connector-curvature="0" />
    </clipPath>
    <clipPath
       clipPathUnits="userSpaceOnUse"
       id="clipPath6644">
      <path
         style="fill:#ff0000;stroke:#000000;stroke-width:0.26458332px;stroke-linecap:butt;stroke-linejoin:miter;stroke-opacity:1"
         d="M 294.96697,277.17221 H 158.21885 l 0.2556,-27.86084 -26.0716,0.25561 0.2556,96.36268 256.88198,0.76682 v -22.49316 h 24.02676 l -0.25559,21.98196 h 76.68118 l 185.05728,0.25561 -1.02243,-93.55106 -253.04792,0.2556 -126.01274,0.51121 z"
         id="path6646"
         inkscape:connector-curvature="0" />
    </clipPath>
    <clipPath
       clipPathUnits="userSpaceOnUse"
       id="clipPath6648">
      <path
         style="fill:#ff0000;stroke:#000000;stroke-width:0.99999994px;stroke-linecap:butt;stroke-linejoin:miter;stroke-opacity:1"
         d="M 1114.8358,1047.58 H 597.99251 l 0.96605,-105.3008 -98.53833,0.96609 0.96605,364.20541 970.89252,2.8982 v -85.0135 h 90.8098 l -0.966,83.0814 h 289.8186 l 699.4291,0.9661 -3.8643,-353.57881 -956.4016,0.96605 -476.2686,1.93213 z"
         id="path6650"
         inkscape:connector-curvature="0" />
    </clipPath>
    <clipPath
       clipPathUnits="userSpaceOnUse"
       id="clipPath6652">
      <path
         style="fill:#ff0000;stroke:#000000;stroke-width:0.99999994px;stroke-linecap:butt;stroke-linejoin:miter;stroke-opacity:1"
         d="M 1114.8358,1047.58 H 597.99251 l 0.96605,-105.3008 -98.53833,0.96609 0.96605,364.20541 970.89252,2.8982 v -85.0135 h 90.8098 l -0.966,83.0814 h 289.8186 l 699.4291,0.9661 -3.8643,-353.57881 -956.4016,0.96605 -476.2686,1.93213 z"
         id="path6654"
         inkscape:connector-curvature="0" />
    </clipPath>
    <clipPath
       clipPathUnits="userSpaceOnUse"
       id="clipPath6656">
      <path
         style="fill:#ff0000;stroke:#000000;stroke-width:0.99999994px;stroke-linecap:butt;stroke-linejoin:miter;stroke-opacity:1"
         d="M 1114.8358,1047.58 H 597.99251 l 0.96605,-105.3008 -98.53833,0.96609 0.96605,364.20541 970.89252,2.8982 v -85.0135 h 90.8098 l -0.966,83.0814 h 289.8186 l 699.4291,0.9661 -3.8643,-353.57881 -956.4016,0.96605 -476.2686,1.93213 z"
         id="path6658"
         inkscape:connector-curvature="0" />
    </clipPath>
    <clipPath
       clipPathUnits="userSpaceOnUse"
       id="clipPath6660">
      <path
         style="fill:#ff0000;stroke:#000000;stroke-width:0.26458332px;stroke-linecap:butt;stroke-linejoin:miter;stroke-opacity:1"
         d="M 294.96697,277.17221 H 158.21885 l 0.2556,-27.86084 -26.0716,0.25561 0.2556,96.36268 256.88198,0.76682 v -22.49316 h 24.02676 l -0.25559,21.98196 h 76.68118 l 185.05728,0.25561 -1.02243,-93.55106 -253.04792,0.2556 -126.01274,0.51121 z"
         id="path6662"
         inkscape:connector-curvature="0" />
    </clipPath>
    <clipPath
       clipPathUnits="userSpaceOnUse"
       id="clipPath6664">
      <path
         style="fill:#ff0000;stroke:#000000;stroke-width:0.26458332px;stroke-linecap:butt;stroke-linejoin:miter;stroke-opacity:1"
         d="M 294.96697,277.17221 H 158.21885 l 0.2556,-27.86084 -26.0716,0.25561 0.2556,96.36268 256.88198,0.76682 v -22.49316 h 24.02676 l -0.25559,21.98196 h 76.68118 l 185.05728,0.25561 -1.02243,-93.55106 -253.04792,0.2556 -126.01274,0.51121 z"
         id="path6666"
         inkscape:connector-curvature="0" />
    </clipPath>
    <clipPath
       clipPathUnits="userSpaceOnUse"
       id="clipPath6668">
      <path
         style="fill:#ff0000;stroke:#000000;stroke-width:0.26458332px;stroke-linecap:butt;stroke-linejoin:miter;stroke-opacity:1"
         d="M 294.96697,277.17221 H 158.21885 l 0.2556,-27.86084 -26.0716,0.25561 0.2556,96.36268 256.88198,0.76682 v -22.49316 h 24.02676 l -0.25559,21.98196 h 76.68118 l 185.05728,0.25561 -1.02243,-93.55106 -253.04792,0.2556 -126.01274,0.51121 z"
         id="path6670"
         inkscape:connector-curvature="0" />
    </clipPath>
    <clipPath
       clipPathUnits="userSpaceOnUse"
       id="clipPath6672">
      <path
         style="fill:#ff0000;stroke:#000000;stroke-width:0.26458332px;stroke-linecap:butt;stroke-linejoin:miter;stroke-opacity:1"
         d="M 294.96697,277.17221 H 158.21885 l 0.2556,-27.86084 -26.0716,0.25561 0.2556,96.36268 256.88198,0.76682 v -22.49316 h 24.02676 l -0.25559,21.98196 h 76.68118 l 185.05728,0.25561 -1.02243,-93.55106 -253.04792,0.2556 -126.01274,0.51121 z"
         id="path6674"
         inkscape:connector-curvature="0" />
    </clipPath>
    <clipPath
       clipPathUnits="userSpaceOnUse"
       id="clipPath6676">
      <path
         style="fill:#ff0000;stroke:#000000;stroke-width:0.26458332px;stroke-linecap:butt;stroke-linejoin:miter;stroke-opacity:1"
         d="M 294.96697,277.17221 H 158.21885 l 0.2556,-27.86084 -26.0716,0.25561 0.2556,96.36268 256.88198,0.76682 v -22.49316 h 24.02676 l -0.25559,21.98196 h 76.68118 l 185.05728,0.25561 -1.02243,-93.55106 -253.04792,0.2556 -126.01274,0.51121 z"
         id="path6678"
         inkscape:connector-curvature="0" />
    </clipPath>
    <clipPath
       clipPathUnits="userSpaceOnUse"
       id="clipPath6680">
      <path
         style="fill:#ff0000;stroke:#000000;stroke-width:0.26458332px;stroke-linecap:butt;stroke-linejoin:miter;stroke-opacity:1"
         d="M 294.96697,277.17221 H 158.21885 l 0.2556,-27.86084 -26.0716,0.25561 0.2556,96.36268 256.88198,0.76682 v -22.49316 h 24.02676 l -0.25559,21.98196 h 76.68118 l 185.05728,0.25561 -1.02243,-93.55106 -253.04792,0.2556 -126.01274,0.51121 z"
         id="path6682"
         inkscape:connector-curvature="0" />
    </clipPath>
    <clipPath
       clipPathUnits="userSpaceOnUse"
       id="clipPath6684">
      <path
         style="fill:#ff0000;stroke:#000000;stroke-width:0.26458332px;stroke-linecap:butt;stroke-linejoin:miter;stroke-opacity:1"
         d="M 294.96697,277.17221 H 158.21885 l 0.2556,-27.86084 -26.0716,0.25561 0.2556,96.36268 256.88198,0.76682 v -22.49316 h 24.02676 l -0.25559,21.98196 h 76.68118 l 185.05728,0.25561 -1.02243,-93.55106 -253.04792,0.2556 -126.01274,0.51121 z"
         id="path6686"
         inkscape:connector-curvature="0" />
    </clipPath>
  </defs>
  <sodipodi:namedview
     id="base"
     pagecolor="#ffffff"
     bordercolor="#666666"
     borderopacity="1.0"
     inkscape:pageopacity="0"
     inkscape:pageshadow="2"
     inkscape:zoom="0.32"
     inkscape:cx="342.13925"
     inkscape:cy="606.7669"
     inkscape:document-units="mm"
     inkscape:current-layer="flowRoot8688"
     showgrid="false"
     units="px"
     guidecolor="#3ebf12"
     guideopacity="0.49803922"
     guidehicolor="#ffe500"
     guidehiopacity="0.49803922"
     showguides="true" />
  <metadata
     id="metadata5">
    <rdf:RDF>
      <cc:Work
         rdf:about="">
        <dc:format>image/svg+xml</dc:format>
        <dc:type
           rdf:resource="http://purl.org/dc/dcmitype/StillImage" />
        <dc:title></dc:title>
      </cc:Work>
    </rdf:RDF>
  </metadata>
  <path
     style="fill:#000000;fill-rule:nonzero;stroke:none;stroke-width:0.26458332px;stroke-linecap:butt;stroke-linejoin:miter;stroke-opacity:1"
     d="m 64.279903,-296.65865 c 0,106.33124 0,425.32496 0,531.6562 z m 0.264584,531.6562 c 0,-106.33124 0,-425.32496 0,-531.6562 z"
     id="path6210"
     inkscape:connector-curvature="0"
     inkscape:path-effect="#path-effect6212"
     inkscape:original-d="M 64.412195,234.99755 V 341.32879 H 190.16934 v -3.06723 H 71.569105 c 0,0 -14.31382,-206.528 -7.15691,-103.26401 z"
     transform="translate(-293.50693,-237.7656)" />
  <flowRoot
     xml:space="preserve"
     id="flowRoot6303"
     style="font-style:normal;font-variant:normal;font-weight:normal;font-stretch:normal;font-size:192px;line-height:1.25;font-family:NordiquePro-Bold;-inkscape-font-specification:'NordiquePro-Bold, Normal';font-variant-ligatures:normal;font-variant-caps:normal;font-variant-numeric:normal;font-feature-settings:normal;text-align:start;letter-spacing:0px;word-spacing:0px;writing-mode:lr-tb;text-anchor:start;fill:#000000;fill-opacity:1;stroke:none"
     transform="translate(-293.50693,-237.7656)"><flowRegion
       id="flowRegion6305"><rect
         id="rect6307"
         width="2419.0198"
         height="1340.8943"
         x="285.95441"
         y="598.36108" /></flowRegion><flowPara
       id="flowPara6309" /></flowRoot>  <flowRoot
     xml:space="preserve"
     id="flowRoot6311"
     style="font-style:normal;font-variant:normal;font-weight:normal;font-stretch:normal;font-size:192px;line-height:1.25;font-family:NordiquePro-Bold;-inkscape-font-specification:'NordiquePro-Bold, Normal';font-variant-ligatures:normal;font-variant-caps:normal;font-variant-numeric:normal;font-feature-settings:normal;text-align:start;letter-spacing:0px;word-spacing:0px;writing-mode:lr-tb;text-anchor:start;fill:#000000;fill-opacity:1;stroke:none"
     transform="translate(-293.50693,-237.7656)"><flowRegion
       id="flowRegion6313"><rect
         id="rect6315"
         width="1715.7264"
         height="1101.3109"
         x="707.15753"
         y="548.12585" /></flowRegion><flowPara
       id="flowPara6317" /></flowRoot>  <rect
     style="opacity:1;fill:none;fill-opacity:1;stroke:none;stroke-width:0.1;stroke-miterlimit:4;stroke-dasharray:none"
     id="rect6339"
     width="28.883247"
     height="24.537981"
     x="266.33932"
     y="204.06947"
     clip-path="url(#clipPath6664)"
     transform="translate(-293.50693,-237.7656)" />
  <rect
     y="204.06947"
     x="266.33932"
     height="24.537981"
     width="28.883247"
     id="rect6350"
     style="opacity:1;fill:none;fill-opacity:1;stroke:none;stroke-width:0.1;stroke-miterlimit:4;stroke-dasharray:none"
     clip-path="url(#clipPath6660)"
     transform="translate(-293.50693,-237.7656)" />
  <g
     id="g6427"
     transform="translate(-293.50693,-237.7656)" />
  <path
     style="opacity:1;fill:#0694cb;fill-opacity:0;stroke:none;stroke-width:1.46050346;stroke-miterlimit:4;stroke-dasharray:none"
     d="m 1040.3185,843.40483 c -15.2399,-13.10881 -14.4442,-35.47696 1.7776,-49.97115 15.3551,-13.71976 27.914,-13.62018 43.5441,0.34527 9.8165,8.77107 12.4266,14.15185 12.4266,25.61839 0,28.74609 -35.2181,43.38717 -57.7483,24.00749 z"
     id="path6470"
     transform="matrix(0.26458333,0,0,0.26458333,-293.50693,-237.7656)"
     clip-path="url(#clipPath6656)"
     inkscape:connector-curvature="0" />
  <flowRoot
     xml:space="preserve"
     id="flowRoot6578"
     style="font-style:normal;font-variant:normal;font-weight:normal;font-stretch:normal;font-size:192px;line-height:1.25;font-family:NordiquePro-Bold;-inkscape-font-specification:'NordiquePro-Bold, Normal';font-variant-ligatures:normal;font-variant-caps:normal;font-variant-numeric:normal;font-feature-settings:normal;text-align:start;letter-spacing:0px;word-spacing:0px;writing-mode:lr-tb;text-anchor:start;fill:#000000;fill-opacity:1;stroke:none"
     transform="translate(-293.50693,-237.7656)"><flowRegion
       id="flowRegion6580"><rect
         id="rect6582"
         width="44.799458"
         height="257.82791"
         x="1467.4889"
         y="786.54004" /></flowRegion><flowPara
       id="flowPara6584" /></flowRoot>  <g
     aria-label="build.hello"
     clip-path="url(#clipPath6684)"
     style="font-style:normal;font-variant:normal;font-weight:normal;font-stretch:normal;font-size:125.62989044px;line-height:1.25;font-family:NordiquePro-Bold;-inkscape-font-specification:'NordiquePro-Bold, Normal';font-variant-ligatures:normal;font-variant-caps:normal;font-variant-numeric:normal;font-feature-settings:normal;text-align:start;letter-spacing:0px;word-spacing:0px;writing-mode:lr-tb;text-anchor:start;fill:#a1ce4f;fill-opacity:1;stroke:none;stroke-width:1;stroke-opacity:1"
     id="text6321"
     transform="translate(-293.50693,-237.7656)">
    <path
       d="m 148.45723,465.21574 v 56.53345 c 0,5.9046 1.38193,11.30669 4.27142,16.33188 2.88949,5.0252 6.78401,8.91972 11.80921,11.80921 4.89956,2.88949 10.30165,4.27142 16.20625,4.27142 5.77898,0 11.18106,-1.38193 16.20626,-4.27142 4.89957,-2.88949 8.79409,-6.78401 11.80921,-11.80921 2.88949,-5.02519 4.39705,-10.42728 4.39705,-16.33188 0,-5.77898 -1.50756,-11.18106 -4.39705,-16.20626 -3.01512,-5.0252 -6.90964,-8.91972 -11.80921,-11.80921 -5.0252,-2.88949 -10.42728,-4.39705 -16.20626,-4.39705 -6.15586,0 -11.43232,1.63319 -15.82936,4.77394 v -28.89487 z m 20.85456,44.84987 c 3.01512,-3.14075 6.90965,-4.77394 11.55795,-4.77394 4.52268,0 8.41721,1.63319 11.43232,4.77394 3.01512,3.14074 4.52268,7.03527 4.52268,11.68358 0,4.77393 -1.50756,8.66846 -4.52268,11.80921 -3.01511,3.14074 -6.90964,4.6483 -11.43232,4.6483 -4.6483,0 -8.54283,-1.50756 -11.55795,-4.6483 -3.14074,-3.14075 -4.6483,-7.03528 -4.6483,-11.80921 0,-4.64831 1.50756,-8.54284 4.6483,-11.68358 z"
       style="fill:#a1ce4f;fill-opacity:1;stroke:none;stroke-width:1;stroke-opacity:1"
       id="path6788"
       inkscape:connector-curvature="0" />
    <path
       d="m 259.0508,490.34171 h 16.33188 v 33.04066 c 0,10.30166 -2.51259,17.96508 -7.53779,23.1159 -5.02519,5.15083 -11.80921,7.66343 -20.10078,7.66343 -8.4172,0 -15.07559,-2.5126 -20.10078,-7.66343 -5.0252,-5.15082 -7.5378,-12.81424 -7.5378,-23.1159 v -33.04066 h 16.33189 v 33.04066 c 0,5.15083 0.87941,8.91973 2.63823,11.3067 1.75881,2.38696 4.6483,3.51763 8.66846,3.51763 3.89452,0 6.78401,-1.13067 8.54283,-3.51763 1.75882,-2.38697 2.76386,-6.15587 2.76386,-11.3067 z"
       style="fill:#a1ce4f;fill-opacity:1;stroke:none;stroke-width:1;stroke-opacity:1"
       id="path6790"
       inkscape:connector-curvature="0" />
    <path
       d="m 286.91118,480.91947 c 1.88445,1.88445 4.27142,2.76386 7.03528,2.76386 2.63823,0 4.89956,-0.87941 6.78401,-2.76386 1.88445,-1.88445 2.88949,-4.27141 2.88949,-7.03527 0,-2.63823 -1.00504,-4.89957 -2.88949,-6.78402 -1.88445,-1.88444 -4.14578,-2.88948 -6.78401,-2.88948 -2.76386,0 -5.15083,1.00504 -7.03528,2.88948 -1.88444,1.88445 -2.76385,4.14579 -2.76385,6.78402 0,2.76386 0.87941,5.15082 2.76385,7.03527 z m -1.13067,9.42224 v 62.81495 h 16.33189 v -62.81495 z"
       style="fill:#a1ce4f;fill-opacity:1;stroke:none;stroke-width:1;stroke-opacity:1"
       id="path6792"
       inkscape:connector-curvature="0" />
    <path
       d="m 313.59185,553.15666 h 16.33188 v -87.94092 h -16.33188 z"
       style="fill:#a1ce4f;fill-opacity:1;stroke:none;stroke-width:1;stroke-opacity:1"
       id="path6794"
       inkscape:connector-curvature="0" />
    <path
       d="m 397.06701,538.08107 c 2.88949,-5.02519 4.39704,-10.42728 4.39704,-16.33188 v -56.53345 h -16.45751 v 28.89487 c -4.52268,-3.14075 -9.79913,-4.77394 -15.82937,-4.77394 -5.9046,0 -11.30669,1.50756 -16.20625,4.39705 -5.0252,2.88949 -8.91973,6.78401 -11.80921,11.80921 -3.01512,5.0252 -4.39705,10.42728 -4.39705,16.20626 0,5.9046 1.38193,11.30669 4.39705,16.33188 2.88948,5.0252 6.78401,8.91972 11.80921,11.80921 4.89956,2.88949 10.30165,4.27142 16.20625,4.27142 5.77898,0 11.18106,-1.38193 16.20626,-4.27142 4.89956,-2.88949 8.79409,-6.78401 11.68358,-11.80921 z m -39.44779,-28.01546 c 3.01512,-3.14075 6.78402,-4.77394 11.43232,-4.77394 4.52268,0 8.4172,1.63319 11.55795,4.77394 3.01512,3.14074 4.64831,7.03527 4.64831,11.68358 0,4.77393 -1.63319,8.66846 -4.64831,11.80921 -3.14075,3.14074 -7.03527,4.6483 -11.55795,4.6483 -4.6483,0 -8.4172,-1.50756 -11.43232,-4.6483 -3.01512,-3.14075 -4.52267,-7.03528 -4.52267,-11.80921 0,-4.64831 1.50755,-8.54284 4.52267,-11.68358 z"
       style="fill:#a1ce4f;fill-opacity:1;stroke:none;stroke-width:1;stroke-opacity:1"
       id="path6796"
       inkscape:connector-curvature="0" />
    <path
       d="m 405.95924,553.15666 v -16.45752 h 16.33189 v 16.45752 z"
       style="fill:#a1ce4f;fill-opacity:1;stroke:none;stroke-width:1;stroke-opacity:1"
       id="path6798"
       inkscape:connector-curvature="0" />
    <path
       d="m 476.90088,497.12573 c -5.0252,-5.15083 -11.80921,-7.78906 -20.10079,-7.78906 -4.52267,0 -8.29157,1.13067 -11.30669,3.14075 v -27.26168 h -16.33188 v 87.94092 H 445.4934 V 520.116 c 0,-5.0252 0.87941,-8.79409 2.63823,-11.18106 1.75882,-2.38697 4.64831,-3.64327 8.66846,-3.64327 3.89453,0 6.78402,1.2563 8.54284,3.64327 1.75881,2.38697 2.76385,6.15586 2.76385,11.18106 v 33.04066 h 16.33189 V 520.116 c 0,-10.17602 -2.5126,-17.83945 -7.53779,-22.99027 z"
       style="fill:#a1ce4f;fill-opacity:1;stroke:none;stroke-width:1;stroke-opacity:1"
       id="path6800"
       inkscape:connector-curvature="0" />
    <path
       d="m 495.4941,505.79419 c -2.76386,5.0252 -4.14579,10.30165 -4.14579,16.08063 0,5.9046 1.38193,11.30669 4.27142,16.20625 2.88948,5.0252 6.78401,8.91972 11.8092,11.80921 4.89957,2.88949 10.30166,4.27142 16.33189,4.27142 6.53275,0 12.43736,-1.75882 17.83944,-5.40209 5.27646,-3.51763 9.29662,-8.29157 11.93484,-14.07054 l -19.47263,-0.12563 c -1.38193,1.13066 -2.88949,2.01007 -4.52267,2.63822 -1.63319,0.75378 -3.7689,1.00504 -6.2815,1.00504 -3.7689,0 -6.90964,-0.87941 -9.42224,-2.63823 -2.5126,-1.75881 -4.14579,-4.27141 -4.89957,-7.41216 h 46.60869 c 0.37689,-2.5126 0.50252,-5.02519 0.50252,-7.78905 -0.25126,-6.2815 -1.88445,-11.80921 -5.15082,-16.58315 -3.26638,-4.6483 -7.28654,-8.16594 -12.1861,-10.67854 -5.0252,-2.5126 -10.17602,-3.7689 -15.45248,-3.7689 -5.9046,0 -11.30669,1.50756 -16.20625,4.52268 -4.89957,3.01512 -8.7941,6.90964 -11.55795,11.93484 z m 43.09105,9.29661 h -29.64866 c 1.2563,-3.01512 3.26638,-5.40208 5.77898,-7.1609 2.5126,-1.75882 5.52771,-2.63823 9.04535,-2.63823 3.14075,0 6.03024,1.00504 8.79409,2.76386 2.76386,1.75882 4.77394,4.14578 6.03024,7.03527 z"
       style="fill:#a1ce4f;fill-opacity:1;stroke:none;stroke-width:1;stroke-opacity:1"
       id="path6802"
       inkscape:connector-curvature="0" />
    <path
       d="m 562.88866,553.15666 h 16.33188 v -87.94092 h -16.33188 z"
       style="fill:#a1ce4f;fill-opacity:1;stroke:none;stroke-width:1;stroke-opacity:1"
       id="path6804"
       inkscape:connector-curvature="0" />
    <path
       d="m 589.14333,553.15666 h 16.33188 v -87.94092 h -16.33188 z"
       style="fill:#a1ce4f;fill-opacity:1;stroke:none;stroke-width:1;stroke-opacity:1"
       id="path6806"
       inkscape:connector-curvature="0" />
    <path
       d="m 660.93494,493.73372 c -5.02519,-2.88949 -10.42728,-4.39705 -16.20625,-4.39705 -5.90461,0 -11.30669,1.50756 -16.33189,4.39705 -5.0252,2.88949 -8.91972,6.78401 -11.80921,11.80921 -2.88949,5.0252 -4.27142,10.42728 -4.27142,16.20626 0,5.9046 1.38193,11.30669 4.27142,16.33188 2.88949,5.0252 6.78401,8.91972 11.80921,11.80921 5.0252,2.88949 10.42728,4.27142 16.33189,4.27142 5.77897,0 11.18106,-1.38193 16.20625,-4.27142 5.0252,-2.88949 8.91972,-6.78401 11.80921,-11.80921 2.88949,-5.02519 4.39705,-10.42728 4.39705,-16.33188 0,-5.77898 -1.50756,-11.18106 -4.39705,-16.20626 -2.88949,-5.0252 -6.78401,-8.91972 -11.80921,-11.80921 z m -27.63857,16.33189 c 3.01511,-3.14075 6.90964,-4.77394 11.55795,-4.77394 4.52267,0 8.4172,1.63319 11.43232,4.77394 3.01511,3.14074 4.52267,7.03527 4.52267,11.68358 0,4.77393 -1.50756,8.66846 -4.52267,11.80921 -3.01512,3.14074 -6.90965,4.6483 -11.43232,4.6483 -4.64831,0 -8.54284,-1.50756 -11.55795,-4.6483 -3.14075,-3.14075 -4.64831,-7.03528 -4.64831,-11.80921 0,-4.64831 1.50756,-8.54284 4.64831,-11.68358 z"
       style="fill:#a1ce4f;fill-opacity:1;stroke:none;stroke-width:1;stroke-opacity:1"
       id="path6808"
       inkscape:connector-curvature="0" />
  </g>
  <g
     aria-label="build.hello"
     transform="matrix(0.26458333,0,0,0.26458333,-36.250562,-61.59769)"
     style="font-style:normal;font-variant:normal;font-weight:normal;font-stretch:normal;font-size:192px;line-height:1.25;font-family:NordiquePro-Bold;-inkscape-font-specification:'NordiquePro-Bold, Normal';font-variant-ligatures:normal;font-variant-caps:normal;font-variant-numeric:normal;font-feature-settings:normal;text-align:start;letter-spacing:0px;word-spacing:0px;writing-mode:lr-tb;text-anchor:start;fill:#000000;fill-opacity:1;stroke:none"
     id="flowRoot8688">
    <g
       id="g8743"
       transform="translate(-478.23569,582.92315)">
      <path
         style="opacity:1;fill:#a1ce4f;fill-opacity:1;stroke-width:1.0847739"
         d="M 1199.8691,-61.91642 A 181.36063,181.36063 0 0 1 1018.5085,119.44421 181.36063,181.36063 0 0 1 837.14786,-61.91642 181.36063,181.36063 0 0 1 1018.5085,-243.27705 181.36063,181.36063 0 0 1 1199.8691,-61.91642 Z"
         id="circle8735"
         inkscape:connector-curvature="0" />
      <path
         style="fill:#e6eb25"
         id="path8729"
         d="m 1007.8525,-51.26042 c 2.88,2.88 6.528,4.224 10.752,4.224 4.032,0 7.488,-1.344 10.368,-4.224 2.88,-2.88 4.416,-6.528 4.416,-10.752 0,-4.032 -1.536,-7.488 -4.416,-10.368 -2.88,-2.88 -6.336,-4.416 -10.368,-4.416 -4.224,0 -7.872,1.536 -10.752,4.416 -2.88,2.88 -4.224,6.336 -4.224,10.368 0,4.224 1.344,7.872 4.224,10.752 z"
         inkscape:connector-curvature="0" />
    </g>
    <g
       id="g8739"
       transform="translate(13.95244,370.42257)">
      <path
         style="opacity:1;fill:#e6eb25;fill-opacity:1;stroke-width:1.08477378"
         d="M 526.67319,43.748226 A 181.36063,181.36063 0 0 1 345.31256,225.10885 181.36063,181.36063 0 0 1 163.95193,43.748226 181.36063,181.36063 0 0 1 345.31256,-137.6124 181.36063,181.36063 0 0 1 526.67319,43.748226 Z"
         id="path8733"
         inkscape:connector-curvature="0" />
      <path
         style="fill:#a1ce4f;fill-opacity:1"
         id="path8731"
         d="m 334.65656,54.404226 c 2.88,2.88 6.528,4.224 10.752,4.224 4.032,0 7.488,-1.344 10.368,-4.224 2.88,-2.88 4.416,-6.528 4.416,-10.752 0,-4.032 -1.536,-7.488 -4.416,-10.368 -2.88,-2.88 -6.336,-4.416 -10.368,-4.416 -4.224,0 -7.872,1.536 -10.752,4.416 -2.88,2.88 -4.224,6.336 -4.224,10.368 0,4.224 1.344,7.872 4.224,10.752 z"
         inkscape:connector-curvature="0" />
    </g>
    <path
       d="m 137.01,400.8268 v 86.4 c 0,9.024 2.112,17.28 6.528,24.96 4.416,7.68 10.368,13.632 18.048,18.048 7.488,4.416 15.744,6.528 24.768,6.528 8.832,0 17.088,-2.112 24.768,-6.528 7.488,-4.416 13.44,-10.368 18.048,-18.048 4.416,-7.68 6.72,-15.936 6.72,-24.96 0,-8.832 -2.304,-17.088 -6.72,-24.768 -4.608,-7.68 -10.56,-13.632 -18.048,-18.048 -7.68,-4.416 -15.936,-6.72 -24.768,-6.72 -9.408,0 -17.472,2.496 -24.192,7.296 v -44.16 z m 31.872,68.544 c 4.608,-4.8 10.56,-7.296 17.664,-7.296 6.912,0 12.864,2.496 17.472,7.296 4.608,4.8 6.912,10.752 6.912,17.856 0,7.296 -2.304,13.248 -6.912,18.048 -4.608,4.8 -10.56,7.104 -17.472,7.104 -7.104,0 -13.056,-2.304 -17.664,-7.104 -4.8,-4.8 -7.104,-10.752 -7.104,-18.048 0,-7.104 2.304,-13.056 7.104,-17.856 z"
       style="fill:#0694cb;fill-opacity:1"
       id="path8696"
       inkscape:connector-curvature="0" />
    <path
       d="m 306.03,439.2268 h 24.96 v 50.496 c 0,15.744 -3.84,27.456 -11.52,35.328 -7.68,7.872 -18.048,11.712 -30.72,11.712 -12.864,0 -23.04,-3.84 -30.72,-11.712 -7.68,-7.872 -11.52,-19.584 -11.52,-35.328 v -50.496 h 24.96 v 50.496 c 0,7.872 1.344,13.632 4.032,17.28 2.688,3.648 7.104,5.376 13.248,5.376 5.952,0 10.368,-1.728 13.056,-5.376 2.688,-3.648 4.224,-9.408 4.224,-17.28 z"
       style="fill:#0694cb"
       id="path8698"
       inkscape:connector-curvature="0" />
    <path
       d="m 1671.2518,-814.39045 c 2.88,2.88 6.528,4.224 10.752,4.224 4.032,0 7.488,-1.344 10.368,-4.224 2.88,-2.88 4.416,-6.528 4.416,-10.752 0,-4.032 -1.536,-7.488 -4.416,-10.368 -2.88,-2.88 -6.336,-4.416 -10.368,-4.416 -4.224,0 -7.872,1.536 -10.752,4.416 -2.88,2.88 -4.224,6.336 -4.224,10.368 0,4.224 1.344,7.872 4.224,10.752 z"
       id="path8721"
       inkscape:connector-curvature="0" />
    <path
       style="fill:#0694cb"
       d="m 346.881,439.2268 v 96 h 24.96 v -96 z"
       id="path8700"
       inkscape:connector-curvature="0" />
    <path
       d="m 389.385,535.2268 h 24.96 v -134.4 h -24.96 z"
       style="fill:#0694cb"
       id="path8702"
       inkscape:connector-curvature="0" />
    <path
       d="m 516.96,512.1868 c 4.416,-7.68 6.72,-15.936 6.72,-24.96 v -86.4 h -25.152 v 44.16 c -6.912,-4.8 -14.976,-7.296 -24.192,-7.296 -9.024,0 -17.28,2.304 -24.768,6.72 -7.68,4.416 -13.632,10.368 -18.048,18.048 -4.608,7.68 -6.72,15.936 -6.72,24.768 0,9.024 2.112,17.28 6.72,24.96 4.416,7.68 10.368,13.632 18.048,18.048 7.488,4.416 15.744,6.528 24.768,6.528 8.832,0 17.088,-2.112 24.768,-6.528 7.488,-4.416 13.44,-10.368 17.856,-18.048 z m -60.288,-42.816 c 4.608,-4.8 10.368,-7.296 17.472,-7.296 6.912,0 12.864,2.496 17.664,7.296 4.608,4.8 7.104,10.752 7.104,17.856 0,7.296 -2.496,13.248 -7.104,18.048 -4.8,4.8 -10.752,7.104 -17.664,7.104 -7.104,0 -12.864,-2.304 -17.472,-7.104 -4.608,-4.8 -6.912,-10.752 -6.912,-18.048 0,-7.104 2.304,-13.056 6.912,-17.856 z"
       style="fill:#0694cb"
       id="path8704"
       inkscape:connector-curvature="0" />
    <path
       d="m 638.97,449.5948 c -7.68,-7.872 -18.048,-11.904 -30.72,-11.904 -6.912,0 -12.672,1.728 -17.28,4.8 v -41.664 h -24.96 v 134.4 h 24.96 v -50.496 c 0,-7.68 1.344,-13.44 4.032,-17.088 2.688,-3.648 7.104,-5.568 13.248,-5.568 5.952,0 10.368,1.92 13.056,5.568 2.688,3.648 4.224,9.408 4.224,17.088 v 50.496 h 24.96 v -50.496 c 0,-15.552 -3.84,-27.264 -11.52,-35.136 z"
       style="fill:#0694cb"
       id="path8708"
       inkscape:connector-curvature="0" />
    <path
       d="m 667.386,462.8428 c -4.224,7.68 -6.336,15.744 -6.336,24.576 0,9.024 2.112,17.28 6.528,24.768 4.416,7.68 10.368,13.632 18.048,18.048 7.488,4.416 15.744,6.528 24.96,6.528 9.984,0 19.008,-2.688 27.264,-8.256 8.064,-5.376 14.208,-12.672 18.24,-21.504 l -29.76,-0.192 c -2.112,1.728 -4.416,3.072 -6.912,4.032 -2.496,1.152 -5.76,1.536 -9.6,1.536 -5.76,0 -10.56,-1.344 -14.4,-4.032 -3.84,-2.688 -6.336,-6.528 -7.488,-11.328 h 71.232 c 0.576,-3.84 0.768,-7.68 0.768,-11.904 -0.384,-9.6 -2.88,-18.048 -7.872,-25.344 -4.992,-7.104 -11.136,-12.48 -18.624,-16.32 -7.68,-3.84 -15.552,-5.76 -23.616,-5.76 -9.024,0 -17.28,2.304 -24.768,6.912 -7.488,4.608 -13.44,10.56 -17.664,18.24 z m 65.856,14.208 H 687.93 c 1.92,-4.608 4.992,-8.256 8.832,-10.944 3.84,-2.688 8.448,-4.032 13.824,-4.032 4.8,0 9.216,1.536 13.44,4.224 4.224,2.688 7.296,6.336 9.216,10.752 z"
       style="fill:#0694cb"
       id="path8710"
       inkscape:connector-curvature="0" />
    <path
       d="m 770.385,535.2268 h 24.96 v -134.4 h -24.96 z"
       style="fill:#0694cb"
       id="path8712"
       inkscape:connector-curvature="0" />
    <path
       d="m 810.51,535.2268 h 24.96 v -134.4 h -24.96 z"
       style="fill:#0694cb"
       id="path8714"
       inkscape:connector-curvature="0" />
    <path
       d="m 920.229,444.4108 c -7.68,-4.416 -15.936,-6.72 -24.768,-6.72 -9.024,0 -17.28,2.304 -24.96,6.72 -7.68,4.416 -13.632,10.368 -18.048,18.048 -4.416,7.68 -6.528,15.936 -6.528,24.768 0,9.024 2.112,17.28 6.528,24.96 4.416,7.68 10.368,13.632 18.048,18.048 7.68,4.416 15.936,6.528 24.96,6.528 8.832,0 17.088,-2.112 24.768,-6.528 7.68,-4.416 13.632,-10.368 18.048,-18.048 4.416,-7.68 6.72,-15.936 6.72,-24.96 0,-8.832 -2.304,-17.088 -6.72,-24.768 -4.416,-7.68 -10.368,-13.632 -18.048,-18.048 z m -42.24,24.96 c 4.608,-4.8 10.56,-7.296 17.664,-7.296 6.912,0 12.864,2.496 17.472,7.296 4.608,4.8 6.912,10.752 6.912,17.856 0,7.296 -2.304,13.248 -6.912,18.048 -4.608,4.8 -10.56,7.104 -17.472,7.104 -7.104,0 -13.056,-2.304 -17.664,-7.104 -4.8,-4.8 -7.104,-10.752 -7.104,-18.048 0,-7.104 2.304,-13.056 7.104,-17.856 z"
       style="fill:#0694cb"
       id="path8716"
       inkscape:connector-curvature="0" />
    <path
       id="path8727"
       d="m 1782.4754,-810.34244 c 2.88,2.88 6.528,4.224 10.752,4.224 4.032,0 7.488,-1.344 10.368,-4.224 2.88,-2.88 4.416,-6.528 4.416,-10.752 0,-4.032 -1.536,-7.488 -4.416,-10.368 -2.88,-2.88 -6.336,-4.416 -10.368,-4.416 -4.224,0 -7.872,1.536 -10.752,4.416 -2.88,2.88 -4.224,6.336 -4.224,10.368 0,4.224 1.344,7.872 4.224,10.752 z"
       inkscape:connector-curvature="0" />
  </g>
</svg>
