<?xml version="1.0" encoding="UTF-8" standalone="no"?>
<!-- Created with Inkscape (http://www.inkscape.org/) -->

<svg
   xmlns:osb="http://www.openswatchbook.org/uri/2009/osb"
   xmlns:dc="http://purl.org/dc/elements/1.1/"
   xmlns:cc="http://creativecommons.org/ns#"
   xmlns:rdf="http://www.w3.org/1999/02/22-rdf-syntax-ns#"
   xmlns:svg="http://www.w3.org/2000/svg"
   xmlns="http://www.w3.org/2000/svg"
   xmlns:xlink="http://www.w3.org/1999/xlink"
   xmlns:sodipodi="http://sodipodi.sourceforge.net/DTD/sodipodi-0.dtd"
   xmlns:inkscape="http://www.inkscape.org/namespaces/inkscape"
   width="3026.6221"
   height="2267.7166"
   viewBox="0 0 800.79374 600"
   version="1.1"
   id="svg8"
   inkscape:version="0.92.4 (5da689c313, 2019-01-14)"
   sodipodi:docname="build-hello-logo.svg">
  <defs
     id="defs2">
    <linearGradient
       id="linearGradient6498"
       osb:paint="solid">
      <stop
         style="stop-color:#808000;stop-opacity:1;"
         offset="0"
         id="stop6496" />
    </linearGradient>
    <inkscape:path-effect
       effect="powerstroke"
       id="path-effect6212"
       is_visible="true"
       offset_points="0,0.13229166"
       sort_points="true"
       interpolator_type="CubicBezierJohan"
       interpolator_beta="0.2"
       start_linecap_type="zerowidth"
       linejoin_type="extrp_arc"
       miter_limit="4"
       end_linecap_type="zerowidth" />
    <inkscape:path-effect
       effect="bspline"
       id="path-effect6204"
       is_visible="true"
       weight="33.333333"
       steps="2"
       helper_size="0"
       apply_no_weight="true"
       apply_with_weight="true"
       only_selected="false" />
    <linearGradient
       inkscape:collect="always"
       xlink:href="#linearGradient6498"
       id="linearGradient6596"
       gradientUnits="userSpaceOnUse"
       gradientTransform="translate(9.2773741e-6,48.226619)"
       x1="136.05489"
       y1="251.7734"
       x2="664.73886"
       y2="251.7734" />
    <clipPath
       clipPathUnits="userSpaceOnUse"
       id="clipPath6636">
      <path
         style="fill:#ff0000;stroke:#000000;stroke-width:0.99999994px;stroke-linecap:butt;stroke-linejoin:miter;stroke-opacity:1"
         d="M 1114.8358,1047.58 H 597.99251 l 0.96605,-105.3008 -98.53833,0.96609 0.96605,364.20541 970.89252,2.8982 v -85.0135 h 90.8098 l -0.966,83.0814 h 289.8186 l 699.4291,0.9661 -3.8643,-353.57881 -956.4016,0.96605 -476.2686,1.93213 z"
         id="path6638"
         inkscape:connector-curvature="0" />
    </clipPath>
    <clipPath
       clipPathUnits="userSpaceOnUse"
       id="clipPath6640">
      <path
         style="fill:#ff0000;stroke:#000000;stroke-width:0.99999994px;stroke-linecap:butt;stroke-linejoin:miter;stroke-opacity:1"
         d="M 1114.8358,1047.58 H 597.99251 l 0.96605,-105.3008 -98.53833,0.96609 0.96605,364.20541 970.89252,2.8982 v -85.0135 h 90.8098 l -0.966,83.0814 h 289.8186 l 699.4291,0.9661 -3.8643,-353.57881 -956.4016,0.96605 -476.2686,1.93213 z"
         id="path6642"
         inkscape:connector-curvature="0" />
    </clipPath>
    <clipPath
       clipPathUnits="userSpaceOnUse"
       id="clipPath6644">
      <path
         style="fill:#ff0000;stroke:#000000;stroke-width:0.26458332px;stroke-linecap:butt;stroke-linejoin:miter;stroke-opacity:1"
         d="M 294.96697,277.17221 H 158.21885 l 0.2556,-27.86084 -26.0716,0.25561 0.2556,96.36268 256.88198,0.76682 v -22.49316 h 24.02676 l -0.25559,21.98196 h 76.68118 l 185.05728,0.25561 -1.02243,-93.55106 -253.04792,0.2556 -126.01274,0.51121 z"
         id="path6646"
         inkscape:connector-curvature="0" />
    </clipPath>
    <clipPath
       clipPathUnits="userSpaceOnUse"
       id="clipPath6648">
      <path
         style="fill:#ff0000;stroke:#000000;stroke-width:0.99999994px;stroke-linecap:butt;stroke-linejoin:miter;stroke-opacity:1"
         d="M 1114.8358,1047.58 H 597.99251 l 0.96605,-105.3008 -98.53833,0.96609 0.96605,364.20541 970.89252,2.8982 v -85.0135 h 90.8098 l -0.966,83.0814 h 289.8186 l 699.4291,0.9661 -3.8643,-353.57881 -956.4016,0.96605 -476.2686,1.93213 z"
         id="path6650"
         inkscape:connector-curvature="0" />
    </clipPath>
    <clipPath
       clipPathUnits="userSpaceOnUse"
       id="clipPath6652">
      <path
         style="fill:#ff0000;stroke:#000000;stroke-width:0.99999994px;stroke-linecap:butt;stroke-linejoin:miter;stroke-opacity:1"
         d="M 1114.8358,1047.58 H 597.99251 l 0.96605,-105.3008 -98.53833,0.96609 0.96605,364.20541 970.89252,2.8982 v -85.0135 h 90.8098 l -0.966,83.0814 h 289.8186 l 699.4291,0.9661 -3.8643,-353.57881 -956.4016,0.96605 -476.2686,1.93213 z"
         id="path6654"
         inkscape:connector-curvature="0" />
    </clipPath>
    <clipPath
       clipPathUnits="userSpaceOnUse"
       id="clipPath6656">
      <path
         style="fill:#ff0000;stroke:#000000;stroke-width:0.99999994px;stroke-linecap:butt;stroke-linejoin:miter;stroke-opacity:1"
         d="M 1114.8358,1047.58 H 597.99251 l 0.96605,-105.3008 -98.53833,0.96609 0.96605,364.20541 970.89252,2.8982 v -85.0135 h 90.8098 l -0.966,83.0814 h 289.8186 l 699.4291,0.9661 -3.8643,-353.57881 -956.4016,0.96605 -476.2686,1.93213 z"
         id="path6658"
         inkscape:connector-curvature="0" />
    </clipPath>
    <clipPath
       clipPathUnits="userSpaceOnUse"
       id="clipPath6660">
      <path
         style="fill:#ff0000;stroke:#000000;stroke-width:0.26458332px;stroke-linecap:butt;stroke-linejoin:miter;stroke-opacity:1"
         d="M 294.96697,277.17221 H 158.21885 l 0.2556,-27.86084 -26.0716,0.25561 0.2556,96.36268 256.88198,0.76682 v -22.49316 h 24.02676 l -0.25559,21.98196 h 76.68118 l 185.05728,0.25561 -1.02243,-93.55106 -253.04792,0.2556 -126.01274,0.51121 z"
         id="path6662"
         inkscape:connector-curvature="0" />
    </clipPath>
    <clipPath
       clipPathUnits="userSpaceOnUse"
       id="clipPath6664">
      <path
         style="fill:#ff0000;stroke:#000000;stroke-width:0.26458332px;stroke-linecap:butt;stroke-linejoin:miter;stroke-opacity:1"
         d="M 294.96697,277.17221 H 158.21885 l 0.2556,-27.86084 -26.0716,0.25561 0.2556,96.36268 256.88198,0.76682 v -22.49316 h 24.02676 l -0.25559,21.98196 h 76.68118 l 185.05728,0.25561 -1.02243,-93.55106 -253.04792,0.2556 -126.01274,0.51121 z"
         id="path6666"
         inkscape:connector-curvature="0" />
    </clipPath>
    <clipPath
       clipPathUnits="userSpaceOnUse"
       id="clipPath6668">
      <path
         style="fill:#ff0000;stroke:#000000;stroke-width:0.26458332px;stroke-linecap:butt;stroke-linejoin:miter;stroke-opacity:1"
         d="M 294.96697,277.17221 H 158.21885 l 0.2556,-27.86084 -26.0716,0.25561 0.2556,96.36268 256.88198,0.76682 v -22.49316 h 24.02676 l -0.25559,21.98196 h 76.68118 l 185.05728,0.25561 -1.02243,-93.55106 -253.04792,0.2556 -126.01274,0.51121 z"
         id="path6670"
         inkscape:connector-curvature="0" />
    </clipPath>
    <clipPath
       clipPathUnits="userSpaceOnUse"
       id="clipPath6672">
      <path
         style="fill:#ff0000;stroke:#000000;stroke-width:0.26458332px;stroke-linecap:butt;stroke-linejoin:miter;stroke-opacity:1"
         d="M 294.96697,277.17221 H 158.21885 l 0.2556,-27.86084 -26.0716,0.25561 0.2556,96.36268 256.88198,0.76682 v -22.49316 h 24.02676 l -0.25559,21.98196 h 76.68118 l 185.05728,0.25561 -1.02243,-93.55106 -253.04792,0.2556 -126.01274,0.51121 z"
         id="path6674"
         inkscape:connector-curvature="0" />
    </clipPath>
    <clipPath
       clipPathUnits="userSpaceOnUse"
       id="clipPath6676">
      <path
         style="fill:#ff0000;stroke:#000000;stroke-width:0.26458332px;stroke-linecap:butt;stroke-linejoin:miter;stroke-opacity:1"
         d="M 294.96697,277.17221 H 158.21885 l 0.2556,-27.86084 -26.0716,0.25561 0.2556,96.36268 256.88198,0.76682 v -22.49316 h 24.02676 l -0.25559,21.98196 h 76.68118 l 185.05728,0.25561 -1.02243,-93.55106 -253.04792,0.2556 -126.01274,0.51121 z"
         id="path6678"
         inkscape:connector-curvature="0" />
    </clipPath>
    <clipPath
       clipPathUnits="userSpaceOnUse"
       id="clipPath6680">
      <path
         style="fill:#ff0000;stroke:#000000;stroke-width:0.26458332px;stroke-linecap:butt;stroke-linejoin:miter;stroke-opacity:1"
         d="M 294.96697,277.17221 H 158.21885 l 0.2556,-27.86084 -26.0716,0.25561 0.2556,96.36268 256.88198,0.76682 v -22.49316 h 24.02676 l -0.25559,21.98196 h 76.68118 l 185.05728,0.25561 -1.02243,-93.55106 -253.04792,0.2556 -126.01274,0.51121 z"
         id="path6682"
         inkscape:connector-curvature="0" />
    </clipPath>
    <clipPath
       clipPathUnits="userSpaceOnUse"
       id="clipPath6684">
      <path
         style="fill:#ff0000;stroke:#000000;stroke-width:0.26458332px;stroke-linecap:butt;stroke-linejoin:miter;stroke-opacity:1"
         d="M 294.96697,277.17221 H 158.21885 l 0.2556,-27.86084 -26.0716,0.25561 0.2556,96.36268 256.88198,0.76682 v -22.49316 h 24.02676 l -0.25559,21.98196 h 76.68118 l 185.05728,0.25561 -1.02243,-93.55106 -253.04792,0.2556 -126.01274,0.51121 z"
         id="path6686"
         inkscape:connector-curvature="0" />
    </clipPath>
  </defs>
  <sodipodi:namedview
     id="base"
     pagecolor="#ffffff"
     bordercolor="#666666"
     borderopacity="1.0"
     inkscape:pageopacity="0.0"
     inkscape:pageshadow="2"
     inkscape:zoom="0.5"
     inkscape:cx="1589.3709"
     inkscape:cy="1121.8936"
     inkscape:document-units="mm"
     inkscape:current-layer="svg8"
     showgrid="false"
     units="px"
     guidecolor="#3ebf12"
     guideopacity="0.49803922"
     guidehicolor="#ffe500"
     guidehiopacity="0.49803922"
     showguides="false" />
  <metadata
     id="metadata5">
    <rdf:RDF>
      <cc:Work
         rdf:about="">
        <dc:format>image/svg+xml</dc:format>
        <dc:type
           rdf:resource="http://purl.org/dc/dcmitype/StillImage" />
        <dc:title></dc:title>
      </cc:Work>
    </rdf:RDF>
  </metadata>
  <path
     style="opacity:1;fill:#0694cb;fill-opacity:1;stroke:none;stroke-width:0.03415545;stroke-miterlimit:4;stroke-dasharray:none"
     d="m 123.42606,137.23814 c -2.07897,-0.32733 -3.8208,-1.17538 -5.28257,-2.57193 -2.01054,-1.92086 -3.00336,-4.52891 -2.87266,-7.54603 0.19476,-4.495 3.26866,-8.06913 7.78608,-9.05311 0.33581,-0.0731 1.10987,-0.11481 2.03332,-0.10946 1.6473,0.01 2.24748,0.12324 3.58056,0.6782 2.13981,0.89081 4.37448,3.12546 5.26528,5.26528 1.05175,2.52639 0.95216,5.5889 -0.2608,8.01965 -0.99658,1.99718 -2.44009,3.45371 -4.38285,4.42244 -1.30526,0.65083 -2.3823,0.90415 -4.02145,0.94582 -0.7207,0.0183 -1.55091,-0.005 -1.84491,-0.0509 z"
     id="path6516"
     inkscape:connector-curvature="0" />
  <path
     style="opacity:1;fill:#a1ce4f;fill-opacity:1;stroke:none;stroke-width:0.04830311;stroke-miterlimit:4;stroke-dasharray:none"
     d="m 398.70236,343.54176 c -1.90307,-0.51476 -3.44866,-1.44205 -4.68294,-2.80961 -0.91384,-1.01249 -1.46463,-1.95357 -1.93397,-3.30436 -0.33586,-0.96665 -0.39727,-1.35116 -0.44924,-2.81289 -0.0376,-1.05761 -0.003,-1.99309 0.0951,-2.49214 0.54575,-2.80775 2.49322,-5.33914 5.14458,-6.68713 1.41507,-0.71945 2.61657,-0.99234 4.38251,-0.99539 1.80731,-0.003 2.72555,0.2001 4.21745,0.9334 2.50974,1.23356 4.56065,3.72505 5.26622,6.39748 0.32882,1.24548 0.29625,3.60324 -0.0677,4.89471 -0.89162,3.16447 -3.19876,5.65903 -6.16968,6.67091 -0.95888,0.32659 -1.27871,0.37005 -2.99072,0.40635 -1.57231,0.0333 -2.07791,-0.003 -2.81165,-0.20133 z"
     id="path6522"
     inkscape:connector-curvature="0" />
  <path
     style="fill:#000000;fill-rule:nonzero;stroke:none;stroke-width:0.26458332px;stroke-linecap:butt;stroke-linejoin:miter;stroke-opacity:1"
     d="m 64.279903,-296.65865 c 0,106.33124 0,425.32496 0,531.6562 z m 0.264584,531.6562 c 0,-106.33124 0,-425.32496 0,-531.6562 z"
     id="path6210"
     inkscape:connector-curvature="0"
     inkscape:path-effect="#path-effect6212"
     inkscape:original-d="M 64.412195,234.99755 V 341.32879 H 190.16934 v -3.06723 H 71.569105 c 0,0 -14.31382,-206.528 -7.15691,-103.26401 z" />
  <flowRoot
     xml:space="preserve"
     id="flowRoot6303"
     style="fill:black;fill-opacity:1;stroke:none;font-family:NordiquePro-Bold;font-style:normal;font-weight:normal;font-size:192px;line-height:1.25;letter-spacing:0px;word-spacing:0px;-inkscape-font-specification:'NordiquePro-Bold, Normal';font-stretch:normal;font-variant:normal;text-anchor:start;text-align:start;writing-mode:lr;font-variant-ligatures:normal;font-variant-caps:normal;font-variant-numeric:normal;font-feature-settings:normal"><flowRegion
       id="flowRegion6305"><rect
         id="rect6307"
         width="2419.0198"
         height="1340.8943"
         x="285.95441"
         y="598.36108" /></flowRegion><flowPara
       id="flowPara6309"></flowPara></flowRoot>  <flowRoot
     xml:space="preserve"
     id="flowRoot6311"
     style="fill:black;fill-opacity:1;stroke:none;font-family:NordiquePro-Bold;font-style:normal;font-weight:normal;font-size:192px;line-height:1.25;letter-spacing:0px;word-spacing:0px;-inkscape-font-specification:'NordiquePro-Bold, Normal';font-stretch:normal;font-variant:normal;text-anchor:start;text-align:start;writing-mode:lr;font-variant-ligatures:normal;font-variant-caps:normal;font-variant-numeric:normal;font-feature-settings:normal"><flowRegion
       id="flowRegion6313"><rect
         id="rect6315"
         width="1715.7264"
         height="1101.3109"
         x="707.15753"
         y="548.12585" /></flowRegion><flowPara
       id="flowPara6317"></flowPara></flowRoot>  <text
     xml:space="preserve"
     style="font-style:normal;font-variant:normal;font-weight:normal;font-stretch:normal;font-size:125.62989044px;line-height:1.25;font-family:NordiquePro-Bold;-inkscape-font-specification:'NordiquePro-Bold, Normal';font-variant-ligatures:normal;font-variant-caps:normal;font-variant-numeric:normal;font-feature-settings:normal;text-align:start;letter-spacing:0px;word-spacing:0px;writing-mode:lr-tb;text-anchor:start;fill:#0694cb;fill-opacity:1;stroke:none;stroke-width:0.65432233;"
     x="132.286"
     y="343.97046"
     id="text6321"
     clip-path="url(#clipPath6684)"><tspan
       sodipodi:role="line"
       id="tspan6319"
       x="132.286"
       y="343.97046"
       style="fill:#0694cb;fill-opacity:1;stroke-width:0.65432233;">build.hello</tspan></text>
  <rect
     style="opacity:1;fill:none;fill-opacity:1;stroke:none;stroke-width:0.1;stroke-miterlimit:4;stroke-dasharray:none"
     id="rect6327"
     width="31.950493"
     height="6.6457028"
     x="407.04932"
     y="304.52182"
     clip-path="url(#clipPath6680)" />
  <rect
     style="opacity:1;fill:none;fill-opacity:1;stroke:none;stroke-width:0.1;stroke-miterlimit:4;stroke-dasharray:none"
     id="rect6329"
     width="21.087326"
     height="13.035802"
     x="390.81845"
     y="273.59375"
     clip-path="url(#clipPath6676)" />
  <rect
     style="opacity:1;fill:none;fill-opacity:1;stroke:none;stroke-width:0.1;stroke-miterlimit:4;stroke-dasharray:none"
     id="rect6331"
     width="1.0224158"
     height="1.1502178"
     x="386.08978"
     y="293.14743"
     clip-path="url(#clipPath6672)" />
  <rect
     style="opacity:1;fill:#ffffff;fill-opacity:1;stroke:none;stroke-width:0.1;stroke-miterlimit:4;stroke-dasharray:none"
     id="rect6333"
     width="22.876554"
     height="19.809307"
     x="389.92383"
     y="277.5556"
     clip-path="url(#clipPath6668)" />
  <rect
     style="opacity:1;fill:none;fill-opacity:1;stroke:none;stroke-width:0.1;stroke-miterlimit:4;stroke-dasharray:none"
     id="rect6339"
     width="28.883247"
     height="24.537981"
     x="266.33932"
     y="204.06947"
     clip-path="url(#clipPath6664)" />
  <rect
     y="204.06947"
     x="266.33932"
     height="24.537981"
     width="28.883247"
     id="rect6350"
     style="opacity:1;fill:none;fill-opacity:1;stroke:none;stroke-width:0.1;stroke-miterlimit:4;stroke-dasharray:none"
     clip-path="url(#clipPath6660)" />
  <path
     style="font-style:normal;font-variant:normal;font-weight:normal;font-stretch:normal;font-size:125.62989044px;line-height:1.25;font-family:NordiquePro-Bold;-inkscape-font-specification:'NordiquePro-Bold, Normal';font-variant-ligatures:normal;font-variant-caps:normal;font-variant-numeric:normal;font-feature-settings:normal;text-align:start;letter-spacing:0px;word-spacing:0px;writing-mode:lr-tb;text-anchor:start;fill:#000000;fill-opacity:1;stroke:none;stroke-width:0.65432233"
     d="m 37.201796,49.313812 c -2.76386,0 -5.15078,1.00478 -7.03523,2.88923 -1.88445,1.88446 -2.76366,4.14586 -2.76366,6.7841 0,2.76384 0.87921,5.15077 2.76366,7.03522 1.88445,1.88444 4.27137,2.76365 7.03523,2.76365 2.63824,0 4.89963,-0.87921 6.78407,-2.76365 1.88447,-1.88445 2.88975,-4.27138 2.88975,-7.03522 0,-2.63824 -1.00528,-4.89964 -2.88975,-6.7841 -1.88444,-1.88445 -4.14583,-2.88923 -6.78407,-2.88923 z"
     id="text6356"
     inkscape:connector-curvature="0" />
  <g
     id="g6427" />
  <path
     style="opacity:1;fill:#0694cb;fill-opacity:0;stroke:none;stroke-width:1.46050346;stroke-miterlimit:4;stroke-dasharray:none"
     d="m 1040.3185,843.40483 c -15.2399,-13.10881 -14.4442,-35.47696 1.7776,-49.97115 15.3551,-13.71976 27.914,-13.62018 43.5441,0.34527 9.8165,8.77107 12.4266,14.15185 12.4266,25.61839 0,28.74609 -35.2181,43.38717 -57.7483,24.00749 z"
     id="path6470"
     transform="scale(0.26458333)"
     clip-path="url(#clipPath6656)" />
  <path
     style="opacity:1;fill:#0694cb;fill-opacity:0;stroke:none;stroke-width:1.46050346;stroke-miterlimit:4;stroke-dasharray:none"
     d="m 590.54629,1110.5895 c -28.3627,-11.1519 -54.69734,-37.9311 -65.38043,-66.4842 -7.80097,-20.85 -8.28212,-28.9746 -8.28212,-139.85061 V 786.54006 h 28.98186 28.98187 v 54.09949 c 0,29.75471 0.67956,54.09948 1.51013,54.09948 0.83058,0 9.09041,-3.43963 18.35518,-7.64363 20.45401,-9.28124 52.27242,-10.07293 79.52836,-1.97878 24.7888,7.36148 55.77136,34.5935 69.82675,61.37398 8.85517,16.87224 10.36659,24.50458 10.41293,52.58315 0.0439,26.59275 -1.64709,36.30005 -8.88194,50.98825 -11.42573,23.1965 -34.81943,46.5658 -57.93516,57.8747 -25.89565,12.669 -68.67156,13.8374 -97.11743,2.6528 z"
     id="path6544"
     transform="scale(0.26458333)"
     clip-path="url(#clipPath6652)" />
  <path
     style="opacity:1;fill:#0694cb;fill-opacity:0;stroke:none;stroke-width:1.46050346;stroke-miterlimit:4;stroke-dasharray:none"
     d="m 670.33175,1053.3104 c 26.56448,-16.1972 35.86519,-57.81857 19.4114,-86.86743 -11.27072,-19.89824 -29.06927,-30.08895 -52.55176,-30.08895 -36.36178,0 -59.03512,21.64219 -61.39493,58.60277 -1.66465,26.07261 6.57138,44.39051 25.70614,57.17331 17.28094,11.5445 50.88614,12.1207 68.82915,1.1803 z"
     id="path6472"
     transform="scale(0.26458333)"
     clip-path="url(#clipPath6648)" />
  <path
     style="opacity:1;fill:#0694cb;fill-opacity:0.00392157;stroke:none;stroke-width:0.38642487;stroke-miterlimit:4;stroke-dasharray:none"
     d="m 612.43467,284.44503 c -7.5043,-2.95061 -14.472,-10.03594 -17.29857,-17.59062 -2.06401,-5.51656 -2.19131,-7.66619 -2.19131,-37.00214 v -31.14532 h 7.66812 7.66812 v 14.31382 c 0,7.8726 0.1798,14.31382 0.39955,14.31382 0.21976,0 2.40517,-0.91007 4.85648,-2.02238 5.41179,-2.45566 13.83041,-2.66513 21.04187,-0.52355 6.55871,1.94772 14.75618,9.15286 18.475,16.23853 2.34293,4.46412 2.74283,6.48351 2.75509,13.91263 0.0116,7.03599 -0.4358,9.60438 -2.35002,13.49064 -3.02306,6.1374 -9.21264,12.32053 -15.32867,15.31268 -6.85156,3.352 -18.16936,3.66114 -25.69566,0.70189 z"
     id="path6540" />
  <path
     style="opacity:1;fill:#0694cb;fill-opacity:0.00392157;stroke:none;stroke-width:0.38642487;stroke-miterlimit:4;stroke-dasharray:none"
     d="m 633.54457,269.28993 c 7.02852,-4.28551 9.48934,-15.29783 5.13594,-22.98367 -2.98205,-5.26475 -7.69125,-7.96104 -13.90432,-7.96104 -9.62072,0 -15.61971,5.72616 -16.24408,15.50532 -0.44044,6.89838 1.73868,11.74499 6.80142,15.1271 4.57225,3.05448 13.46362,3.20694 18.21104,0.31229 z"
     id="path6474"
     clip-path="url(#clipPath6644)" />
  <path
     style="opacity:1;fill:#0694cb;fill-opacity:0;stroke:none;stroke-width:1.46050346;stroke-miterlimit:4;stroke-dasharray:none"
     d="m 1307.4732,1112.786 c -28.4365,-10.4189 -50.1116,-30.3148 -67.0486,-61.5449 -9.058,-16.7019 -10.4785,-23.7742 -10.4785,-52.16735 0,-28.09268 1.4817,-35.64226 10.2386,-52.16736 21.5344,-40.63751 56.9011,-63.90471 101.486,-66.766 22.7176,-1.45792 31.3713,-0.26485 46.4461,6.40344 10.1896,4.50736 19.175,8.1952 19.9675,8.1952 0.7925,0 1.4409,-24.34477 1.4409,-54.09948 v -54.09949 h 28.9819 28.9818 v 117.71463 c 0,110.87601 -0.4811,119.00061 -8.2821,139.85061 -16.9493,45.3011 -61.9467,75.0626 -112.6206,74.4879 -13.2036,-0.1498 -30.8045,-2.763 -39.113,-5.8072 z"
     id="path6536"
     transform="scale(0.26458333)"
     clip-path="url(#clipPath6640)" />
  <path
     style="opacity:1;fill:#0694cb;fill-opacity:0;stroke:none;stroke-width:1.46050346;stroke-miterlimit:4;stroke-dasharray:none"
     d="m 1381.5447,1053.1941 c 20.9091,-12.7484 28.6182,-28.9903 27.0437,-56.97692 -2.1559,-38.32324 -24.0452,-59.86316 -60.8341,-59.86316 -47.4359,0 -74.994,46.99292 -54.2964,92.58778 4.2835,9.4362 12.8216,19.6372 20.2025,24.1371 17.3004,10.5478 50.6806,10.6045 67.8843,0.1152 z"
     id="path6476"
     transform="scale(0.26458333)"
     clip-path="url(#clipPath6636)" />
  <path
     style="opacity:1;fill:#0694cb;fill-opacity:1;stroke:none;stroke-width:0.03415545;stroke-miterlimit:4;stroke-dasharray:none"
     d="m 159.13448,167.59781 c -3.23585,-0.34204 -6.0557,-2.29256 -7.45497,-5.15668 -1.24201,-2.54223 -1.31078,-6.04598 -0.16725,-8.52099 0.69197,-1.49769 2.03034,-3.06818 3.3791,-3.9652 2.69925,-1.79515 6.1136,-2.17274 9.05648,-1.00155 2.52444,1.00466 4.83351,3.47603 5.691,6.09101 0.86365,2.63388 0.41741,5.94105 -1.11204,8.24094 -2.13252,3.20676 -5.44859,4.72933 -9.39232,4.31247 z"
     id="path6506"
     inkscape:connector-curvature="0" />
  <path
     id="path6554"
     d="m 281.12967,256.0468 c -2.76386,0 -5.15078,1.00478 -7.03523,2.88923 -1.88445,1.88446 -2.76366,4.14586 -2.76366,6.7841 0,2.76384 0.87921,5.15077 2.76366,7.03522 1.88445,1.88444 4.27137,2.76365 7.03523,2.76365 2.63824,0 4.89963,-0.87921 6.78407,-2.76365 1.88447,-1.88445 2.88975,-4.27138 2.88975,-7.03522 0,-2.63824 -1.00528,-4.89964 -2.88975,-6.7841 -1.88444,-1.88445 -4.14583,-2.88923 -6.78407,-2.88923 z"
     style="font-style:normal;font-variant:normal;font-weight:normal;font-stretch:normal;font-size:125.62989044px;line-height:1.25;font-family:NordiquePro-Bold;-inkscape-font-specification:'NordiquePro-Bold, Normal';font-variant-ligatures:normal;font-variant-caps:normal;font-variant-numeric:normal;font-feature-settings:normal;text-align:start;letter-spacing:0px;word-spacing:0px;writing-mode:lr-tb;text-anchor:start;fill:#a1ce4f;fill-opacity:1;stroke:none;stroke-width:0.65432233"
     inkscape:connector-curvature="0" />
  <flowRoot
     xml:space="preserve"
     id="flowRoot6578"
     style="fill:black;fill-opacity:1;stroke:none;font-family:NordiquePro-Bold;font-style:normal;font-weight:normal;font-size:192px;line-height:1.25;letter-spacing:0px;word-spacing:0px;-inkscape-font-specification:'NordiquePro-Bold, Normal';font-stretch:normal;font-variant:normal;text-anchor:start;text-align:start;writing-mode:lr;font-variant-ligatures:normal;font-variant-caps:normal;font-variant-numeric:normal;font-feature-settings:normal"><flowRegion
       id="flowRegion6580"><rect
         id="rect6582"
         width="44.799458"
         height="257.82791"
         x="1467.4889"
         y="786.54004" /></flowRegion><flowPara
       id="flowPara6584"></flowPara></flowRoot></svg>
