<?xml version="1.0" encoding="UTF-8" standalone="no"?>
<!-- Created with Inkscape (http://www.inkscape.org/) -->

<svg
   xmlns:dc="http://purl.org/dc/elements/1.1/"
   xmlns:cc="http://creativecommons.org/ns#"
   xmlns:rdf="http://www.w3.org/1999/02/22-rdf-syntax-ns#"
   xmlns:svg="http://www.w3.org/2000/svg"
   xmlns="http://www.w3.org/2000/svg"
   xmlns:sodipodi="http://sodipodi.sourceforge.net/DTD/sodipodi-0.dtd"
   xmlns:inkscape="http://www.inkscape.org/namespaces/inkscape"
   width="127.22455mm"
   height="289.63992mm"
   viewBox="0 0 127.22455 289.63992"
   version="1.1"
   id="svg12581"
   sodipodi:docname="logo3.svg"
   inkscape:version="0.92.4 (5da689c313, 2019-01-14)">
  <defs
     id="defs12575" />
  <sodipodi:namedview
     id="base"
     pagecolor="#ffffff"
     bordercolor="#666666"
     borderopacity="1.0"
     inkscape:pageopacity="0.0"
     inkscape:pageshadow="2"
     inkscape:zoom="0.0875"
     inkscape:cx="-3321.6369"
     inkscape:cy="1753.912"
     inkscape:document-units="mm"
     inkscape:current-layer="layer1"
     showgrid="false" />
  <metadata
     id="metadata12578">
    <rdf:RDF>
      <cc:Work
         rdf:about="">
        <dc:format>image/svg+xml</dc:format>
        <dc:type
           rdf:resource="http://purl.org/dc/dcmitype/StillImage" />
        <dc:title></dc:title>
      </cc:Work>
    </rdf:RDF>
  </metadata>
  <g
     inkscape:label="Layer 1"
     inkscape:groupmode="layer"
     id="layer1"
     transform="translate(-40.709186,6.7958277)">
    <path
       style="color:#000000;font-style:normal;font-variant:normal;font-weight:normal;font-stretch:normal;font-size:2.82222223px;line-height:1em;font-family:NordiquePro-Bold;-inkscape-font-specification:'NordiquePro-Bold, Normal';font-variant-ligatures:normal;font-variant-position:normal;font-variant-caps:normal;font-variant-numeric:normal;font-variant-alternates:normal;font-feature-settings:normal;text-indent:0;text-align:start;text-decoration:none;text-decoration-line:none;text-decoration-style:solid;text-decoration-color:#000000;letter-spacing:0px;word-spacing:0.0079375px;text-transform:none;writing-mode:lr-tb;direction:ltr;text-orientation:mixed;dominant-baseline:auto;baseline-shift:baseline;text-anchor:start;white-space:normal;shape-padding:0;clip-rule:nonzero;display:inline;overflow:visible;visibility:visible;opacity:1;isolation:auto;mix-blend-mode:normal;color-interpolation:sRGB;color-interpolation-filters:linearRGB;solid-color:#000000;solid-opacity:1;vector-effect:none;fill:#008000;fill-opacity:1;fill-rule:nonzero;stroke:none;stroke-width:11.78725243;stroke-linecap:butt;stroke-linejoin:miter;stroke-miterlimit:4;stroke-dasharray:none;stroke-dashoffset:0;stroke-opacity:1;color-rendering:auto;image-rendering:auto;shape-rendering:auto;text-rendering:auto;enable-background:accumulate"
       d="m 95.151298,-6.7958277 c 2.37065,0.0174 4.183971,0.26649 4.433326,0.30231 v 0.004 c 3.621106,0.8047 6.617766,2.09081 9.074166,3.55278 l 1.3993,0.8087 v 0 c 0,0 0.004,0.008 0.004,0.008 7.37396,4.29232 10.26014,11.4261 10.26014,11.4261 l -0.18552,-0.50975 c 2.92296,6.1062857 5.54976,9.7048707 7.30717,11.6978897 0.64789,0.714107 1.01755,1.039222 1.3966,1.38633 h 0.18552 l 1.54448,1.376343 c 12.61639,11.270653 19.15954,21.155786 22.6957,28.697355 0.39631,0.846141 0.75356,1.661112 1.07944,2.44451 0.43083,0.809918 0.81635,1.626749 1.162,2.431129 3.84119,8.049092 6.28905,16.908224 7.81272,25.579329 7.78,33.035802 4.03116,63.512322 0.95933,79.234532 -0.94599,7.43524 -1.90088,11.59196 -1.90088,11.59196 l -0.0214,0.075 -0.0214,0.075 c -9.54826,36.9354 -22.19872,60.20566 -32.66839,74.29602 -6.86304,9.23583 -12.9817,14.61309 -16.41975,17.25957 0.005,0.0299 0.009,0.0706 0.0142,0.10406 3.48373,9.37676 9.47076,17.42764 9.74558,17.64752 l -13.76549,0.15123 c 0,0 -2.68841,-2.51756 -4.7413,-7.69195 -1.32391,-2.82441 -3.31313,-7.31417 -4.1484,-10.47719 -2.098129,-1.62549 -5.016244,-3.9127 -7.437508,-5.89057 v 0 l -1.036189,-0.80595 h -0.004 l -1.498555,-1.23408 c 0,0 -30.202461,-25.24265 -44.773265,-81.84781 -0.185399,-0.71407 -0.832275,-2.56899 -1.646438,-5.98412 -0.09056,-0.20435 -0.185318,-0.50974 -0.278058,-0.71405 l 0.09048,-0.0356 c -2.636055,-11.57847 -6.04912,-36.11067 1.766747,-67.737 0.06808,-0.40755 6.25271,-34.394118 27.272378,-58.430947 l 0.185319,-0.204319 0.185519,-0.204319 c 0,0 4.088362,-3.741212 8.629788,-7.67611 1.58333,-1.369026 3.21865,-2.755314 4.784719,-4.040172 0.920122,-0.851234 2.190344,-1.853828 3.7212,-2.718364 1.683388,-1.057533 4.267291,-2.531226 5.639592,-3.306255 0.106687,-0.06905 0.21386,-0.138221 0.312947,-0.204117 0.727689,-0.373022 1.69216,-0.981895 2.68016,-1.949803 1.580254,-1.531988 3.124934,-3.531233 3.413624,-7.635563 0.084,-0.539864 0.15775,-1.183384 0.20497,-1.969854 0.21083,-1.734855 0.29326,-3.7015147 0.0687,-5.7058147 4e-5,0 0.007,0 0.007,0 -0.0101,-0.0202 -0.16713,-1.78498 -0.16717,-1.78498 0,0 -0.004,0.004 -0.004,0.004 -0.0826,-0.95954 -0.25376,-2.00244 -0.57285,-3.05451 -1.12137,-3.69788 -4.06677,-7.49144 -11.259978,-8.02209 1.52932,-0.25255 3.110629,-0.32604 4.51418,-0.31586 z M 118.53996,28.313071 c -0.0406,0.597393 -0.0933,1.155611 -0.15124,1.673403 -0.19623,0.837448 -0.40766,2.306572 -0.534,3.420543 -0.0129,0.06776 -0.036,0.184954 -0.0441,0.22999 -4.19004,36.393154 -4.16219,42.180426 -4.16219,42.180426 l -0.30501,5.155153 c -1.17264,15.543442 -2.01575,27.820574 -2.56107,36.049644 l 0.0437,-0.0737 -0.96851,14.11939 c 4.76353,-2.33456 11.26956,-5.92279 17.75262,-10.80271 11.19744,-8.42463 21.36569,-19.94568 22.74623,-34.329875 0,-0.920486 -0.0396,-2.191638 -0.19405,-3.688131 -0.76893,-4.047327 -1.68072,-8.180238 -2.69814,-12.40027 -0.0311,-0.05057 -0.0573,-0.09763 -0.0869,-0.147074 -1.02382,-4.337149 -2.90454,-10.749425 -5.8427,-15.261503 -3.12231,-5.596213 -8.4517,-12.81671 -17.96568,-21.357638 -0.0356,-0.02628 -0.0768,-0.05308 -0.11533,-0.0796 -1.02298,-1.048358 -2.37005,-2.339238 -3.94469,-3.648028 l -0.52543,-0.551346 c -0.14793,-0.162922 -0.29581,-0.325843 -0.44353,-0.488643 z m -11.69874,2.510083 c -0.28982,0.160173 -0.49002,0.273368 -0.69753,0.390486 -0.0279,0.02547 -0.0552,0.05268 -0.083,0.07811 -4.06681,2.311181 -6.288528,3.70802 -7.466576,4.534675 -0.01092,0.004 -0.02426,0.0089 -0.03517,0.01253 0.004,0.004 0,0.0077 0,0.01294 -0.19971,0.140727 -0.36376,0.261766 -0.507846,0.371445 -0.630139,0.420078 -1.757693,1.140491 -2.858363,2.011211 -1.886818,1.488327 -4.199212,3.445568 -6.400674,5.341684 -3.624378,3.134198 -6.582394,5.816339 -7.582725,6.722434 l -0.01091,-0.03275 c -0.01213,0.01091 -0.02345,0.02183 -0.03558,0.03275 l 0.04657,-2.15e-4 c -0.211675,0.177516 -0.43172,0.389072 -0.654919,0.622741 -2.685092,2.330344 -3.463153,4.289526 -3.628622,5.561284 -0.901769,4.276872 -0.05122,7.983196 2.15493,12.021062 2.358601,4.352876 6.409931,8.685578 10.832179,12.342176 3.819116,3.154614 7.801435,5.749635 11.132956,7.709545 0.2475,-3.489715 0.94778,-13.1848 1.16952,-14.174579 2.2e-4,0 0,-0.004 0,-0.004 l 0.0271,-0.157302 0.23876,-1.998234 0.48824,-5.150342 c 0.54249,-6.28768 1.60229,-17.054772 3.67645,-35.151959 l 0.0323,-0.305427 0.0679,-0.305427 c 0,0 0.0428,-0.226352 0.095,-0.485127 z M 67.680464,71.054828 c -6.180952,12.591329 -9.44488,24.657184 -10.645608,29.668012 -0.0049,0.0605 -0.01617,0.12824 -0.03841,0.20784 -0.04601,0.16624 -0.08987,0.33781 -0.132237,0.51249 -0.0085,0.036 -0.01981,0.083 -0.0279,0.11781 -0.698419,2.96028 -0.898332,6.89813 -0.898332,6.89813 0.555185,14.75802 12.322123,28.14905 25.028224,37.68876 6.382198,4.79119 12.745921,8.51219 17.501087,11.03521 0.06804,-10.71923 0.185399,-22.10405 0.369747,-34.91502 l 0.03234,-2.69124 c 0,0 0.09925,-5.79689 0.360368,-11.11315 0.02102,-0.91276 0.106647,-4.44415 0.242563,-6.8045 C 95.325133,99.4263 89.199809,95.77237 83.241246,90.851655 78.098466,86.600777 73.003752,81.411908 69.499968,74.95694 68.852042,73.733169 68.242157,72.45939 67.714987,71.123999 Z m 86.332766,38.293392 h -0.0327 c -5.37406,8.69557 -12.79952,15.73976 -19.98279,21.14266 -9.69718,7.28885 -19.31853,11.93636 -24.2542,14.09036 -0.18544,16.37288 -0.18532,30.73625 -0.0905,43.1548 10.89937,-5.55481 32.01,-18.55151 42.92623,-40.12495 1.04035,-2.8711 1.91645,-6.43394 2.30641,-10.76903 0.18613,-8.02629 0,-17.25371 -0.87242,-27.49384 z M 51.994192,132.61637 v 0 c -0.739493,14.34008 0.924894,25.12957 2.330871,31.51517 4.661778,13.50114 17.801582,27.23971 30.032299,37.06998 5.309221,4.27138 10.316087,7.76788 14.359007,10.43167 -0.277047,-11.39404 -0.369747,-24.8197 -0.369747,-40.89184 -5.041027,-2.42612 -14.289593,-7.27848 -23.762004,-14.38994 -8.148826,-6.11656 -16.713971,-14.00264 -22.589374,-23.73504 z m 99.411568,37.79889 -0.0218,0.004 c -14.90751,17.98666 -33.96157,27.51325 -41.61928,30.82936 0.27813,21.17935 0.92489,36.04128 1.60944,46.15499 0.0906,1.23376 0.1854,2.20186 0.27701,3.29267 2.5252,-2.48741 5.68863,-5.97373 9.30334,-10.84552 9.40765,-12.6622 21.2932,-34.20354 30.45121,-69.43542 z M 66.603726,201.4869 c 11.580488,26.70336 25.137499,40.44206 29.097827,44.09114 1.524468,1.1702 3.606468,2.33572 4.435027,2.78502 0,-0.017 -0.004,-0.0259 -0.004,-0.0445 -0.369791,-5.83097 -0.739417,-13.25012 -1.072981,-22.1874 -4.430579,-2.68111 -12.547064,-7.86989 -21.365566,-14.95382 -3.643621,-2.93057 -7.406097,-6.16446 -11.091035,-9.69044 z"
       id="path10980"
       inkscape:connector-curvature="0" />
  </g>
</svg>
