<?xml version="1.0" encoding="UTF-8" standalone="no"?>
<!-- Created with Inkscape (http://www.inkscape.org/) -->

<svg
   xmlns:dc="http://purl.org/dc/elements/1.1/"
   xmlns:cc="http://creativecommons.org/ns#"
   xmlns:rdf="http://www.w3.org/1999/02/22-rdf-syntax-ns#"
   xmlns:svg="http://www.w3.org/2000/svg"
   xmlns="http://www.w3.org/2000/svg"
   xmlns:sodipodi="http://sodipodi.sourceforge.net/DTD/sodipodi-0.dtd"
   xmlns:inkscape="http://www.inkscape.org/namespaces/inkscape"
   width="193.78416mm"
   height="86.751762mm"
   viewBox="0 0 193.78416 86.751762"
   version="1.1"
   id="svg2054"
   inkscape:version="0.92.4 (5da689c313, 2019-01-14)"
   sodipodi:docname="logo38.svg">
  <defs
     id="defs2048" />
  <sodipodi:namedview
     id="base"
     pagecolor="#ffffff"
     bordercolor="#666666"
     borderopacity="1.0"
     inkscape:pageopacity="0.0"
     inkscape:pageshadow="2"
     inkscape:zoom="0.35"
     inkscape:cx="481.14576"
     inkscape:cy="250.71903"
     inkscape:document-units="mm"
     inkscape:current-layer="layer1"
     showgrid="false"
     inkscape:snap-global="false" />
  <metadata
     id="metadata2051">
    <rdf:RDF>
      <cc:Work
         rdf:about="">
        <dc:format>image/svg+xml</dc:format>
        <dc:type
           rdf:resource="http://purl.org/dc/dcmitype/StillImage" />
        <dc:title></dc:title>
      </cc:Work>
    </rdf:RDF>
  </metadata>
  <g
     inkscape:label="Layer 1"
     inkscape:groupmode="layer"
     id="layer1"
     transform="translate(-7.4293526,-98.654454)">
    <g
       id="g2791"
       inkscape:transform-center-x="96.761905"
       inkscape:transform-center-y="13.607143"
       transform="translate(70.303571,-27.970238)">
      <g
         id="g2021"
         transform="translate(-337.77943,32.805703)">
        <g
           transform="translate(361.49259,51.998588)"
           id="g1994">
          <g
             id="g1986"
             transform="translate(-39.876488,71.059524)">
            <g
               id="g1976">
              <path
                 id="path1949"
                 d="m 41.572264,56.824014 c -6.309874,-1.6583 -11.439068,-4.65453 -15.523065,-9.08292 -3.01945,-3.26006 -4.858216,-6.31282 -6.406652,-10.68468 -1.10326,-3.1093 -1.31617,-4.35302 -1.490369,-9.08292 -0.116133,-3.4108 0,-6.44472 0.309687,-8.04648 1.819412,-9.08292 8.264775,-17.2613199 17.052145,-21.6143299 4.684016,-2.33669 8.671238,-3.20352 14.535937,-3.22237 5.980833,-0.0188 9.019638,0.64071 13.974632,3.01508 8.303484,3.99498 15.097243,12.0414599 17.439254,20.6721199 1.083901,4.03266 0.987126,11.64573 -0.212908,15.82915 -2.961385,10.23242 -10.606786,18.27889 -20.458707,21.5578 -3.174292,1.05527 -4.238842,1.18718 -9.909986,1.31909 -5.206614,0.0942 -6.871182,-0.0189 -9.309968,-0.65954 z"
                 style="fill:#0000c3;fill-opacity:1;fill-rule:evenodd;stroke:none;stroke-width:0.23872831;stroke-opacity:1"
                 inkscape:connector-curvature="0" />
            </g>
            <path
               inkscape:connector-curvature="0"
               style="fill:#ffffff;fill-opacity:1;fill-rule:evenodd;stroke:none;stroke-width:0.23872831"
               d="m 47.940205,41.428274 c -4.664662,-1.18718 -8.438972,-3.29774 -11.458422,-6.40704 -2.245231,-2.31784 -3.600113,-4.46608 -4.742086,-7.53769 -0.812927,-2.20477 -0.967771,-3.09045 -1.103258,-6.42588 -0.09678,-2.41206 0,-4.54146 0.232264,-5.67211 1.335527,-6.40704 6.11632,-12.19222 12.600393,-15.26383 3.464626,-1.63944 6.406654,-2.2613 10.722918,-2.2613 4.432395,0 6.677626,0.45226 10.335805,2.12939 6.155031,2.80779 11.168092,8.49875 12.890727,14.58544 0.812927,2.84547 0.735505,8.21608 -0.154845,11.15578 -2.187164,7.21734 -7.838954,12.90829 -15.116601,15.22613 -2.342009,0.73493 -3.135582,0.848 -7.316356,0.92337 -3.851736,0.0754 -5.090484,0 -6.890539,-0.45226 z"
               id="path1953" />
          </g>
        </g>
        <g
           id="g2003"
           transform="translate(277.87487,51.673561)">
          <path
             inkscape:connector-curvature="0"
             style="fill:#ffe061;fill-opacity:1;fill-rule:nonzero;stroke:none;stroke-width:0.23872831"
             d="m 93.040666,100.73506 c -0.619376,-0.1696 -1.141967,-0.47111 -1.548435,-0.90452 -0.290333,-0.32035 -0.483883,-0.64071 -0.638725,-1.07413 -0.09678,-0.30151 -0.135483,-0.43342 -0.135483,-0.90452 -0.01939,-0.3392 0,-0.6407 0.01939,-0.79146 0.19355,-0.90452 0.832284,-1.73367 1.703277,-2.16708 0.464534,-0.22614 0.870992,-0.32036 1.451652,-0.32036 0.60002,0 0.89035,0.0754 1.3936,0.30151 0.83228,0.39573 1.50971,1.20603 1.74198,2.07287 0.0968,0.39572 0.0968,1.1495 -0.0194,1.56407 -0.3097,1.01758 -1.06456,1.82789 -2.05168,2.14824 -0.30969,0.11306 -0.42583,0.13191 -0.98713,0.13191 -0.5226,0.0189 -0.67744,0 -0.929062,-0.0565 z"
             id="path1868" />
          <path
             inkscape:connector-curvature="0"
             style="fill:#efbf00;fill-opacity:1;fill-rule:evenodd;stroke:none;stroke-width:0.23872831"
             d="m 93.040666,100.73506 c -0.619376,-0.1696 -1.141967,-0.47111 -1.548435,-0.90452 -0.290333,-0.32035 -0.483883,-0.64071 -0.638725,-1.07413 -0.09678,-0.30151 -0.135483,-0.43342 -0.135483,-0.90452 -0.01939,-0.3392 0,-0.6407 0.01939,-0.79146 0.19355,-0.90452 0.832284,-1.73367 1.703277,-2.16708 0.464534,-0.22614 0.870992,-0.32036 1.451652,-0.32036 0.60002,0 0.89035,0.0754 1.3936,0.30151 0.83228,0.39573 1.50971,1.20603 1.74198,2.07287 0.0968,0.39572 0.0968,1.1495 -0.0194,1.56407 -0.3097,1.01758 -1.06456,1.82789 -2.05168,2.14824 -0.30969,0.11306 -0.42583,0.13191 -0.98713,0.13191 -0.5226,0.0189 -0.67744,0 -0.929062,-0.0565 z"
             id="path1870" />
          <g
             id="g1997">
            <path
               id="path1872"
               d="m 93.272932,99.83054 c -0.464533,-0.11307 -0.851642,-0.32035 -1.141966,-0.64071 -0.232267,-0.22614 -0.367759,-0.43342 -0.483893,-0.73493 -0.07745,-0.22613 -0.09677,-0.32035 -0.09677,-0.6407 -0.01939,-0.24498 0,-0.45226 0.01939,-0.56533 0.135483,-0.6407 0.600017,-1.22487 1.258101,-1.52638 0.348398,-0.16959 0.638728,-0.22613 1.064548,-0.22613 0.44518,0 0.65809,0.0377 1.02584,0.20729 0.61937,0.28266 1.12262,0.84799 1.29682,1.451 0.0774,0.28267 0.0581,0.82915 -0.0194,1.11182 -0.21291,0.73492 -0.77422,1.30024 -1.50973,1.52637 -0.23225,0.0754 -0.30968,0.0754 -0.7355,0.0942 -0.3871,0 -0.50324,0 -0.67744,-0.0565 z"
               style="fill:#ffffff;fill-opacity:1;fill-rule:evenodd;stroke:none;stroke-width:0.23872831"
               inkscape:connector-curvature="0" />
          </g>
        </g>
      </g>
      <path
         inkscape:connector-curvature="0"
         style="fill:#ffe061;fill-opacity:1;fill-rule:nonzero;stroke:none;stroke-width:0.23872831"
         d="m -19.232056,188.35878 c -6.309873,-1.6583 -11.439067,-4.65453 -15.523065,-9.08292 -3.019451,-3.26006 -4.858217,-6.31282 -6.406653,-10.68468 -1.10326,-3.1093 -1.31617,-4.35302 -1.490369,-9.08292 -0.116133,-3.4108 0,-6.44472 0.309687,-8.04648 1.819412,-9.08292 8.264775,-17.26132 17.052145,-21.61433 4.684017,-2.33669 8.671238,-3.20352 14.535939,-3.22237 5.9808321,-0.0188 9.0196381,0.64071 13.9746301,3.01508 8.3034849,3.99498 15.0972439,12.04146 17.4392539,20.67212 1.083902,4.03266 0.987126,11.64573 -0.212908,15.82915 -2.961383,10.23242 -10.6067859,18.27889 -20.45870485,21.5578 -3.17429405,1.05527 -4.23884505,1.18718 -9.90998705,1.31909 -5.2066141,0.0942 -6.8711821,-0.0189 -9.3099681,-0.65954 z"
         id="path1579" />
      <path
         inkscape:connector-curvature="0"
         style="fill:#efbf00;fill-opacity:1;fill-rule:evenodd;stroke:none;stroke-width:0.23872831;stroke-opacity:1"
         d="m -19.232056,188.35878 c -6.309873,-1.6583 -11.439067,-4.65453 -15.523065,-9.08292 -3.019451,-3.26006 -4.858217,-6.31282 -6.406653,-10.68468 -1.10326,-3.1093 -1.31617,-4.35302 -1.490369,-9.08292 -0.116133,-3.4108 0,-6.44472 0.309687,-8.04648 1.819412,-9.08292 8.264775,-17.26132 17.052145,-21.61433 4.684017,-2.33669 8.671238,-3.20352 14.535939,-3.22237 5.9808321,-0.0188 9.0196381,0.64071 13.9746301,3.01508 8.3034849,3.99498 15.0972439,12.04146 17.4392539,20.67212 1.083902,4.03266 0.987126,11.64573 -0.212908,15.82915 -2.961383,10.23242 -10.6067859,18.27889 -20.45870485,21.5578 -3.17429405,1.05527 -4.23884505,1.18718 -9.90998705,1.31909 -5.2066141,0.0942 -6.8711821,-0.0189 -9.3099681,-0.65954 z"
         id="path1581" />
      <path
         inkscape:connector-curvature="0"
         style="fill:#ffffff;fill-opacity:1;fill-rule:evenodd;stroke:none;stroke-width:0.23872831"
         d="m -12.864115,172.96304 c -4.664662,-1.18718 -8.438972,-3.29774 -11.458424,-6.40704 -2.24523,-2.31784 -3.600111,-4.46608 -4.742085,-7.53769 -0.812927,-2.20477 -0.967771,-3.09045 -1.103257,-6.42588 -0.09678,-2.41206 0,-4.54146 0.232262,-5.67211 1.33553,-6.40704 6.11632,-12.19222 12.600395,-15.26383 3.464626,-1.63944 6.406653,-2.2613 10.7229171,-2.2613 4.432395,0 6.67762605,0.45226 10.335805,2.12939 6.155031,2.80779 11.1680919,8.49875 12.8907279,14.58544 0.812927,2.84547 0.735504,8.21608 -0.154845,11.15578 -2.187165,7.21734 -7.8389529,12.90829 -15.1166009,15.22613 -2.34200995,0.73493 -3.135582,0.848 -7.316356,0.92337 -3.851736,0.0754 -5.0904861,0 -6.8905391,-0.45226 z"
         id="path1583" />
      <g
         style="fill:#008000;fill-opacity:1;stroke:none"
         id="g1021"
         transform="matrix(0.88123914,0,0,0.88123914,-185.06259,77.483007)">
        <path
           inkscape:connector-curvature="0"
           id="path967"
           style="font-style:normal;font-variant:normal;font-weight:normal;font-stretch:normal;font-size:192px;line-height:1.25;font-family:NordiquePro-Bold;-inkscape-font-specification:'NordiquePro-Bold, Normal';font-variant-ligatures:normal;font-variant-caps:normal;font-variant-numeric:normal;font-feature-settings:normal;text-align:start;letter-spacing:0px;word-spacing:0px;writing-mode:lr-tb;text-anchor:start;fill:#008000;fill-opacity:1;stroke:none;stroke-width:0.26834363"
           d="m 138.65518,86.689809 v 22.860001 c 0,2.3876 0.57479,4.572 1.77664,6.604 1.20185,2.032 2.82173,3.6068 4.9119,4.7752 2.03791,1.1684 4.28484,1.7272 6.74079,1.7272 2.40369,0 4.65063,-0.5588 6.74079,-1.7272 2.03792,-1.1684 3.6578,-2.7432 4.9119,-4.7752 1.20185,-2.032 1.8289,-4.2164 1.8289,-6.604 0,-2.3368 -0.62705,-4.5212 -1.8289,-6.5532 -1.2541,-2.032 -2.87398,-3.606801 -4.9119,-4.775201 -2.09016,-1.1684 -4.3371,-1.778 -6.74079,-1.778 -2.56046,0 -4.75513,0.6604 -6.58403,1.9304 v -11.684 z m 8.6742,18.135601 c 1.2541,-1.27 2.87398,-1.9304 4.80738,-1.9304 1.88116,0 3.50104,0.6604 4.75514,1.9304 1.2541,1.27 1.88115,2.8448 1.88115,4.7244 0,1.9304 -0.62705,3.5052 -1.88115,4.7752 -1.2541,1.27 -2.87398,1.8796 -4.75514,1.8796 -1.9334,0 -3.55328,-0.6096 -4.80738,-1.8796 -1.30636,-1.27 -1.93341,-2.8448 -1.93341,-4.7752 0,-1.8796 0.62705,-3.4544 1.93341,-4.7244 z" />
        <path
           inkscape:connector-curvature="0"
           id="path969"
           style="font-style:normal;font-variant:normal;font-weight:normal;font-stretch:normal;font-size:192px;line-height:1.25;font-family:NordiquePro-Bold;-inkscape-font-specification:'NordiquePro-Bold, Normal';font-variant-ligatures:normal;font-variant-caps:normal;font-variant-numeric:normal;font-feature-settings:normal;text-align:start;letter-spacing:0px;word-spacing:0px;writing-mode:lr-tb;text-anchor:start;fill:#008000;fill-opacity:1;stroke:none;stroke-width:0.26834363"
           d="m 184.65522,96.849809 h 6.79305 v 13.360401 c 0,4.1656 -1.04508,7.2644 -3.13525,9.3472 -2.09017,2.0828 -4.9119,3.0988 -8.36068,3.0988 -3.50103,0 -6.2705,-1.016 -8.36067,-3.0988 -2.09017,-2.0828 -3.13525,-5.1816 -3.13525,-9.3472 V 96.849809 h 6.79304 v 13.360401 c 0,2.0828 0.36578,3.6068 1.09734,4.572 0.73156,0.9652 1.93341,1.4224 3.60554,1.4224 1.61989,0 2.82173,-0.4572 3.55329,-1.4224 0.73156,-0.9652 1.14959,-2.4892 1.14959,-4.572 z" />
        <path
           inkscape:connector-curvature="0"
           id="path971"
           d="m 195.77312,96.849809 v 25.400001 h 6.79305 V 96.849809 Z"
           style="font-style:normal;font-variant:normal;font-weight:normal;font-stretch:normal;font-size:192px;line-height:1.25;font-family:NordiquePro-Bold;-inkscape-font-specification:'NordiquePro-Bold, Normal';font-variant-ligatures:normal;font-variant-caps:normal;font-variant-numeric:normal;font-feature-settings:normal;text-align:start;letter-spacing:0px;word-spacing:0px;writing-mode:lr-tb;text-anchor:start;fill:#008000;fill-opacity:1;stroke:none;stroke-width:0.26834363" />
        <path
           inkscape:connector-curvature="0"
           id="path973"
           style="font-style:normal;font-variant:normal;font-weight:normal;font-stretch:normal;font-size:192px;line-height:1.25;font-family:NordiquePro-Bold;-inkscape-font-specification:'NordiquePro-Bold, Normal';font-variant-ligatures:normal;font-variant-caps:normal;font-variant-numeric:normal;font-feature-settings:normal;text-align:start;letter-spacing:0px;word-spacing:0px;writing-mode:lr-tb;text-anchor:start;fill:#008000;fill-opacity:1;stroke:none;stroke-width:0.26834363"
           d="m 207.3409,122.24981 h 6.79305 V 86.689809 h -6.79305 z" />
        <path
           inkscape:connector-curvature="0"
           id="path975"
           style="font-style:normal;font-variant:normal;font-weight:normal;font-stretch:normal;font-size:192px;line-height:1.25;font-family:NordiquePro-Bold;-inkscape-font-specification:'NordiquePro-Bold, Normal';font-variant-ligatures:normal;font-variant-caps:normal;font-variant-numeric:normal;font-feature-settings:normal;text-align:start;letter-spacing:0px;word-spacing:0px;writing-mode:lr-tb;text-anchor:start;fill:#008000;fill-opacity:1;stroke:none;stroke-width:0.26834363"
           d="m 242.06138,116.15381 c 1.20185,-2.032 1.8289,-4.2164 1.8289,-6.604 V 86.689809 h -6.8453 v 11.684 c -1.88115,-1.27 -4.07583,-1.9304 -6.58403,-1.9304 -2.45595,0 -4.70288,0.6096 -6.7408,1.778 -2.09017,1.1684 -3.71005,2.743201 -4.9119,4.775201 -1.2541,2.032 -1.82889,4.2164 -1.82889,6.5532 0,2.3876 0.57479,4.572 1.82889,6.604 1.20185,2.032 2.82173,3.6068 4.9119,4.7752 2.03792,1.1684 4.28485,1.7272 6.7408,1.7272 2.40369,0 4.65062,-0.5588 6.74079,-1.7272 2.03791,-1.1684 3.6578,-2.7432 4.85964,-4.7752 z m -16.40782,-11.3284 c 1.2541,-1.27 2.82173,-1.9304 4.75513,-1.9304 1.88115,0 3.50103,0.6604 4.80739,1.9304 1.2541,1.27 1.93341,2.8448 1.93341,4.7244 0,1.9304 -0.67931,3.5052 -1.93341,4.7752 -1.30636,1.27 -2.92624,1.8796 -4.80739,1.8796 -1.9334,0 -3.50103,-0.6096 -4.75513,-1.8796 -1.2541,-1.27 -1.88115,-2.8448 -1.88115,-4.7752 0,-1.8796 0.62705,-3.4544 1.88115,-4.7244 z" />
        <path
           inkscape:connector-curvature="0"
           id="path977"
           style="font-style:normal;font-variant:normal;font-weight:normal;font-stretch:normal;font-size:192px;line-height:1.25;font-family:NordiquePro-Bold;-inkscape-font-specification:'NordiquePro-Bold, Normal';font-variant-ligatures:normal;font-variant-caps:normal;font-variant-numeric:normal;font-feature-settings:normal;text-align:start;letter-spacing:0px;word-spacing:0px;writing-mode:lr-tb;text-anchor:start;fill:#008000;fill-opacity:1;stroke:none;stroke-width:0.26834363"
           d="m 275.2673,99.593009 c -2.09016,-2.0828 -4.91189,-3.1496 -8.36067,-3.1496 -1.88115,0 -3.44878,0.4572 -4.70288,1.27 v -11.0236 h -6.79305 v 35.560001 h 6.79305 v -13.3604 c 0,-2.032 0.36578,-3.556 1.09734,-4.5212 0.73156,-0.9652 1.9334,-1.4732 3.60554,-1.4732 1.61988,0 2.82173,0.508 3.55329,1.4732 0.73156,0.9652 1.14959,2.4892 1.14959,4.5212 v 13.3604 h 6.79305 v -13.3604 c 0,-4.1148 -1.04509,-7.2136 -3.13526,-9.296401 z" />
        <path
           inkscape:connector-curvature="0"
           id="path979"
           style="font-style:normal;font-variant:normal;font-weight:normal;font-stretch:normal;font-size:192px;line-height:1.25;font-family:NordiquePro-Bold;-inkscape-font-specification:'NordiquePro-Bold, Normal';font-variant-ligatures:normal;font-variant-caps:normal;font-variant-numeric:normal;font-feature-settings:normal;text-align:start;letter-spacing:0px;word-spacing:0px;writing-mode:lr-tb;text-anchor:start;fill:#008000;fill-opacity:1;stroke:none;stroke-width:0.26834363"
           d="m 283.00093,103.09821 c -1.14959,2.032 -1.72439,4.1656 -1.72439,6.5024 0,2.3876 0.5748,4.572 1.77664,6.5532 1.20185,2.032 2.82173,3.6068 4.9119,4.7752 2.03792,1.1684 4.28485,1.7272 6.79305,1.7272 2.71722,0 5.17317,-0.7112 7.4201,-2.1844 2.19468,-1.4224 3.86681,-3.3528 4.96415,-5.6896 l -8.0994,-0.0508 c -0.5748,0.4572 -1.20185,0.8128 -1.88116,1.0668 -0.6793,0.3048 -1.56762,0.4064 -2.61271,0.4064 -1.56762,0 -2.87398,-0.3556 -3.91906,-1.0668 -1.04509,-0.7112 -1.72439,-1.7272 -2.03792,-2.9972 h 19.38632 c 0.15676,-1.016 0.20901,-2.032 0.20901,-3.1496 -0.1045,-2.54 -0.78381,-4.7752 -2.14242,-6.7056 -1.35861,-1.8796 -3.03074,-3.302001 -5.06866,-4.318001 -2.09017,-1.016 -4.23259,-1.524 -6.42727,-1.524 -2.45595,0 -4.70288,0.6096 -6.74079,1.8288 -2.03792,1.2192 -3.6578,2.794001 -4.80739,4.826001 z m 17.9232,3.7592 h -12.332 c 0.52254,-1.2192 1.35861,-2.1844 2.4037,-2.8956 1.04508,-0.7112 2.29918,-1.0668 3.7623,-1.0668 1.30635,0 2.5082,0.4064 3.65779,1.1176 1.1496,0.7112 1.98567,1.6764 2.50821,2.8448 z" />
        <path
           inkscape:connector-curvature="0"
           id="path981"
           style="font-style:normal;font-variant:normal;font-weight:normal;font-stretch:normal;font-size:192px;line-height:1.25;font-family:NordiquePro-Bold;-inkscape-font-specification:'NordiquePro-Bold, Normal';font-variant-ligatures:normal;font-variant-caps:normal;font-variant-numeric:normal;font-feature-settings:normal;text-align:start;letter-spacing:0px;word-spacing:0px;writing-mode:lr-tb;text-anchor:start;fill:#008000;fill-opacity:1;stroke:none;stroke-width:0.26834363"
           d="m 311.03287,122.24981 h 6.79305 V 86.689809 h -6.79305 z" />
        <path
           inkscape:connector-curvature="0"
           id="path983"
           style="font-style:normal;font-variant:normal;font-weight:normal;font-stretch:normal;font-size:192px;line-height:1.25;font-family:NordiquePro-Bold;-inkscape-font-specification:'NordiquePro-Bold, Normal';font-variant-ligatures:normal;font-variant-caps:normal;font-variant-numeric:normal;font-feature-settings:normal;text-align:start;letter-spacing:0px;word-spacing:0px;writing-mode:lr-tb;text-anchor:start;fill:#008000;fill-opacity:1;stroke:none;stroke-width:0.26834363"
           d="m 321.95318,122.24981 h 6.79305 V 86.689809 h -6.79305 z" />
        <path
           inkscape:connector-curvature="0"
           id="path985"
           style="font-style:normal;font-variant:normal;font-weight:normal;font-stretch:normal;font-size:192px;line-height:1.25;font-family:NordiquePro-Bold;-inkscape-font-specification:'NordiquePro-Bold, Normal';font-variant-ligatures:normal;font-variant-caps:normal;font-variant-numeric:normal;font-feature-settings:normal;text-align:start;letter-spacing:0px;word-spacing:0px;writing-mode:lr-tb;text-anchor:start;fill:#008000;fill-opacity:1;stroke:none;stroke-width:0.26834363"
           d="m 351.81402,98.221409 c -2.09017,-1.1684 -4.3371,-1.778 -6.74079,-1.778 -2.45595,0 -4.70288,0.6096 -6.79305,1.778 -2.09017,1.1684 -3.71005,2.743201 -4.9119,4.775201 -1.20185,2.032 -1.77664,4.2164 -1.77664,6.5532 0,2.3876 0.57479,4.572 1.77664,6.604 1.20185,2.032 2.82173,3.6068 4.9119,4.7752 2.09017,1.1684 4.3371,1.7272 6.79305,1.7272 2.40369,0 4.65062,-0.5588 6.74079,-1.7272 2.09017,-1.1684 3.71005,-2.7432 4.9119,-4.7752 1.20184,-2.032 1.82889,-4.2164 1.82889,-6.604 0,-2.3368 -0.62705,-4.5212 -1.82889,-6.5532 -1.20185,-2.032 -2.82173,-3.606801 -4.9119,-4.775201 z m -11.49593,6.604001 c 1.2541,-1.27 2.87398,-1.9304 4.80739,-1.9304 1.88115,0 3.50103,0.6604 4.75513,1.9304 1.2541,1.27 1.88116,2.8448 1.88116,4.7244 0,1.9304 -0.62706,3.5052 -1.88116,4.7752 -1.2541,1.27 -2.87398,1.8796 -4.75513,1.8796 -1.93341,0 -3.55329,-0.6096 -4.80739,-1.8796 -1.30635,-1.27 -1.93341,-2.8448 -1.93341,-4.7752 0,-1.8796 0.62706,-3.4544 1.93341,-4.7244 z" />
      </g>
      <g
         transform="translate(-67.620584,-47.792545)"
         id="g2046">
        <path
           id="path2042"
           d="m 57.136728,208.3064 c -0.638729,-0.15075 -1.141973,-0.45226 -1.548437,-0.90452 -0.309687,-0.32035 -0.483885,-0.62186 -0.63873,-1.05528 -0.116131,-0.32035 -0.135487,-0.43342 -0.154842,-0.90452 0,-0.3392 0,-0.64071 0.03871,-0.81031 0.174197,-0.90452 0.832283,-1.71482 1.703277,-2.14824 0.464531,-0.24497 0.851641,-0.32035 1.451659,-0.32035 0.580663,0 0.89035,0.0565 1.393593,0.30151 0.832282,0.39573 1.509723,1.18719 1.741988,2.05402 0.09678,0.39573 0.09678,1.16834 -0.03871,1.58292 -0.290334,1.01758 -1.045194,1.82789 -2.032322,2.14824 -0.309687,0.11306 -0.42582,0.11306 -0.987128,0.13191 -0.522598,0 -0.67744,0 -0.92906,-0.0754 z"
           style="fill:#0000c3;fill-opacity:1;fill-rule:evenodd;stroke:none;stroke-width:0.23872831"
           inkscape:connector-curvature="0" />
        <path
           id="path2044"
           d="m 57.368993,207.42072 c -0.464532,-0.11306 -0.851639,-0.33919 -1.161328,-0.6407 -0.21291,-0.22613 -0.348396,-0.45226 -0.46453,-0.75377 -0.07743,-0.22613 -0.09678,-0.30151 -0.116133,-0.6407 0,-0.24498 0,-0.45227 0.03871,-0.56533 0.116133,-0.6407 0.600018,-1.20603 1.238748,-1.52639 0.348397,-0.15075 0.658084,-0.22613 1.083905,-0.22613 0.445176,0 0.658086,0.0565 1.025839,0.22613 0.619374,0.26383 1.122615,0.848 1.277459,1.45101 0.09678,0.28266 0.07743,0.8103 0,1.11181 -0.232264,0.71608 -0.793574,1.28141 -1.509724,1.50754 -0.232267,0.0754 -0.309687,0.0942 -0.735507,0.0942 -0.387109,0.0189 -0.503243,0 -0.677441,-0.0377 z"
           style="fill:#ffffff;fill-opacity:1;fill-rule:evenodd;stroke:none;stroke-width:0.23872831"
           inkscape:connector-curvature="0" />
      </g>
    </g>
  </g>
</svg>
