<?xml version="1.0" encoding="UTF-8" standalone="no"?>
<!-- Created with Inkscape (http://www.inkscape.org/) -->

<svg
   xmlns:dc="http://purl.org/dc/elements/1.1/"
   xmlns:cc="http://creativecommons.org/ns#"
   xmlns:rdf="http://www.w3.org/1999/02/22-rdf-syntax-ns#"
   xmlns:svg="http://www.w3.org/2000/svg"
   xmlns="http://www.w3.org/2000/svg"
   xmlns:sodipodi="http://sodipodi.sourceforge.net/DTD/sodipodi-0.dtd"
   xmlns:inkscape="http://www.inkscape.org/namespaces/inkscape"
   width="2717.2588"
   height="101.21687"
   viewBox="0 0 718.94137 26.780297"
   version="1.1"
   id="svg11029"
   inkscape:version="0.92.4 (5da689c313, 2019-01-14)"
   sodipodi:docname="logo39.svg">
  <defs
     id="defs11023" />
  <sodipodi:namedview
     id="base"
     pagecolor="#ffffff"
     bordercolor="#666666"
     borderopacity="1.0"
     inkscape:pageopacity="0.0"
     inkscape:pageshadow="2"
     inkscape:zoom="0.24748737"
     inkscape:cx="2379.2559"
     inkscape:cy="-205.64172"
     inkscape:document-units="mm"
     inkscape:current-layer="layer1"
     showgrid="false"
     units="px" />
  <metadata
     id="metadata11026">
    <rdf:RDF>
      <cc:Work
         rdf:about="">
        <dc:format>image/svg+xml</dc:format>
        <dc:type
           rdf:resource="http://purl.org/dc/dcmitype/StillImage" />
        <dc:title></dc:title>
      </cc:Work>
    </rdf:RDF>
  </metadata>
  <g
     inkscape:label="Layer 1"
     inkscape:groupmode="layer"
     id="layer1"
     transform="translate(-89.867451,9.412167)">
    <g
       aria-label="Web Development For Small And Medium Sized Business."
       style="font-style:normal;font-variant:normal;font-weight:normal;font-stretch:normal;font-size:28.28312874px;line-height:1em;font-family:NordiquePro-Bold;-inkscape-font-specification:'NordiquePro-Bold, Normal';font-variant-ligatures:normal;font-variant-caps:normal;font-variant-numeric:normal;text-align:start;letter-spacing:0px;word-spacing:0px;writing-mode:lr-tb;text-anchor:start;fill:#a1ce4f;fill-opacity:0.97716896;stroke:#000000;stroke-width:0.332;stroke-miterlimit:4;stroke-dasharray:none;stroke-opacity:1"
       id="text11011">
      <path
         d="m 117.48136,-8.1528301 h -3.90307 L 109.98633,5.281656 105.31962,-8.1528301 h -3.22428 L 97.372057,5.281656 93.836666,-8.1528301 H 89.933594 L 95.533653,11.64536 h 3.676807 l 4.49702,-13.6041849 4.44045,13.6041849 h 3.67681 z"
         style="fill:#a1ce4f;fill-opacity:0.97716896;stroke:#000000;stroke-width:0.332;stroke-miterlimit:4;stroke-dasharray:none;stroke-opacity:1"
         id="path11590" />
      <path
         d="m 116.59795,0.98262046 c -0.62222,1.13132514 -0.93334,2.31921654 -0.93334,3.62024044 0,1.3293071 0.31112,2.5454816 0.96163,3.6485236 0.65051,1.1313252 1.52729,2.0081025 2.65861,2.6586145 1.10304,0.650512 2.31922,0.961626 3.67681,0.961626 1.47072,0 2.80003,-0.395964 4.0162,-1.216175 1.18789,-0.7919271 2.09295,-1.866686 2.6869,-3.1677099 l -4.38389,-0.028283 c -0.31111,0.2545482 -0.65051,0.4525301 -1.01819,0.5939457 -0.36768,0.1696988 -0.84849,0.2262651 -1.41415,0.2262651 -0.8485,0 -1.55558,-0.1979819 -2.12124,-0.5939457 -0.56566,-0.3959638 -0.93334,-0.9616264 -1.10304,-1.6687046 h 10.49304 c 0.0849,-0.5656626 0.11313,-1.1313252 0.11313,-1.753554 -0.0566,-1.4141564 -0.42424,-2.6586141 -1.15961,-3.733373 -0.73536,-1.04647576 -1.64042,-1.8384034 -2.74346,-2.4040659 -1.13132,-0.5656626 -2.29093,-0.8484939 -3.47882,-0.8484939 -1.32931,0 -2.54549,0.3393975 -3.64853,1.0181926 -1.10304,0.6787951 -1.97982,1.55557211 -2.60205,2.68689726 z m 9.70112,2.09295154 h -6.67482 c 0.28283,-0.6787951 0.73536,-1.2161746 1.30102,-1.6121384 0.56567,-0.3959638 1.24446,-0.59394566 2.03639,-0.59394566 0.70708,0 1.35759,0.22626506 1.97982,0.62222886 0.62223,0.3959638 1.07476,0.9333432 1.35759,1.5838552 z"
         style="fill:#a1ce4f;fill-opacity:0.97716896;stroke:#000000;stroke-width:0.332;stroke-miterlimit:4;stroke-dasharray:none;stroke-opacity:1"
         id="path11592" />
      <path
         d="M 131.77053,-8.1528301 V 4.5745778 c 0,1.3293071 0.31111,2.5454816 0.96163,3.6768067 0.65051,1.1313252 1.52728,2.0081025 2.65861,2.6586145 1.10304,0.650512 2.31922,0.961626 3.64852,0.961626 1.30103,0 2.5172,-0.311114 3.64853,-0.961626 1.10304,-0.650512 1.97982,-1.5272893 2.65861,-2.6586145 0.65051,-1.1313251 0.98991,-2.3474996 0.98991,-3.6768067 0,-1.3010239 -0.3394,-2.5171984 -0.98991,-3.6485236 -0.67879,-1.13132515 -1.55557,-2.0081021 -2.65861,-2.6586141 -1.13133,-0.650512 -2.3475,-0.9899095 -3.64853,-0.9899095 -1.38587,0 -2.57376,0.3676807 -3.56367,1.0747589 v -6.5051196 z m 4.695,10.0970769 c 0.67879,-0.7070782 1.55557,-1.07475886 2.60205,-1.07475886 1.01819,0 1.89497,0.36768066 2.57376,1.07475886 0.6788,0.7070783 1.01819,1.5838552 1.01819,2.630331 0,1.0747589 -0.33939,1.9515359 -1.01819,2.6586141 -0.67879,0.7070782 -1.55557,1.0464758 -2.57376,1.0464758 -1.04648,0 -1.92326,-0.3393976 -2.60205,-1.0464758 -0.70708,-0.7070782 -1.04648,-1.5838552 -1.04648,-2.6586141 0,-1.0464758 0.3394,-1.9232527 1.04648,-2.630331 z"
         style="fill:#a1ce4f;fill-opacity:0.97716896;stroke:#000000;stroke-width:0.332;stroke-miterlimit:4;stroke-dasharray:none;stroke-opacity:1"
         id="path11594" />
      <path
         d="m 160.40664,-6.6806712 v 16.033551 h 3.36967 q 4.26733,0 6.24218,-1.933417 1.98865,-1.933417 1.98865,-6.1040737 0,-4.1430364 -1.98865,-6.0626433 -1.97485,-1.933417 -6.24218,-1.933417 z M 157.617,-8.9731513 h 5.7312 q 5.99359,0 8.79705,2.4996319 2.80345,2.4858219 2.80345,7.7889085 0,5.3307069 -2.81726,7.8303389 -2.81727,2.499632 -8.78324,2.499632 h -5.7312 z"
         style="fill:#a1ce4f;fill-opacity:0.97716896;stroke:#000000;stroke-width:0.332;stroke-miterlimit:4;stroke-dasharray:none;stroke-opacity:1"
         id="path11596" />
      <path
         d="M 178.24634,0.98262046 C 177.62411,2.1139456 177.313,3.301837 177.313,4.6028609 c 0,1.3293071 0.31111,2.5454816 0.96162,3.6485236 0.65052,1.1313252 1.52729,2.0081025 2.65862,2.6586145 1.10304,0.650512 2.31921,0.961626 3.6768,0.961626 1.47073,0 2.80003,-0.395964 4.01621,-1.216175 1.18789,-0.7919271 2.09295,-1.866686 2.6869,-3.1677099 l -4.38389,-0.028283 c -0.31111,0.2545482 -0.65051,0.4525301 -1.01819,0.5939457 -0.36768,0.1696988 -0.8485,0.2262651 -1.41416,0.2262651 -0.84849,0 -1.55557,-0.1979819 -2.12123,-0.5939457 -0.56567,-0.3959638 -0.93335,-0.9616264 -1.10304,-1.6687046 h 10.49304 c 0.0848,-0.5656626 0.11313,-1.1313252 0.11313,-1.753554 -0.0566,-1.4141564 -0.42425,-2.6586141 -1.15961,-3.733373 -0.73536,-1.04647576 -1.64042,-1.8384034 -2.74346,-2.4040659 -1.13133,-0.5656626 -2.29094,-0.8484939 -3.47883,-0.8484939 -1.32931,0 -2.54548,0.3393975 -3.64852,1.0181926 -1.10304,0.6787951 -1.97982,1.55557211 -2.60205,2.68689726 z m 9.70111,2.09295154 h -6.67481 c 0.28283,-0.6787951 0.73536,-1.2161746 1.30102,-1.6121384 0.56566,-0.3959638 1.24446,-0.59394566 2.03638,-0.59394566 0.70708,0 1.35759,0.22626506 1.97982,0.62222886 0.62223,0.3959638 1.07476,0.9333432 1.35759,1.5838552 z"
         style="fill:#a1ce4f;fill-opacity:0.97716896;stroke:#000000;stroke-width:0.332;stroke-miterlimit:4;stroke-dasharray:none;stroke-opacity:1"
         id="path11598" />
      <path
         d="m 192.01801,-2.4962044 5.23238,14.1415644 h 3.67681 l 5.26066,-14.1415644 h -3.84651 l -3.25255,9.3051494 -3.22428,-9.3051494 z"
         style="fill:#a1ce4f;fill-opacity:0.97716896;stroke:#000000;stroke-width:0.332;stroke-miterlimit:4;stroke-dasharray:none;stroke-opacity:1"
         id="path11600" />
      <path
         d="m 207.02663,0.98262046 c -0.62223,1.13132514 -0.93334,2.31921654 -0.93334,3.62024044 0,1.3293071 0.31111,2.5454816 0.96162,3.6485236 0.65051,1.1313252 1.52729,2.0081025 2.65862,2.6586145 1.10304,0.650512 2.31921,0.961626 3.6768,0.961626 1.47073,0 2.80003,-0.395964 4.01621,-1.216175 1.18789,-0.7919271 2.09295,-1.866686 2.68689,-3.1677099 l -4.38388,-0.028283 c -0.31111,0.2545482 -0.65051,0.4525301 -1.01819,0.5939457 -0.36768,0.1696988 -0.8485,0.2262651 -1.41416,0.2262651 -0.84849,0 -1.55557,-0.1979819 -2.12123,-0.5939457 -0.56567,-0.3959638 -0.93335,-0.9616264 -1.10305,-1.6687046 h 10.49304 c 0.0848,-0.5656626 0.11314,-1.1313252 0.11314,-1.753554 -0.0566,-1.4141564 -0.42425,-2.6586141 -1.15961,-3.733373 -0.73536,-1.04647576 -1.64042,-1.8384034 -2.74346,-2.4040659 -1.13133,-0.5656626 -2.29094,-0.8484939 -3.47883,-0.8484939 -1.32931,0 -2.54548,0.3393975 -3.64852,1.0181926 -1.10305,0.6787951 -1.97982,1.55557211 -2.60205,2.68689726 z m 9.70111,2.09295154 h -6.67482 c 0.28284,-0.6787951 0.73537,-1.2161746 1.30103,-1.6121384 0.56566,-0.3959638 1.24446,-0.59394566 2.03638,-0.59394566 0.70708,0 1.35759,0.22626506 1.97982,0.62222886 0.62223,0.3959638 1.07476,0.9333432 1.35759,1.5838552 z"
         style="fill:#a1ce4f;fill-opacity:0.97716896;stroke:#000000;stroke-width:0.332;stroke-miterlimit:4;stroke-dasharray:none;stroke-opacity:1"
         id="path11602" />
      <path
         d="m 222.1992,11.64536 h 3.67681 V -8.1528301 h -3.67681 z"
         style="fill:#a1ce4f;fill-opacity:0.97716896;stroke:#000000;stroke-width:0.332;stroke-miterlimit:4;stroke-dasharray:none;stroke-opacity:1"
         id="path11604" />
      <path
         d="m 238.36168,-1.7325599 c -1.13133,-0.650512 -2.3475,-0.9899095 -3.64852,-0.9899095 -1.32931,0 -2.54549,0.3393975 -3.67681,0.9899095 -1.13133,0.650512 -2.0081,1.52728895 -2.65862,2.6586141 -0.65051,1.1313252 -0.96162,2.3474997 -0.96162,3.6485236 0,1.3293071 0.31111,2.5454816 0.96162,3.6768067 0.65052,1.1313252 1.52729,2.0081025 2.65862,2.6586145 1.13132,0.650512 2.3475,0.961626 3.67681,0.961626 1.30102,0 2.51719,-0.311114 3.64852,-0.961626 1.13132,-0.650512 2.0081,-1.5272893 2.65861,-2.6586145 0.65052,-1.1313251 0.98991,-2.3474996 0.98991,-3.6768067 0,-1.3010239 -0.33939,-2.5171984 -0.98991,-3.6485236 -0.65051,-1.13132515 -1.52729,-2.0081021 -2.65861,-2.6586141 z m -6.22229,3.6768067 c 0.6788,-0.7070782 1.55557,-1.07475886 2.60205,-1.07475886 1.01819,0 1.89497,0.36768066 2.57376,1.07475886 0.6788,0.7070783 1.0182,1.5838552 1.0182,2.630331 0,1.0747589 -0.3394,1.9515359 -1.0182,2.6586141 -0.67879,0.7070782 -1.55557,1.0464758 -2.57376,1.0464758 -1.04648,0 -1.92325,-0.3393976 -2.60205,-1.0464758 -0.70708,-0.7070782 -1.04647,-1.5838552 -1.04647,-2.6586141 0,-1.0464758 0.33939,-1.9232527 1.04647,-2.630331 z"
         style="fill:#a1ce4f;fill-opacity:0.97716896;stroke:#000000;stroke-width:0.332;stroke-miterlimit:4;stroke-dasharray:none;stroke-opacity:1"
         id="path11606" />
      <path
         d="m 244.5389,0.9260542 c -0.65052,1.1313252 -0.96163,2.3474997 -0.96163,3.6485236 V 17.301986 h 3.70509 v -6.50512 c 0.98991,0.735361 2.1778,1.074759 3.56367,1.074759 1.30103,0 2.5172,-0.311114 3.64853,-0.961626 1.10304,-0.650512 1.97982,-1.5272893 2.65861,-2.6586145 0.65051,-1.1313251 0.98991,-2.3474996 0.98991,-3.6768067 0,-1.3010239 -0.3394,-2.5171984 -0.98991,-3.6485236 -0.67879,-1.13132515 -1.55557,-2.0081021 -2.65861,-2.6586141 -1.13133,-0.650512 -2.3475,-0.9899095 -3.64853,-0.9899095 -1.3293,0 -2.54548,0.3393975 -3.64852,0.9899095 -1.13133,0.650512 -2.0081,1.52728895 -2.65861,2.6586141 z m 8.90918,6.3071377 c -0.67879,0.7070782 -1.55557,1.0464758 -2.57376,1.0464758 -1.04648,0 -1.92326,-0.3393976 -2.60205,-1.0464758 -0.70708,-0.7070782 -1.04648,-1.5838552 -1.04648,-2.6586141 0,-1.0464758 0.3394,-1.9232527 1.04648,-2.630331 0.67879,-0.7070782 1.55557,-1.07475886 2.60205,-1.07475886 1.01819,0 1.89497,0.36768066 2.57376,1.07475886 0.6788,0.7070783 1.01819,1.5838552 1.01819,2.630331 0,1.0747589 -0.33939,1.9515359 -1.01819,2.6586141 z"
         style="fill:#a1ce4f;fill-opacity:0.97716896;stroke:#000000;stroke-width:0.332;stroke-miterlimit:4;stroke-dasharray:none;stroke-opacity:1"
         id="path11608" />
      <path
         d="m 279.73194,-0.96891542 c -1.18789,-1.15960828 -2.71518,-1.75355398 -4.61015,-1.75355398 -0.96162,0 -1.81012,0.1696988 -2.60205,0.5090963 -0.79192,0.3393976 -1.41415,0.8202107 -1.92325,1.44243958 -0.50909,-0.62222888 -1.15961,-1.10304198 -1.95153,-1.44243958 -0.79193,-0.3393975 -1.64043,-0.5090963 -2.57377,-0.5090963 -1.92325,0 -3.45054,0.5939457 -4.61015,1.75355398 -1.18789,1.1878914 -1.75355,2.91316222 -1.75355,5.17581252 V 11.64536 h 3.6768 V 4.2068971 c 0,-1.1313251 0.19799,-1.9515358 0.65052,-2.5171984 0.45253,-0.5373795 1.13132,-0.82021076 2.03638,-0.82021076 0.90506,0 1.58386,0.28283126 2.03639,0.82021076 0.42424,0.5656626 0.65051,1.3858733 0.65051,2.5171984 V 11.64536 h 3.67681 V 4.2068971 c 0,-1.1313251 0.19798,-1.9515358 0.65051,-2.5171984 0.45253,-0.5373795 1.13132,-0.82021076 2.03638,-0.82021076 0.90506,0 1.58386,0.28283126 2.03639,0.82021076 0.42424,0.5656626 0.65051,1.3858733 0.65051,2.5171984 V 11.64536 h 3.67681 V 4.2068971 c 0,-2.2626503 -0.59395,-3.98792112 -1.75356,-5.17581252 z"
         style="fill:#a1ce4f;fill-opacity:0.97716896;stroke:#000000;stroke-width:0.332;stroke-miterlimit:4;stroke-dasharray:none;stroke-opacity:1"
         id="path11610" />
      <path
         d="m 283.97663,0.98262046 c -0.62223,1.13132514 -0.93334,2.31921654 -0.93334,3.62024044 0,1.3293071 0.31111,2.5454816 0.96163,3.6485236 0.65051,1.1313252 1.52729,2.0081025 2.65861,2.6586145 1.10304,0.650512 2.31922,0.961626 3.67681,0.961626 1.47072,0 2.80003,-0.395964 4.0162,-1.216175 1.18789,-0.7919271 2.09295,-1.866686 2.6869,-3.1677099 l -4.38389,-0.028283 c -0.31111,0.2545482 -0.65051,0.4525301 -1.01819,0.5939457 -0.36768,0.1696988 -0.84849,0.2262651 -1.41415,0.2262651 -0.8485,0 -1.55558,-0.1979819 -2.12124,-0.5939457 -0.56566,-0.3959638 -0.93334,-0.9616264 -1.10304,-1.6687046 h 10.49304 c 0.0849,-0.5656626 0.11313,-1.1313252 0.11313,-1.753554 -0.0566,-1.4141564 -0.42425,-2.6586141 -1.15961,-3.733373 -0.73536,-1.04647576 -1.64042,-1.8384034 -2.74346,-2.4040659 -1.13133,-0.5656626 -2.29093,-0.8484939 -3.47882,-0.8484939 -1.32931,0 -2.54549,0.3393975 -3.64853,1.0181926 -1.10304,0.6787951 -1.97982,1.55557211 -2.60205,2.68689726 z m 9.70112,2.09295154 h -6.67482 c 0.28283,-0.6787951 0.73536,-1.2161746 1.30102,-1.6121384 0.56566,-0.3959638 1.24446,-0.59394566 2.03639,-0.59394566 0.70708,0 1.35759,0.22626506 1.97982,0.62222886 0.62223,0.3959638 1.07476,0.9333432 1.35759,1.5838552 z"
         style="fill:#a1ce4f;fill-opacity:0.97716896;stroke:#000000;stroke-width:0.332;stroke-miterlimit:4;stroke-dasharray:none;stroke-opacity:1"
         id="path11612" />
      <path
         d="M 311.59378,4.2068971 V 11.64536 h -3.67681 V 4.2068971 c 0,-1.1313251 -0.22627,-1.979819 -0.62223,-2.5171984 -0.39596,-0.5373795 -1.04648,-0.82021076 -1.92325,-0.82021076 -0.90506,0 -1.55557,0.28283126 -1.95154,0.82021076 -0.39596,0.5373794 -0.59394,1.3858733 -0.59394,2.5171984 V 11.64536 H 299.1492 V 4.2068971 c 0,-2.2909334 0.56566,-4.01620425 1.69699,-5.17581252 1.13132,-1.15960828 2.63033,-1.75355398 4.5253,-1.75355398 1.86668,0 3.39397,0.5939457 4.5253,1.75355398 1.13132,1.15960827 1.69699,2.88487912 1.69699,5.17581252 z"
         style="fill:#a1ce4f;fill-opacity:0.97716896;stroke:#000000;stroke-width:0.332;stroke-miterlimit:4;stroke-dasharray:none;stroke-opacity:1"
         id="path11614" />
      <path
         d="m 318.11215,1.095753 h 2.54548 v -3.5919574 h -2.54548 V -8.124547 h -3.67681 v 5.6283426 h -2.09295 V 1.095753 h 2.09295 v 3.8747886 c 0,2.2909334 0.53738,3.9879212 1.66871,5.0909634 1.13132,1.131325 2.63033,1.668704 4.55358,1.668704 V 8.138252 c -0.90506,0 -1.55557,-0.226265 -1.95153,-0.7353613 -0.39597,-0.4808132 -0.59395,-1.3010239 -0.59395,-2.4323491 z"
         style="fill:#a1ce4f;fill-opacity:0.97716896;stroke:#000000;stroke-width:0.332;stroke-miterlimit:4;stroke-dasharray:none;stroke-opacity:1"
         id="path11616" />
      <path
         d="m 331.51405,-8.9731513 h 11.84909 v 2.3477206 h -9.05944 v 6.07645345 h 8.17559 V 1.7987434 H 334.3037 V 11.64536 h -2.78965 z"
         style="fill:#a1ce4f;fill-opacity:0.97716896;stroke:#000000;stroke-width:0.332;stroke-miterlimit:4;stroke-dasharray:none;stroke-opacity:1"
         id="path11618" />
      <path
         d="m 356.68681,-1.7325599 c -1.13132,-0.650512 -2.3475,-0.9899095 -3.64852,-0.9899095 -1.32931,0 -2.54548,0.3393975 -3.67681,0.9899095 -1.13132,0.650512 -2.0081,1.52728895 -2.65861,2.6586141 -0.65051,1.1313252 -0.96163,2.3474997 -0.96163,3.6485236 0,1.3293071 0.31112,2.5454816 0.96163,3.6768067 0.65051,1.1313252 1.52729,2.0081025 2.65861,2.6586145 1.13133,0.650512 2.3475,0.961626 3.67681,0.961626 1.30102,0 2.5172,-0.311114 3.64852,-0.961626 1.13133,-0.650512 2.00811,-1.5272893 2.65862,-2.6586145 0.65051,-1.1313251 0.98991,-2.3474996 0.98991,-3.6768067 0,-1.3010239 -0.3394,-2.5171984 -0.98991,-3.6485236 -0.65051,-1.13132515 -1.52729,-2.0081021 -2.65862,-2.6586141 z m -6.22228,3.6768067 c 0.67879,-0.7070782 1.55557,-1.07475886 2.60204,-1.07475886 1.0182,0 1.89497,0.36768066 2.57377,1.07475886 0.67879,0.7070783 1.01819,1.5838552 1.01819,2.630331 0,1.0747589 -0.3394,1.9515359 -1.01819,2.6586141 -0.6788,0.7070782 -1.55557,1.0464758 -2.57377,1.0464758 -1.04647,0 -1.92325,-0.3393976 -2.60204,-1.0464758 -0.70708,-0.7070782 -1.04648,-1.5838552 -1.04648,-2.6586141 0,-1.0464758 0.3394,-1.9232527 1.04648,-2.630331 z"
         style="fill:#a1ce4f;fill-opacity:0.97716896;stroke:#000000;stroke-width:0.332;stroke-miterlimit:4;stroke-dasharray:none;stroke-opacity:1"
         id="path11620" />
      <path
         d="M 361.90239,4.2068971 V 11.64536 h 3.6768 V 4.2068971 c 0,-1.0747589 0.19799,-1.8949696 0.59395,-2.4040659 0.39596,-0.5090963 0.98991,-0.7636445 1.81012,-0.7636445 h 0.14142 v -3.5919573 h -0.1697 c -1.81012,0 -3.28085,0.5656625 -4.38389,1.69698769 -1.13132,1.13132515 -1.6687,2.82831291 -1.6687,5.06268001 z"
         style="fill:#a1ce4f;fill-opacity:0.97716896;stroke:#000000;stroke-width:0.332;stroke-miterlimit:4;stroke-dasharray:none;stroke-opacity:1"
         id="path11622" />
      <path
         d="m 391.87808,-8.2964554 v 2.7205939 q -1.58816,-0.7595566 -2.9968,-1.1324299 -1.40863,-0.3728733 -2.72059,-0.3728733 -2.27867,0 -3.52158,0.8838478 -1.2291,0.8838477 -1.2291,2.5134421 0,1.367202 0.8148,2.0715182 0.8286,0.69050607 3.12108,1.11861983 l 1.68484,0.34525304 q 3.12109,0.59383522 4.59877,2.09913843 1.49149,1.4914931 1.49149,4.0049353 0,2.9967963 -2.01628,4.54353 -2.00246,1.546734 -5.88311,1.546734 -1.46387,0 -3.12109,-0.331443 -1.6434,-0.331443 -3.4111,-0.980519 V 7.8613867 q 1.69865,0.9528984 3.32824,1.4362526 1.6296,0.4833543 3.20395,0.4833543 2.38915,0 3.6873,-0.9390883 1.29816,-0.9390882 1.29816,-2.6791635 0,-1.5191134 -0.93909,-2.3753409 -0.92528,-0.8562275 -3.05204,-1.2843413 l -1.69864,-0.3314429 q -3.12109,-0.6214555 -4.51591,-1.94722715 -1.39483,-1.32577165 -1.39483,-3.68730245 0,-2.734404 1.91961,-4.3087579 1.93342,-1.5743538 5.3169,-1.5743538 1.45006,0 2.95536,0.2623923 1.50531,0.2623923 3.07966,0.7871769 z"
         style="fill:#a1ce4f;fill-opacity:0.97716896;stroke:#000000;stroke-width:0.332;stroke-miterlimit:4;stroke-dasharray:none;stroke-opacity:1"
         id="path11624" />
      <path
         d="m 415.56829,-0.96891542 c -1.18789,-1.15960828 -2.71518,-1.75355398 -4.61015,-1.75355398 -0.96162,0 -1.81012,0.1696988 -2.60205,0.5090963 -0.79192,0.3393976 -1.41415,0.8202107 -1.92325,1.44243958 -0.50909,-0.62222888 -1.15961,-1.10304198 -1.95153,-1.44243958 -0.79193,-0.3393975 -1.64043,-0.5090963 -2.57377,-0.5090963 -1.92325,0 -3.45054,0.5939457 -4.61015,1.75355398 -1.18789,1.1878914 -1.75355,2.91316222 -1.75355,5.17581252 V 11.64536 h 3.6768 V 4.2068971 c 0,-1.1313251 0.19799,-1.9515358 0.65052,-2.5171984 0.45253,-0.5373795 1.13132,-0.82021076 2.03638,-0.82021076 0.90506,0 1.58386,0.28283126 2.03639,0.82021076 0.42424,0.5656626 0.65051,1.3858733 0.65051,2.5171984 V 11.64536 h 3.6768 V 4.2068971 c 0,-1.1313251 0.19799,-1.9515358 0.65052,-2.5171984 0.45253,-0.5373795 1.13132,-0.82021076 2.03638,-0.82021076 0.90506,0 1.58386,0.28283126 2.03639,0.82021076 0.42424,0.5656626 0.65051,1.3858733 0.65051,2.5171984 V 11.64536 h 3.67681 V 4.2068971 c 0,-2.2626503 -0.59395,-3.98792112 -1.75356,-5.17581252 z"
         style="fill:#a1ce4f;fill-opacity:0.97716896;stroke:#000000;stroke-width:0.332;stroke-miterlimit:4;stroke-dasharray:none;stroke-opacity:1"
         id="path11626" />
      <path
         d="m 422.52818,10.909999 c 1.10304,0.650512 2.31922,0.961626 3.64852,0.961626 0.79193,0 1.52729,-0.169699 2.23437,-0.509096 0.67879,-0.339398 1.13132,-0.735362 1.35759,-1.216175 v 1.499006 h 3.67681 V 4.5745778 c 0,-1.3010239 -0.3394,-2.5171984 -0.98991,-3.6485236 -0.65052,-1.13132515 -1.52729,-2.0081021 -2.63033,-2.6586141 -1.13133,-0.650512 -2.3475,-0.9899095 -3.64853,-0.9899095 -1.3293,0 -2.54548,0.3393975 -3.64852,0.9899095 -1.13133,0.650512 -2.0081,1.52728895 -2.65862,2.6586141 -0.67879,1.1313252 -0.9899,2.3474997 -0.9899,3.6485236 0,1.3293071 0.31111,2.5454816 0.9899,3.6768067 0.65052,1.1313252 1.52729,2.0081025 2.65862,2.6586145 z m 6.25057,-3.6768071 c -0.67879,0.7070782 -1.55557,1.0464758 -2.57376,1.0464758 -1.04648,0 -1.92326,-0.3393976 -2.60205,-1.0464758 -0.70708,-0.7070782 -1.04648,-1.5838552 -1.04648,-2.6586141 0,-1.0464758 0.3394,-1.9232527 1.04648,-2.630331 0.67879,-0.7070782 1.55557,-1.07475886 2.60205,-1.07475886 1.01819,0 1.89497,0.36768066 2.57376,1.07475886 0.6788,0.7070783 1.01819,1.5838552 1.01819,2.630331 0,1.0747589 -0.33939,1.9515359 -1.01819,2.6586141 z"
         style="fill:#a1ce4f;fill-opacity:0.97716896;stroke:#000000;stroke-width:0.332;stroke-miterlimit:4;stroke-dasharray:none;stroke-opacity:1"
         id="path11628" />
      <path
         d="m 435.42747,11.64536 h 3.67681 V -8.1528301 h -3.67681 z"
         style="fill:#a1ce4f;fill-opacity:0.97716896;stroke:#000000;stroke-width:0.332;stroke-miterlimit:4;stroke-dasharray:none;stroke-opacity:1"
         id="path11630" />
      <path
         d="m 441.33821,11.64536 h 3.67681 V -8.1528301 h -3.67681 z"
         style="fill:#a1ce4f;fill-opacity:0.97716896;stroke:#000000;stroke-width:0.332;stroke-miterlimit:4;stroke-dasharray:none;stroke-opacity:1"
         id="path11632" />
      <path
         d="m 466.39265,7.3463244 1.52729,4.2990356 h 3.76166 l -7.18392,-19.7981901 h -3.6768 L 453.63696,11.64536 h 3.76166 l 1.52729,-4.2990356 z m -1.21617,-3.4505417 h -5.0344 l 2.5172,-7.0707822 z"
         style="fill:#a1ce4f;fill-opacity:0.97716896;stroke:#000000;stroke-width:0.332;stroke-miterlimit:4;stroke-dasharray:none;stroke-opacity:1"
         id="path11634" />
      <path
         d="M 484.99366,4.2068971 V 11.64536 h -3.6768 V 4.2068971 c 0,-1.1313251 -0.22627,-1.979819 -0.62223,-2.5171984 -0.39597,-0.5373795 -1.04648,-0.82021076 -1.92326,-0.82021076 -0.90506,0 -1.55557,0.28283126 -1.95153,0.82021076 -0.39597,0.5373794 -0.59395,1.3858733 -0.59395,2.5171984 V 11.64536 h -3.6768 V 4.2068971 c 0,-2.2909334 0.56566,-4.01620425 1.69698,-5.17581252 1.13133,-1.15960828 2.63033,-1.75355398 4.5253,-1.75355398 1.86669,0 3.39398,0.5939457 4.5253,1.75355398 1.13133,1.15960827 1.69699,2.88487912 1.69699,5.17581252 z"
         style="fill:#a1ce4f;fill-opacity:0.97716896;stroke:#000000;stroke-width:0.332;stroke-miterlimit:4;stroke-dasharray:none;stroke-opacity:1"
         id="path11636" />
      <path
         d="m 500.12514,8.2513845 c 0.65052,-1.1313251 0.98991,-2.3474996 0.98991,-3.6768067 V -8.1528301 h -3.70509 v 6.5051196 c -1.01819,-0.7070782 -2.20608,-1.0747589 -3.56367,-1.0747589 -1.32931,0 -2.54548,0.3393975 -3.64853,0.9899095 -1.13132,0.650512 -2.0081,1.52728895 -2.65861,2.6586141 -0.67879,1.1313252 -0.98991,2.3474997 -0.98991,3.6485236 0,1.3293071 0.31112,2.5454816 0.98991,3.6768067 0.65051,1.1313252 1.52729,2.0081025 2.65861,2.6586145 1.10305,0.650512 2.31922,0.961626 3.64853,0.961626 1.30102,0 2.5172,-0.311114 3.64852,-0.961626 1.10304,-0.650512 1.97982,-1.5272893 2.63033,-2.6586145 z m -8.8809,-6.3071377 c 0.6788,-0.7070782 1.52729,-1.07475886 2.57377,-1.07475886 1.01819,0 1.89497,0.36768066 2.60204,1.07475886 0.6788,0.7070783 1.04648,1.5838552 1.04648,2.630331 0,1.0747589 -0.36768,1.9515359 -1.04648,2.6586141 -0.70707,0.7070782 -1.58385,1.0464758 -2.60204,1.0464758 -1.04648,0 -1.89497,-0.3393976 -2.57377,-1.0464758 -0.67879,-0.7070782 -1.01819,-1.5838552 -1.01819,-2.6586141 0,-1.0464758 0.3394,-1.9232527 1.01819,-2.630331 z"
         style="fill:#a1ce4f;fill-opacity:0.97716896;stroke:#000000;stroke-width:0.332;stroke-miterlimit:4;stroke-dasharray:none;stroke-opacity:1"
         id="path11638" />
      <path
         d="m 512.53713,-8.9731513 h 4.15684 l 5.26166,14.0310834 5.28928,-14.0310834 h 4.15684 V 11.64536 h -2.72059 V -6.4597092 l -5.3169,14.1415643 h -2.80345 l -5.3169,-14.1415643 V 11.64536 h -2.70678 z"
         style="fill:#a1ce4f;fill-opacity:0.97716896;stroke:#000000;stroke-width:0.332;stroke-miterlimit:4;stroke-dasharray:none;stroke-opacity:1"
         id="path11640" />
      <path
         d="m 535.818,0.98262046 c -0.62223,1.13132514 -0.93334,2.31921654 -0.93334,3.62024044 0,1.3293071 0.31111,2.5454816 0.96163,3.6485236 0.65051,1.1313252 1.52729,2.0081025 2.65861,2.6586145 1.10304,0.650512 2.31922,0.961626 3.67681,0.961626 1.47072,0 2.80003,-0.395964 4.0162,-1.216175 1.18789,-0.7919271 2.09295,-1.866686 2.6869,-3.1677099 l -4.38389,-0.028283 c -0.31111,0.2545482 -0.65051,0.4525301 -1.01819,0.5939457 -0.36768,0.1696988 -0.84849,0.2262651 -1.41416,0.2262651 -0.84849,0 -1.55557,-0.1979819 -2.12123,-0.5939457 C 539.38168,7.2897582 539.014,6.7240956 538.8443,6.0170174 h 10.49304 c 0.0848,-0.5656626 0.11313,-1.1313252 0.11313,-1.753554 -0.0566,-1.4141564 -0.42425,-2.6586141 -1.15961,-3.733373 -0.73536,-1.04647576 -1.64042,-1.8384034 -2.74346,-2.4040659 -1.13133,-0.5656626 -2.29093,-0.8484939 -3.47883,-0.8484939 -1.3293,0 -2.54548,0.3393975 -3.64852,1.0181926 -1.10304,0.6787951 -1.97982,1.55557211 -2.60205,2.68689726 z m 9.70112,2.09295154 h -6.67482 c 0.28283,-0.6787951 0.73536,-1.2161746 1.30102,-1.6121384 0.56566,-0.3959638 1.24446,-0.59394566 2.03639,-0.59394566 0.70708,0 1.35759,0.22626506 1.97982,0.62222886 0.62223,0.3959638 1.07476,0.9333432 1.35759,1.5838552 z"
         style="fill:#a1ce4f;fill-opacity:0.97716896;stroke:#000000;stroke-width:0.332;stroke-miterlimit:4;stroke-dasharray:none;stroke-opacity:1"
         id="path11642" />
      <path
         d="m 564.42507,8.2513845 c 0.65051,-1.1313251 0.98991,-2.3474996 0.98991,-3.6768067 V -8.1528301 h -3.70509 v 6.5051196 c -1.01819,-0.7070782 -2.20608,-1.0747589 -3.56367,-1.0747589 -1.32931,0 -2.54549,0.3393975 -3.64853,0.9899095 -1.13132,0.650512 -2.0081,1.52728895 -2.65861,2.6586141 -0.6788,1.1313252 -0.98991,2.3474997 -0.98991,3.6485236 0,1.3293071 0.31111,2.5454816 0.98991,3.6768067 0.65051,1.1313252 1.52729,2.0081025 2.65861,2.6586145 1.10304,0.650512 2.31922,0.961626 3.64853,0.961626 1.30102,0 2.51719,-0.311114 3.64852,-0.961626 1.10304,-0.650512 1.97982,-1.5272893 2.63033,-2.6586145 z m -8.8809,-6.3071377 c 0.67879,-0.7070782 1.52729,-1.07475886 2.57376,-1.07475886 1.01819,0 1.89497,0.36768066 2.60205,1.07475886 0.6788,0.7070783 1.04648,1.5838552 1.04648,2.630331 0,1.0747589 -0.36768,1.9515359 -1.04648,2.6586141 -0.70708,0.7070782 -1.58386,1.0464758 -2.60205,1.0464758 -1.04647,0 -1.89497,-0.3393976 -2.57376,-1.0464758 -0.6788,-0.7070782 -1.0182,-1.5838552 -1.0182,-2.6586141 0,-1.0464758 0.3394,-1.9232527 1.0182,-2.630331 z"
         style="fill:#a1ce4f;fill-opacity:0.97716896;stroke:#000000;stroke-width:0.332;stroke-miterlimit:4;stroke-dasharray:none;stroke-opacity:1"
         id="path11644" />
      <path
         d="m 568.29543,-4.617439 c 0.42425,0.4242469 0.96163,0.6222288 1.58385,0.6222288 0.59395,0 1.10305,-0.1979819 1.52729,-0.6222288 0.42425,-0.424247 0.65052,-0.9616264 0.65052,-1.5838552 0,-0.5939457 -0.22627,-1.1030421 -0.65052,-1.527289 -0.42424,-0.4242469 -0.93334,-0.650512 -1.52729,-0.650512 -0.62222,0 -1.1596,0.2262651 -1.58385,0.650512 -0.42425,0.4242469 -0.62223,0.9333433 -0.62223,1.527289 0,0.6222288 0.19798,1.1596082 0.62223,1.5838552 z m -0.25455,2.1212346 V 11.64536 h 3.67681 V -2.4962044 Z"
         style="fill:#a1ce4f;fill-opacity:0.97716896;stroke:#000000;stroke-width:0.332;stroke-miterlimit:4;stroke-dasharray:none;stroke-opacity:1"
         id="path11646" />
      <path
         d="m 582.79363,-2.4962044 h 3.67681 v 7.4384629 c 0,2.3192165 -0.56566,4.0444874 -1.69699,5.2040955 -1.13132,1.159608 -2.65861,1.725271 -4.5253,1.725271 -1.89497,0 -3.39398,-0.565663 -4.5253,-1.725271 -1.13133,-1.1596081 -1.69699,-2.884879 -1.69699,-5.2040955 v -7.4384629 h 3.67681 v 7.4384629 c 0,1.1596083 0.19798,2.0081021 0.59394,2.5454816 0.39597,0.5373794 1.04648,0.7919276 1.95154,0.7919276 0.87678,0 1.52729,-0.2545482 1.92325,-0.7919276 0.39597,-0.5373795 0.62223,-1.3858733 0.62223,-2.5454816 z"
         style="fill:#a1ce4f;fill-opacity:0.97716896;stroke:#000000;stroke-width:0.332;stroke-miterlimit:4;stroke-dasharray:none;stroke-opacity:1"
         id="path11648" />
      <path
         d="m 608.46807,-0.96891542 c -1.18789,-1.15960828 -2.71518,-1.75355398 -4.61015,-1.75355398 -0.96162,0 -1.81012,0.1696988 -2.60205,0.5090963 -0.79192,0.3393976 -1.41415,0.8202107 -1.92325,1.44243958 -0.50909,-0.62222888 -1.15961,-1.10304198 -1.95153,-1.44243958 -0.79193,-0.3393975 -1.64043,-0.5090963 -2.57377,-0.5090963 -1.92325,0 -3.45054,0.5939457 -4.61015,1.75355398 -1.18789,1.1878914 -1.75355,2.91316222 -1.75355,5.17581252 V 11.64536 h 3.6768 V 4.2068971 c 0,-1.1313251 0.19799,-1.9515358 0.65052,-2.5171984 0.45253,-0.5373795 1.13132,-0.82021076 2.03638,-0.82021076 0.90506,0 1.58386,0.28283126 2.03639,0.82021076 0.42424,0.5656626 0.65051,1.3858733 0.65051,2.5171984 V 11.64536 h 3.67681 V 4.2068971 c 0,-1.1313251 0.19798,-1.9515358 0.65051,-2.5171984 0.45253,-0.5373795 1.13132,-0.82021076 2.03638,-0.82021076 0.90506,0 1.58386,0.28283126 2.03639,0.82021076 0.42424,0.5656626 0.65051,1.3858733 0.65051,2.5171984 V 11.64536 h 3.67681 V 4.2068971 c 0,-2.2626503 -0.59395,-3.98792112 -1.75356,-5.17581252 z"
         style="fill:#a1ce4f;fill-opacity:0.97716896;stroke:#000000;stroke-width:0.332;stroke-miterlimit:4;stroke-dasharray:none;stroke-opacity:1"
         id="path11650" />
      <path
         d="m 633.99716,-8.2964554 v 2.7205939 q -1.58816,-0.7595566 -2.9968,-1.1324299 -1.40863,-0.3728733 -2.72059,-0.3728733 -2.27867,0 -3.52158,0.8838478 -1.2291,0.8838477 -1.2291,2.5134421 0,1.367202 0.8148,2.0715182 0.8286,0.69050607 3.12108,1.11861983 l 1.68484,0.34525304 q 3.12109,0.59383522 4.59877,2.09913843 1.49149,1.4914931 1.49149,4.0049353 0,2.9967963 -2.01628,4.54353 -2.00246,1.546734 -5.88311,1.546734 -1.46387,0 -3.12109,-0.331443 -1.6434,-0.331443 -3.4111,-0.980519 V 7.8613867 q 1.69865,0.9528984 3.32824,1.4362526 1.6296,0.4833543 3.20395,0.4833543 2.38915,0 3.6873,-0.9390883 1.29816,-0.9390882 1.29816,-2.6791635 0,-1.5191134 -0.93909,-2.3753409 -0.92528,-0.8562275 -3.05204,-1.2843413 l -1.69864,-0.3314429 q -3.12109,-0.6214555 -4.51591,-1.94722715 -1.39483,-1.32577165 -1.39483,-3.68730245 0,-2.734404 1.91961,-4.3087579 1.93342,-1.5743538 5.3169,-1.5743538 1.45006,0 2.95536,0.2623923 1.50531,0.2623923 3.07966,0.7871769 z"
         style="fill:#a1ce4f;fill-opacity:0.97716896;stroke:#000000;stroke-width:0.332;stroke-miterlimit:4;stroke-dasharray:none;stroke-opacity:1"
         id="path11652" />
      <path
         d="m 638.28511,-4.617439 c 0.42425,0.4242469 0.96163,0.6222288 1.58386,0.6222288 0.59395,0 1.10304,-0.1979819 1.52729,-0.6222288 0.42425,-0.424247 0.65051,-0.9616264 0.65051,-1.5838552 0,-0.5939457 -0.22626,-1.1030421 -0.65051,-1.527289 -0.42425,-0.4242469 -0.93334,-0.650512 -1.52729,-0.650512 -0.62223,0 -1.15961,0.2262651 -1.58386,0.650512 -0.42424,0.4242469 -0.62222,0.9333433 -0.62222,1.527289 0,0.6222288 0.19798,1.1596082 0.62222,1.5838552 z m -0.25454,2.1212346 V 11.64536 h 3.6768 V -2.4962044 Z"
         style="fill:#a1ce4f;fill-opacity:0.97716896;stroke:#000000;stroke-width:0.332;stroke-miterlimit:4;stroke-dasharray:none;stroke-opacity:1"
         id="path11654" />
      <path
         d="m 654.79807,8.0534026 h -6.67482 L 654.54352,1.095753 V -2.4962044 H 643.73936 V 1.095753 h 6.10916 l -6.39199,6.9576496 V 11.64536 h 11.34154 z"
         style="fill:#a1ce4f;fill-opacity:0.97716896;stroke:#000000;stroke-width:0.332;stroke-miterlimit:4;stroke-dasharray:none;stroke-opacity:1"
         id="path11656" />
      <path
         d="m 656.18699,0.98262046 c -0.62223,1.13132514 -0.93334,2.31921654 -0.93334,3.62024044 0,1.3293071 0.31111,2.5454816 0.96162,3.6485236 0.65052,1.1313252 1.52729,2.0081025 2.65862,2.6586145 1.10304,0.650512 2.31922,0.961626 3.67681,0.961626 1.47072,0 2.80003,-0.395964 4.0162,-1.216175 1.18789,-0.7919271 2.09295,-1.866686 2.6869,-3.1677099 l -4.38389,-0.028283 c -0.31111,0.2545482 -0.65051,0.4525301 -1.01819,0.5939457 -0.36768,0.1696988 -0.84849,0.2262651 -1.41416,0.2262651 -0.84849,0 -1.55557,-0.1979819 -2.12123,-0.5939457 -0.56566,-0.3959638 -0.93335,-0.9616264 -1.10304,-1.6687046 h 10.49304 c 0.0849,-0.5656626 0.11313,-1.1313252 0.11313,-1.753554 -0.0566,-1.4141564 -0.42425,-2.6586141 -1.15961,-3.733373 -0.73536,-1.04647576 -1.64042,-1.8384034 -2.74346,-2.4040659 -1.13133,-0.5656626 -2.29094,-0.8484939 -3.47883,-0.8484939 -1.3293,0 -2.54548,0.3393975 -3.64852,1.0181926 -1.10304,0.6787951 -1.97982,1.55557211 -2.60205,2.68689726 z M 665.8881,3.075572 h -6.67481 c 0.28283,-0.6787951 0.73536,-1.2161746 1.30102,-1.6121384 0.56566,-0.3959638 1.24446,-0.59394566 2.03639,-0.59394566 0.70707,0 1.35759,0.22626506 1.97981,0.62222886 0.62223,0.3959638 1.07476,0.9333432 1.35759,1.5838552 z"
         style="fill:#a1ce4f;fill-opacity:0.97716896;stroke:#000000;stroke-width:0.332;stroke-miterlimit:4;stroke-dasharray:none;stroke-opacity:1"
         id="path11658" />
      <path
         d="M 684.79409,8.2513845 C 685.4446,7.1200594 685.784,5.9038849 685.784,4.5745778 V -8.1528301 h -3.70509 v 6.5051196 c -1.01819,-0.7070782 -2.20609,-1.0747589 -3.56368,-1.0747589 -1.3293,0 -2.54548,0.3393975 -3.64852,0.9899095 -1.13132,0.650512 -2.0081,1.52728895 -2.65861,2.6586141 -0.6788,1.1313252 -0.98991,2.3474997 -0.98991,3.6485236 0,1.3293071 0.31111,2.5454816 0.98991,3.6768067 0.65051,1.1313252 1.52729,2.0081025 2.65861,2.6586145 1.10304,0.650512 2.31922,0.961626 3.64852,0.961626 1.30103,0 2.5172,-0.311114 3.64853,-0.961626 1.10304,-0.650512 1.97982,-1.5272893 2.63033,-2.6586145 z m -8.8809,-6.3071377 c 0.67879,-0.7070782 1.52728,-1.07475886 2.57376,-1.07475886 1.01819,0 1.89497,0.36768066 2.60205,1.07475886 0.67879,0.7070783 1.04647,1.5838552 1.04647,2.630331 0,1.0747589 -0.36768,1.9515359 -1.04647,2.6586141 -0.70708,0.7070782 -1.58386,1.0464758 -2.60205,1.0464758 -1.04648,0 -1.89497,-0.3393976 -2.57376,-1.0464758 -0.6788,-0.7070782 -1.0182,-1.5838552 -1.0182,-2.6586141 0,-1.0464758 0.3394,-1.9232527 1.0182,-2.630331 z"
         style="fill:#a1ce4f;fill-opacity:0.97716896;stroke:#000000;stroke-width:0.332;stroke-miterlimit:4;stroke-dasharray:none;stroke-opacity:1"
         id="path11660" />
      <path
         d="m 699.99572,1.7987434 v 7.5541364 h 4.47448 q 2.25104,0 3.32823,-0.9252781 1.091,-0.9390883 1.091,-2.8586951 0,-1.9334171 -1.091,-2.8448851 -1.07719,-0.9252781 -3.32823,-0.9252781 z m 0,-8.4794146 v 6.21455468 h 4.12922 q 2.0439,0 3.03823,-0.75955668 1.00814,-0.7733668 1.00814,-2.3477206 0,-1.5605438 -1.00814,-2.3339106 -0.99433,-0.7733668 -3.03823,-0.7733668 z m -2.78965,-2.2924801 h 7.12602 q 3.19014,0 4.91641,1.3257716 1.72626,1.3257717 1.72626,3.7701632 0,1.8919866 -0.88385,3.01060646 -0.88384,1.11861983 -2.5963,1.39482226 2.05771,0.44192389 3.19014,1.85055628 1.14624,1.3948223 1.14624,3.4939607 0,2.7620243 -1.87818,4.2673278 -1.87817,1.505303 -5.34451,1.505303 h -7.40223 z"
         style="fill:#a1ce4f;fill-opacity:0.97716896;stroke:#000000;stroke-width:0.332;stroke-miterlimit:4;stroke-dasharray:none;stroke-opacity:1"
         id="path11662" />
      <path
         d="m 723.4359,-2.4962044 h 3.67681 v 7.4384629 c 0,2.3192165 -0.56566,4.0444874 -1.69699,5.2040955 -1.13132,1.159608 -2.65861,1.725271 -4.5253,1.725271 -1.89497,0 -3.39397,-0.565663 -4.5253,-1.725271 -1.13132,-1.1596081 -1.69699,-2.884879 -1.69699,-5.2040955 v -7.4384629 h 3.67681 v 7.4384629 c 0,1.1596083 0.19798,2.0081021 0.59395,2.5454816 0.39596,0.5373794 1.04647,0.7919276 1.95153,0.7919276 0.87678,0 1.52729,-0.2545482 1.92326,-0.7919276 0.39596,-0.5373795 0.62222,-1.3858733 0.62222,-2.5454816 z"
         style="fill:#a1ce4f;fill-opacity:0.97716896;stroke:#000000;stroke-width:0.332;stroke-miterlimit:4;stroke-dasharray:none;stroke-opacity:1"
         id="path11664" />
      <path
         d="m 731.58142,11.334246 c 0.90506,0.36768 1.92325,0.537379 3.0263,0.537379 1.81012,0 3.28084,-0.367681 4.41216,-1.131325 1.13133,-0.7636446 1.66871,-1.8949698 1.66871,-3.4222587 0,-1.0181926 -0.28283,-1.8101202 -0.84849,-2.3757828 -0.56567,-0.5656626 -1.24446,-0.9899095 -1.97982,-1.2161746 -0.76365,-0.226265 -1.69699,-0.45253 -2.80003,-0.6505119 -0.96163,-0.1414157 -1.64042,-0.3111144 -2.06467,-0.4808132 -0.45253,-0.1696988 -0.65051,-0.4242469 -0.65051,-0.7636445 0,-0.3676807 0.19798,-0.6787951 0.59394,-0.93334323 0.39597,-0.22626503 0.90506,-0.36768067 1.52729,-0.36768067 0.62223,0 1.15961,0.14141564 1.61214,0.3959638 0.45253,0.2828313 0.70708,0.5939457 0.70708,0.9899095 h 3.50711 c 0,-1.44243956 -0.53738,-2.57376471 -1.61214,-3.3939754 -1.07476,-0.8202108 -2.46063,-1.2444577 -4.15762,-1.2444577 -1.10304,0 -2.09295,0.1979819 -2.96973,0.5656626 -0.90506,0.3676806 -1.61214,0.876777 -2.12124,1.52728892 -0.50909,0.65051196 -0.76364,1.38587331 -0.76364,2.17780088 0,1.0747589 0.25455,1.8949697 0.79193,2.4606322 0.53738,0.5656626 1.18789,0.9899095 1.92325,1.2161746 0.73536,0.226265 1.64042,0.45253 2.77175,0.6222288 0.98991,0.1696988 1.72527,0.3393975 2.1778,0.5090963 0.45253,0.1696988 0.67879,0.4808132 0.67879,0.876777 0,0.3959638 -0.22626,0.7353614 -0.62223,0.9899095 -0.39596,0.2545482 -0.96162,0.3676807 -1.69698,0.3676807 -0.79193,0 -1.41416,-0.1414157 -1.92326,-0.4242469 -0.50909,-0.2828313 -0.73536,-0.650512 -0.73536,-1.1030421 h -3.50711 c 0,1.0181927 0.25455,1.8949697 0.82021,2.630331 0.56567,0.7353609 1.30103,1.2727409 2.23437,1.6404219 z"
         style="fill:#a1ce4f;fill-opacity:0.97716896;stroke:#000000;stroke-width:0.332;stroke-miterlimit:4;stroke-dasharray:none;stroke-opacity:1"
         id="path11666" />
      <path
         d="m 742.74489,-4.617439 c 0.42425,0.4242469 0.96163,0.6222288 1.58386,0.6222288 0.59394,0 1.10304,-0.1979819 1.52729,-0.6222288 0.42424,-0.424247 0.65051,-0.9616264 0.65051,-1.5838552 0,-0.5939457 -0.22627,-1.1030421 -0.65051,-1.527289 -0.42425,-0.4242469 -0.93335,-0.650512 -1.52729,-0.650512 -0.62223,0 -1.15961,0.2262651 -1.58386,0.650512 -0.42424,0.4242469 -0.62223,0.9333433 -0.62223,1.527289 0,0.6222288 0.19799,1.1596082 0.62223,1.5838552 z m -0.25455,2.1212346 V 11.64536 h 3.67681 V -2.4962044 Z"
         style="fill:#a1ce4f;fill-opacity:0.97716896;stroke:#000000;stroke-width:0.332;stroke-miterlimit:4;stroke-dasharray:none;stroke-opacity:1"
         id="path11668" />
      <path
         d="M 760.9199,4.2068971 V 11.64536 h -3.67681 V 4.2068971 c 0,-1.1313251 -0.22626,-1.979819 -0.62222,-2.5171984 -0.39597,-0.5373795 -1.04648,-0.82021076 -1.92326,-0.82021076 -0.90506,0 -1.55557,0.28283126 -1.95153,0.82021076 -0.39597,0.5373794 -0.59395,1.3858733 -0.59395,2.5171984 V 11.64536 h -3.67681 V 4.2068971 c 0,-2.2909334 0.56567,-4.01620425 1.69699,-5.17581252 1.13133,-1.15960828 2.63033,-1.75355398 4.5253,-1.75355398 1.86669,0 3.39398,0.5939457 4.5253,1.75355398 1.13133,1.15960827 1.69699,2.88487912 1.69699,5.17581252 z"
         style="fill:#a1ce4f;fill-opacity:0.97716896;stroke:#000000;stroke-width:0.332;stroke-miterlimit:4;stroke-dasharray:none;stroke-opacity:1"
         id="path11670" />
      <path
         d="m 763.40879,0.98262046 c -0.62223,1.13132514 -0.93334,2.31921654 -0.93334,3.62024044 0,1.3293071 0.31111,2.5454816 0.96163,3.6485236 0.65051,1.1313252 1.52729,2.0081025 2.65861,2.6586145 1.10304,0.650512 2.31922,0.961626 3.67681,0.961626 1.47072,0 2.80003,-0.395964 4.0162,-1.216175 1.18789,-0.7919271 2.09295,-1.866686 2.6869,-3.1677099 l -4.38389,-0.028283 c -0.31111,0.2545482 -0.65051,0.4525301 -1.01819,0.5939457 -0.36768,0.1696988 -0.84849,0.2262651 -1.41416,0.2262651 -0.84849,0 -1.55557,-0.1979819 -2.12123,-0.5939457 -0.56566,-0.3959638 -0.93334,-0.9616264 -1.10304,-1.6687046 h 10.49304 c 0.0848,-0.5656626 0.11313,-1.1313252 0.11313,-1.753554 -0.0566,-1.4141564 -0.42425,-2.6586141 -1.15961,-3.733373 -0.73536,-1.04647576 -1.64042,-1.8384034 -2.74346,-2.4040659 -1.13133,-0.5656626 -2.29093,-0.8484939 -3.47883,-0.8484939 -1.3293,0 -2.54548,0.3393975 -3.64852,1.0181926 -1.10304,0.6787951 -1.97982,1.55557211 -2.60205,2.68689726 z m 9.70112,2.09295154 h -6.67482 c 0.28283,-0.6787951 0.73536,-1.2161746 1.30102,-1.6121384 0.56566,-0.3959638 1.24446,-0.59394566 2.03639,-0.59394566 0.70708,0 1.35759,0.22626506 1.97982,0.62222886 0.62222,0.3959638 1.07475,0.9333432 1.35759,1.5838552 z"
         style="fill:#a1ce4f;fill-opacity:0.97716896;stroke:#000000;stroke-width:0.332;stroke-miterlimit:4;stroke-dasharray:none;stroke-opacity:1"
         id="path11672" />
      <path
         d="m 781.35315,11.334246 c 0.90506,0.36768 1.92325,0.537379 3.0263,0.537379 1.81012,0 3.28084,-0.367681 4.41216,-1.131325 1.13133,-0.7636446 1.66871,-1.8949698 1.66871,-3.4222587 0,-1.0181926 -0.28283,-1.8101202 -0.8485,-2.3757828 -0.56566,-0.5656626 -1.24445,-0.9899095 -1.97981,-1.2161746 -0.76365,-0.226265 -1.69699,-0.45253 -2.80003,-0.6505119 -0.96163,-0.1414157 -1.64043,-0.3111144 -2.06467,-0.4808132 -0.45253,-0.1696988 -0.65051,-0.4242469 -0.65051,-0.7636445 0,-0.3676807 0.19798,-0.6787951 0.59394,-0.93334323 0.39596,-0.22626503 0.90506,-0.36768067 1.52729,-0.36768067 0.62223,0 1.15961,0.14141564 1.61214,0.3959638 0.45253,0.2828313 0.70708,0.5939457 0.70708,0.9899095 h 3.5071 c 0,-1.44243956 -0.53738,-2.57376471 -1.61213,-3.3939754 -1.07476,-0.8202108 -2.46064,-1.2444577 -4.15762,-1.2444577 -1.10305,0 -2.09296,0.1979819 -2.96973,0.5656626 -0.90506,0.3676806 -1.61214,0.876777 -2.12124,1.52728892 -0.50909,0.65051196 -0.76364,1.38587331 -0.76364,2.17780088 0,1.0747589 0.25455,1.8949697 0.79193,2.4606322 0.53738,0.5656626 1.18789,0.9899095 1.92325,1.2161746 0.73536,0.226265 1.64042,0.45253 2.77175,0.6222288 0.9899,0.1696988 1.72527,0.3393975 2.1778,0.5090963 0.45253,0.1696988 0.67879,0.4808132 0.67879,0.876777 0,0.3959638 -0.22626,0.7353614 -0.62223,0.9899095 -0.39596,0.2545482 -0.96162,0.3676807 -1.69699,0.3676807 -0.79192,0 -1.41415,-0.1414157 -1.92325,-0.4242469 -0.50909,-0.2828313 -0.73536,-0.650512 -0.73536,-1.1030421 h -3.50711 c 0,1.0181927 0.25455,1.8949697 0.82021,2.630331 0.56567,0.7353609 1.30103,1.2727409 2.23437,1.6404219 z"
         style="fill:#a1ce4f;fill-opacity:0.97716896;stroke:#000000;stroke-width:0.332;stroke-miterlimit:4;stroke-dasharray:none;stroke-opacity:1"
         id="path11674" />
      <path
         d="m 794.66608,11.334246 c 0.90506,0.36768 1.92325,0.537379 3.02629,0.537379 1.81012,0 3.28085,-0.367681 4.41217,-1.131325 1.13133,-0.7636446 1.66871,-1.8949698 1.66871,-3.4222587 0,-1.0181926 -0.28284,-1.8101202 -0.8485,-2.3757828 -0.56566,-0.5656626 -1.24446,-0.9899095 -1.97982,-1.2161746 -0.76364,-0.226265 -1.69699,-0.45253 -2.80003,-0.6505119 -0.96162,-0.1414157 -1.64042,-0.3111144 -2.06467,-0.4808132 -0.45253,-0.1696988 -0.65051,-0.4242469 -0.65051,-0.7636445 0,-0.3676807 0.19798,-0.6787951 0.59395,-0.93334323 0.39596,-0.22626503 0.90506,-0.36768067 1.52729,-0.36768067 0.62223,0 1.15961,0.14141564 1.61214,0.3959638 0.45253,0.2828313 0.70707,0.5939457 0.70707,0.9899095 h 3.50711 c 0,-1.44243956 -0.53738,-2.57376471 -1.61214,-3.3939754 -1.07476,-0.8202108 -2.46063,-1.2444577 -4.15762,-1.2444577 -1.10304,0 -2.09295,0.1979819 -2.96973,0.5656626 -0.90506,0.3676806 -1.61213,0.876777 -2.12123,1.52728892 -0.5091,0.65051196 -0.76364,1.38587331 -0.76364,2.17780088 0,1.0747589 0.25454,1.8949697 0.79192,2.4606322 0.53738,0.5656626 1.18789,0.9899095 1.92326,1.2161746 0.73536,0.226265 1.64042,0.45253 2.77174,0.6222288 0.98991,0.1696988 1.72527,0.3393975 2.1778,0.5090963 0.45253,0.1696988 0.6788,0.4808132 0.6788,0.876777 0,0.3959638 -0.22627,0.7353614 -0.62223,0.9899095 -0.39596,0.2545482 -0.96163,0.3676807 -1.69699,0.3676807 -0.79193,0 -1.41415,-0.1414157 -1.92325,-0.4242469 -0.5091,-0.2828313 -0.73536,-0.650512 -0.73536,-1.1030421 h -3.50711 c 0,1.0181927 0.25455,1.8949697 0.82021,2.630331 0.56566,0.7353609 1.30102,1.2727409 2.23437,1.6404219 z"
         style="fill:#a1ce4f;fill-opacity:0.97716896;stroke:#000000;stroke-width:0.332;stroke-miterlimit:4;stroke-dasharray:none;stroke-opacity:1"
         id="path11676" />
      <path
         d="M 805.0659,11.64536 V 7.9402701 h 3.67681 V 11.64536 Z"
         style="fill:#a1ce4f;fill-opacity:0.97716896;stroke:#000000;stroke-width:0.332;stroke-miterlimit:4;stroke-dasharray:none;stroke-opacity:1"
         id="path11678" />
    </g>
  </g>
</svg>
