<?xml version="1.0" encoding="UTF-8" standalone="no"?>
<!-- Created with Inkscape (http://www.inkscape.org/) -->

<svg
   xmlns:dc="http://purl.org/dc/elements/1.1/"
   xmlns:cc="http://creativecommons.org/ns#"
   xmlns:rdf="http://www.w3.org/1999/02/22-rdf-syntax-ns#"
   xmlns:svg="http://www.w3.org/2000/svg"
   xmlns="http://www.w3.org/2000/svg"
   xmlns:sodipodi="http://sodipodi.sourceforge.net/DTD/sodipodi-0.dtd"
   xmlns:inkscape="http://www.inkscape.org/namespaces/inkscape"
   width="1520.8051"
   height="139.01711"
   viewBox="0 0 402.37967 36.781609"
   version="1.1"
   id="svg7372"
   sodipodi:docname="www-build-hello-ca-green-blue-dots.svg"
   inkscape:version="0.92.4 (5da689c313, 2019-01-14)">
  <defs
     id="defs7366">
    <clipPath
       clipPathUnits="userSpaceOnUse"
       id="clipPath7954">
      <path
         style="fill:none;stroke:#000000;stroke-width:0.26458332px;stroke-linecap:butt;stroke-linejoin:miter;stroke-opacity:1"
         d="m 459.3059,92.514876 -62.74403,0.377976 -0.75595,-11.717264 h -8.31548 l -5.66962,9.827382 -71.81549,1.889882 -25.70239,-0.755952 v -9.638395 l -9.07142,0.0945 -0.0945,9.638393 -57.07442,-0.188987 -46.58556,0.28348 v -10.20536 h -10.96129 l -0.28348,10.016368 -118.495536,-1.322916 0.377979,-30.61607 23.621111,0.227724 84.196596,0.81171 19.84375,-0.188989 -0.56697,-9.921875 67.46875,0.0945 h 125.01563 l 0.0945,12.095234 96.19493,-0.472467 -0.47247,29.576633 z"
         id="path7956"
         inkscape:connector-curvature="0"
         sodipodi:nodetypes="ccccccccccccccccccccccccccc" />
    </clipPath>
    <clipPath
       clipPathUnits="userSpaceOnUse"
       id="clipPath7954-4">
      <path
         style="fill:none;stroke:#000000;stroke-width:0.26458332px;stroke-linecap:butt;stroke-linejoin:miter;stroke-opacity:1"
         d="m 459.3059,92.514876 -62.74403,0.377976 -0.75595,-11.717264 h -8.31548 l -5.66962,9.827382 -71.81549,1.889882 -25.70239,-0.755952 v -9.638395 l -9.07142,0.0945 -0.0945,9.638393 -57.07442,-0.188987 -46.58556,0.28348 v -10.20536 h -10.96129 l -0.28348,10.016368 -118.495536,-1.322916 0.377979,-30.61607 23.621111,0.227724 84.196596,0.81171 19.84375,-0.188989 -0.56697,-9.921875 67.46875,0.0945 h 125.01563 l 0.0945,12.095234 96.19493,-0.472467 -0.47247,29.576633 z"
         id="path7956-8"
         inkscape:connector-curvature="0"
         sodipodi:nodetypes="ccccccccccccccccccccccccccc" />
    </clipPath>
  </defs>
  <sodipodi:namedview
     id="base"
     pagecolor="#ffffff"
     bordercolor="#666666"
     borderopacity="1.0"
     inkscape:pageopacity="0"
     inkscape:pageshadow="2"
     inkscape:zoom="0.49497475"
     inkscape:cx="690.41742"
     inkscape:cy="26.160264"
     inkscape:document-units="mm"
     inkscape:current-layer="layer3"
     showgrid="false"
     width="900px" />
  <metadata
     id="metadata7369">
    <rdf:RDF>
      <cc:Work
         rdf:about="">
        <dc:format>image/svg+xml</dc:format>
        <dc:type
           rdf:resource="http://purl.org/dc/dcmitype/StillImage" />
        <dc:title></dc:title>
      </cc:Work>
    </rdf:RDF>
  </metadata>
  <g
     inkscape:groupmode="layer"
     id="layer3"
     inkscape:label="merge"
     transform="translate(-50.164336,-206.70943)">
    <path
       inkscape:connector-curvature="0"
       style="font-style:normal;font-variant:normal;font-weight:normal;font-stretch:normal;font-size:50.79999924px;line-height:1.25;font-family:NordiquePro-Bold;-inkscape-font-specification:'NordiquePro-Bold, Normal';font-variant-ligatures:normal;font-variant-caps:normal;font-variant-numeric:normal;font-feature-settings:normal;text-align:start;letter-spacing:0px;word-spacing:0px;writing-mode:lr-tb;text-anchor:start;fill:#a1ce4f;fill-opacity:1;stroke:none;stroke-width:0.26458332"
       id="path7996"
       d="m 88.264336,217.27583 h -6.7056 l -4.5212,16.7132 -4.5212,-16.7132 h -6.604 l -4.572,16.7132 -4.4704,-16.7132 h -6.7056 l 7.874,25.4 h 6.604 l 4.572,-15.24 4.5212,15.24 h 6.604 z" />
    <path
       inkscape:connector-curvature="0"
       style="font-style:normal;font-variant:normal;font-weight:normal;font-stretch:normal;font-size:50.79999924px;line-height:1.25;font-family:NordiquePro-Bold;-inkscape-font-specification:'NordiquePro-Bold, Normal';font-variant-ligatures:normal;font-variant-caps:normal;font-variant-numeric:normal;font-feature-settings:normal;text-align:start;letter-spacing:0px;word-spacing:0px;writing-mode:lr-tb;text-anchor:start;fill:#a1ce4f;fill-opacity:1;stroke:none;stroke-width:0.26458332"
       id="path7998"
       d="m 126.36434,217.27583 h -6.7056 l -4.5212,16.7132 -4.5212,-16.7132 h -6.604 l -4.572006,16.7132 -4.470399,-16.7132 h -6.7056 l 7.874,25.4 h 6.604005 l 4.572,-15.24 4.5212,15.24 h 6.604 z" />
    <path
       inkscape:connector-curvature="0"
       style="font-style:normal;font-variant:normal;font-weight:normal;font-stretch:normal;font-size:50.79999924px;line-height:1.25;font-family:NordiquePro-Bold;-inkscape-font-specification:'NordiquePro-Bold, Normal';font-variant-ligatures:normal;font-variant-caps:normal;font-variant-numeric:normal;font-feature-settings:normal;text-align:start;letter-spacing:0px;word-spacing:0px;writing-mode:lr-tb;text-anchor:start;fill:#a1ce4f;fill-opacity:1;stroke:none;stroke-width:0.26458332"
       id="path8000"
       d="m 164.46433,217.27583 h -6.7056 l -4.5212,16.7132 -4.5212,-16.7132 h -6.604 l -4.572,16.7132 -4.4704,-16.7132 h -6.7056 l 7.874,25.4 h 6.604 l 4.572,-15.24 4.5212,15.24 h 6.604 z" />
    <path
       inkscape:connector-curvature="0"
       style="font-style:normal;font-variant:normal;font-weight:normal;font-stretch:normal;font-size:50.79999924px;line-height:1.25;font-family:NordiquePro-Bold;-inkscape-font-specification:'NordiquePro-Bold, Normal';font-variant-ligatures:normal;font-variant-caps:normal;font-variant-numeric:normal;font-feature-settings:normal;text-align:start;letter-spacing:0px;word-spacing:0px;writing-mode:lr-tb;text-anchor:start;fill:#a1ce4f;fill-opacity:1;stroke:none;stroke-width:0.26458332"
       id="path8004"
       d="m 173.62818,207.11583 v 22.86 c 0,2.3876 0.5588,4.572 1.7272,6.604 1.1684,2.032 2.7432,3.6068 4.7752,4.7752 1.9812,1.1684 4.1656,1.7272 6.5532,1.7272 2.3368,0 4.5212,-0.5588 6.5532,-1.7272 1.9812,-1.1684 3.556,-2.7432 4.7752,-4.7752 1.1684,-2.032 1.778,-4.2164 1.778,-6.604 0,-2.3368 -0.6096,-4.5212 -1.778,-6.5532 -1.2192,-2.032 -2.794,-3.6068 -4.7752,-4.7752 -2.032,-1.1684 -4.2164,-1.778 -6.5532,-1.778 -2.4892,0 -4.6228,0.6604 -6.4008,1.9304 v -11.684 z m 8.4328,18.1356 c 1.2192,-1.27 2.794,-1.9304 4.6736,-1.9304 1.8288,0 3.4036,0.6604 4.6228,1.9304 1.2192,1.27 1.8288,2.8448 1.8288,4.7244 0,1.9304 -0.6096,3.5052 -1.8288,4.7752 -1.2192,1.27 -2.794,1.8796 -4.6228,1.8796 -1.8796,0 -3.4544,-0.6096 -4.6736,-1.8796 -1.27,-1.27 -1.8796,-2.8448 -1.8796,-4.7752 0,-1.8796 0.6096,-3.4544 1.8796,-4.7244 z" />
    <path
       inkscape:connector-curvature="0"
       style="font-style:normal;font-variant:normal;font-weight:normal;font-stretch:normal;font-size:50.79999924px;line-height:1.25;font-family:NordiquePro-Bold;-inkscape-font-specification:'NordiquePro-Bold, Normal';font-variant-ligatures:normal;font-variant-caps:normal;font-variant-numeric:normal;font-feature-settings:normal;text-align:start;letter-spacing:0px;word-spacing:0px;writing-mode:lr-tb;text-anchor:start;fill:#a1ce4f;fill-opacity:1;stroke:none;stroke-width:0.26458332"
       id="path8006"
       d="m 218.34805,217.27583 h 6.604 v 13.3604 c 0,4.1656 -1.016,7.2644 -3.048,9.3472 -2.032,2.0828 -4.7752,3.0988 -8.128,3.0988 -3.4036,0 -6.096,-1.016 -8.128,-3.0988 -2.032,-2.0828 -3.048,-5.1816 -3.048,-9.3472 v -13.3604 h 6.604 v 13.3604 c 0,2.0828 0.3556,3.6068 1.0668,4.572 0.7112,0.9652 1.8796,1.4224 3.5052,1.4224 1.5748,0 2.7432,-0.4572 3.4544,-1.4224 0.7112,-0.9652 1.1176,-2.4892 1.1176,-4.572 z" />
    <path
       inkscape:connector-curvature="0"
       style="font-style:normal;font-variant:normal;font-weight:normal;font-stretch:normal;font-size:50.79999924px;line-height:1.25;font-family:NordiquePro-Bold;-inkscape-font-specification:'NordiquePro-Bold, Normal';font-variant-ligatures:normal;font-variant-caps:normal;font-variant-numeric:normal;font-feature-settings:normal;text-align:start;letter-spacing:0px;word-spacing:0px;writing-mode:lr-tb;text-anchor:start;fill:#0694cb;fill-opacity:1;stroke:none;stroke-width:0.26458332"
       id="path8054"
       d="m 229.61374,213.46583 c 0.762,0.762 1.7272,1.1176 2.8448,1.1176 1.0668,0 1.9812,-0.3556 2.7432,-1.1176 0.762,-0.762 1.1684,-1.7272 1.1684,-2.8448 0,-1.0668 -0.4064,-1.9812 -1.1684,-2.7432 -0.762,-0.762 -1.6764,-1.1684 -2.7432,-1.1684 -1.1176,0 -2.0828,0.4064 -2.8448,1.1684 -0.762,0.762 -1.1176,1.6764 -1.1176,2.7432 0,1.1176 0.3556,2.0828 1.1176,2.8448 z" />
    <path
       inkscape:connector-curvature="0"
       style="font-style:normal;font-variant:normal;font-weight:normal;font-stretch:normal;font-size:50.79999924px;line-height:1.25;font-family:NordiquePro-Bold;-inkscape-font-specification:'NordiquePro-Bold, Normal';font-variant-ligatures:normal;font-variant-caps:normal;font-variant-numeric:normal;font-feature-settings:normal;text-align:start;letter-spacing:0px;word-spacing:0px;writing-mode:lr-tb;text-anchor:start;fill:#a1ce4f;fill-opacity:1;stroke:none;stroke-width:0.26458332"
       id="path8008"
       d="m 229.15654,217.27583 v 25.4 h 6.604 v -25.4 z" />
    <path
       inkscape:connector-curvature="0"
       style="font-style:normal;font-variant:normal;font-weight:normal;font-stretch:normal;font-size:50.79999924px;line-height:1.25;font-family:NordiquePro-Bold;-inkscape-font-specification:'NordiquePro-Bold, Normal';font-variant-ligatures:normal;font-variant-caps:normal;font-variant-numeric:normal;font-feature-settings:normal;text-align:start;letter-spacing:0px;word-spacing:0px;writing-mode:lr-tb;text-anchor:start;fill:#a1ce4f;fill-opacity:1;stroke:none;stroke-width:0.26458332"
       id="path8010"
       d="m 240.40239,242.67583 h 6.604 v -35.56 h -6.604 z" />
    <path
       inkscape:connector-curvature="0"
       style="font-style:normal;font-variant:normal;font-weight:normal;font-stretch:normal;font-size:50.79999924px;line-height:1.25;font-family:NordiquePro-Bold;-inkscape-font-specification:'NordiquePro-Bold, Normal';font-variant-ligatures:normal;font-variant-caps:normal;font-variant-numeric:normal;font-feature-settings:normal;text-align:start;letter-spacing:0px;word-spacing:0px;writing-mode:lr-tb;text-anchor:start;fill:#a1ce4f;fill-opacity:1;stroke:none;stroke-width:0.26458332"
       id="path8012"
       d="m 274.15661,236.57983 c 1.1684,-2.032 1.778,-4.2164 1.778,-6.604 v -22.86 h -6.6548 v 11.684 c -1.8288,-1.27 -3.9624,-1.9304 -6.4008,-1.9304 -2.3876,0 -4.572,0.6096 -6.5532,1.778 -2.032,1.1684 -3.6068,2.7432 -4.7752,4.7752 -1.2192,2.032 -1.778,4.2164 -1.778,6.5532 0,2.3876 0.5588,4.572 1.778,6.604 1.1684,2.032 2.7432,3.6068 4.7752,4.7752 1.9812,1.1684 4.1656,1.7272 6.5532,1.7272 2.3368,0 4.5212,-0.5588 6.5532,-1.7272 1.9812,-1.1684 3.556,-2.7432 4.7244,-4.7752 z m -15.9512,-11.3284 c 1.2192,-1.27 2.7432,-1.9304 4.6228,-1.9304 1.8288,0 3.4036,0.6604 4.6736,1.9304 1.2192,1.27 1.8796,2.8448 1.8796,4.7244 0,1.9304 -0.6604,3.5052 -1.8796,4.7752 -1.27,1.27 -2.8448,1.8796 -4.6736,1.8796 -1.8796,0 -3.4036,-0.6096 -4.6228,-1.8796 -1.2192,-1.27 -1.8288,-2.8448 -1.8288,-4.7752 0,-1.8796 0.6096,-3.4544 1.8288,-4.7244 z" />
    <path
       inkscape:connector-curvature="0"
       style="font-style:normal;font-variant:normal;font-weight:normal;font-stretch:normal;font-size:50.79999924px;line-height:1.25;font-family:NordiquePro-Bold;-inkscape-font-specification:'NordiquePro-Bold, Normal';font-variant-ligatures:normal;font-variant-caps:normal;font-variant-numeric:normal;font-feature-settings:normal;text-align:start;letter-spacing:0px;word-spacing:0px;writing-mode:lr-tb;text-anchor:start;fill:#a1ce4f;fill-opacity:1;stroke:none;stroke-width:0.26458332"
       id="path8016"
       d="m 306.43843,220.01903 c -2.032,-2.0828 -4.7752,-3.1496 -8.128,-3.1496 -1.8288,0 -3.3528,0.4572 -4.572,1.27 v -11.0236 h -6.604 v 35.56 h 6.604 v -13.3604 c 0,-2.032 0.3556,-3.556 1.0668,-4.5212 0.7112,-0.9652 1.8796,-1.4732 3.5052,-1.4732 1.5748,0 2.7432,0.508 3.4544,1.4732 0.7112,0.9652 1.1176,2.4892 1.1176,4.5212 v 13.3604 h 6.604 v -13.3604 c 0,-4.1148 -1.016,-7.2136 -3.048,-9.2964 z" />
    <path
       inkscape:connector-curvature="0"
       style="font-style:normal;font-variant:normal;font-weight:normal;font-stretch:normal;font-size:50.79999924px;line-height:1.25;font-family:NordiquePro-Bold;-inkscape-font-specification:'NordiquePro-Bold, Normal';font-variant-ligatures:normal;font-variant-caps:normal;font-variant-numeric:normal;font-feature-settings:normal;text-align:start;letter-spacing:0px;word-spacing:0px;writing-mode:lr-tb;text-anchor:start;fill:#a1ce4f;fill-opacity:1;stroke:none;stroke-width:0.26458332"
       id="path8018"
       d="m 313.95684,223.52423 c -1.1176,2.032 -1.6764,4.1656 -1.6764,6.5024 0,2.3876 0.5588,4.572 1.7272,6.5532 1.1684,2.032 2.7432,3.6068 4.7752,4.7752 1.9812,1.1684 4.1656,1.7272 6.604,1.7272 2.6416,0 5.0292,-0.7112 7.2136,-2.1844 2.1336,-1.4224 3.7592,-3.3528 4.826,-5.6896 l -7.874,-0.0508 c -0.5588,0.4572 -1.1684,0.8128 -1.8288,1.0668 -0.6604,0.3048 -1.524,0.4064 -2.54,0.4064 -1.524,0 -2.794,-0.3556 -3.81,-1.0668 -1.016,-0.7112 -1.6764,-1.7272 -1.9812,-2.9972 h 18.8468 c 0.1524,-1.016 0.2032,-2.032 0.2032,-3.1496 -0.1016,-2.54 -0.762,-4.7752 -2.0828,-6.7056 -1.3208,-1.8796 -2.9464,-3.302 -4.9276,-4.318 -2.032,-1.016 -4.1148,-1.524 -6.2484,-1.524 -2.3876,0 -4.572,0.6096 -6.5532,1.8288 -1.9812,1.2192 -3.556,2.794 -4.6736,4.826 z m 17.4244,3.7592 h -11.9888 c 0.508,-1.2192 1.3208,-2.1844 2.3368,-2.8956 1.016,-0.7112 2.2352,-1.0668 3.6576,-1.0668 1.27,0 2.4384,0.4064 3.556,1.1176 1.1176,0.7112 1.9304,1.6764 2.4384,2.8448 z" />
    <path
       inkscape:connector-curvature="0"
       style="font-style:normal;font-variant:normal;font-weight:normal;font-stretch:normal;font-size:50.79999924px;line-height:1.25;font-family:NordiquePro-Bold;-inkscape-font-specification:'NordiquePro-Bold, Normal';font-variant-ligatures:normal;font-variant-caps:normal;font-variant-numeric:normal;font-feature-settings:normal;text-align:start;letter-spacing:0px;word-spacing:0px;writing-mode:lr-tb;text-anchor:start;fill:#a1ce4f;fill-opacity:1;stroke:none;stroke-width:0.26458332"
       id="path8020"
       d="m 341.20863,242.67583 h 6.604 v -35.56 h -6.604 z" />
    <path
       inkscape:connector-curvature="0"
       style="font-style:normal;font-variant:normal;font-weight:normal;font-stretch:normal;font-size:50.79999924px;line-height:1.25;font-family:NordiquePro-Bold;-inkscape-font-specification:'NordiquePro-Bold, Normal';font-variant-ligatures:normal;font-variant-caps:normal;font-variant-numeric:normal;font-feature-settings:normal;text-align:start;letter-spacing:0px;word-spacing:0px;writing-mode:lr-tb;text-anchor:start;fill:#a1ce4f;fill-opacity:1;stroke:none;stroke-width:0.26458332"
       id="path8022"
       d="m 351.82506,242.67583 h 6.604 v -35.56 h -6.604 z" />
    <path
       inkscape:connector-curvature="0"
       style="font-style:normal;font-variant:normal;font-weight:normal;font-stretch:normal;font-size:50.79999924px;line-height:1.25;font-family:NordiquePro-Bold;-inkscape-font-specification:'NordiquePro-Bold, Normal';font-variant-ligatures:normal;font-variant-caps:normal;font-variant-numeric:normal;font-feature-settings:normal;text-align:start;letter-spacing:0px;word-spacing:0px;writing-mode:lr-tb;text-anchor:start;fill:#a1ce4f;fill-opacity:1;stroke:none;stroke-width:0.26458332"
       id="path8024"
       d="m 380.85486,218.64743 c -2.032,-1.1684 -4.2164,-1.778 -6.5532,-1.778 -2.3876,0 -4.572,0.6096 -6.604,1.778 -2.032,1.1684 -3.6068,2.7432 -4.7752,4.7752 -1.1684,2.032 -1.7272,4.2164 -1.7272,6.5532 0,2.3876 0.5588,4.572 1.7272,6.604 1.1684,2.032 2.7432,3.6068 4.7752,4.7752 2.032,1.1684 4.2164,1.7272 6.604,1.7272 2.3368,0 4.5212,-0.5588 6.5532,-1.7272 2.032,-1.1684 3.6068,-2.7432 4.7752,-4.7752 1.1684,-2.032 1.778,-4.2164 1.778,-6.604 0,-2.3368 -0.6096,-4.5212 -1.778,-6.5532 -1.1684,-2.032 -2.7432,-3.6068 -4.7752,-4.7752 z m -11.176,6.604 c 1.2192,-1.27 2.794,-1.9304 4.6736,-1.9304 1.8288,0 3.4036,0.6604 4.6228,1.9304 1.2192,1.27 1.8288,2.8448 1.8288,4.7244 0,1.9304 -0.6096,3.5052 -1.8288,4.7752 -1.2192,1.27 -2.794,1.8796 -4.6228,1.8796 -1.8796,0 -3.4544,-0.6096 -4.6736,-1.8796 -1.27,-1.27 -1.8796,-2.8448 -1.8796,-4.7752 0,-1.8796 0.6096,-3.4544 1.8796,-4.7244 z" />
    <path
       inkscape:connector-curvature="0"
       style="font-style:normal;font-variant:normal;font-weight:normal;font-stretch:normal;font-size:50.79999924px;line-height:1.25;font-family:NordiquePro-Bold;-inkscape-font-specification:'NordiquePro-Bold, Normal';font-variant-ligatures:normal;font-variant-caps:normal;font-variant-numeric:normal;font-feature-settings:normal;text-align:start;letter-spacing:0px;word-spacing:0px;writing-mode:lr-tb;text-anchor:start;fill:#a1ce4f;fill-opacity:1;stroke:none;stroke-width:0.26458332"
       id="path8028"
       d="m 404.60706,241.35503 c 2.032,1.1684 4.2164,1.7272 6.604,1.7272 2.9464,0 5.5372,-0.8636 7.874,-2.5908 2.286,-1.7272 3.8608,-3.9116 4.6736,-6.6548 h -7.1628 c -0.6096,0.9144 -1.3716,1.5748 -2.286,2.0828 -0.9144,0.508 -1.9304,0.7112 -3.048,0.7112 -1.8796,0 -3.4544,-0.6096 -4.6736,-1.8796 -1.27,-1.27 -1.8796,-2.8448 -1.8796,-4.7752 0,-1.8796 0.6096,-3.4544 1.8796,-4.7244 1.2192,-1.27 2.794,-1.9304 4.6736,-1.9304 1.1684,0 2.2352,0.3048 3.2004,0.8128 0.9652,0.5588 1.7272,1.3208 2.3368,2.2352 h 7.0104 c -0.8128,-2.7432 -2.3368,-5.0292 -4.6736,-6.8072 -2.3368,-1.778 -4.9784,-2.6924 -7.9248,-2.6924 -2.3876,0 -4.572,0.6096 -6.604,1.778 -2.032,1.1684 -3.6068,2.7432 -4.7752,4.7752 -1.1684,2.032 -1.7272,4.2164 -1.7272,6.5532 0,2.3876 0.5588,4.572 1.7272,6.604 1.1684,2.032 2.7432,3.6068 4.7752,4.7752 z" />
    <path
       inkscape:connector-curvature="0"
       style="font-style:normal;font-variant:normal;font-weight:normal;font-stretch:normal;font-size:50.79999924px;line-height:1.25;font-family:NordiquePro-Bold;-inkscape-font-specification:'NordiquePro-Bold, Normal';font-variant-ligatures:normal;font-variant-caps:normal;font-variant-numeric:normal;font-feature-settings:normal;text-align:start;letter-spacing:0px;word-spacing:0px;writing-mode:lr-tb;text-anchor:start;fill:#a1ce4f;fill-opacity:1;stroke:none;stroke-width:0.26458332"
       id="path8030"
       d="m 432.9352,241.35503 c 1.9812,1.1684 4.1656,1.7272 6.5532,1.7272 1.4224,0 2.7432,-0.3048 4.0132,-0.9144 1.2192,-0.6096 2.032,-1.3208 2.4384,-2.1844 v 2.6924 h 6.604 v -12.7 c 0,-2.3368 -0.6096,-4.5212 -1.778,-6.5532 -1.1684,-2.032 -2.7432,-3.6068 -4.7244,-4.7752 -2.032,-1.1684 -4.2164,-1.778 -6.5532,-1.778 -2.3876,0 -4.572,0.6096 -6.5532,1.778 -2.032,1.1684 -3.6068,2.7432 -4.7752,4.7752 -1.2192,2.032 -1.778,4.2164 -1.778,6.5532 0,2.3876 0.5588,4.572 1.778,6.604 1.1684,2.032 2.7432,3.6068 4.7752,4.7752 z m 11.2268,-6.604 c -1.2192,1.27 -2.794,1.8796 -4.6228,1.8796 -1.8796,0 -3.4544,-0.6096 -4.6736,-1.8796 -1.27,-1.27 -1.8796,-2.8448 -1.8796,-4.7752 0,-1.8796 0.6096,-3.4544 1.8796,-4.7244 1.2192,-1.27 2.794,-1.9304 4.6736,-1.9304 1.8288,0 3.4036,0.6604 4.6228,1.9304 1.2192,1.27 1.8288,2.8448 1.8288,4.7244 0,1.9304 -0.6096,3.5052 -1.8288,4.7752 z" />
    <path
       style="font-style:normal;font-variant:normal;font-weight:normal;font-stretch:normal;font-size:50.79999924px;line-height:1.25;font-family:NordiquePro-Bold;-inkscape-font-specification:'NordiquePro-Bold, Normal';font-variant-ligatures:normal;font-variant-caps:normal;font-variant-numeric:normal;font-feature-settings:normal;text-align:start;letter-spacing:0px;word-spacing:0px;writing-mode:lr-tb;text-anchor:start;fill:#0694cb;fill-opacity:1;stroke:none;stroke-width:0.26458332"
       inkscape:connector-curvature="0"
       d="m 277.98953,241.79103 c 0.762,0.762 1.7272,1.1176 2.8448,1.1176 1.0668,0 1.9812,-0.3556 2.7432,-1.1176 0.762,-0.762 1.1684,-1.7272 1.1684,-2.8448 0,-1.0668 -0.4064,-1.9812 -1.1684,-2.7432 -0.762,-0.762 -1.6764,-1.1684 -2.7432,-1.1684 -1.1176,0 -2.0828,0.4064 -2.8448,1.1684 -0.762,0.762 -1.1176,1.6764 -1.1176,2.7432 0,1.1176 0.3556,2.0828 1.1176,2.8448 z"
       id="path8056" />
    <path
       d="m 389.97815,242.27895 c 0.762,0.762 1.7272,1.1176 2.8448,1.1176 1.0668,0 1.9812,-0.3556 2.7432,-1.1176 0.762,-0.762 1.1684,-1.7272 1.1684,-2.8448 0,-1.0668 -0.4064,-1.9812 -1.1684,-2.7432 -0.762,-0.762 -1.6764,-1.1684 -2.7432,-1.1684 -1.1176,0 -2.0828,0.4064 -2.8448,1.1684 -0.762,0.762 -1.1176,1.6764 -1.1176,2.7432 0,1.1176 0.3556,2.0828 1.1176,2.8448 z"
       id="path8077"
       style="font-style:normal;font-variant:normal;font-weight:normal;font-stretch:normal;font-size:50.79999924px;line-height:1.25;font-family:NordiquePro-Bold;-inkscape-font-specification:'NordiquePro-Bold, Normal';font-variant-ligatures:normal;font-variant-caps:normal;font-variant-numeric:normal;font-feature-settings:normal;text-align:start;letter-spacing:0px;word-spacing:0px;writing-mode:lr-tb;text-anchor:start;fill:#0694cb;fill-opacity:1;stroke:none;stroke-width:0.26458332"
       inkscape:connector-curvature="0" />
    <path
       d="m 164.9642,242.37344 c 0.762,0.762 1.7272,1.1176 2.8448,1.1176 1.0668,0 1.9812,-0.3556 2.7432,-1.1176 0.762,-0.762 1.1684,-1.7272 1.1684,-2.8448 0,-1.0668 -0.4064,-1.9812 -1.1684,-2.7432 -0.762,-0.762 -1.6764,-1.1684 -2.7432,-1.1684 -1.1176,0 -2.0828,0.4064 -2.8448,1.1684 -0.762,0.762 -1.1176,1.6764 -1.1176,2.7432 0,1.1176 0.3556,2.0828 1.1176,2.8448 z"
       id="path8083"
       style="font-style:normal;font-variant:normal;font-weight:normal;font-stretch:normal;font-size:50.79999924px;line-height:1.25;font-family:NordiquePro-Bold;-inkscape-font-specification:'NordiquePro-Bold, Normal';font-variant-ligatures:normal;font-variant-caps:normal;font-variant-numeric:normal;font-feature-settings:normal;text-align:start;letter-spacing:0px;word-spacing:0px;writing-mode:lr-tb;text-anchor:start;fill:#0694cb;fill-opacity:1;stroke:none;stroke-width:0.26458332"
       inkscape:connector-curvature="0" />
  </g>
</svg>
