<?xml version="1.0" encoding="UTF-8" standalone="no"?>
<!-- Created with Inkscape (http://www.inkscape.org/) -->

<svg
   xmlns:osb="http://www.openswatchbook.org/uri/2009/osb"
   xmlns:dc="http://purl.org/dc/elements/1.1/"
   xmlns:cc="http://creativecommons.org/ns#"
   xmlns:rdf="http://www.w3.org/1999/02/22-rdf-syntax-ns#"
   xmlns:svg="http://www.w3.org/2000/svg"
   xmlns="http://www.w3.org/2000/svg"
   xmlns:sodipodi="http://sodipodi.sourceforge.net/DTD/sodipodi-0.dtd"
   xmlns:inkscape="http://www.inkscape.org/namespaces/inkscape"
   width="2051.8782"
   height="352.24213"
   viewBox="0 0 542.89276 93.197395"
   version="1.1"
   id="svg8"
   inkscape:version="0.92.4 (5da689c313, 2019-01-14)"
   sodipodi:docname="build-hello-logo-green-blue-dots-blue-ramp.svg">
  <defs
     id="defs2">
    <linearGradient
       id="linearGradient6498"
       osb:paint="solid">
      <stop
         style="stop-color:#808000;stop-opacity:1;"
         offset="0"
         id="stop6496" />
    </linearGradient>
    <inkscape:path-effect
       effect="powerstroke"
       id="path-effect6212"
       is_visible="true"
       offset_points="0,0.13229166"
       sort_points="true"
       interpolator_type="CubicBezierJohan"
       interpolator_beta="0.2"
       start_linecap_type="zerowidth"
       linejoin_type="extrp_arc"
       miter_limit="4"
       end_linecap_type="zerowidth" />
    <clipPath
       clipPathUnits="userSpaceOnUse"
       id="clipPath6636">
      <path
         style="fill:#ff0000;stroke:#000000;stroke-width:0.99999994px;stroke-linecap:butt;stroke-linejoin:miter;stroke-opacity:1"
         d="M 1114.8358,1047.58 H 597.99251 l 0.96605,-105.3008 -98.53833,0.96609 0.96605,364.20541 970.89252,2.8982 v -85.0135 h 90.8098 l -0.966,83.0814 h 289.8186 l 699.4291,0.9661 -3.8643,-353.57881 -956.4016,0.96605 -476.2686,1.93213 z"
         id="path6638"
         inkscape:connector-curvature="0" />
    </clipPath>
    <clipPath
       clipPathUnits="userSpaceOnUse"
       id="clipPath6640">
      <path
         style="fill:#ff0000;stroke:#000000;stroke-width:0.99999994px;stroke-linecap:butt;stroke-linejoin:miter;stroke-opacity:1"
         d="M 1114.8358,1047.58 H 597.99251 l 0.96605,-105.3008 -98.53833,0.96609 0.96605,364.20541 970.89252,2.8982 v -85.0135 h 90.8098 l -0.966,83.0814 h 289.8186 l 699.4291,0.9661 -3.8643,-353.57881 -956.4016,0.96605 -476.2686,1.93213 z"
         id="path6642"
         inkscape:connector-curvature="0" />
    </clipPath>
    <clipPath
       clipPathUnits="userSpaceOnUse"
       id="clipPath6644">
      <path
         style="fill:#ff0000;stroke:#000000;stroke-width:0.26458332px;stroke-linecap:butt;stroke-linejoin:miter;stroke-opacity:1"
         d="M 294.96697,277.17221 H 158.21885 l 0.2556,-27.86084 -26.0716,0.25561 0.2556,96.36268 256.88198,0.76682 v -22.49316 h 24.02676 l -0.25559,21.98196 h 76.68118 l 185.05728,0.25561 -1.02243,-93.55106 -253.04792,0.2556 -126.01274,0.51121 z"
         id="path6646"
         inkscape:connector-curvature="0" />
    </clipPath>
    <clipPath
       clipPathUnits="userSpaceOnUse"
       id="clipPath6648">
      <path
         style="fill:#ff0000;stroke:#000000;stroke-width:0.99999994px;stroke-linecap:butt;stroke-linejoin:miter;stroke-opacity:1"
         d="M 1114.8358,1047.58 H 597.99251 l 0.96605,-105.3008 -98.53833,0.96609 0.96605,364.20541 970.89252,2.8982 v -85.0135 h 90.8098 l -0.966,83.0814 h 289.8186 l 699.4291,0.9661 -3.8643,-353.57881 -956.4016,0.96605 -476.2686,1.93213 z"
         id="path6650"
         inkscape:connector-curvature="0" />
    </clipPath>
    <clipPath
       clipPathUnits="userSpaceOnUse"
       id="clipPath6652">
      <path
         style="fill:#ff0000;stroke:#000000;stroke-width:0.99999994px;stroke-linecap:butt;stroke-linejoin:miter;stroke-opacity:1"
         d="M 1114.8358,1047.58 H 597.99251 l 0.96605,-105.3008 -98.53833,0.96609 0.96605,364.20541 970.89252,2.8982 v -85.0135 h 90.8098 l -0.966,83.0814 h 289.8186 l 699.4291,0.9661 -3.8643,-353.57881 -956.4016,0.96605 -476.2686,1.93213 z"
         id="path6654"
         inkscape:connector-curvature="0" />
    </clipPath>
    <clipPath
       clipPathUnits="userSpaceOnUse"
       id="clipPath6656">
      <path
         style="fill:#ff0000;stroke:#000000;stroke-width:0.99999994px;stroke-linecap:butt;stroke-linejoin:miter;stroke-opacity:1"
         d="M 1114.8358,1047.58 H 597.99251 l 0.96605,-105.3008 -98.53833,0.96609 0.96605,364.20541 970.89252,2.8982 v -85.0135 h 90.8098 l -0.966,83.0814 h 289.8186 l 699.4291,0.9661 -3.8643,-353.57881 -956.4016,0.96605 -476.2686,1.93213 z"
         id="path6658"
         inkscape:connector-curvature="0" />
    </clipPath>
    <clipPath
       clipPathUnits="userSpaceOnUse"
       id="clipPath6660">
      <path
         style="fill:#ff0000;stroke:#000000;stroke-width:0.26458332px;stroke-linecap:butt;stroke-linejoin:miter;stroke-opacity:1"
         d="M 294.96697,277.17221 H 158.21885 l 0.2556,-27.86084 -26.0716,0.25561 0.2556,96.36268 256.88198,0.76682 v -22.49316 h 24.02676 l -0.25559,21.98196 h 76.68118 l 185.05728,0.25561 -1.02243,-93.55106 -253.04792,0.2556 -126.01274,0.51121 z"
         id="path6662"
         inkscape:connector-curvature="0" />
    </clipPath>
    <clipPath
       clipPathUnits="userSpaceOnUse"
       id="clipPath6664">
      <path
         style="fill:#ff0000;stroke:#000000;stroke-width:0.26458332px;stroke-linecap:butt;stroke-linejoin:miter;stroke-opacity:1"
         d="M 294.96697,277.17221 H 158.21885 l 0.2556,-27.86084 -26.0716,0.25561 0.2556,96.36268 256.88198,0.76682 v -22.49316 h 24.02676 l -0.25559,21.98196 h 76.68118 l 185.05728,0.25561 -1.02243,-93.55106 -253.04792,0.2556 -126.01274,0.51121 z"
         id="path6666"
         inkscape:connector-curvature="0" />
    </clipPath>
    <clipPath
       clipPathUnits="userSpaceOnUse"
       id="clipPath6668">
      <path
         style="fill:#ff0000;stroke:#000000;stroke-width:0.26458332px;stroke-linecap:butt;stroke-linejoin:miter;stroke-opacity:1"
         d="M 294.96697,277.17221 H 158.21885 l 0.2556,-27.86084 -26.0716,0.25561 0.2556,96.36268 256.88198,0.76682 v -22.49316 h 24.02676 l -0.25559,21.98196 h 76.68118 l 185.05728,0.25561 -1.02243,-93.55106 -253.04792,0.2556 -126.01274,0.51121 z"
         id="path6670"
         inkscape:connector-curvature="0" />
    </clipPath>
    <clipPath
       clipPathUnits="userSpaceOnUse"
       id="clipPath6672">
      <path
         style="fill:#ff0000;stroke:#000000;stroke-width:0.26458332px;stroke-linecap:butt;stroke-linejoin:miter;stroke-opacity:1"
         d="M 294.96697,277.17221 H 158.21885 l 0.2556,-27.86084 -26.0716,0.25561 0.2556,96.36268 256.88198,0.76682 v -22.49316 h 24.02676 l -0.25559,21.98196 h 76.68118 l 185.05728,0.25561 -1.02243,-93.55106 -253.04792,0.2556 -126.01274,0.51121 z"
         id="path6674"
         inkscape:connector-curvature="0" />
    </clipPath>
    <clipPath
       clipPathUnits="userSpaceOnUse"
       id="clipPath6676">
      <path
         style="fill:#ff0000;stroke:#000000;stroke-width:0.26458332px;stroke-linecap:butt;stroke-linejoin:miter;stroke-opacity:1"
         d="M 294.96697,277.17221 H 158.21885 l 0.2556,-27.86084 -26.0716,0.25561 0.2556,96.36268 256.88198,0.76682 v -22.49316 h 24.02676 l -0.25559,21.98196 h 76.68118 l 185.05728,0.25561 -1.02243,-93.55106 -253.04792,0.2556 -126.01274,0.51121 z"
         id="path6678"
         inkscape:connector-curvature="0" />
    </clipPath>
    <clipPath
       clipPathUnits="userSpaceOnUse"
       id="clipPath6680">
      <path
         style="fill:#ff0000;stroke:#000000;stroke-width:0.26458332px;stroke-linecap:butt;stroke-linejoin:miter;stroke-opacity:1"
         d="M 294.96697,277.17221 H 158.21885 l 0.2556,-27.86084 -26.0716,0.25561 0.2556,96.36268 256.88198,0.76682 v -22.49316 h 24.02676 l -0.25559,21.98196 h 76.68118 l 185.05728,0.25561 -1.02243,-93.55106 -253.04792,0.2556 -126.01274,0.51121 z"
         id="path6682"
         inkscape:connector-curvature="0" />
    </clipPath>
    <clipPath
       clipPathUnits="userSpaceOnUse"
       id="clipPath6684">
      <path
         style="fill:#ff0000;stroke:#000000;stroke-width:0.26458332px;stroke-linecap:butt;stroke-linejoin:miter;stroke-opacity:1"
         d="M 294.96697,277.17221 H 158.21885 l 0.2556,-27.86084 -26.0716,0.25561 0.2556,96.36268 256.88198,0.76682 v -22.49316 h 24.02676 l -0.25559,21.98196 h 76.68118 l 185.05728,0.25561 -1.02243,-93.55106 -253.04792,0.2556 -126.01274,0.51121 z"
         id="path6686"
         inkscape:connector-curvature="0" />
    </clipPath>
  </defs>
  <sodipodi:namedview
     id="base"
     pagecolor="#ffffff"
     bordercolor="#666666"
     borderopacity="1.0"
     inkscape:pageopacity="0"
     inkscape:pageshadow="2"
     inkscape:zoom="0.45254834"
     inkscape:cx="927.76339"
     inkscape:cy="164.1109"
     inkscape:document-units="mm"
     inkscape:current-layer="svg8"
     showgrid="false"
     units="px"
     guidecolor="#3ebf12"
     guideopacity="0.49803922"
     guidehicolor="#ffe500"
     guidehiopacity="0.49803922"
     showguides="false" />
  <metadata
     id="metadata5">
    <rdf:RDF>
      <cc:Work
         rdf:about="">
        <dc:format>image/svg+xml</dc:format>
        <dc:type
           rdf:resource="http://purl.org/dc/dcmitype/StillImage" />
        <dc:title></dc:title>
      </cc:Work>
    </rdf:RDF>
  </metadata>
  <path
     style="opacity:1;fill:#0694cb;fill-opacity:1;stroke:none;stroke-width:1;stroke-miterlimit:4;stroke-dasharray:none;stroke-opacity:1"
     d="m 266.80568,90.730718 c -1.90307,-0.51476 -3.44866,-1.44205 -4.68294,-2.80961 -0.91384,-1.01249 -1.46463,-1.95357 -1.93397,-3.30436 -0.33586,-0.96665 -0.39727,-1.35116 -0.44924,-2.81289 -0.0376,-1.05761 -0.003,-1.99309 0.0951,-2.49214 0.54575,-2.80775 2.49322,-5.33914 5.14458,-6.68713 1.41507,-0.71945 2.61657,-0.99234 4.38251,-0.99539 1.80731,-0.003 2.72555,0.2001 4.21745,0.9334 2.50974,1.23356 4.56065,3.72505 5.26622,6.39748 0.32882,1.24548 0.29625,3.60324 -0.0677,4.89471 -0.89162,3.16447 -3.19876,5.65903 -6.16968,6.67091 -0.95888,0.32659 -1.27871,0.37005 -2.99072,0.40635 -1.57231,0.0333 -2.07791,-0.003 -2.81165,-0.20133 z"
     id="path6522"
     inkscape:connector-curvature="0"
     sodipodi:nodetypes="ccccccccccsccc" />
  <path
     style="fill:#000000;fill-rule:nonzero;stroke:none;stroke-width:0.26458332px;stroke-linecap:butt;stroke-linejoin:miter;stroke-opacity:1"
     d="m 64.279903,-296.65865 c 0,106.33124 0,425.32496 0,531.6562 z m 0.264584,531.6562 c 0,-106.33124 0,-425.32496 0,-531.6562 z"
     id="path6210"
     inkscape:connector-curvature="0"
     inkscape:path-effect="#path-effect6212"
     inkscape:original-d="M 64.412195,234.99755 V 341.32879 H 190.16934 v -3.06723 H 71.569105 c 0,0 -14.31382,-206.528 -7.15691,-103.26401 z"
     transform="translate(-131.89668,-252.81104)" />
  <flowRoot
     xml:space="preserve"
     id="flowRoot6303"
     style="font-style:normal;font-variant:normal;font-weight:normal;font-stretch:normal;font-size:192px;line-height:1.25;font-family:NordiquePro-Bold;-inkscape-font-specification:'NordiquePro-Bold, Normal';font-variant-ligatures:normal;font-variant-caps:normal;font-variant-numeric:normal;font-feature-settings:normal;text-align:start;letter-spacing:0px;word-spacing:0px;writing-mode:lr-tb;text-anchor:start;fill:#000000;fill-opacity:1;stroke:none"
     transform="translate(-131.89668,-252.81104)"><flowRegion
       id="flowRegion6305"><rect
         id="rect6307"
         width="2419.0198"
         height="1340.8943"
         x="285.95441"
         y="598.36108" /></flowRegion><flowPara
       id="flowPara6309" /></flowRoot>  <flowRoot
     xml:space="preserve"
     id="flowRoot6311"
     style="font-style:normal;font-variant:normal;font-weight:normal;font-stretch:normal;font-size:192px;line-height:1.25;font-family:NordiquePro-Bold;-inkscape-font-specification:'NordiquePro-Bold, Normal';font-variant-ligatures:normal;font-variant-caps:normal;font-variant-numeric:normal;font-feature-settings:normal;text-align:start;letter-spacing:0px;word-spacing:0px;writing-mode:lr-tb;text-anchor:start;fill:#000000;fill-opacity:1;stroke:none"
     transform="translate(-131.89668,-252.81104)"><flowRegion
       id="flowRegion6313"><rect
         id="rect6315"
         width="1715.7264"
         height="1101.3109"
         x="707.15753"
         y="548.12585" /></flowRegion><flowPara
       id="flowPara6317" /></flowRoot>  <path
     style="opacity:1;fill:none;fill-opacity:1;stroke:none;stroke-width:0.1;stroke-miterlimit:4;stroke-dasharray:none;stroke-opacity:1"
     clip-path="url(#clipPath6672)"
     d="m 386.08978,293.14743 h 1.02242 v 1.15022 h -1.02242 z"
     id="rect6331"
     inkscape:connector-curvature="0"
     transform="translate(-131.89668,-252.81104)" />
  <rect
     style="opacity:1;fill:none;fill-opacity:1;stroke:none;stroke-width:0.1;stroke-miterlimit:4;stroke-dasharray:none"
     id="rect6339"
     width="28.883247"
     height="24.537981"
     x="266.33932"
     y="204.06947"
     clip-path="url(#clipPath6664)"
     transform="translate(-131.89668,-252.81104)" />
  <rect
     y="204.06947"
     x="266.33932"
     height="24.537981"
     width="28.883247"
     id="rect6350"
     style="opacity:1;fill:none;fill-opacity:1;stroke:none;stroke-width:0.1;stroke-miterlimit:4;stroke-dasharray:none"
     clip-path="url(#clipPath6660)"
     transform="translate(-131.89668,-252.81104)" />
  <g
     id="g6427"
     transform="translate(-131.89668,-252.81104)" />
  <path
     style="opacity:1;fill:#0694cb;fill-opacity:0;stroke:none;stroke-width:1.46050346;stroke-miterlimit:4;stroke-dasharray:none"
     d="m 1040.3185,843.40483 c -15.2399,-13.10881 -14.4442,-35.47696 1.7776,-49.97115 15.3551,-13.71976 27.914,-13.62018 43.5441,0.34527 9.8165,8.77107 12.4266,14.15185 12.4266,25.61839 0,28.74609 -35.2181,43.38717 -57.7483,24.00749 z"
     id="path6470"
     transform="matrix(0.26458333,0,0,0.26458333,-131.89668,-252.81104)"
     clip-path="url(#clipPath6656)"
     inkscape:connector-curvature="0" />
  <path
     id="path6554"
     d="m 149.23299,3.2357584 c -2.76386,0 -5.15078,1.00478 -7.03523,2.88923 -1.88445,1.88446 -2.76366,4.1458596 -2.76366,6.7840996 0,2.76384 0.87921,5.15077 2.76366,7.03522 1.88445,1.88444 4.27137,2.76365 7.03523,2.76365 2.63824,0 4.89963,-0.87921 6.78407,-2.76365 1.88447,-1.88445 2.88975,-4.27138 2.88975,-7.03522 0,-2.63824 -1.00528,-4.8996396 -2.88975,-6.7840996 -1.88444,-1.88445 -4.14583,-2.88923 -6.78407,-2.88923 z"
     style="font-style:normal;font-variant:normal;font-weight:normal;font-stretch:normal;font-size:125.62989044px;line-height:1.25;font-family:NordiquePro-Bold;-inkscape-font-specification:'NordiquePro-Bold, Normal';font-variant-ligatures:normal;font-variant-caps:normal;font-variant-numeric:normal;font-feature-settings:normal;text-align:start;letter-spacing:0px;word-spacing:0px;writing-mode:lr-tb;text-anchor:start;opacity:1;fill:#0694cb;fill-opacity:1;stroke:none;stroke-width:0.65432233;stroke-opacity:1"
     inkscape:connector-curvature="0"
     sodipodi:nodetypes="scscscscs" />
  <flowRoot
     xml:space="preserve"
     id="flowRoot6578"
     style="font-style:normal;font-variant:normal;font-weight:normal;font-stretch:normal;font-size:192px;line-height:1.25;font-family:NordiquePro-Bold;-inkscape-font-specification:'NordiquePro-Bold, Normal';font-variant-ligatures:normal;font-variant-caps:normal;font-variant-numeric:normal;font-feature-settings:normal;text-align:start;letter-spacing:0px;word-spacing:0px;writing-mode:lr-tb;text-anchor:start;fill:#000000;fill-opacity:1;stroke:none"
     transform="translate(-131.89668,-252.81104)"><flowRegion
       id="flowRegion6580"><rect
         id="rect6582"
         width="44.799458"
         height="257.82791"
         x="1467.4889"
         y="786.54004" /></flowRegion><flowPara
       id="flowPara6584" /></flowRoot>  <path
     style="opacity:1;fill:#0694cb;fill-opacity:1;stroke:none;stroke-width:0.34830025;stroke-miterlimit:4;stroke-dasharray:none;stroke-opacity:1"
     d="m 445.79758,0.07878004 h 96.3334 L 97.095201,93.118618 H 0.76180114 Z"
     id="rect7357"
     inkscape:connector-curvature="0" />
  <g
     aria-label="build.hello"
     clip-path="url(#clipPath6684)"
     style="font-style:normal;font-variant:normal;font-weight:normal;font-stretch:normal;font-size:125.62989044px;line-height:1.25;font-family:NordiquePro-Bold;-inkscape-font-specification:'NordiquePro-Bold, Normal';font-variant-ligatures:normal;font-variant-caps:normal;font-variant-numeric:normal;font-feature-settings:normal;text-align:start;letter-spacing:0px;word-spacing:0px;writing-mode:lr-tb;text-anchor:start;fill:#a1ce4f;fill-opacity:1;stroke:none;stroke-width:1;stroke-opacity:1"
     id="text6321"
     transform="translate(-131.89668,-252.81104)">
    <path
       d="m 136.05489,256.02954 v 56.53345 c 0,5.9046 1.38193,11.30669 4.27142,16.33188 2.88949,5.0252 6.78401,8.91972 11.80921,11.80921 4.89956,2.88949 10.30165,4.27142 16.20625,4.27142 5.77898,0 11.18106,-1.38193 16.20626,-4.27142 4.89957,-2.88949 8.79409,-6.78401 11.80921,-11.80921 2.88949,-5.02519 4.39705,-10.42728 4.39705,-16.33188 0,-5.77898 -1.50756,-11.18106 -4.39705,-16.20626 -3.01512,-5.0252 -6.90964,-8.91972 -11.80921,-11.80921 -5.0252,-2.88949 -10.42728,-4.39705 -16.20626,-4.39705 -6.15586,0 -11.43232,1.63319 -15.82936,4.77394 v -28.89487 z m 20.85456,44.84987 c 3.01512,-3.14075 6.90965,-4.77394 11.55795,-4.77394 4.52268,0 8.41721,1.63319 11.43232,4.77394 3.01512,3.14074 4.52268,7.03527 4.52268,11.68358 0,4.77393 -1.50756,8.66846 -4.52268,11.80921 -3.01511,3.14074 -6.90964,4.6483 -11.43232,4.6483 -4.6483,0 -8.54283,-1.50756 -11.55795,-4.6483 -3.14074,-3.14075 -4.6483,-7.03528 -4.6483,-11.80921 0,-4.64831 1.50756,-8.54284 4.6483,-11.68358 z"
       style="fill:#a1ce4f;fill-opacity:1;stroke:none;stroke-width:1;stroke-opacity:1"
       id="path6788"
       inkscape:connector-curvature="0" />
    <path
       d="m 246.64846,281.15551 h 16.33188 v 33.04066 c 0,10.30166 -2.51259,17.96508 -7.53779,23.1159 -5.02519,5.15083 -11.80921,7.66343 -20.10078,7.66343 -8.4172,0 -15.07559,-2.5126 -20.10078,-7.66343 -5.0252,-5.15082 -7.5378,-12.81424 -7.5378,-23.1159 v -33.04066 h 16.33189 v 33.04066 c 0,5.15083 0.87941,8.91973 2.63823,11.3067 1.75881,2.38696 4.6483,3.51763 8.66846,3.51763 3.89452,0 6.78401,-1.13067 8.54283,-3.51763 1.75882,-2.38697 2.76386,-6.15587 2.76386,-11.3067 z"
       style="fill:#a1ce4f;fill-opacity:1;stroke:none;stroke-width:1;stroke-opacity:1"
       id="path6790"
       inkscape:connector-curvature="0" />
    <path
       d="m 274.50884,271.73327 c 1.88445,1.88445 4.27142,2.76386 7.03528,2.76386 2.63823,0 4.89956,-0.87941 6.78401,-2.76386 1.88445,-1.88445 2.88949,-4.27141 2.88949,-7.03527 0,-2.63823 -1.00504,-4.89957 -2.88949,-6.78402 -1.88445,-1.88444 -4.14578,-2.88948 -6.78401,-2.88948 -2.76386,0 -5.15083,1.00504 -7.03528,2.88948 -1.88444,1.88445 -2.76385,4.14579 -2.76385,6.78402 0,2.76386 0.87941,5.15082 2.76385,7.03527 z m -1.13067,9.42224 v 62.81495 h 16.33189 v -62.81495 z"
       style="fill:#a1ce4f;fill-opacity:1;stroke:none;stroke-width:1;stroke-opacity:1"
       id="path6792"
       inkscape:connector-curvature="0" />
    <path
       d="m 301.18951,343.97046 h 16.33188 v -87.94092 h -16.33188 z"
       style="fill:#a1ce4f;fill-opacity:1;stroke:none;stroke-width:1;stroke-opacity:1"
       id="path6794"
       inkscape:connector-curvature="0" />
    <path
       d="m 384.66467,328.89487 c 2.88949,-5.02519 4.39704,-10.42728 4.39704,-16.33188 V 256.02954 H 372.6042 v 28.89487 c -4.52268,-3.14075 -9.79913,-4.77394 -15.82937,-4.77394 -5.9046,0 -11.30669,1.50756 -16.20625,4.39705 -5.0252,2.88949 -8.91973,6.78401 -11.80921,11.80921 -3.01512,5.0252 -4.39705,10.42728 -4.39705,16.20626 0,5.9046 1.38193,11.30669 4.39705,16.33188 2.88948,5.0252 6.78401,8.91972 11.80921,11.80921 4.89956,2.88949 10.30165,4.27142 16.20625,4.27142 5.77898,0 11.18106,-1.38193 16.20626,-4.27142 4.89956,-2.88949 8.79409,-6.78401 11.68358,-11.80921 z m -39.44779,-28.01546 c 3.01512,-3.14075 6.78402,-4.77394 11.43232,-4.77394 4.52268,0 8.4172,1.63319 11.55795,4.77394 3.01512,3.14074 4.64831,7.03527 4.64831,11.68358 0,4.77393 -1.63319,8.66846 -4.64831,11.80921 -3.14075,3.14074 -7.03527,4.6483 -11.55795,4.6483 -4.6483,0 -8.4172,-1.50756 -11.43232,-4.6483 -3.01512,-3.14075 -4.52267,-7.03528 -4.52267,-11.80921 0,-4.64831 1.50755,-8.54284 4.52267,-11.68358 z"
       style="fill:#a1ce4f;fill-opacity:1;stroke:none;stroke-width:1;stroke-opacity:1"
       id="path6796"
       inkscape:connector-curvature="0" />
    <path
       d="m 393.5569,343.97046 v -16.45752 h 16.33189 v 16.45752 z"
       style="fill:#a1ce4f;fill-opacity:1;stroke:none;stroke-width:1;stroke-opacity:1"
       id="path6798"
       inkscape:connector-curvature="0" />
    <path
       d="m 464.49854,287.93953 c -5.0252,-5.15083 -11.80921,-7.78906 -20.10079,-7.78906 -4.52267,0 -8.29157,1.13067 -11.30669,3.14075 v -27.26168 h -16.33188 v 87.94092 h 16.33188 V 310.9298 c 0,-5.0252 0.87941,-8.79409 2.63823,-11.18106 1.75882,-2.38697 4.64831,-3.64327 8.66846,-3.64327 3.89453,0 6.78402,1.2563 8.54284,3.64327 1.75881,2.38697 2.76385,6.15586 2.76385,11.18106 v 33.04066 h 16.33189 V 310.9298 c 0,-10.17602 -2.5126,-17.83945 -7.53779,-22.99027 z"
       style="fill:#a1ce4f;fill-opacity:1;stroke:none;stroke-width:1;stroke-opacity:1"
       id="path6800"
       inkscape:connector-curvature="0" />
    <path
       d="m 483.09176,296.60799 c -2.76386,5.0252 -4.14579,10.30165 -4.14579,16.08063 0,5.9046 1.38193,11.30669 4.27142,16.20625 2.88948,5.0252 6.78401,8.91972 11.8092,11.80921 4.89957,2.88949 10.30166,4.27142 16.33189,4.27142 6.53275,0 12.43736,-1.75882 17.83944,-5.40209 5.27646,-3.51763 9.29662,-8.29157 11.93484,-14.07054 l -19.47263,-0.12563 c -1.38193,1.13066 -2.88949,2.01007 -4.52267,2.63822 -1.63319,0.75378 -3.7689,1.00504 -6.2815,1.00504 -3.7689,0 -6.90964,-0.87941 -9.42224,-2.63823 -2.5126,-1.75881 -4.14579,-4.27141 -4.89957,-7.41216 h 46.60869 c 0.37689,-2.5126 0.50252,-5.02519 0.50252,-7.78905 -0.25126,-6.2815 -1.88445,-11.80921 -5.15082,-16.58315 -3.26638,-4.6483 -7.28654,-8.16594 -12.1861,-10.67854 -5.0252,-2.5126 -10.17602,-3.7689 -15.45248,-3.7689 -5.9046,0 -11.30669,1.50756 -16.20625,4.52268 -4.89957,3.01512 -8.7941,6.90964 -11.55795,11.93484 z m 43.09105,9.29661 h -29.64866 c 1.2563,-3.01512 3.26638,-5.40208 5.77898,-7.1609 2.5126,-1.75882 5.52771,-2.63823 9.04535,-2.63823 3.14075,0 6.03024,1.00504 8.79409,2.76386 2.76386,1.75882 4.77394,4.14578 6.03024,7.03527 z"
       style="fill:#a1ce4f;fill-opacity:1;stroke:none;stroke-width:1;stroke-opacity:1"
       id="path6802"
       inkscape:connector-curvature="0" />
    <path
       d="M 550.48632,343.97046 H 566.8182 V 256.02954 H 550.48632 Z"
       style="fill:#a1ce4f;fill-opacity:1;stroke:none;stroke-width:1;stroke-opacity:1"
       id="path6804"
       inkscape:connector-curvature="0" />
    <path
       d="m 576.74099,343.97046 h 16.33188 v -87.94092 h -16.33188 z"
       style="fill:#a1ce4f;fill-opacity:1;stroke:none;stroke-width:1;stroke-opacity:1"
       id="path6806"
       inkscape:connector-curvature="0" />
    <path
       d="m 648.5326,284.54752 c -5.02519,-2.88949 -10.42728,-4.39705 -16.20625,-4.39705 -5.90461,0 -11.30669,1.50756 -16.33189,4.39705 -5.0252,2.88949 -8.91972,6.78401 -11.80921,11.80921 -2.88949,5.0252 -4.27142,10.42728 -4.27142,16.20626 0,5.9046 1.38193,11.30669 4.27142,16.33188 2.88949,5.0252 6.78401,8.91972 11.80921,11.80921 5.0252,2.88949 10.42728,4.27142 16.33189,4.27142 5.77897,0 11.18106,-1.38193 16.20625,-4.27142 5.0252,-2.88949 8.91972,-6.78401 11.80921,-11.80921 2.88949,-5.02519 4.39705,-10.42728 4.39705,-16.33188 0,-5.77898 -1.50756,-11.18106 -4.39705,-16.20626 -2.88949,-5.0252 -6.78401,-8.91972 -11.80921,-11.80921 z m -27.63857,16.33189 c 3.01511,-3.14075 6.90964,-4.77394 11.55795,-4.77394 4.52267,0 8.4172,1.63319 11.43232,4.77394 3.01511,3.14074 4.52267,7.03527 4.52267,11.68358 0,4.77393 -1.50756,8.66846 -4.52267,11.80921 -3.01512,3.14074 -6.90965,4.6483 -11.43232,4.6483 -4.64831,0 -8.54284,-1.50756 -11.55795,-4.6483 -3.14075,-3.14075 -4.64831,-7.03528 -4.64831,-11.80921 0,-4.64831 1.50756,-8.54284 4.64831,-11.68358 z"
       style="fill:#a1ce4f;fill-opacity:1;stroke:none;stroke-width:1;stroke-opacity:1"
       id="path6808"
       inkscape:connector-curvature="0" />
  </g>
  <rect
     style="opacity:1;fill:none;fill-opacity:1;stroke:#e8ecf1;stroke-width:1;stroke-miterlimit:4;stroke-dasharray:none;stroke-opacity:1"
     id="rect7363"
     width="2.3386083"
     height="0.58465207"
     x="-43.614216"
     y="-35.1735" />
</svg>
