<?xml version="1.0" encoding="UTF-8" standalone="no"?>
<!-- Created with Inkscape (http://www.inkscape.org/) -->

<svg
   xmlns:dc="http://purl.org/dc/elements/1.1/"
   xmlns:cc="http://creativecommons.org/ns#"
   xmlns:rdf="http://www.w3.org/1999/02/22-rdf-syntax-ns#"
   xmlns:svg="http://www.w3.org/2000/svg"
   xmlns="http://www.w3.org/2000/svg"
   xmlns:sodipodi="http://sodipodi.sourceforge.net/DTD/sodipodi-0.dtd"
   xmlns:inkscape="http://www.inkscape.org/namespaces/inkscape"
   width="188.52202mm"
   height="86.750626mm"
   viewBox="0 0 188.52202 86.750626"
   version="1.1"
   id="svg997"
   inkscape:version="0.92.4 (5da689c313, 2019-01-14)"
   sodipodi:docname="logo36.svg">
  <defs
     id="defs991">
    <pattern
       y="0"
       x="0"
       height="6"
       width="6"
       patternUnits="userSpaceOnUse"
       id="EMFhbasepattern" />
  </defs>
  <sodipodi:namedview
     id="base"
     pagecolor="#ffffff"
     bordercolor="#666666"
     borderopacity="1.0"
     inkscape:pageopacity="0.0"
     inkscape:pageshadow="2"
     inkscape:zoom="0.49497475"
     inkscape:cx="370.40944"
     inkscape:cy="474.13373"
     inkscape:document-units="mm"
     inkscape:current-layer="layer1"
     showgrid="false" />
  <metadata
     id="metadata994">
    <rdf:RDF>
      <cc:Work
         rdf:about="">
        <dc:format>image/svg+xml</dc:format>
        <dc:type
           rdf:resource="http://purl.org/dc/dcmitype/StillImage" />
        <dc:title></dc:title>
      </cc:Work>
    </rdf:RDF>
  </metadata>
  <g
     inkscape:label="Layer 1"
     inkscape:groupmode="layer"
     id="layer1"
     transform="translate(-6.3867558,-174.17911)">
    <g
       id="g1626"
       transform="matrix(0.91443716,0,0,0.89028503,-5.8079619,124.75811)">
      <path
         inkscape:connector-curvature="0"
         style="fill:#0fb8f8;fill-opacity:1;fill-rule:nonzero;stroke:none;stroke-width:0.26458332"
         d="m 107.25157,152.17933 c -6.90029,-1.86265 -12.50941,-5.22813 -16.975543,-10.20226 -3.323142,-3.66181 -5.312796,-7.09078 -7.006116,-11.98024 -1.227656,-3.51364 -1.439323,-4.91063 -1.62982,-10.22343 -0.148167,-3.83114 -0.02117,-7.23894 0.338664,-9.0381 1.989651,-10.20225 9.038101,-19.388519 18.647695,-24.277985 5.12229,-2.624645 9.4826,-3.598306 15.87488,-3.619473 6.56162,0 9.88476,0.719661 15.28222,3.386643 9.1016,4.487299 16.53104,13.525399 19.09219,23.219665 1.18533,4.52963 1.07949,13.0809 -0.254,17.77986 -3.21731,11.49342 -11.57808,20.53152 -22.35183,24.21449 -3.47131,1.18533 -4.63547,1.33349 -10.83725,1.48166 -5.69379,0.10583 -7.53528,-0.0212 -10.18109,-0.74083 z"
         id="path1567" />
      <path
         inkscape:connector-curvature="0"
         style="fill:#80b8cf;fill-opacity:1;fill-rule:evenodd;stroke:none;stroke-width:0.26458332"
         d="m 107.25157,152.17933 c -6.90029,-1.86265 -12.50941,-5.22813 -16.975543,-10.20226 -3.323142,-3.66181 -5.312796,-7.09078 -7.006116,-11.98024 -1.227656,-3.51364 -1.439323,-4.91063 -1.62982,-10.22343 -0.148167,-3.83114 -0.02117,-7.23894 0.338664,-9.0381 1.989651,-10.20225 9.038101,-19.388519 18.647695,-24.277985 5.12229,-2.624645 9.4826,-3.598306 15.87488,-3.619473 6.56162,0 9.88476,0.719661 15.28222,3.386643 9.1016,4.487299 16.53104,13.525399 19.09219,23.219665 1.18533,4.52963 1.07949,13.0809 -0.254,17.77986 -3.21731,11.49342 -11.57808,20.53152 -22.35183,24.21449 -3.47131,1.18533 -4.63547,1.33349 -10.83725,1.48166 -5.69379,0.10583 -7.53528,-0.0212 -10.18109,-0.74083 z"
         id="path1569" />
      <path
         inkscape:connector-curvature="0"
         style="fill:#ffffff;fill-opacity:1;fill-rule:evenodd;stroke:none;stroke-width:0.26458332"
         d="m 115.42184,133.3623 c -5.10113,-1.31232 -9.24976,-3.68297 -12.55174,-7.19661 -2.43415,-2.58232 -3.915805,-4.9953 -5.164628,-8.46661 -0.910161,-2.47648 -1.079492,-3.45014 -1.206492,-7.19661 -0.105833,-2.70931 -0.02117,-5.10113 0.253997,-6.39228 1.46049,-7.175451 6.667453,-13.67357 13.779403,-17.123711 3.7888,-1.841486 7.00611,-2.539981 11.72624,-2.539981 4.84713,-0.02117 7.30245,0.507997 11.30292,2.391815 6.70978,3.153809 12.21307,9.524931 14.09689,16.382877 0.86783,3.19614 0.78316,9.2286 -0.1905,12.53057 -2.39181,8.10678 -8.55127,14.49907 -16.50987,17.08138 -2.58232,0.84666 -3.42898,0.95249 -8.02211,1.05833 -4.19097,0.0847 -5.54563,-0.0212 -7.51411,-0.52917 z"
         id="path1571" />
      <path
         inkscape:connector-curvature="0"
         style="fill:#ffe061;fill-opacity:1;fill-rule:nonzero;stroke:none;stroke-width:0.26458332"
         d="m 115.697,121.31856 c -0.67733,-0.1905 -1.24882,-0.52917 -1.69332,-1.01599 -0.3175,-0.35983 -0.52916,-0.71967 -0.69849,-1.2065 -0.10583,-0.33866 -0.14816,-0.48683 -0.14816,-1.01599 -0.0212,-0.381 0,-0.71966 0.0212,-0.88899 0.21166,-1.01599 0.91016,-1.94732 1.86265,-2.43415 0.508,-0.254 0.95249,-0.35983 1.58749,-0.35983 0.65616,0 0.97366,0.0847 1.52399,0.33866 0.91016,0.4445 1.65098,1.35466 1.90498,2.32832 0.10584,0.44449 0.10584,1.29116 -0.0212,1.75682 -0.33867,1.14299 -1.16416,2.05315 -2.24365,2.41298 -0.33867,0.127 -0.46567,0.14817 -1.07949,0.14817 -0.5715,0.0212 -0.74083,0 -1.016,-0.0635 z"
         id="path1573" />
      <path
         inkscape:connector-curvature="0"
         style="fill:#fee685;fill-opacity:1;fill-rule:evenodd;stroke:none;stroke-width:0.26458332"
         d="m 115.697,121.31856 c -0.67733,-0.1905 -1.24882,-0.52917 -1.69332,-1.01599 -0.3175,-0.35983 -0.52916,-0.71967 -0.69849,-1.2065 -0.10583,-0.33866 -0.14816,-0.48683 -0.14816,-1.01599 -0.0212,-0.381 0,-0.71966 0.0212,-0.88899 0.21166,-1.01599 0.91016,-1.94732 1.86265,-2.43415 0.508,-0.254 0.95249,-0.35983 1.58749,-0.35983 0.65616,0 0.97366,0.0847 1.52399,0.33866 0.91016,0.4445 1.65098,1.35466 1.90498,2.32832 0.10584,0.44449 0.10584,1.29116 -0.0212,1.75682 -0.33867,1.14299 -1.16416,2.05315 -2.24365,2.41298 -0.33867,0.127 -0.46567,0.14817 -1.07949,0.14817 -0.5715,0.0212 -0.74083,0 -1.016,-0.0635 z"
         id="path1575" />
      <path
         inkscape:connector-curvature="0"
         style="fill:#ffffff;fill-opacity:1;fill-rule:evenodd;stroke:none;stroke-width:0.26458332"
         d="m 115.951,120.30257 c -0.508,-0.127 -0.93133,-0.35983 -1.24882,-0.71967 -0.254,-0.254 -0.40217,-0.48683 -0.52917,-0.82549 -0.0847,-0.254 -0.10583,-0.35983 -0.10583,-0.71966 -0.0212,-0.27517 0,-0.508 0.0212,-0.635 0.14816,-0.71966 0.65616,-1.37582 1.37582,-1.71448 0.381,-0.1905 0.69849,-0.254 1.16416,-0.254 0.48683,0 0.71966,0.0423 1.12182,0.23283 0.67733,0.3175 1.22766,0.95249 1.41816,1.62982 0.0847,0.3175 0.0635,0.93133 -0.0212,1.24883 -0.23283,0.82549 -0.84666,1.46048 -1.65099,1.71448 -0.25399,0.0847 -0.33866,0.0847 -0.80432,0.10583 -0.42333,0 -0.55033,0 -0.74083,-0.0635 z"
         id="path1577" />
      <path
         inkscape:connector-curvature="0"
         style="fill:#ffe061;fill-opacity:1;fill-rule:nonzero;stroke:none;stroke-width:0.26458332"
         d="m 59.309422,124.85337 c -6.900281,-1.86266 -12.509408,-5.22813 -16.97554,-10.20226 -3.301976,-3.66181 -5.312794,-7.09078 -7.006115,-12.00141 -1.206491,-3.492477 -1.439323,-4.889467 -1.629821,-10.20226 -0.127,-3.83114 0,-7.238947 0.338664,-9.038101 1.989652,-10.202258 9.0381,-19.388523 18.647695,-24.277987 5.122294,-2.624647 9.482596,-3.598307 15.896048,-3.619473 6.540452,-0.02117 9.863595,0.719661 15.282222,3.386641 9.080431,4.487301 16.509875,13.525401 19.071025,23.219663 1.18532,4.529632 1.07949,13.080902 -0.23283,17.779868 -3.238478,11.493419 -11.59925,20.531509 -22.373004,24.214489 -3.471307,1.18532 -4.635466,1.33349 -10.837252,1.48165 -5.693791,0.10583 -7.514111,-0.0212 -10.181092,-0.74082 z"
         id="path1579" />
      <path
         inkscape:connector-curvature="0"
         style="fill:#fee685;fill-opacity:1;fill-rule:evenodd;stroke:none;stroke-width:0.26458332"
         d="m 59.309422,124.85337 c -6.900281,-1.86266 -12.509408,-5.22813 -16.97554,-10.20226 -3.301976,-3.66181 -5.312794,-7.09078 -7.006115,-12.00141 -1.206491,-3.492477 -1.439323,-4.889467 -1.629821,-10.20226 -0.127,-3.83114 0,-7.238947 0.338664,-9.038101 1.989652,-10.202258 9.0381,-19.388523 18.647695,-24.277987 5.122294,-2.624647 9.482596,-3.598307 15.896048,-3.619473 6.540452,-0.02117 9.863595,0.719661 15.282222,3.386641 9.080431,4.487301 16.509875,13.525401 19.071025,23.219663 1.18532,4.529632 1.07949,13.080902 -0.23283,17.779868 -3.238478,11.493419 -11.59925,20.531509 -22.373004,24.214489 -3.471307,1.18532 -4.635466,1.33349 -10.837252,1.48165 -5.693791,0.10583 -7.514111,-0.0212 -10.181092,-0.74082 z"
         id="path1581" />
      <path
         inkscape:connector-curvature="0"
         style="fill:#ffffff;fill-opacity:1;fill-rule:evenodd;stroke:none;stroke-width:0.26458332"
         d="m 66.273205,107.56033 c -5.10113,-1.33349 -9.228598,-3.70414 -12.530574,-7.19662 -2.455315,-2.603477 -3.936971,-5.016461 -5.185797,-8.466601 -0.888992,-2.476481 -1.058325,-3.471307 -1.206489,-7.21778 -0.105833,-2.709313 0,-5.101128 0.253997,-6.371119 1.46049,-7.196613 6.688617,-13.694732 13.779397,-17.144873 3.788807,-1.841486 7.006117,-2.539981 11.726249,-2.539981 4.847129,0 7.302444,0.507996 11.302915,2.391815 6.73095,3.15381 12.213077,9.546097 14.096897,16.382879 0.888992,3.196143 0.804325,9.228599 -0.169333,12.530575 -2.391815,8.106772 -8.572437,14.499055 -16.531045,17.102535 -2.561148,0.8255 -3.428974,0.9525 -8.000939,1.03716 -4.212138,0.0847 -5.566794,0 -7.535278,-0.50799 z"
         id="path1583" />
      <path
         inkscape:connector-curvature="0"
         style="fill:#0fb8f8;fill-opacity:1;fill-rule:nonzero;stroke:none;stroke-width:0.26458332"
         d="m 68.834353,93.844429 c -0.698495,-0.169333 -1.248826,-0.507997 -1.693323,-1.015992 -0.338664,-0.359831 -0.529161,-0.698497 -0.698495,-1.185325 -0.126997,-0.359831 -0.148164,-0.486831 -0.16933,-1.015992 0,-0.380998 0,-0.719662 0.04233,-0.910162 0.190497,-1.015992 0.910159,-1.92615 1.862651,-2.412981 0.507997,-0.275164 0.931328,-0.359831 1.587489,-0.359831 0.634995,0 0.973659,0.0635 1.52399,0.338664 0.910158,0.444498 1.650986,1.33349 1.904984,2.307151 0.105833,0.444495 0.105833,1.312323 -0.04233,1.777987 -0.3175,1.142989 -1.142992,2.053151 -2.222484,2.412981 -0.338664,0.127 -0.465664,0.127 -1.079492,0.148164 -0.571497,0 -0.740828,0 -1.015992,-0.08466 z"
         id="path1585" />
      <path
         inkscape:connector-curvature="0"
         style="fill:#80b8cf;fill-opacity:1;fill-rule:evenodd;stroke:none;stroke-width:0.26458332"
         d="m 68.834353,93.844429 c -0.698495,-0.169333 -1.248826,-0.507997 -1.693323,-1.015992 -0.338664,-0.359831 -0.529161,-0.698497 -0.698495,-1.185325 -0.126997,-0.359831 -0.148164,-0.486831 -0.16933,-1.015992 0,-0.380998 0,-0.719662 0.04233,-0.910162 0.190497,-1.015992 0.910159,-1.92615 1.862651,-2.412981 0.507997,-0.275164 0.931328,-0.359831 1.587489,-0.359831 0.634995,0 0.973659,0.0635 1.52399,0.338664 0.910158,0.444498 1.650986,1.33349 1.904984,2.307151 0.105833,0.444495 0.105833,1.312323 -0.04233,1.777987 -0.3175,1.142989 -1.142992,2.053151 -2.222484,2.412981 -0.338664,0.127 -0.465664,0.127 -1.079492,0.148164 -0.571497,0 -0.740828,0 -1.015992,-0.08466 z"
         id="path1587" />
      <path
         inkscape:connector-curvature="0"
         style="fill:#ffffff;fill-opacity:1;fill-rule:evenodd;stroke:none;stroke-width:0.26458332"
         d="m 69.08835,92.849601 c -0.507997,-0.126997 -0.931325,-0.380995 -1.269992,-0.719661 -0.232831,-0.253998 -0.380995,-0.507995 -0.507995,-0.846659 -0.08467,-0.253997 -0.105833,-0.338664 -0.127,-0.719661 0,-0.275164 0,-0.507998 0.04233,-0.634995 0.127,-0.719661 0.656161,-1.354659 1.354656,-1.714489 0.380997,-0.169331 0.719661,-0.253998 1.185325,-0.253998 0.486831,0 0.719662,0.0635 1.121826,0.253998 0.677328,0.296333 1.227656,0.952494 1.396989,1.629822 0.105833,0.317498 0.08467,0.910159 0,1.248823 -0.253997,0.804328 -0.867828,1.439323 -1.650987,1.693323 -0.254,0.08466 -0.338664,0.105831 -0.804328,0.105831 -0.42333,0.02117 -0.55033,0 -0.740828,-0.04233 z"
         id="path1589" />
      <path
         inkscape:connector-curvature="0"
         style="fill:#9ac79a;fill-opacity:1;fill-rule:evenodd;stroke:#000000;stroke-width:0.04233302px;stroke-linecap:butt;stroke-linejoin:miter;stroke-miterlimit:4;stroke-dasharray:none;stroke-opacity:1"
         d="m 13.35693,85.52599 v 22.09784 c 0,2.32831 0.529163,4.4238 1.672154,6.39228 1.121825,1.96849 2.645814,3.49247 4.614299,4.6143 1.904986,1.14299 4.021637,1.67216 6.328786,1.67216 2.264817,0 4.381468,-0.52917 6.328787,-1.67216 1.926152,-1.12183 3.450141,-2.64581 4.635465,-4.6143 1.121826,-1.96848 1.714488,-4.06397 1.714488,-6.39228 0,-2.24366 -0.592662,-4.36031 -1.714488,-6.32879 -1.185324,-1.968486 -2.709313,-3.492473 -4.635465,-4.614299 -1.947319,-1.121825 -4.06397,-1.714486 -6.328787,-1.714486 -2.391815,0 -4.466133,0.634994 -6.18062,1.86265 V 85.949321 h 0.613829 L 19.791549,85.52599 Z m 64.007526,0.761995 V 120.6624 l 0.613828,0.40216 v -0.40216 h 5.778458 V 86.711315 l 0.613828,-0.02117 -0.613828,-0.402164 z m 27.918624,0 v 11.281748 c -1.77798,-1.227656 -3.83114,-1.862653 -6.180619,-1.862653 -2.328317,0 -4.423801,0.592664 -6.349952,1.714489 -1.968487,1.14299 -3.492476,2.666981 -4.614299,4.614301 -1.185325,1.96848 -1.714489,4.08513 -1.714489,6.34995 0,2.30715 0.529164,4.40264 1.714489,6.37112 1.121823,1.96849 2.645812,3.49247 4.614299,4.6143 1.926151,1.14299 4.021635,1.67215 6.349952,1.67215 2.243649,0 4.360299,-0.52916 6.328789,-1.67215 1.90498,-1.12183 3.42897,-2.64581 4.57196,-4.6143 1.12183,-1.96848 1.71449,-4.06397 1.71449,-6.37112 V 86.711315 l 0.61383,-0.02117 -0.61383,-0.402164 z m 17.2507,0 V 120.6624 l 0.635,0.40216 v -0.40216 h 5.75729 v -12.91157 c 0,-1.96849 0.33866,-3.45015 1.03716,-4.38147 0.67733,-0.93133 1.79915,-1.41816 3.38664,-1.41816 1.52399,0 2.64582,0.48683 3.32314,1.41816 0.6985,0.93132 1.10066,2.41298 1.10066,4.38147 v 12.91157 l 0.61383,0.40216 -0.0212,-0.40216 h 5.77846 v -12.91157 c 0,-3.97931 -0.97366,-6.98495 -2.94214,-8.995771 -1.96849,-2.010818 -4.6143,-3.047979 -7.85278,-3.047979 -1.77799,0 -3.23848,0.444497 -4.4238,1.227659 V 86.711315 l 0.61383,-0.02117 -0.61383,-0.402164 z m 52.28128,0 V 120.6624 l 0.61383,0.40216 v -0.40216 h 5.77846 V 86.711315 l 0.61383,-0.02117 -0.61383,-0.402164 z m 10.26576,0 V 120.6624 l 0.61383,0.40216 v -0.40216 h 5.75729 V 86.690149 h 0.635 l -0.635,-0.402164 z m -25.75964,9.419095 c -2.30715,0 -4.4238,0.592664 -6.32879,1.777987 -1.92615,1.164159 -3.45014,2.688143 -4.52963,4.656633 -1.07949,1.96849 -1.60866,4.02164 -1.60866,6.28645 0,2.30715 0.52917,4.4238 1.67216,6.32879 1.12182,1.96849 2.64581,3.49247 4.6143,4.6143 1.90498,1.14299 4.02163,1.67215 6.37112,1.67215 2.56115,0 4.86829,-0.67733 6.98494,-2.11665 1.92616,-1.26999 3.42898,-3.00564 4.46614,-5.07996 h 0.80433 l -0.61383,-0.40216 -7.59878,-0.0635 c -0.55033,0.44449 -1.14299,0.78316 -1.77799,1.03716 -0.63499,0.29633 -1.48165,0.40216 -2.45531,0.40216 -1.48166,0 -2.70931,-0.35983 -3.68297,-1.03716 -0.97366,-0.69849 -1.62983,-1.67215 -1.90499,-2.89981 h 18.2032 c 0.14817,-0.97366 0.21166,-1.96849 0.21166,-3.04798 -0.10583,-2.45532 -0.74083,-4.6143 -2.03198,-6.47695 -1.26999,-1.82032 -2.83631,-3.196143 -4.76247,-4.169804 -1.94731,-0.994825 -3.9793,-1.481656 -6.03245,-1.481656 z m 47.47648,0 c -2.30715,0 -4.4238,0.592664 -6.37112,1.714489 -1.96848,1.14299 -3.49247,2.666981 -4.6143,4.614301 -1.14299,1.96848 -1.67215,4.08513 -1.67215,6.34995 0,2.30715 0.52916,4.40264 1.67215,6.37112 1.12183,1.96849 2.64582,3.49247 4.6143,4.6143 1.94732,1.14299 4.06397,1.67215 6.37112,1.67215 2.26482,0 4.38147,-0.52916 6.34995,-1.67215 1.94732,-1.12183 3.47131,-2.64581 4.6143,-4.6143 1.12183,-1.96848 1.71449,-4.06397 1.71449,-6.37112 0,-2.26482 -0.59266,-4.38147 -1.71449,-6.34995 -1.14299,-1.94732 -2.66698,-3.471311 -4.6143,-4.614301 -1.96848,-1.121825 -4.08513,-1.714489 -6.34995,-1.714489 z M 40.831059,96.109244 v 12.911566 c 0,4.02164 0.973659,7.02729 2.942146,9.03811 1.968484,2.01081 4.550799,2.98447 7.852775,2.98447 3.238476,0 5.884288,-0.97366 7.852775,-2.98447 1.968484,-2.01082 2.942146,-5.01647 2.942146,-9.03811 V 96.532575 l 0.634994,-0.02117 -0.634994,-0.402164 h -6.371122 v 12.911569 c 0,2.01082 -0.402162,3.49248 -1.079492,4.4238 -0.698495,0.93133 -1.820318,1.37583 -3.344307,1.37583 -1.566323,0 -2.709315,-0.4445 -3.386643,-1.37583 -0.698495,-0.93132 -1.037159,-2.41298 -1.037159,-4.4238 V 96.596072 l 0.613828,-0.08467 -0.613828,-0.402164 z m 25.65381,0 V 120.6624 l 0.634994,0.40216 -0.02117,-0.40216 H 72.87715 V 96.532575 l 0.613831,-0.02117 -0.613831,-0.402164 z m -40.4492,5.101126 c 1.75682,0 3.280809,0.635 4.466133,1.86266 1.164159,1.22765 1.756821,2.75164 1.756821,4.5508 0,1.88382 -0.592662,3.40781 -1.756821,4.63546 -1.185324,1.22766 -2.709313,1.79915 -4.466133,1.79915 -1.82032,0 -3.344308,-0.57149 -4.529633,-1.79915 -1.227657,-1.22765 -1.82032,-2.75164 -1.82032,-4.63546 0,-0.10584 0,-0.21167 0.02117,-0.3175 0.0635,-1.67216 0.656162,-3.09031 1.799153,-4.2333 1.185325,-1.22766 2.709313,-1.86266 4.529633,-1.86266 z m 73.003292,0.74083 c 1.777989,0 3.301979,0.635 4.529629,1.86265 1.16416,1.22766 1.79916,2.75165 1.79916,4.57197 0,1.86265 -0.635,3.38664 -1.79916,4.6143 -1.22765,1.22766 -2.75164,1.82032 -4.529629,1.82032 -1.82032,0 -3.280809,-0.59266 -4.466132,-1.82032 -1.185325,-1.22766 -1.756823,-2.75165 -1.756823,-4.6143 0,-1.82032 0.571498,-3.34431 1.756823,-4.57197 1.185323,-1.22765 2.645812,-1.86265 4.466132,-1.86265 z m 60.472719,0 c 1.22765,0 2.37065,0.381 3.45014,1.07949 1.07949,0.67733 1.86265,1.60866 2.34948,2.75165 h -11.57808 c 0.48683,-1.18532 1.26999,-2.11665 2.24365,-2.81515 0.99483,-0.67732 2.15899,-1.01599 3.53481,-1.01599 z m 47.34948,0 c 1.75682,0 3.28081,0.635 4.46613,1.86265 1.16416,1.22766 1.75682,2.75165 1.75682,4.57197 0,1.86265 -0.59266,3.38664 -1.75682,4.6143 -1.18532,1.22766 -2.70931,1.82032 -4.46613,1.82032 -1.82032,0 -3.34431,-0.59266 -4.52963,-1.82032 -1.22766,-1.22766 -1.82032,-2.75165 -1.82032,-4.6143 0,-1.82032 0.59266,-3.34431 1.82032,-4.57197 1.18532,-1.22765 2.70931,-1.86265 4.52963,-1.86265 z"
         id="path1591" />
    </g>
  </g>
</svg>
