<?xml version="1.0" encoding="UTF-8" standalone="no"?>
<!-- Created with Inkscape (http://www.inkscape.org/) -->

<svg
   xmlns:dc="http://purl.org/dc/elements/1.1/"
   xmlns:cc="http://creativecommons.org/ns#"
   xmlns:rdf="http://www.w3.org/1999/02/22-rdf-syntax-ns#"
   xmlns:svg="http://www.w3.org/2000/svg"
   xmlns="http://www.w3.org/2000/svg"
   xmlns:sodipodi="http://sodipodi.sourceforge.net/DTD/sodipodi-0.dtd"
   xmlns:inkscape="http://www.inkscape.org/namespaces/inkscape"
   width="180.14326mm"
   height="114.32584mm"
   viewBox="0 0 180.14326 114.32584"
   version="1.1"
   id="svg12581"
   inkscape:version="0.92.4 (5da689c313, 2019-01-14)"
   sodipodi:docname="logo1.svg">
  <defs
     id="defs12575" />
  <sodipodi:namedview
     id="base"
     pagecolor="#ffffff"
     bordercolor="#666666"
     borderopacity="1.0"
     inkscape:pageopacity="0.0"
     inkscape:pageshadow="2"
     inkscape:zoom="0.35"
     inkscape:cx="-229.57178"
     inkscape:cy="272.27483"
     inkscape:document-units="mm"
     inkscape:current-layer="layer1"
     showgrid="false" />
  <metadata
     id="metadata12578">
    <rdf:RDF>
      <cc:Work
         rdf:about="">
        <dc:format>image/svg+xml</dc:format>
        <dc:type
           rdf:resource="http://purl.org/dc/dcmitype/StillImage" />
        <dc:title></dc:title>
      </cc:Work>
    </rdf:RDF>
  </metadata>
  <g
     inkscape:label="Layer 1"
     inkscape:groupmode="layer"
     id="layer1"
     transform="translate(-13.871819,-106.54688)">
    <g
       transform="matrix(0.11581606,0,0,0.11581606,-150.01358,-340.09504)"
       id="g11639">
      <g
         transform="matrix(-0.34097968,0,0,0.34097968,2344.487,3069.0886)"
         id="g11613">
        <path
           inkscape:connector-curvature="0"
           id="path11599"
           d="m 1500.6688,2309.1932 c -0.3653,0.4027 -0.7313,0.8056 -1.0971,1.2087 l -1.2996,1.3637 c -3.8951,3.2374 -7.2272,6.4306 -9.7576,9.0238 -0.096,0.066 -0.1972,0.1318 -0.2852,0.1969 -23.5337,21.1266 -36.7164,38.9871 -44.4397,52.8298 -7.2676,11.161 -11.9198,27.0225 -14.4523,37.7507 -0.073,0.1223 -0.138,0.2386 -0.215,0.3638 -2.5167,10.4385 -4.7721,20.6616 -6.674,30.673 -0.3821,3.7017 -0.4801,6.8461 -0.4801,9.123 3.415,35.5804 28.5669,64.0787 56.2648,84.9178 16.0364,12.0708 32.1296,20.9467 43.9126,26.7214 l -2.3958,-34.9256 0.108,0.1825 c -1.349,-20.3553 -3.4344,-50.7238 -6.335,-89.1719 l -0.7544,-12.7516 c 0,0 0.069,-14.3153 -10.2955,-104.3368 -0.02,-0.1115 -0.077,-0.4014 -0.1091,-0.569 -0.3125,-2.7555 -0.8354,-6.3894 -1.3208,-8.4609 -0.1433,-1.2809 -0.2736,-2.6616 -0.3742,-4.1393 z"
           style="font-style:normal;font-variant:normal;font-weight:normal;font-stretch:normal;font-size:2.82222223px;line-height:1em;font-family:NordiquePro-Bold;-inkscape-font-specification:'NordiquePro-Bold, Normal';font-variant-ligatures:normal;font-variant-caps:normal;font-variant-numeric:normal;font-feature-settings:normal;text-align:start;letter-spacing:0px;word-spacing:0.0079375px;writing-mode:lr-tb;text-anchor:start;opacity:1;fill:#008000;fill-opacity:1;stroke:none;stroke-width:0.35334775;stroke-miterlimit:4;stroke-dasharray:none;stroke-opacity:1" />
        <path
           inkscape:connector-curvature="0"
           id="path11601"
           d="m 1521.9934,2317.9444 c 0.1292,0.6398 0.2351,1.1994 0.2351,1.1994 l 0.168,0.7555 0.08,0.7555 c 5.1306,44.7649 7.7521,71.3982 9.094,86.9513 l 1.2077,12.7398 0.5906,4.9429 0.067,0.3891 c 0,0 0,0.01 0,0.01 0.5484,2.4482 2.2807,26.4298 2.8928,35.0619 8.2409,-4.848 18.0915,-11.2671 27.5384,-19.0701 10.9388,-9.045 20.9601,-19.7622 26.7943,-30.5294 5.457,-9.9881 7.561,-19.156 5.3304,-29.7352 -0.4094,-3.1458 -2.3339,-7.992 -8.9757,-13.7563 -0.5519,-0.5779 -1.096,-1.1009 -1.6196,-1.5399 v 0 c -2.4747,-2.2415 -9.7917,-8.8757 -18.7564,-16.6279 -5.4455,-4.6903 -11.1654,-9.5317 -15.8327,-13.2132 -2.7224,-2.1538 -5.5117,-3.9357 -7.0703,-4.9748 -0.3564,-0.2714 -0.7622,-0.5708 -1.2563,-0.9189 0,-0.013 -0.01,-0.022 0,-0.032 -0.027,-0.01 -0.06,-0.021 -0.087,-0.031 -2.9139,-2.0448 -8.4096,-5.5001 -18.4692,-11.2169 -0.069,-0.063 -0.1361,-0.1303 -0.2051,-0.1933 -0.5133,-0.2897 -1.0085,-0.5696 -1.7255,-0.9658 z"
           style="font-style:normal;font-variant:normal;font-weight:normal;font-stretch:normal;font-size:2.82222223px;line-height:1em;font-family:NordiquePro-Bold;-inkscape-font-specification:'NordiquePro-Bold, Normal';font-variant-ligatures:normal;font-variant-caps:normal;font-variant-numeric:normal;font-feature-settings:normal;text-align:start;letter-spacing:0px;word-spacing:0.0079375px;writing-mode:lr-tb;text-anchor:start;opacity:1;fill:#008000;fill-opacity:1;stroke:none;stroke-width:0.35334775;stroke-miterlimit:4;stroke-dasharray:none;stroke-opacity:1" />
        <path
           inkscape:connector-curvature="0"
           id="path11603"
           d="m 1616.33,2407.2926 -0.085,0.171 c -1.3039,3.3032 -2.8127,6.454 -4.4153,9.4811 -8.6669,15.9669 -21.2691,28.802 -33.9901,39.317 -14.739,12.1717 -29.8906,21.2101 -40.149,26.7333 0.3362,5.8384 0.548,14.5736 0.6,16.8315 0.6459,13.1501 0.8914,27.4893 0.8914,27.4893 l 0.08,6.6569 c 0.4561,31.689 0.7462,59.8504 0.9147,86.3653 11.7622,-6.2409 27.5034,-15.4451 43.2903,-27.2965 31.4296,-23.5972 60.5361,-56.7212 61.9094,-93.2264 0,0 -0.4945,-9.7405 -2.2221,-17.063 -0.02,-0.086 -0.048,-0.2025 -0.069,-0.2915 -0.1048,-0.432 -0.2133,-0.8565 -0.3271,-1.2676 -0.055,-0.197 -0.083,-0.3645 -0.095,-0.5142 -2.9702,-12.3946 -11.0437,-42.2406 -26.3328,-73.3862 z"
           style="font-style:normal;font-variant:normal;font-weight:normal;font-stretch:normal;font-size:2.82222223px;line-height:1em;font-family:NordiquePro-Bold;-inkscape-font-specification:'NordiquePro-Bold, Normal';font-variant-ligatures:normal;font-variant-caps:normal;font-variant-numeric:normal;font-feature-settings:normal;text-align:start;letter-spacing:0px;word-spacing:0.0079375px;writing-mode:lr-tb;text-anchor:start;opacity:1;fill:#008000;fill-opacity:1;stroke:none;stroke-width:0.35334775;stroke-miterlimit:4;stroke-dasharray:none;stroke-opacity:1" />
        <path
           inkscape:connector-curvature="0"
           id="path11605"
           d="m 1412.9345,2496.9498 c -2.158,25.3298 -2.6184,48.1545 -2.158,68.0082 0.9646,10.7233 3.1317,19.5363 5.7051,26.6382 27.0022,53.3637 79.2212,85.5121 106.1816,99.2522 0.2346,-30.7181 0.235,-66.2472 -0.2237,-106.7468 -12.2088,-5.3281 -36.008,-16.8242 -59.9948,-34.8537 -17.7684,-13.3645 -36.136,-30.7888 -49.4291,-52.2981 z"
           style="font-style:normal;font-variant:normal;font-weight:normal;font-stretch:normal;font-size:2.82222223px;line-height:1em;font-family:NordiquePro-Bold;-inkscape-font-specification:'NordiquePro-Bold, Normal';font-variant-ligatures:normal;font-variant-caps:normal;font-variant-numeric:normal;font-feature-settings:normal;text-align:start;letter-spacing:0px;word-spacing:0.0079375px;writing-mode:lr-tb;text-anchor:start;opacity:1;fill:#008000;fill-opacity:1;stroke:none;stroke-width:0.35334775;stroke-miterlimit:4;stroke-dasharray:none;stroke-opacity:1" />
        <path
           inkscape:connector-curvature="0"
           id="path11607"
           d="m 1655.1134,2546.8793 c -14.5332,24.0739 -35.7199,43.5809 -55.8766,58.7107 -23.4309,17.5908 -46.3079,29.5935 -58.7773,35.5948 0,39.7557 -0.2293,72.9652 -0.9147,101.1494 10.0006,-6.5892 22.3854,-15.2382 35.5182,-25.8038 30.2537,-24.316 62.7561,-58.2993 74.2875,-91.6956 3.4777,-15.7953 7.5947,-42.4841 5.7655,-77.9555 z"
           style="font-style:normal;font-variant:normal;font-weight:normal;font-stretch:normal;font-size:2.82222223px;line-height:1em;font-family:NordiquePro-Bold;-inkscape-font-specification:'NordiquePro-Bold, Normal';font-variant-ligatures:normal;font-variant-caps:normal;font-variant-numeric:normal;font-feature-settings:normal;text-align:start;letter-spacing:0px;word-spacing:0.0079375px;writing-mode:lr-tb;text-anchor:start;opacity:1;fill:#008000;fill-opacity:1;stroke:none;stroke-width:0.35334775;stroke-miterlimit:4;stroke-dasharray:none;stroke-opacity:1" />
        <path
           inkscape:connector-curvature="0"
           id="path11609"
           d="m 1419.3774,2637.8341 v 0 c 22.6531,87.149 52.053,140.4334 75.3236,171.7542 8.9413,12.0507 16.7662,20.6746 23.0125,26.8275 0.2266,-2.6983 0.4612,-5.093 0.6853,-8.145 1.6932,-25.0169 3.2931,-61.7791 3.9811,-114.1679 -18.942,-8.2029 -66.0738,-31.7678 -102.9487,-76.259 z"
           style="font-style:normal;font-variant:normal;font-weight:normal;font-stretch:normal;font-size:2.82222223px;line-height:1em;font-family:NordiquePro-Bold;-inkscape-font-specification:'NordiquePro-Bold, Normal';font-variant-ligatures:normal;font-variant-caps:normal;font-variant-numeric:normal;font-feature-settings:normal;text-align:start;letter-spacing:0px;word-spacing:0.0079375px;writing-mode:lr-tb;text-anchor:start;opacity:1;fill:#008000;fill-opacity:1;stroke:none;stroke-width:0.35334775;stroke-miterlimit:4;stroke-dasharray:none;stroke-opacity:1" />
        <path
           inkscape:connector-curvature="0"
           id="path11611"
           d="m 1624.0641,2707.0817 c -9.1138,8.7204 -18.4194,16.7182 -27.4309,23.9664 -21.8134,17.5226 -41.8902,30.3575 -52.8495,36.9896 -0.8251,22.107 -1.7394,40.459 -2.6541,54.8822 0,0.046 -0.01,0.068 -0.01,0.1101 2.0495,-1.1112 7.1995,-3.9944 10.9704,-6.889 9.796,-9.0259 43.3295,-43.0088 71.9744,-109.0593 z"
           style="font-style:normal;font-variant:normal;font-weight:normal;font-stretch:normal;font-size:2.82222223px;line-height:1em;font-family:NordiquePro-Bold;-inkscape-font-specification:'NordiquePro-Bold, Normal';font-variant-ligatures:normal;font-variant-caps:normal;font-variant-numeric:normal;font-feature-settings:normal;text-align:start;letter-spacing:0px;word-spacing:0.0079375px;writing-mode:lr-tb;text-anchor:start;opacity:1;fill:#008000;fill-opacity:1;stroke:none;stroke-width:0.35334775;stroke-miterlimit:4;stroke-dasharray:none;stroke-opacity:1" />
      </g>
      <path
         inkscape:connector-curvature="0"
         id="path11615"
         d="m 2210.9086,3980.5034 v 248.0846 h 44.1809 v -110.2357 h 106.1977 v 110.2357 h 44.1808 v -248.0846 h -44.1808 v 93.6687 h -106.1977 v -93.6687 z"
         style="font-style:normal;font-variant:normal;font-weight:normal;font-stretch:normal;font-size:35.27777481px;line-height:1em;font-family:NordiquePro-Bold;-inkscape-font-specification:'NordiquePro-Bold, Normal';font-variant-ligatures:normal;font-variant-caps:normal;font-variant-numeric:normal;font-feature-settings:normal;text-align:start;letter-spacing:0px;word-spacing:0.0079375px;writing-mode:lr-tb;text-anchor:start;fill:#000000;fill-opacity:1;stroke-width:13.70390892" />
      <path
         inkscape:connector-curvature="0"
         d="m 1727.7513,4056.8552 h 44.1795 v 89.3781 c 0,27.8662 -6.7965,48.5962 -20.3903,62.5303 -13.5937,13.9335 -31.9452,20.73 -54.3743,20.73 -22.7695,0 -40.7806,-6.7965 -54.3744,-20.73 -13.5937,-13.9341 -20.3902,-34.6641 -20.3902,-62.5303 v -89.3781 h 44.1788 v 89.3781 c 0,13.9335 2.3765,24.1289 7.1369,30.5851 4.7598,6.4582 12.574,9.5154 23.4489,9.5154 10.5352,0 18.3515,-3.0545 23.1092,-9.5154 4.7597,-6.4582 7.4759,-16.6516 7.4759,-30.5851 z"
         style="font-style:normal;font-variant:normal;font-weight:normal;font-stretch:normal;font-size:35.27777481px;line-height:1em;font-family:NordiquePro-Bold;-inkscape-font-specification:'NordiquePro-Bold, Normal';font-variant-ligatures:normal;font-variant-caps:normal;font-variant-numeric:normal;font-feature-settings:normal;text-align:start;letter-spacing:0px;word-spacing:0.0079375px;writing-mode:lr-tb;text-anchor:start;fill:#008000;fill-opacity:1;stroke-width:13.70390892"
         id="path11617" />
      <path
         inkscape:connector-curvature="0"
         style="font-style:normal;font-variant:normal;font-weight:normal;font-stretch:normal;font-size:35.27777481px;line-height:1em;font-family:NordiquePro-Bold;-inkscape-font-specification:'NordiquePro-Bold, Normal';font-variant-ligatures:normal;font-variant-caps:normal;font-variant-numeric:normal;font-feature-settings:normal;text-align:start;letter-spacing:0px;word-spacing:0.0079375px;writing-mode:lr-tb;text-anchor:start;fill:#008000;fill-opacity:1;stroke-width:13.70390892"
         d="m 1803.198,4058.6168 v 169.9202 h 44.1796 v -169.9202 z"
         id="path11619" />
      <path
         inkscape:connector-curvature="0"
         d="m 1892.4808,4228.367 h 44.1796 v -237.8877 h -44.1796 z"
         style="font-style:normal;font-variant:normal;font-weight:normal;font-stretch:normal;font-size:35.27777481px;line-height:1em;font-family:NordiquePro-Bold;-inkscape-font-specification:'NordiquePro-Bold, Normal';font-variant-ligatures:normal;font-variant-caps:normal;font-variant-numeric:normal;font-feature-settings:normal;text-align:start;letter-spacing:0px;word-spacing:0.0079375px;writing-mode:lr-tb;text-anchor:start;fill:#000000;fill-opacity:1;stroke-width:13.70390892"
         id="path11621" />
      <path
         inkscape:connector-curvature="0"
         d="m 2126.879,4186.9145 c 7.8163,-13.5937 11.8947,-28.2066 11.8947,-44.1795 v -152.9283 h -44.5193 v 78.1636 c -12.2343,-8.4956 -26.5074,-12.9143 -42.8194,-12.9143 -15.9729,0 -30.5858,4.0749 -43.8398,11.8946 -13.5938,7.8163 -24.129,18.3514 -31.9446,31.9452 -8.1567,13.5931 -11.8946,28.2066 -11.8946,43.8392 0,15.9729 3.7393,30.5858 11.8946,44.1795 7.8156,13.5931 18.3508,24.1283 31.9446,31.9446 13.254,7.8169 27.8669,11.5549 43.8398,11.5549 15.6326,0 30.2454,-3.7393 43.8392,-11.5549 13.2534,-7.8163 23.7885,-18.3515 31.6048,-31.9446 z m -106.7098,-75.7844 c 8.1566,-8.4963 18.3514,-12.9137 30.9254,-12.9137 12.2343,0 22.7695,4.4174 31.2652,12.9137 8.1567,8.4957 12.574,19.0302 12.574,31.6049 0,12.9137 -4.4173,23.4495 -12.574,31.9445 -8.4957,8.4964 -19.0309,12.5747 -31.2652,12.5747 -12.574,0 -22.7688,-4.075 -30.9254,-12.5747 -8.156,-8.495 -12.2337,-19.0308 -12.2337,-31.9445 0,-12.5747 4.075,-23.1092 12.2337,-31.6049 z"
         style="font-style:normal;font-variant:normal;font-weight:normal;font-stretch:normal;font-size:35.27777481px;line-height:1em;font-family:NordiquePro-Bold;-inkscape-font-specification:'NordiquePro-Bold, Normal';font-variant-ligatures:normal;font-variant-caps:normal;font-variant-numeric:normal;font-feature-settings:normal;text-align:start;letter-spacing:0px;word-spacing:0.0079375px;writing-mode:lr-tb;text-anchor:start;fill:#000000;fill-opacity:1;stroke-width:13.70390892"
         id="path11623" />
      <path
         d="m 2453.5749,4098.6555 c -7.4773,13.5938 -11.2146,27.8662 -11.2146,43.4995 0,15.9723 3.7393,30.5858 11.5542,43.8391 7.8163,13.5938 18.3515,24.129 31.9453,31.9453 13.2534,7.8163 27.8662,11.5542 44.1788,11.5542 17.6714,0 33.6444,-4.7597 48.2572,-14.6135 14.2732,-9.5147 25.148,-22.4291 32.2849,-38.0617 l -52.6752,-0.3357 c -3.7393,3.0613 -7.8169,5.4378 -12.2343,7.1363 -4.4173,2.0408 -10.1955,2.7189 -16.992,2.7189 -10.1955,0 -18.6912,-2.3765 -25.4884,-7.1369 -6.7965,-4.7598 -11.2145,-11.5543 -13.2534,-20.0506 h 126.0804 c 1.0205,-6.7966 1.3561,-13.5931 1.3561,-21.0697 -0.6847,-16.9927 -5.1021,-31.9452 -13.9334,-44.8589 -8.8361,-12.5741 -19.7109,-22.0901 -32.9643,-28.886 -13.5938,-6.7972 -27.5272,-10.1955 -41.8004,-10.1955 -15.9729,0 -30.5857,4.075 -43.8391,12.2336 -13.2541,8.1567 -23.7893,18.6919 -31.2659,32.285 z m 116.5649,25.148 h -80.2024 c 3.397,-8.156 8.8361,-14.6135 15.6326,-19.3712 6.7972,-4.7597 14.9532,-7.1362 24.4686,-7.1362 8.4957,0 16.3127,2.7188 23.7886,7.4766 7.4766,4.7597 12.9144,11.2145 16.3126,19.0308 z"
         style="font-style:normal;font-variant:normal;font-weight:normal;font-stretch:normal;font-size:35.27777481px;line-height:1em;font-family:NordiquePro-Bold;-inkscape-font-specification:'NordiquePro-Bold, Normal';font-variant-ligatures:normal;font-variant-caps:normal;font-variant-numeric:normal;font-feature-settings:normal;text-align:start;letter-spacing:0px;word-spacing:0.0079375px;writing-mode:lr-tb;text-anchor:start;fill:#000000;fill-opacity:1;stroke-width:13.70390892"
         id="path11625"
         inkscape:connector-curvature="0" />
      <path
         d="m 2646.0686,4229.0371 h 44.1788 v -237.8877 h -44.1788 z"
         style="font-style:normal;font-variant:normal;font-weight:normal;font-stretch:normal;font-size:35.27777481px;line-height:1em;font-family:NordiquePro-Bold;-inkscape-font-specification:'NordiquePro-Bold, Normal';font-variant-ligatures:normal;font-variant-caps:normal;font-variant-numeric:normal;font-feature-settings:normal;text-align:start;letter-spacing:0px;word-spacing:0.0079375px;writing-mode:lr-tb;text-anchor:start;fill:#000000;fill-opacity:1;stroke-width:13.70390892"
         id="path11627"
         inkscape:connector-curvature="0" />
      <path
         d="m 2727.3344,4229.0371 h 44.1795 v -237.8877 h -44.1795 z"
         style="font-style:normal;font-variant:normal;font-weight:normal;font-stretch:normal;font-size:35.27777481px;line-height:1em;font-family:NordiquePro-Bold;-inkscape-font-specification:'NordiquePro-Bold, Normal';font-variant-ligatures:normal;font-variant-caps:normal;font-variant-numeric:normal;font-feature-settings:normal;text-align:start;letter-spacing:0px;word-spacing:0.0079375px;writing-mode:lr-tb;text-anchor:start;fill:#000000;fill-opacity:1;stroke-width:13.70390892"
         id="path11629"
         inkscape:connector-curvature="0" />
      <path
         d="m 2926.6347,4065.9306 c -13.5931,-7.8156 -28.2066,-11.8939 -43.8392,-11.8939 -15.9722,0 -30.5857,4.0749 -44.1795,11.8939 -13.5931,7.8163 -24.1283,18.3515 -31.9445,31.9452 -7.8163,13.5938 -11.5543,28.2066 -11.5543,43.8392 0,15.973 3.7393,30.5858 11.5543,44.1795 7.8162,13.5938 18.3514,24.129 31.9445,31.9453 13.5938,7.8163 28.2073,11.5542 44.1795,11.5542 15.6326,0 30.2461,-3.7393 43.8392,-11.5542 13.5938,-7.8163 24.1289,-18.3515 31.9452,-31.9453 7.8163,-13.5937 11.8947,-28.2065 11.8947,-44.1795 0,-15.6326 -4.075,-30.2454 -11.8947,-43.8392 -7.8163,-13.5937 -18.3514,-24.1289 -31.9452,-31.9452 z m -74.7646,44.1796 c 8.156,-8.4957 18.6911,-12.9137 31.2658,-12.9137 12.2343,0 22.7688,4.4173 30.9248,12.9137 8.1567,8.4963 12.2343,19.0308 12.2343,31.6048 0,12.9137 -4.075,23.4496 -12.2343,31.9452 -8.156,8.4957 -18.6905,12.574 -30.9248,12.574 -12.5747,0 -23.1098,-4.0749 -31.2658,-12.574 -8.4964,-8.4956 -12.574,-19.0315 -12.574,-31.9452 0,-12.574 4.0749,-23.1085 12.574,-31.6048 z"
         style="font-style:normal;font-variant:normal;font-weight:normal;font-stretch:normal;font-size:35.27777481px;line-height:1em;font-family:NordiquePro-Bold;-inkscape-font-specification:'NordiquePro-Bold, Normal';font-variant-ligatures:normal;font-variant-caps:normal;font-variant-numeric:normal;font-feature-settings:normal;text-align:start;letter-spacing:0px;word-spacing:0.0079375px;writing-mode:lr-tb;text-anchor:start;fill:#000000;fill-opacity:1;stroke-width:13.70390892"
         id="path11631"
         inkscape:connector-curvature="0" />
      <g
         style="font-style:normal;font-variant:normal;font-weight:normal;font-stretch:normal;font-size:35.27777481px;line-height:1em;font-family:NordiquePro-Bold;-inkscape-font-specification:'NordiquePro-Bold, Normal';font-variant-ligatures:normal;font-variant-caps:normal;font-variant-numeric:normal;font-feature-settings:normal;text-align:start;letter-spacing:0px;word-spacing:0.0079375px;writing-mode:lr-tb;text-anchor:start;fill:#000000;fill-opacity:1;stroke-width:0.31923482"
         id="g11635"
         transform="matrix(9.633259,0,0,9.633259,1414.4417,3284.6924)">
        <path
           style="fill:#000000;fill-opacity:1;stroke-width:0.31923482"
           d="M 0.06304166,72.28233 V 97.999624 H 9.2960738 c 2.8823972,0 5.1044742,-0.625699 6.6662562,-1.877405 1.561756,-1.251714 2.342489,-3.02596 2.342489,-5.322672 0,-1.745503 -0.476224,-3.198543 -1.429385,-4.358391 -0.941652,-1.171327 -2.268009,-1.940398 -3.979069,-2.307869 1.423961,-0.229671 2.503091,-0.809778 3.23805,-1.739945 0.734933,-0.930176 1.102757,-2.18156 1.102757,-3.75481 0,-2.032597 -0.717894,-3.600138 -2.153338,-4.702556 -1.43547,-1.102426 -3.47972,-1.653646 -6.1324593,-1.653646 z m 4.48963514,3.427699 h 4.1966356 c 1.3848556,0 2.4139786,0.262003 3.0876876,0.785998 0.683048,0.523994 1.024731,1.314603 1.024731,2.371949 0,1.066701 -0.341683,1.861906 -1.024731,2.3859 -0.673709,0.514638 -1.702832,0.772046 -3.0876876,0.772046 H 4.5526768 Z m 0.015002,10.26759 H 9.483637 c 1.648883,0 2.86811,0.338719 3.65715,1.016475 0.799148,0.667643 1.198377,1.7097 1.198377,3.125908 0,1.406096 -0.399229,2.453021 -1.198377,3.140893 -0.78904,0.677759 -2.008267,1.016476 -3.65715,1.016476 H 4.5676787 Z"
           id="path11633"
           inkscape:connector-curvature="0" />
      </g>
      <path
         style="opacity:1;fill:#000000;fill-opacity:1;stroke:none;stroke-width:66.82689667;stroke-miterlimit:4;stroke-dasharray:none;stroke-opacity:1"
         d="m 1443.1697,4299.9408 c -0.3467,0 -0.6213,0.115 -0.9855,0.4841 -0.3611,0.3828 -0.7462,1.0453 -1.0865,1.9347 -1.3618,3.5573 -1.9325,10.6179 -2.0048,18.2867 -0.1223,15.3384 1.6356,33.3159 1.6356,33.3159 v 0.079 0.072 c 0,19.1818 12.614,34.4206 25.3423,44.8875 12.7281,10.4677 25.4577,16.0839 25.4577,16.0839 35.5137,17.4191 112.4419,31.507 180.3337,41.133 67.8904,9.6266 126.8375,14.8565 126.8375,14.8565 h 0.072 0.086 c 5.1951,1.3451 14.7172,1.8516 27.2315,1.6283 12.5142,-0.2311 28.0528,-1.1695 45.495,-2.6036 34.8852,-2.8652 77.3653,-7.7202 118.4975,-12.9349 82.2282,-10.4271 158.996,-22.2364 159.0683,-22.2364 32.7047,-7.6651 130.4844,-15.9171 220.2918,-22.2956 89.8089,-6.3785 171.4959,-10.8534 171.4959,-10.8534 154.5126,-6.7628 305.5312,13.8487 305.6034,13.8544 8.1956,0.8526 13.2738,2.2 16.0429,4.2186 1.3878,1.0092 2.2128,2.3089 2.2995,3.714 0.086,1.403 -0.5202,2.7677 -1.5381,4.1043 -2.0409,2.6565 -5.8352,5.3844 -10.7783,8.2172 -4.9422,2.8327 -11.0413,5.7442 -17.64,8.6058 -26.348,11.417 -60.6421,21.8975 -60.7721,21.9706 l -0.115,0.079 c -28.4221,12.2889 -95.2316,22.7579 -155.1707,30.2699 -60.0012,7.5237 -112.9837,12.0064 -112.9837,12.0064 h 0.1589 c -11.898,3.0813 -33.8822,5.5985 -60.3054,7.6913 -26.4229,2.0938 -57.2398,3.7395 -86.5809,5.0067 -58.6833,2.5344 -111.4903,3.5422 -111.4903,3.5422 h -0.072 c -143.1664,-6.7515 -251.5328,11.8242 -251.5328,11.8242 -58.5187,12.4841 -90.4303,26.5546 -107.6485,37.4499 -8.6123,5.4459 -13.5524,10.0963 -16.326,13.3495 -2.7706,3.2518 -3.3412,4.995 -3.3412,4.995 v 0.079 0.079 c -23.4257,48.871 -22.3644,73.99 -15.7778,86.7529 6.5874,12.7649 18.6972,13.6001 18.6972,13.6001 h 0.1006 0.1006 c 50.3008,14.1775 75.8736,17.2031 75.8736,17.2031 87.7158,9.2979 124.0385,17.2095 139.0873,23.1712 3.7619,1.4876 6.2022,2.8559 7.8025,4.1462 1.6002,1.2902 2.3718,2.5444 2.6247,3.6968 0.2528,1.1523 0,2.1181 -0.1807,2.6954 -0.1007,0.2889 -0.1007,0.4912 -0.1007,0.4912 0,0 -0.1733,-0.2816 -0.1733,-0.2816 l -0.2384,0.39 0.5851,0.079 c -5.9674,51.0882 -5.1055,75.0622 -2.8219,86.0723 0.4263,2.0605 0.9081,3.5761 1.3921,4.8058 l 1.1206,1.5865 v 0 h 0.072 c 0,0 0.9434,1.9954 2.8673,3.756 1.924,1.7678 4.6874,3.2511 8.6615,2.3242 3.9749,-0.9211 9.2734,-4.4041 15.8745,-13.0092 6.6011,-8.6059 14.4816,-22.2956 23.6625,-43.4577 l 0.2094,-0.7688 c 11.3549,-48.9338 10.816,-76.062 7.4219,-90.7921 -1.7353,-7.5294 -4.188,-11.8417 -6.164,-14.2497 -0.9883,-1.2043 -1.8567,-1.9289 -2.4563,-2.3552 -0.5997,-0.4262 -0.8734,-0.5274 -0.8734,-0.5274 l -0.2818,-0.115 -0.1734,-0.2529 c -1.2853,-1.9311 -5.3158,-4.3889 -11.3158,-6.7766 -6.0001,-2.3854 -13.9629,-4.7999 -23.1691,-7.1797 -18.4124,-4.761 -41.8379,-9.3811 -64.8827,-13.4109 -46.0867,-8.0589 -90.6275,-13.7836 -90.6275,-13.7836 h -0.072 c -10.1526,-1.9767 -17.7536,-3.9302 -23.125,-5.8375 -5.3714,-1.9209 -8.5561,-3.7178 -9.8377,-5.9847 -0.6357,-1.1337 -0.6646,-2.4622 -0.093,-3.5842 0.5706,-1.122 1.6211,-2.0835 3.0465,-2.9952 2.8508,-1.8243 7.3084,-3.4925 13.1935,-5.1172 23.5382,-6.5454 69.8604,-12.2412 121.2789,-16.9646 102.8382,-9.4388 225.8916,-14.931 225.8916,-14.931 v 0.093 c 288.6994,-21.6151 439.5036,-49.9663 518.0515,-72.8912 39.3102,-11.4726 60.5186,-21.5977 71.8524,-28.7904 5.6662,-3.5957 8.863,-6.448 10.6251,-8.3784 0.8807,-0.9637 1.4102,-1.6992 1.7064,-2.1695 0.2673,-0.4695 0.3396,-0.6212 0.3396,-0.6212 l 0.072,-0.115 0.072,-0.093 c 18.5164,-26.9329 25.3436,-47.7931 25.2713,-63.8662 -0.072,-16.0724 -6.9478,-27.428 -16.1691,-35.5692 -18.4436,-16.2842 -46.2682,-19.377 -46.2682,-19.377 -316.045,-41.8691 -743.1404,21.6324 -743.1404,21.6324 -276.4959,41.2325 -439.8201,26.3826 -534.9521,0.3107 -47.5648,-13.0345 -78.0784,-28.8751 -97.1389,-41.9073 -9.5291,-6.5144 -16.1994,-12.3352 -20.6974,-16.7372 -2.249,-2.202 -3.9592,-4.0428 -5.2083,-5.4459 -1.249,-1.4029 -2.0792,-2.389 -2.4123,-2.7221 l -0.8321,-1.265 v 0 c -1.8322,-2.4874 -3.2561,-3.319 -3.9497,-3.3204 z"
         id="path11637"
         inkscape:connector-curvature="0" />
    </g>
  </g>
</svg>
