<?xml version="1.0" encoding="UTF-8" standalone="no"?>
<!-- Created with Inkscape (http://www.inkscape.org/) -->

<svg
   xmlns:dc="http://purl.org/dc/elements/1.1/"
   xmlns:cc="http://creativecommons.org/ns#"
   xmlns:rdf="http://www.w3.org/1999/02/22-rdf-syntax-ns#"
   xmlns:svg="http://www.w3.org/2000/svg"
   xmlns="http://www.w3.org/2000/svg"
   xmlns:xlink="http://www.w3.org/1999/xlink"
   xmlns:sodipodi="http://sodipodi.sourceforge.net/DTD/sodipodi-0.dtd"
   xmlns:inkscape="http://www.inkscape.org/namespaces/inkscape"
   width="175.92125mm"
   height="88.371246mm"
   viewBox="0 0 175.92125 88.371246"
   version="1.1"
   id="svg1063"
   inkscape:version="0.92.4 (5da689c313, 2019-01-14)"
   sodipodi:docname="logo35.svg">
  <defs
     id="defs1057">
    <radialGradient
       inkscape:collect="always"
       xlink:href="#linearGradient2304"
       id="radialGradient3790"
       gradientUnits="userSpaceOnUse"
       gradientTransform="matrix(1,0,0,0.17393734,0,196.64992)"
       cx="156.43881"
       cy="238.0569"
       fx="156.43881"
       fy="238.0569"
       r="103.38994" />
    <linearGradient
       id="linearGradient2304"
       inkscape:collect="always">
      <stop
         id="stop2298"
         offset="0"
         style="stop-color:#0683b5;stop-opacity:0.01176471" />
      <stop
         style="stop-color:#046b95;stop-opacity:0.62745098;"
         offset="0.69686776"
         id="stop2300" />
      <stop
         id="stop2302"
         offset="1"
         style="stop-color:#0573a0;stop-opacity:1" />
    </linearGradient>
    <radialGradient
       inkscape:collect="always"
       xlink:href="#linearGradient2304"
       id="radialGradient3772"
       gradientUnits="userSpaceOnUse"
       gradientTransform="matrix(1,0,0,0.17393734,0,196.64992)"
       cx="156.43881"
       cy="238.0569"
       fx="156.43881"
       fy="238.0569"
       r="103.38994" />
    <radialGradient
       inkscape:collect="always"
       xlink:href="#linearGradient2304"
       id="radialGradient3764"
       gradientUnits="userSpaceOnUse"
       gradientTransform="matrix(1,0,0,0.17393734,0,196.64992)"
       cx="156.43881"
       cy="238.0569"
       fx="156.43881"
       fy="238.0569"
       r="103.38994" />
    <radialGradient
       inkscape:collect="always"
       xlink:href="#linearGradient2304"
       id="radialGradient3762"
       gradientUnits="userSpaceOnUse"
       gradientTransform="matrix(1,0,0,0.17393734,0,196.64992)"
       cx="156.43881"
       cy="238.0569"
       fx="156.43881"
       fy="238.0569"
       r="103.38994" />
    <radialGradient
       inkscape:collect="always"
       xlink:href="#linearGradient2304"
       id="radialGradient3758"
       gradientUnits="userSpaceOnUse"
       gradientTransform="matrix(0.27938717,0,0,0.26328285,76.671432,-98.62406)"
       cx="331.12781"
       cy="184.18874"
       fx="331.12781"
       fy="184.18874"
       r="32.428165" />
    <radialGradient
       inkscape:collect="always"
       xlink:href="#linearGradient9497"
       id="radialGradient3760"
       gradientUnits="userSpaceOnUse"
       gradientTransform="matrix(-0.21377956,0.09161983,-0.09903994,-0.23109408,239.73696,-38.120512)"
       cx="226.93288"
       cy="174.28333"
       fx="226.93288"
       fy="174.28333"
       r="23.961483" />
    <linearGradient
       inkscape:collect="always"
       id="linearGradient9497">
      <stop
         style="stop-color:#ffffff;stop-opacity:0.78995436"
         offset="0"
         id="stop9493" />
      <stop
         style="stop-color:#ffffff;stop-opacity:0;"
         offset="1"
         id="stop9495" />
    </linearGradient>
    <radialGradient
       inkscape:collect="always"
       xlink:href="#linearGradient2304"
       id="radialGradient3770"
       gradientUnits="userSpaceOnUse"
       gradientTransform="matrix(1,0,0,0.17393734,0,196.64992)"
       cx="156.43881"
       cy="238.0569"
       fx="156.43881"
       fy="238.0569"
       r="103.38994" />
    <radialGradient
       inkscape:collect="always"
       xlink:href="#linearGradient1011"
       id="radialGradient3766"
       gradientUnits="userSpaceOnUse"
       gradientTransform="matrix(0.38597158,0,0,0.38597482,210.4184,67.80795)"
       cx="487.4256"
       cy="155.99599"
       fx="487.4256"
       fy="155.99599"
       r="9.0600433" />
    <linearGradient
       inkscape:collect="always"
       id="linearGradient1011">
      <stop
         style="stop-color:#cda500;stop-opacity:0.00392157"
         offset="0"
         id="stop1007" />
      <stop
         id="stop1015"
         offset="0.95492786"
         style="stop-color:#d6ac00;stop-opacity:0.49803922" />
      <stop
         style="stop-color:#ffcf0d;stop-opacity:1"
         offset="1"
         id="stop1009" />
    </linearGradient>
    <radialGradient
       inkscape:collect="always"
       xlink:href="#linearGradient9497"
       id="radialGradient3768"
       gradientUnits="userSpaceOnUse"
       gradientTransform="matrix(-0.08251283,0.03752616,-0.0382266,-0.09465281,425.21153,133.80742)"
       cx="226.93288"
       cy="174.28333"
       fx="226.93288"
       fy="174.28333"
       r="23.961483" />
    <radialGradient
       inkscape:collect="always"
       xlink:href="#linearGradient2304"
       id="radialGradient3786"
       gradientUnits="userSpaceOnUse"
       gradientTransform="matrix(1,0,0,0.17393734,0,196.64992)"
       cx="156.43881"
       cy="238.0569"
       fx="156.43881"
       fy="238.0569"
       r="103.38994" />
    <radialGradient
       inkscape:collect="always"
       xlink:href="#linearGradient2304"
       id="radialGradient3778"
       gradientUnits="userSpaceOnUse"
       gradientTransform="matrix(1,0,0,0.17393734,0,196.64992)"
       cx="156.43881"
       cy="238.0569"
       fx="156.43881"
       fy="238.0569"
       r="103.38994" />
    <radialGradient
       inkscape:collect="always"
       xlink:href="#linearGradient1011"
       id="radialGradient3774"
       gradientUnits="userSpaceOnUse"
       gradientTransform="matrix(3.6504151,0,0,3.6504126,-1680.4727,-494.78661)"
       cx="487.4256"
       cy="155.99599"
       fx="487.4256"
       fy="155.99599"
       r="9.0600433" />
    <radialGradient
       inkscape:collect="always"
       xlink:href="#linearGradient9497"
       id="radialGradient3776"
       gradientUnits="userSpaceOnUse"
       gradientTransform="matrix(-0.78038412,0.35490911,-0.36153689,-0.89519262,355.24195,122.61094)"
       cx="226.93288"
       cy="174.28333"
       fx="226.93288"
       fy="174.28333"
       r="23.961483" />
    <radialGradient
       inkscape:collect="always"
       xlink:href="#linearGradient2304"
       id="radialGradient3784"
       gradientUnits="userSpaceOnUse"
       gradientTransform="matrix(1,0,0,0.17393734,0,196.64992)"
       cx="156.43881"
       cy="238.0569"
       fx="156.43881"
       fy="238.0569"
       r="103.38994" />
    <radialGradient
       inkscape:collect="always"
       xlink:href="#linearGradient9481"
       id="radialGradient3780"
       gradientUnits="userSpaceOnUse"
       gradientTransform="matrix(0.10783649,0,0,0.10783687,129.31907,43.76544)"
       cx="331.12781"
       cy="184.18874"
       fx="331.12781"
       fy="184.18874"
       r="32.428165" />
    <linearGradient
       inkscape:collect="always"
       id="linearGradient9481">
      <stop
         style="stop-color:#0683b5;stop-opacity:0.01176471"
         offset="0"
         id="stop9477" />
      <stop
         id="stop9485"
         offset="0.91783988"
         style="stop-color:#046b95;stop-opacity:0.62745098;" />
      <stop
         style="stop-color:#0573a0;stop-opacity:1"
         offset="1"
         id="stop9479" />
    </linearGradient>
    <radialGradient
       inkscape:collect="always"
       xlink:href="#linearGradient9497"
       id="radialGradient3782"
       gradientUnits="userSpaceOnUse"
       gradientTransform="matrix(-0.08251359,0.03752617,-0.03822695,-0.09465282,191.68769,69.416749)"
       cx="226.93288"
       cy="174.28333"
       fx="226.93288"
       fy="174.28333"
       r="23.961483" />
    <radialGradient
       inkscape:collect="always"
       xlink:href="#linearGradient2622"
       id="radialGradient3788"
       gradientUnits="userSpaceOnUse"
       gradientTransform="matrix(-0.68849007,0.22888526,-0.18402729,-0.55357926,360.01912,156.12365)"
       cx="145.70253"
       cy="184.91103"
       fx="145.70253"
       fy="184.91103"
       r="103.38994" />
    <linearGradient
       inkscape:collect="always"
       id="linearGradient2622">
      <stop
         style="stop-color:#b6e2b6;stop-opacity:0.01826484"
         offset="0"
         id="stop2616" />
      <stop
         id="stop2636"
         offset="0.37032038"
         style="stop-color:#97d797;stop-opacity:0.74901961;" />
      <stop
         id="stop2618"
         offset="0.78035665"
         style="stop-color:#3ea63e;stop-opacity:0.98823529" />
      <stop
         style="stop-color:#358f35;stop-opacity:0.98823529"
         offset="1"
         id="stop2620" />
    </linearGradient>
  </defs>
  <sodipodi:namedview
     id="base"
     pagecolor="#ffffff"
     bordercolor="#666666"
     borderopacity="1.0"
     inkscape:pageopacity="0.0"
     inkscape:pageshadow="2"
     inkscape:zoom="0.35"
     inkscape:cx="-173.26467"
     inkscape:cy="178.42933"
     inkscape:document-units="mm"
     inkscape:current-layer="layer1"
     showgrid="false" />
  <metadata
     id="metadata1060">
    <rdf:RDF>
      <cc:Work
         rdf:about="">
        <dc:format>image/svg+xml</dc:format>
        <dc:type
           rdf:resource="http://purl.org/dc/dcmitype/StillImage" />
        <dc:title></dc:title>
      </cc:Work>
    </rdf:RDF>
  </metadata>
  <g
     inkscape:label="Layer 1"
     inkscape:groupmode="layer"
     id="layer1"
     transform="translate(-17.116754,-107.67152)">
    <g
       id="g2719"
       style="fill:url(#radialGradient3790);fill-opacity:1"
       transform="matrix(0.85332659,0,0,0.90690497,-31.643554,19.071937)">
      <g
         style="fill:url(#radialGradient3772)"
         id="g2697"
         transform="translate(-6.8797768,-46.101622)">
        <g
           id="g2687"
           transform="matrix(3.8694317,0,0,4.1061372,-325.19526,454.07663)"
           style="fill:url(#radialGradient3764)">
          <g
             transform="translate(-41.899212,-10.241545)"
             id="g2685"
             style="fill:url(#radialGradient3762)">
            <path
               sodipodi:nodetypes="ccccccccccsccc"
               inkscape:connector-curvature="0"
               id="path2679"
               d="m 166.75586,-41.780189 c -1.78229,-0.455105 -3.22979,-1.274925 -4.38573,-2.484004 -0.85585,-0.895153 -1.37167,-1.727184 -1.81122,-2.921426 -0.31456,-0.854636 -0.37207,-1.194577 -0.42073,-2.486911 -0.0352,-0.935055 -0.003,-1.762117 0.0891,-2.203333 0.5111,-2.482368 2.33496,-4.720403 4.81805,-5.912177 1.32526,-0.636083 2.4505,-0.877339 4.10438,-0.880038 1.6926,-0.0025 2.55257,0.176902 3.94976,0.825223 2.35047,1.090615 4.27119,3.293374 4.932,5.656092 0.30795,1.101155 0.27745,3.185682 -0.0634,4.327487 -0.83503,2.797747 -2.99574,5.003221 -5.7781,5.897827 -0.89803,0.288752 -1.19756,0.327173 -2.80091,0.359268 -1.47252,0.02944 -1.94603,-0.0028 -2.6332,-0.178008 z"
               style="opacity:1;fill:#0fb8f8;fill-opacity:1;stroke:none;stroke-width:0.90994513;stroke-miterlimit:4;stroke-dasharray:none" />
            <path
               style="opacity:1;fill:url(#radialGradient3758);fill-opacity:1;stroke:none;stroke-width:0.90994513;stroke-miterlimit:4;stroke-dasharray:none"
               d="m 166.75586,-41.780188 c -1.78229,-0.455105 -3.22979,-1.274926 -4.38573,-2.484004 -0.85585,-0.895154 -1.37167,-1.727185 -1.81122,-2.921426 -0.31456,-0.854637 -0.37207,-1.194578 -0.42073,-2.486912 -0.0352,-0.935055 -0.003,-1.762117 0.0891,-2.203333 0.5111,-2.482367 2.33496,-4.720403 4.81805,-5.912177 1.32526,-0.636083 2.4505,-0.877339 4.10438,-0.880038 1.6926,-0.0025 2.55256,0.176902 3.94976,0.825223 2.35047,1.090615 4.27119,3.293374 4.932,5.656092 0.30795,1.101155 0.27745,3.185682 -0.0634,4.327487 -0.83503,2.797747 -2.99574,5.003221 -5.77811,5.897827 -0.89802,0.288752 -1.19755,0.327173 -2.8009,0.359269 -1.47252,0.02944 -1.94603,-0.0028 -2.6332,-0.178008 z"
               id="path2681"
               inkscape:connector-curvature="0"
               sodipodi:nodetypes="ccccccccccsccc" />
            <path
               sodipodi:nodetypes="ccccccccccsccc"
               inkscape:connector-curvature="0"
               id="path2683"
               d="m 168.86833,-46.362361 c -1.31695,-0.321133 -2.38652,-0.899615 -3.24066,-1.752772 -0.6324,-0.631641 -1.01354,-1.218742 -1.33833,-2.061424 -0.23243,-0.603055 -0.27493,-0.842925 -0.31089,-1.754826 -0.026,-0.659798 -0.002,-1.24339 0.0658,-1.554725 0.37765,-1.751615 1.72532,-3.330826 3.5601,-4.17177 0.97925,-0.448836 1.8107,-0.619072 3.03277,-0.620977 1.25069,-0.0017 1.88612,0.124827 2.91852,0.582299 1.73679,0.769563 3.15603,2.323881 3.64431,3.99107 0.22755,0.777001 0.20501,2.247894 -0.0469,3.053579 -0.61701,1.974156 -2.21358,3.53039 -4.2695,4.161645 -0.66356,0.203752 -0.88489,0.230861 -2.06962,0.253508 -1.08806,0.02079 -1.43794,-0.002 -1.9457,-0.125607 z"
               style="opacity:1;fill:url(#radialGradient3760);fill-opacity:1;stroke:none;stroke-width:0.65704894;stroke-miterlimit:4;stroke-dasharray:none" />
          </g>
        </g>
        <g
           transform="translate(-231.22514,78.162976)"
           id="g2695"
           style="fill:url(#radialGradient3770)">
          <path
             style="opacity:1;fill:#ffe061;fill-opacity:1;stroke:none;stroke-width:0.36179721;stroke-miterlimit:4;stroke-dasharray:none"
             d="m 397.61351,131.43856 c -0.68791,-0.18641 -1.24661,-0.5222 -1.69277,-1.01742 -0.33033,-0.36664 -0.52942,-0.70743 -0.69908,-1.19657 -0.12141,-0.35005 -0.1436,-0.48928 -0.16239,-1.01861 -0.0136,-0.38298 -0.001,-0.72173 0.0344,-0.90245 0.19727,-1.01674 0.90123,-1.93341 1.85963,-2.42154 0.51152,-0.26053 0.94583,-0.35935 1.58418,-0.36045 0.65329,-10e-4 0.98522,0.0725 1.52449,0.338 0.90722,0.4467 1.64856,1.34892 1.90362,2.31665 0.11886,0.45102 0.10708,1.30481 -0.0245,1.77248 -0.3223,1.14592 -1.15628,2.04925 -2.23019,2.41566 -0.34661,0.11827 -0.46222,0.13401 -1.08107,0.14715 -0.56835,0.0121 -0.75111,-0.001 -1.01634,-0.0729 z"
             id="path2689"
             inkscape:connector-curvature="0" />
          <path
             style="opacity:1;fill:url(#radialGradient3766);fill-opacity:1;stroke:none;stroke-width:0.36179721;stroke-miterlimit:4;stroke-dasharray:none"
             d="m 397.61351,131.43858 c -0.68791,-0.18641 -1.24661,-0.5222 -1.69277,-1.01742 -0.33033,-0.36664 -0.52942,-0.70743 -0.69908,-1.19657 -0.12141,-0.35005 -0.1436,-0.48929 -0.16239,-1.01861 -0.0136,-0.38298 -0.001,-0.72173 0.0344,-0.90245 0.19727,-1.01674 0.90123,-1.93341 1.85963,-2.42154 0.51152,-0.26053 0.94583,-0.35935 1.58418,-0.36045 0.65329,-0.001 0.98521,0.0725 1.52449,0.338 0.90722,0.4467 1.64856,1.34892 1.90362,2.31665 0.11886,0.45102 0.10708,1.30481 -0.0245,1.77248 -0.3223,1.14591 -1.15628,2.04925 -2.23019,2.41566 -0.34661,0.11827 -0.46222,0.13401 -1.08107,0.14715 -0.56835,0.012 -0.75111,-0.001 -1.01634,-0.0729 z"
             id="path2691"
             inkscape:connector-curvature="0" />
          <path
             style="opacity:1;fill:url(#radialGradient3768);fill-opacity:1;stroke:none;stroke-width:0.26124486;stroke-miterlimit:4;stroke-dasharray:none"
             d="m 397.85825,130.43168 c -0.5083,-0.13153 -0.92112,-0.36847 -1.2508,-0.71791 -0.24409,-0.25871 -0.3912,-0.49918 -0.51656,-0.84433 -0.0897,-0.247 -0.10611,-0.34525 -0.11999,-0.71875 -0.01,-0.27025 -7.7e-4,-0.50928 0.0254,-0.6368 0.14576,-0.71743 0.66592,-1.36425 1.37409,-1.70869 0.37797,-0.18384 0.69888,-0.25357 1.17057,-0.25435 0.48273,-7.7e-4 0.72799,0.0511 1.12646,0.2385 0.67035,0.31521 1.21814,0.95183 1.4066,1.63469 0.0878,0.31825 0.0791,0.9207 -0.0181,1.2507 -0.23815,0.80859 -0.85438,1.446 -1.6479,1.70455 -0.25612,0.0835 -0.34155,0.0946 -0.79882,0.10384 -0.41996,0.009 -0.555,-7.7e-4 -0.75098,-0.0514 z"
             id="path2693"
             inkscape:connector-curvature="0" />
        </g>
      </g>
      <g
         style="fill:url(#radialGradient3786)"
         id="g2715"
         transform="translate(11.693042,60.073003)">
        <g
           transform="matrix(1.06,0,0,1.06,-3.9456003,-6.4641609)"
           id="g2705"
           style="fill:url(#radialGradient3778)">
          <path
             inkscape:connector-curvature="0"
             id="path2699"
             d="m 89.968111,107.00922 c -6.506084,-1.76297 -11.790063,-4.93871 -16.009721,-9.622335 -3.124223,-3.467586 -5.007168,-6.690638 -6.611717,-11.316778 -1.148277,-3.310641 -1.358208,-4.627479 -1.535835,-9.633619 -0.128573,-3.622123 -0.01072,-6.825907 0.325253,-8.535066 1.865731,-9.615976 8.523572,-18.285489 17.587884,-22.902093 4.83775,-2.463998 8.945344,-3.398569 14.982699,-3.409016 6.178676,-0.01071 9.317936,0.685285 14.418256,3.196677 8.58018,4.224729 15.59162,12.757617 18.00384,21.910111 1.12415,4.265534 1.01281,12.340404 -0.23143,16.763418 -3.04821,10.83769 -10.93571,19.381091 -21.09247,22.846501 -3.27816,1.11856 -4.37159,1.26738 -10.224478,1.39171 -5.375312,0.11394 -7.103812,-0.0107 -9.612281,-0.68951 z"
             style="opacity:1;fill:#ffe061;fill-opacity:1;stroke:none;stroke-width:3.42176485;stroke-miterlimit:4;stroke-dasharray:none"
             inkscape:transform-center-x="28.938802"
             inkscape:transform-center-y="-12.402344" />
          <path
             inkscape:connector-curvature="0"
             id="path2701"
             d="m 89.968111,107.00922 c -6.506084,-1.76297 -11.790063,-4.93871 -16.009721,-9.622335 -3.124223,-3.467586 -5.007168,-6.690638 -6.611717,-11.316778 -1.148277,-3.310641 -1.358208,-4.627479 -1.535835,-9.633619 -0.128573,-3.622123 -0.01072,-6.825907 0.325253,-8.535066 1.865731,-9.615976 8.523572,-18.285489 17.587884,-22.902093 4.83775,-2.463998 8.945344,-3.398569 14.982699,-3.409016 6.178676,-0.01071 9.317896,0.685285 14.418256,3.196677 8.58018,4.224729 15.59162,12.757617 18.00384,21.910111 1.12415,4.265534 1.01281,12.340404 -0.23143,16.763418 -3.04821,10.83769 -10.93571,19.381091 -21.0925,22.846501 -3.27813,1.11856 -4.37156,1.26738 -10.224448,1.39171 -5.375312,0.11394 -7.103812,-0.0107 -9.612281,-0.68951 z"
             style="opacity:1;fill:url(#radialGradient3774);fill-opacity:1;stroke:none;stroke-width:3.42176485;stroke-miterlimit:4;stroke-dasharray:none"
             inkscape:transform-center-x="28.938802"
             inkscape:transform-center-y="-12.402344" />
          <path
             inkscape:connector-curvature="0"
             id="path2703"
             d="m 96.542049,90.684336 c -4.807417,-1.243981 -8.711792,-3.484837 -11.829761,-6.789709 -2.308521,-2.44682 -3.699834,-4.721069 -4.885459,-7.985389 -0.848468,-2.33607 -1.003614,-3.265229 -1.134885,-6.79771 -0.09479,-2.555855 -0.0073,-4.816532 0.240198,-6.02255 1.378583,-6.785246 6.298146,-12.90267 12.995844,-16.16024 3.574677,-1.738677 6.609813,-2.398105 11.070864,-2.40548 4.56554,-0.0072 6.88513,0.483517 10.65382,2.255642 6.34,2.981087 11.52082,9.002065 13.30324,15.460275 0.83065,3.009892 0.74838,8.707691 -0.17125,11.82869 -2.25234,7.647334 -8.0805,13.675723 -15.58545,16.121043 -2.42228,0.789286 -3.23021,0.894267 -7.55498,0.982017 -3.971869,0.08072 -5.249077,-0.0072 -7.102608,-0.486589 z"
             style="opacity:1;fill:url(#radialGradient3776);fill-opacity:1;stroke:none;stroke-width:2.47077203;stroke-miterlimit:4;stroke-dasharray:none"
             inkscape:transform-center-x="26.553556"
             inkscape:transform-center-y="-16.211922" />
        </g>
        <g
           transform="translate(-63.142426,8.9159444)"
           id="g2713"
           style="fill:url(#radialGradient3784)">
          <path
             sodipodi:nodetypes="ccccccccccsccc"
             inkscape:connector-curvature="0"
             id="path2707"
             d="m 164.08942,67.047881 c -0.68792,-0.18641 -1.24662,-0.52219 -1.69278,-1.01741 -0.33034,-0.366651 -0.52944,-0.70744 -0.69909,-1.19658 -0.12141,-0.35005 -0.14361,-0.48928 -0.16239,-1.0186 -0.0136,-0.38299 -10e-4,-0.72174 0.0344,-0.90246 0.19727,-1.01674 0.90124,-1.93341 1.85965,-2.42154 0.51151,-0.26053 0.94583,-0.35934 1.58418,-0.36045 0.65331,-10e-4 0.98523,0.0725 1.52451,0.338 0.90722,0.4467 1.64858,1.34892 1.90363,2.31665 0.11886,0.45102 0.10709,1.30481 -0.0245,1.77248 -0.3223,1.14592 -1.15628,2.04925 -2.2302,2.41567 -0.34662,0.11826 -0.46223,0.134 -1.08108,0.14715 -0.56836,0.0121 -0.75113,-10e-4 -1.01635,-0.0729 z"
             style="opacity:1;fill:#0fb8f8;fill-opacity:1;stroke:none;stroke-width:0.36179888;stroke-miterlimit:4;stroke-dasharray:none" />
          <path
             style="opacity:1;fill:url(#radialGradient3780);fill-opacity:1;stroke:none;stroke-width:0.36179888;stroke-miterlimit:4;stroke-dasharray:none"
             d="m 164.08941,67.047881 c -0.68791,-0.18641 -1.24662,-0.52219 -1.69278,-1.01741 -0.33034,-0.366651 -0.52943,-0.70744 -0.69908,-1.19658 -0.12142,-0.35005 -0.14361,-0.489279 -0.16239,-1.0186 -0.0136,-0.38299 -10e-4,-0.72174 0.0344,-0.90246 0.19727,-1.01674 0.90123,-1.93341 1.85965,-2.42154 0.51151,-0.26053 0.94583,-0.35934 1.58418,-0.36045 0.65331,-10e-4 0.98523,0.0725 1.52451,0.338 0.90722,0.4467 1.64857,1.34892 1.90363,2.31665 0.11886,0.45102 0.10709,1.30481 -0.0245,1.77248 -0.3223,1.14592 -1.15628,2.04925 -2.23021,2.415671 -0.34661,0.11826 -0.46222,0.134 -1.08108,0.147149 -0.56835,0.0121 -0.75112,-10e-4 -1.01635,-0.0729 z"
             id="path2709"
             inkscape:connector-curvature="0"
             sodipodi:nodetypes="ccccccccccsccc" />
          <path
             sodipodi:nodetypes="ccccccccccsccc"
             inkscape:connector-curvature="0"
             id="path2711"
             d="m 164.33416,66.041009 c -0.50831,-0.13153 -0.92113,-0.36847 -1.25081,-0.71791 -0.24409,-0.25871 -0.3912,-0.49918 -0.51656,-0.84433 -0.0897,-0.24701 -0.10612,-0.34525 -0.12,-0.71875 -0.01,-0.27025 -7.7e-4,-0.50928 0.0254,-0.6368 0.14576,-0.71743 0.66592,-1.36426 1.37411,-1.70869 0.37796,-0.18384 0.69889,-0.25357 1.17057,-0.25435 0.48274,-6.9e-4 0.728,0.0511 1.12648,0.2385 0.67036,0.31521 1.21814,0.95183 1.40661,1.63469 0.0878,0.31825 0.0791,0.9207 -0.0181,1.2507 -0.23814,0.80859 -0.85437,1.446 -1.64791,1.70455 -0.25612,0.0834 -0.34154,0.0946 -0.79883,0.10383 -0.41996,0.009 -0.555,-8.2e-4 -0.75099,-0.0514 z"
             style="opacity:1;fill:url(#radialGradient3782);fill-opacity:1;stroke:none;stroke-width:0.26124606;stroke-miterlimit:4;stroke-dasharray:none" />
        </g>
      </g>
      <path
         style="font-style:normal;font-variant:normal;font-weight:normal;font-stretch:normal;font-size:125.62989044px;line-height:1.25;font-family:NordiquePro-Bold;-inkscape-font-specification:'NordiquePro-Bold, Normal';font-variant-ligatures:normal;font-variant-caps:normal;font-variant-numeric:normal;font-feature-settings:normal;text-align:start;letter-spacing:0px;word-spacing:0px;writing-mode:lr-tb;text-anchor:start;fill:url(#radialGradient3788);fill-opacity:1;stroke:#000000;stroke-width:0.0390899;stroke-miterlimit:4;stroke-dasharray:none;stroke-opacity:1"
         d="m 57.160983,127.7184 v 22.09888 c 0,2.30811 0.540255,4.41976 1.669755,6.3841 1.129498,1.96435 2.651818,3.48666 4.616164,4.61616 1.915233,1.1295 4.026902,1.66976 6.335004,1.66976 2.258999,0 4.370659,-0.54026 6.335004,-1.66976 1.915237,-1.1295 3.437558,-2.65181 4.616165,-4.61616 1.129498,-1.96434 1.718841,-4.07599 1.718841,-6.3841 0,-2.25899 -0.589343,-4.37065 -1.718841,-6.33499 -1.178607,-1.96435 -2.700928,-3.48667 -4.616165,-4.61617 -1.964345,-1.1295 -4.076005,-1.71884 -6.335004,-1.71884 -2.40632,0 -4.468946,0.63839 -6.187744,1.8661 v -10.87663 l 0.620552,-0.005 -0.620552,-0.4137 z m 64.009177,0.74479 v 34.376 l 0.62055,0.4137 4.2e-4,-0.4137 h 5.76313 v -33.94493 l 0.62055,-0.0174 -0.62055,-0.4137 z m 27.91595,0 v 11.29498 c -1.76791,-1.22772 -3.83053,-1.86611 -6.18774,-1.86611 -2.3081,0 -4.41978,0.58934 -6.33501,1.71885 -1.96434,1.1295 -3.48666,2.65181 -4.61616,4.61616 -1.1786,1.96434 -1.71884,4.07601 -1.71884,6.335 0,2.3081 0.54024,4.41975 1.71884,6.3841 1.1295,1.96434 2.65182,3.48665 4.61616,4.61616 1.91523,1.1295 4.02691,1.66975 6.33501,1.66975 2.259,0 4.37065,-0.54025 6.33501,-1.66975 1.91522,-1.12951 3.43757,-2.65182 4.56708,-4.61616 1.1295,-1.96435 1.71883,-4.076 1.71883,-6.3841 v -21.6777 l 0.62056,-0.007 -0.62056,-0.4137 z m 17.26012,0 v 34.376 l 0.62055,0.4137 0.002,-0.4137 h 5.76153 v -12.91545 c 0,-1.96434 0.3437,-3.43766 1.03122,-4.37072 0.68752,-0.93307 1.81711,-1.42413 3.38859,-1.42413 1.52237,0 2.65178,0.49106 3.3393,1.42413 0.68752,0.93306 1.08052,2.40638 1.08052,4.37072 v 12.91545 l 0.62055,0.4137 -0.0105,-0.4137 h 5.77405 v -12.91545 c 0,-3.97779 -0.98228,-6.97344 -2.94661,-8.98689 -1.96435,-2.01345 -4.61614,-3.04479 -7.8573,-3.04479 -1.76791,0 -3.24122,0.44204 -4.41981,1.22778 v -10.23568 l 0.62055,-0.007 -0.62055,-0.4137 z m 52.27384,0 v 34.376 l 0.62056,0.4137 -0.002,-0.4137 h 5.76556 v -33.93503 l 0.62055,-0.0273 -0.62055,-0.4137 z m 10.26294,0 v 34.376 l 0.62055,0.4137 0.005,-0.4137 h 5.75849 v -33.96775 l 0.62055,0.005 -0.62055,-0.4137 z m -25.75452,9.42887 c -2.30811,0 -4.41976,0.58932 -6.335,1.76793 -1.91524,1.17861 -3.4376,2.70091 -4.51799,4.66525 -1.0804,1.96435 -1.62047,4.02692 -1.62047,6.28592 0,2.3081 0.54026,4.41978 1.66975,6.33501 1.1295,1.96434 2.65182,3.48665 4.61616,4.61616 1.91524,1.1295 4.02689,1.66975 6.3841,1.66975 2.55364,0 4.86166,-0.68758 6.97333,-2.11173 1.93576,-1.29051 3.43885,-3.01382 4.4689,-5.08825 l 0.8171,0.002 -0.62055,-0.41371 -7.61186,-0.0491 c -0.5402,0.44197 -1.12953,0.78568 -1.76793,1.03122 -0.63841,0.29465 -1.47338,0.39289 -2.45554,0.39289 -1.47327,0 -2.70095,-0.3437 -3.68311,-1.03122 -0.98218,-0.68752 -1.62055,-1.66961 -1.91519,-2.89733 h 18.21922 c 0.14732,-0.98216 0.19655,-1.9644 0.19655,-3.04478 -0.0982,-2.45543 -0.73674,-4.61614 -2.01356,-6.48226 -1.27684,-1.81702 -2.8482,-3.19222 -4.76343,-4.17438 -1.96435,-0.98218 -3.97792,-1.47322 -6.04048,-1.47322 z m 47.48274,0 c -2.3081,0 -4.41975,0.58934 -6.3841,1.71885 -1.96434,1.1295 -3.48666,2.65181 -4.61616,4.61616 -1.1295,1.96434 -1.66975,4.07601 -1.66975,6.335 0,2.3081 0.54025,4.41975 1.66975,6.3841 1.1295,1.96434 2.65182,3.48665 4.61616,4.61616 1.96435,1.1295 4.076,1.66975 6.3841,1.66975 2.259,0 4.37066,-0.54025 6.335,-1.66975 1.96435,-1.12951 3.48666,-2.65182 4.61616,-4.61616 1.12951,-1.96435 1.71885,-4.076 1.71885,-6.3841 0,-2.25899 -0.58934,-4.37066 -1.71885,-6.335 -1.1295,-1.96435 -2.65181,-3.48666 -4.61616,-4.61616 -1.96434,-1.12951 -4.076,-1.71885 -6.335,-1.71885 z m -165.984756,0.39289 v 12.91565 c 0,4.02692 0.982267,7.02254 2.946612,9.03598 1.964342,2.01346 4.567023,2.9955 7.857297,2.9955 3.241166,0 5.892957,-0.98204 7.857297,-2.9955 1.96434,-2.01344 2.94661,-5.00906 2.94661,-9.03598 v -12.47931 l 0.62055,-0.0226 -0.62055,-0.41371 h -6.384087 v 12.91565 c 0,2.01346 -0.392994,3.48655 -1.080515,4.41962 -0.68752,0.93305 -1.816941,1.37503 -3.339305,1.37503 -1.571476,0 -2.701078,-0.44198 -3.388595,-1.37503 -0.68752,-0.93307 -1.031223,-2.40616 -1.031223,-4.41962 v -12.42881 l 0.620552,-0.0731 -0.620552,-0.41371 z m 25.672306,0 v 24.55424 l 0.62055,0.4137 -0.006,-0.4137 h 5.7694 v -24.11851 l 0.62055,-0.022 -0.62055,-0.41371 z m -40.467787,5.09916 c 1.767911,0 3.290297,0.63839 4.468905,1.8661 1.178606,1.22772 1.767926,2.75006 1.767926,4.56707 0,1.86613 -0.58932,3.38846 -1.767926,4.61618 -1.178608,1.22771 -2.700994,1.81701 -4.468905,1.81701 -1.817016,0 -3.339383,-0.5893 -4.517991,-1.81701 -1.227711,-1.22772 -1.817014,-2.75005 -1.817014,-4.61618 0,-0.11356 0.0023,-0.22588 0.0069,-0.33713 0.06924,-1.66893 0.659167,-3.07895 1.810146,-4.22994 1.178608,-1.22771 2.700975,-1.8661 4.517991,-1.8661 z m 73.018297,0.74478 c 1.7679,0 3.29028,0.63839 4.51799,1.8661 1.17861,1.22771 1.81701,2.75006 1.81701,4.56708 0,1.86613 -0.6384,3.38845 -1.81701,4.61616 -1.22771,1.22771 -2.75009,1.81702 -4.51799,1.81702 -1.81702,0 -3.29031,-0.58931 -4.46891,-1.81702 -1.17861,-1.22771 -1.76792,-2.75003 -1.76792,-4.61616 0,-1.81702 0.58931,-3.33937 1.76792,-4.56708 1.1786,-1.22771 2.65189,-1.8661 4.46891,-1.8661 z m 60.47575,0 c 1.22771,0 2.35709,0.3928 3.43747,1.08032 1.08039,0.68752 1.86628,1.62056 2.35738,2.75006 h -11.5897 c 0.49108,-1.17861 1.27681,-2.11163 2.25899,-2.79915 0.98217,-0.68753 2.16082,-1.03123 3.53586,-1.03123 z m 47.33528,0 c 1.7679,0 3.2903,0.63839 4.4689,1.8661 1.17861,1.22771 1.76792,2.75006 1.76792,4.56708 0,1.86613 -0.58931,3.38845 -1.76792,4.61616 -1.1786,1.22771 -2.701,1.81702 -4.4689,1.81702 -1.81703,0 -3.33939,-0.58931 -4.518,-1.81702 -1.22772,-1.22771 -1.81701,-2.75003 -1.81701,-4.61616 0,-1.81702 0.58929,-3.33937 1.81701,-4.56708 1.17861,-1.22771 2.70097,-1.8661 4.518,-1.8661 z"
         id="path2717"
         inkscape:connector-curvature="0" />
    </g>
  </g>
</svg>
