<?xml version="1.0" encoding="UTF-8" standalone="no"?>
<!-- Created with Inkscape (http://www.inkscape.org/) -->

<svg
   xmlns:dc="http://purl.org/dc/elements/1.1/"
   xmlns:cc="http://creativecommons.org/ns#"
   xmlns:rdf="http://www.w3.org/1999/02/22-rdf-syntax-ns#"
   xmlns:svg="http://www.w3.org/2000/svg"
   xmlns="http://www.w3.org/2000/svg"
   xmlns:sodipodi="http://sodipodi.sourceforge.net/DTD/sodipodi-0.dtd"
   xmlns:inkscape="http://www.inkscape.org/namespaces/inkscape"
   width="524.88263mm"
   height="49.231895mm"
   viewBox="0 0 524.88263 49.231895"
   version="1.1"
   id="svg8807"
   sodipodi:docname="logo44.svg"
   inkscape:version="0.92.4 (5da689c313, 2019-01-14)">
  <defs
     id="defs8801" />
  <sodipodi:namedview
     id="base"
     pagecolor="#ffffff"
     bordercolor="#666666"
     borderopacity="1.0"
     inkscape:pageopacity="0.0"
     inkscape:pageshadow="2"
     inkscape:zoom="0.35"
     inkscape:cx="932.22212"
     inkscape:cy="183.05466"
     inkscape:document-units="mm"
     inkscape:current-layer="layer1"
     showgrid="false"
     inkscape:snap-text-baseline="true"
     inkscape:snap-global="false" />
  <metadata
     id="metadata8804">
    <rdf:RDF>
      <cc:Work
         rdf:about="">
        <dc:format>image/svg+xml</dc:format>
        <dc:type
           rdf:resource="http://purl.org/dc/dcmitype/StillImage" />
        <dc:title></dc:title>
      </cc:Work>
    </rdf:RDF>
  </metadata>
  <g
     inkscape:label="Layer 1"
     inkscape:groupmode="layer"
     id="layer1"
     transform="translate(-165.80952,1261.5671)">
    <g
       aria-label="Build .Hello"
       style="font-style:normal;font-variant:normal;font-weight:normal;font-stretch:normal;font-size:35.27777481px;line-height:1em;font-family:'Software Tester 7';-inkscape-font-specification:'Software Tester 7, Normal';font-variant-ligatures:normal;font-variant-caps:normal;font-variant-numeric:normal;font-feature-settings:normal;text-align:start;letter-spacing:0px;word-spacing:0px;writing-mode:lr-tb;text-anchor:start;fill:#0000ff;fill-opacity:1;stroke:#0000ff;stroke-width:1;stroke-opacity:1"
       id="text892"
       transform="matrix(2.4680116,0,0,2.4680116,-243.4103,1851.9949)">
      <path
         d="m 166.30952,-1242.119 h 13.78039 c 3.44509,0 5.16764,-1.7226 5.16764,-5.1677 0,-2.2909 -0.86128,-3.7379 -2.58382,-4.358 1.72254,-0.534 2.58382,-1.9465 2.58382,-4.2547 0,-3.4451 -1.72255,-5.1676 -5.16764,-5.1676 h -13.78039 z m 1.72255,-10.3353 v -6.8902 h 12.05784 c 2.29098,0 3.44509,1.1541 3.44509,3.4451 0,2.3082 -1.15411,3.4451 -3.44509,3.4451 z m 0,8.6127 v -6.8902 h 12.05784 c 2.29098,0 3.44509,1.1542 3.44509,3.4451 0,2.3083 -1.15411,3.4451 -3.44509,3.4451 z"
         style="fill:#0000ff;fill-opacity:1;stroke:#0000ff;stroke-width:1;stroke-opacity:1"
         id="path894"
         inkscape:connector-curvature="0" />
      <path
         d="m 204.20557,-1243.0492 v 0.9302 h 1.72255 v -13.7804 h -1.72255 v 8.6127 c 0,2.3083 -1.15411,3.4451 -3.44509,3.4451 h -8.61274 c -2.30822,0 -3.4451,-1.1368 -3.4451,-3.4451 v -8.6127 h -1.72255 v 8.6127 c 0,3.4451 1.72255,5.1677 5.16765,5.1677 h 8.61274 c 1.44694,0 2.60104,-0.3101 3.44509,-0.9302 z"
         style="fill:#0000ff;fill-opacity:1;stroke:#0000ff;stroke-width:1;stroke-opacity:1"
         id="path896"
         inkscape:connector-curvature="0" />
      <path
         d="m 207.65067,-1242.119 h 18.94802 v -1.7226 h -8.61274 v -10.3353 h 8.61274 v -1.7225 h -18.94802 v 1.7225 h 8.61273 v 10.3353 h -8.61273 z m 10.33528,-18.948 h -1.72255 v 1.7225 h 1.72255 z"
         style="fill:#0000ff;fill-opacity:1;stroke:#0000ff;stroke-width:1;stroke-opacity:1"
         id="path898"
         inkscape:connector-curvature="0" />
      <path
         d="m 228.32124,-1242.119 h 18.94802 v -1.7226 h -8.61274 v -17.2254 h -10.33528 v 1.7225 h 8.61273 v 15.5029 h -8.61273 z"
         style="fill:#0000ff;fill-opacity:1;stroke:#0000ff;stroke-width:1;stroke-opacity:1"
         id="path900"
         inkscape:connector-curvature="0" />
      <path
         d="m 267.93983,-1242.119 v -18.948 h -1.72255 v 5.1676 h -12.05783 c -3.4451,0 -5.16764,1.7225 -5.16764,5.1676 v 3.4451 c 0,3.4451 1.72254,5.1677 5.16764,5.1677 z m -1.72255,-12.0579 v 10.3353 h -12.05783 c -2.30821,0 -3.4451,-1.2919 -3.4451,-3.9101 v -2.9801 c 0,-2.2909 1.13689,-3.4451 3.4451,-3.4451 z"
         style="fill:#0000ff;fill-opacity:1;stroke:#0000ff;stroke-width:1;stroke-opacity:1"
         id="path902"
         inkscape:connector-curvature="0" />
      <path
         d="m 273.3155,-1243.8416 h -1.72255 v 1.7226 h 1.72255 z"
         style="fill:#0000ff;fill-opacity:1;stroke:#0000ff;stroke-width:1;stroke-opacity:1"
         id="path904"
         inkscape:connector-curvature="0" />
      <path
         d="m 276.35352,-1261.067 v 18.948 h 1.72254 v -8.6128 h 15.50293 v 8.6128 h 1.72255 v -18.948 h -1.72255 v 8.6127 h -15.50293 v -8.6127 z"
         style="fill:#0000ff;fill-opacity:1;stroke:#0000ff;stroke-width:1;stroke-opacity:1"
         id="path906"
         inkscape:connector-curvature="0" />
      <path
         d="m 314.24957,-1243.8416 h -12.05783 c -2.30822,0 -3.4451,-1.1368 -3.4451,-3.4451 h 12.05783 5.16765 v -4.2719 c 0,-2.8939 -1.72255,-4.3408 -5.16765,-4.3408 h -8.61273 c -3.4451,0 -5.16765,1.4469 -5.16765,4.3408 v 4.2719 c 0,3.4451 1.72255,5.1677 5.16765,5.1677 h 12.05783 z m -15.50293,-5.1676 v -2.5494 c 0,-1.7398 1.13688,-2.6183 3.4451,-2.6183 h 8.61273 c 2.29099,0 3.4451,0.8785 3.4451,2.6183 v 2.5494 h -3.4451 z"
         style="fill:#0000ff;fill-opacity:1;stroke:#0000ff;stroke-width:1;stroke-opacity:1"
         id="path908"
         inkscape:connector-curvature="0" />
      <path
         d="m 317.69466,-1242.119 h 18.94802 v -1.7226 h -8.61274 v -17.2254 h -10.33528 v 1.7225 h 8.61273 v 15.5029 h -8.61273 z"
         style="fill:#0000ff;fill-opacity:1;stroke:#0000ff;stroke-width:1;stroke-opacity:1"
         id="path910"
         inkscape:connector-curvature="0" />
      <path
         d="m 338.36523,-1242.119 h 18.94803 v -1.7226 h -8.61274 v -17.2254 h -10.33529 v 1.7225 h 8.61274 v 15.5029 h -8.61274 z"
         style="fill:#0000ff;fill-opacity:1;stroke:#0000ff;stroke-width:1;stroke-opacity:1"
         id="path912"
         inkscape:connector-curvature="0" />
      <path
         d="m 364.20344,-1242.119 h 8.61274 c 3.44509,0 5.16764,-1.7226 5.16764,-5.1677 v -3.4451 c 0,-3.4451 -1.72255,-5.1676 -5.16764,-5.1676 h -8.61274 c -3.4451,0 -5.16764,1.7225 -5.16764,5.1676 v 3.4451 c 0,3.4451 1.72254,5.1677 5.16764,5.1677 z m -3.4451,-8.6128 c 0,-2.2909 1.13689,-3.4451 3.4451,-3.4451 h 8.61274 c 2.29099,0 3.44509,1.1542 3.44509,3.4451 v 3.4451 c 0,2.3083 -1.1541,3.4451 -3.44509,3.4451 h -8.61274 c -2.30821,0 -3.4451,-1.1368 -3.4451,-3.4451 z"
         style="fill:#0000ff;fill-opacity:1;stroke:#0000ff;stroke-width:1;stroke-opacity:1"
         id="path914"
         inkscape:connector-curvature="0" />
    </g>
  </g>
</svg>
