<?xml version="1.0" encoding="UTF-8" standalone="no"?>
<!-- Created with Inkscape (http://www.inkscape.org/) -->

<svg
   xmlns:dc="http://purl.org/dc/elements/1.1/"
   xmlns:cc="http://creativecommons.org/ns#"
   xmlns:rdf="http://www.w3.org/1999/02/22-rdf-syntax-ns#"
   xmlns:svg="http://www.w3.org/2000/svg"
   xmlns="http://www.w3.org/2000/svg"
   xmlns:xlink="http://www.w3.org/1999/xlink"
   xmlns:sodipodi="http://sodipodi.sourceforge.net/DTD/sodipodi-0.dtd"
   xmlns:inkscape="http://www.inkscape.org/namespaces/inkscape"
   width="534.98157mm"
   height="92.305138mm"
   viewBox="0 0 534.98157 92.305138"
   version="1.1"
   id="svg8807"
   sodipodi:docname="logo43.svg"
   inkscape:version="0.92.4 (5da689c313, 2019-01-14)">
  <defs
     id="defs8801">
    <radialGradient
       inkscape:collect="always"
       xlink:href="#linearGradient9481"
       id="radialGradient9483"
       cx="331.12781"
       cy="184.18874"
       fx="331.12781"
       fy="184.18874"
       r="32.428165"
       gradientTransform="matrix(1,0,0,0.9423584,-128.5875,16.43777)"
       gradientUnits="userSpaceOnUse" />
    <linearGradient
       inkscape:collect="always"
       id="linearGradient9481">
      <stop
         style="stop-color:#0683b5;stop-opacity:0.01176471"
         offset="0"
         id="stop9477" />
      <stop
         id="stop9485"
         offset="0.91783988"
         style="stop-color:#046b95;stop-opacity:0.62745098;" />
      <stop
         style="stop-color:#0573a0;stop-opacity:1"
         offset="1"
         id="stop9479" />
    </linearGradient>
    <radialGradient
       inkscape:collect="always"
       xlink:href="#linearGradient9497"
       id="radialGradient9499"
       cx="226.93288"
       cy="174.28333"
       fx="226.93288"
       fy="174.28333"
       r="23.961483"
       gradientTransform="matrix(-0.76517315,0.32793141,-0.35448993,-0.82714637,455.06673,233.71934)"
       gradientUnits="userSpaceOnUse" />
    <linearGradient
       inkscape:collect="always"
       id="linearGradient9497">
      <stop
         style="stop-color:#ffffff;stop-opacity:0.78995436"
         offset="0"
         id="stop9493" />
      <stop
         style="stop-color:#ffffff;stop-opacity:0;"
         offset="1"
         id="stop9495" />
    </linearGradient>
    <radialGradient
       inkscape:collect="always"
       xlink:href="#linearGradient9481"
       id="radialGradient975"
       gradientUnits="userSpaceOnUse"
       gradientTransform="matrix(1,0,0,0.9423584,-128.5875,16.43777)"
       cx="331.12781"
       cy="184.18874"
       fx="331.12781"
       fy="184.18874"
       r="32.428165" />
    <radialGradient
       inkscape:collect="always"
       xlink:href="#linearGradient9497"
       id="radialGradient977"
       gradientUnits="userSpaceOnUse"
       gradientTransform="matrix(-0.76517315,0.32793141,-0.35448993,-0.82714637,455.06673,233.71934)"
       cx="226.93288"
       cy="174.28333"
       fx="226.93288"
       fy="174.28333"
       r="23.961483" />
  </defs>
  <sodipodi:namedview
     id="base"
     pagecolor="#ffffff"
     bordercolor="#666666"
     borderopacity="1.0"
     inkscape:pageopacity="0.0"
     inkscape:pageshadow="2"
     inkscape:zoom="0.175"
     inkscape:cx="603.35316"
     inkscape:cy="980.86204"
     inkscape:document-units="mm"
     inkscape:current-layer="layer1"
     showgrid="false"
     inkscape:snap-text-baseline="true" />
  <metadata
     id="metadata8804">
    <rdf:RDF>
      <cc:Work
         rdf:about="">
        <dc:format>image/svg+xml</dc:format>
        <dc:type
           rdf:resource="http://purl.org/dc/dcmitype/StillImage" />
        <dc:title></dc:title>
      </cc:Work>
    </rdf:RDF>
  </metadata>
  <g
     inkscape:label="Layer 1"
     inkscape:groupmode="layer"
     id="layer1"
     transform="translate(-363.62421,204.71129)">
    <g
       transform="translate(304.79654,-186.57879)"
       id="g1562">
      <path
         inkscape:connector-curvature="0"
         style="font-style:normal;font-variant:normal;font-weight:normal;font-stretch:normal;font-size:125.62989044px;line-height:1.25;font-family:NordiquePro-Bold;-inkscape-font-specification:'NordiquePro-Bold, Normal';font-variant-ligatures:normal;font-variant-caps:normal;font-variant-numeric:normal;font-feature-settings:normal;text-align:start;letter-spacing:0px;word-spacing:0px;writing-mode:lr-tb;text-anchor:start;fill:#5e9e2c;fill-opacity:1;stroke:#000000;stroke-width:0.2;stroke-miterlimit:4;stroke-dasharray:none;stroke-opacity:1"
         d="m 58.927669,-18.032466 v 56.533499 c 0,5.9046 1.382082,11.30663 4.271573,16.331822 2.889491,5.025199 6.783898,8.919606 11.809098,11.809097 4.899562,2.889491 10.301647,4.271574 16.206247,4.271574 5.778979,0 11.181043,-1.382083 16.206243,-4.271574 4.89957,-2.889491 8.79398,-6.783898 11.8091,-11.809097 2.88949,-5.025192 4.39715,-10.427222 4.39715,-16.331822 0,-5.778976 -1.50766,-11.181045 -4.39715,-16.206245 -3.01512,-5.025199 -6.90953,-8.919607 -11.8091,-11.809097 -5.0252,-2.8894911 -10.427264,-4.3971477 -16.206243,-4.3971477 -6.155862,0 -11.432484,1.6331194 -15.829526,4.7738687 v -28.355377 l 7.483782,-0.0052 -7.483782,-0.534334 z m 163.748661,1.90531 v 87.940884 h 16.33182 v -87.393631 l 7.48378,-0.01291 -7.48378,-0.534337 z m 71.41476,0 v 28.894878 c -4.52268,-3.1407498 -9.79929,-4.7738692 -15.82952,-4.7738692 -5.9046,0 -11.3067,1.5076567 -16.20625,4.3971472 -5.0252,2.889491 -8.91962,6.783898 -11.8091,11.809098 -3.01512,5.025199 -4.39715,10.427268 -4.39715,16.206247 0,5.904598 1.38203,11.306628 4.39715,16.331819 2.88948,5.025199 6.7839,8.919607 11.8091,11.809098 4.89955,2.88949 10.30165,4.271573 16.20625,4.271573 5.77898,0 11.18103,-1.382083 16.20624,-4.271573 4.89955,-2.889491 8.79403,-6.783899 11.68352,-11.809098 2.88949,-5.025191 4.39716,-10.427221 4.39716,-16.331819 v -56.01622 l 7.48377,0.01707 -7.48377,-0.534337 z m 44.15494,0 v 87.940884 h 16.3318 V 38.773369 c 0,-5.025197 0.87926,-8.794261 2.63808,-11.181231 1.75882,-2.386965 4.64857,-3.643188 8.66873,-3.643188 3.89453,0 6.78381,1.256223 8.54263,3.643188 1.75882,2.38697 2.76418,6.156034 2.76418,11.181231 v 33.040359 l 7.48377,0.534337 -0.0161,-0.534337 h 8.86404 V 38.773369 c 0,-10.176018 -2.51285,-17.839508 -7.53803,-22.990328 -5.02521,-5.150829 -11.80902,-7.7891882 -20.10058,-7.7891882 -4.52268,0 -8.2917,1.1308133 -11.30681,3.1408922 v -26.723432 l 7.48379,-0.0041 -7.48379,-0.534337 z m 0,87.940884 7.48376,0.534337 -0.004,-0.526585 z m 133.72721,-87.940884 v 87.940884 l 7.4838,0.534337 v -0.534337 h 8.847 v -87.940884 z m 16.33183,0 0.0164,0.564308 7.46725,-0.02997 z m 9.92291,0 v 87.940884 l 7.48379,0.534337 -0.0119,-0.534337 h 8.85995 v -87.376576 l 7.48376,-0.02997 -7.48376,-0.534336 z M 432.3426,7.9938528 c -5.9046,0 -11.30668,1.5076011 -16.20626,4.5227212 -4.89955,3.01512 -8.79408,6.909472 -11.55795,11.934671 -2.76386,5.0252 -4.14546,10.301695 -4.14546,16.080674 0,5.904595 1.38207,11.306686 4.27156,16.206245 2.88949,5.025199 6.78392,8.919607 11.8091,11.809098 4.89958,2.88949 10.3016,4.271573 16.33183,4.271573 6.53274,0 12.43713,-1.758984 17.83921,-5.402254 4.81034,-3.206891 8.5729,-7.460851 11.19984,-12.56564 l 8.21912,-0.970483 -7.48376,-0.534334 -19.47273,-0.125574 c -1.38192,1.13066 -2.88954,2.009931 -4.52271,2.638081 -1.63319,0.753779 -3.7692,1.005107 -6.28179,1.005107 -3.76891,0 -6.90957,-0.879263 -9.42215,-2.638084 -2.51262,-1.758809 -4.14568,-4.2712 -4.89945,-7.41195 h 46.60852 c 0.37687,-2.5126 0.50281,-5.025329 0.50281,-7.789188 C 464.88106,32.743017 463.2476,27.21549 459.98121,22.44155 456.71483,17.793249 452.69496,14.275215 447.79541,11.762615 442.7702,9.2500151 437.61906,7.9938528 432.3426,7.9938528 Z m 121.47061,0 c -5.9046,0 -11.3066,1.5076567 -16.33181,4.3971472 -5.0252,2.889491 -8.9196,6.783898 -11.80909,11.809098 -2.88949,5.025199 -4.27159,10.427268 -4.27159,16.206247 0,5.904598 1.3821,11.306628 4.27159,16.331819 2.88949,5.025199 6.78389,8.919607 11.80909,11.809098 5.02521,2.88949 10.42721,4.271573 16.33181,4.271573 5.77897,0 11.18108,-1.382083 16.20625,-4.271573 5.02521,-2.889491 8.91961,-6.783899 11.8091,-11.809098 2.88949,-5.025191 4.39714,-10.427221 4.39714,-16.331819 0,-5.778979 -1.50765,-11.181048 -4.39714,-16.206247 -2.88949,-5.0252 -6.78389,-8.919607 -11.8091,-11.809098 C 564.99429,9.5015095 559.59218,7.9938528 553.81321,7.9938528 Z M 129.19004,8.9989599 V 42.039835 c 0,10.301661 2.51285,17.965084 7.53805,23.115902 5.02519,5.150832 11.68338,7.663098 20.10058,7.663098 8.29157,0 15.07539,-2.512266 20.10058,-7.663098 5.0252,-5.150818 7.53804,-12.814241 7.53804,-23.115902 V 9.5265761 l 7.48378,0.00672 -7.48378,-0.534334 H 168.13547 V 42.039838 c 0,5.150831 -1.00535,8.919318 -2.76417,11.306288 -1.75882,2.38696 -4.64811,3.517615 -8.54263,3.517615 -4.02016,0 -6.90991,-1.130655 -8.66872,-3.517615 -1.75882,-2.38697 -2.63808,-6.155457 -2.63808,-11.306288 V 9.5348443 l 7.48378,-0.00159 -7.48378,-0.5343339 z m 65.67507,0 V 71.813728 h 16.33182 V 9.5265761 l 7.48378,0.00672 -7.48378,-0.534334 z M 91.340161,22.04364 c 4.522679,0 8.417261,1.63312 11.432379,4.773869 3.01512,3.14074 4.52272,7.035218 4.52272,11.683524 0,4.77393 -1.5076,8.668351 -4.52272,11.8091 -3.015118,3.140739 -6.9097,4.648295 -11.432379,4.648295 -4.648301,0 -8.542832,-1.507556 -11.557952,-4.648295 -3.140739,-3.140749 -4.648296,-7.03517 -4.648296,-11.8091 0,-0.290518 0.0058,-0.577847 0.01757,-0.862478 0.177128,-4.269457 1.686282,-7.876601 4.630724,-10.821046 3.01512,-3.14076 6.909652,-4.773869 11.557952,-4.773869 z M 278.136,23.94895 c 4.52266,0 8.41722,1.633119 11.55793,4.773869 3.01514,3.140742 4.6483,7.035218 4.6483,11.683526 0,4.77393 -1.63316,8.668348 -4.6483,11.809098 -3.14071,3.140739 -7.03527,4.648295 -11.55793,4.648295 -4.6483,0 -8.41727,-1.507556 -11.43238,-4.648295 -3.01513,-3.14075 -4.52273,-7.035168 -4.52273,-11.809098 0,-4.648308 1.5076,-8.542784 4.52273,-11.683526 3.01511,-3.14075 6.78408,-4.773869 11.43238,-4.773869 z m 154.70942,0 c 3.14073,0 6.02993,1.004837 8.79377,2.763657 2.76386,1.758818 4.77432,4.145738 6.03064,7.035229 H 418.021 c 1.25629,-3.01512 3.26636,-5.401982 5.77897,-7.160802 2.51259,-1.758821 5.52781,-2.638084 9.04545,-2.638084 z m 121.09338,0 c 4.52266,0 8.41725,1.633119 11.43236,4.773869 3.01511,3.140742 4.52273,7.035218 4.52273,11.683526 0,4.77393 -1.50762,8.668348 -4.52273,11.809098 -3.01511,3.140739 -6.9097,4.648295 -11.43236,4.648295 -4.64833,0 -8.54284,-1.507556 -11.55795,-4.648295 -3.14076,-3.14075 -4.6483,-7.035168 -4.6483,-11.809098 0,-4.648308 1.50754,-8.542784 4.6483,-11.683526 3.01511,-3.14075 6.90962,-4.773869 11.55795,-4.773869 z"
         id="path1542" />
      <path
         id="path1544"
         d="m 66.411215,-17.497927 v 56.533499 c 0,5.9046 1.382083,11.30663 4.271574,16.331822 2.88949,5.025199 6.783898,8.919606 11.809097,11.809097 4.899562,2.889491 10.301647,4.271574 16.206248,4.271574 5.778986,0 11.181046,-1.382083 16.206246,-4.271574 4.89957,-2.889491 8.79398,-6.783898 11.8091,-11.809097 2.88949,-5.025192 4.39715,-10.427222 4.39715,-16.331822 0,-5.778976 -1.50766,-11.181045 -4.39715,-16.206245 -3.01512,-5.025199 -6.90953,-8.919607 -11.8091,-11.809097 -5.0252,-2.889491 -10.42726,-4.3971476 -16.206246,-4.3971476 -6.155862,0 -11.432485,1.6331194 -15.829526,4.7738686 v -28.894878 z m 163.748665,1.90531 v 87.940884 h 16.33182 v -87.940884 z m 71.41476,0 v 28.894878 c -4.52268,-3.14075 -9.79929,-4.7738691 -15.82951,-4.7738691 -5.90461,0 -11.30671,1.5076571 -16.20626,4.3971471 -5.0252,2.889491 -8.91962,6.783898 -11.8091,11.809098 -3.01512,5.025199 -4.39715,10.427268 -4.39715,16.206247 0,5.904598 1.38203,11.306628 4.39715,16.331819 2.88948,5.025199 6.7839,8.919607 11.8091,11.809098 4.89955,2.88949 10.30165,4.271573 16.20626,4.271573 5.77897,0 11.18102,-1.382083 16.20623,-4.271573 4.89955,-2.889491 8.79403,-6.783899 11.68352,-11.809098 2.88949,-5.025191 4.39716,-10.427221 4.39716,-16.331819 v -56.533501 z m 44.15494,0 v 87.940884 h 16.3318 V 39.307908 c 0,-5.025197 0.87927,-8.794261 2.63808,-11.181231 1.75882,-2.386968 4.64857,-3.643188 8.66873,-3.643188 3.89454,0 6.78381,1.25622 8.54263,3.643188 1.75882,2.38697 2.76418,6.156034 2.76418,11.181231 v 33.040359 h 16.3318 V 39.307908 c 0,-10.176018 -2.51285,-17.839508 -7.53803,-22.990328 -5.0252,-5.150829 -11.80901,-7.7891881 -20.10058,-7.7891881 -4.52268,0 -8.2917,1.1308133 -11.30681,3.1408921 v -27.261901 z m 133.72721,0 v 87.940884 h 16.33183 v -87.940884 z m 26.25474,0 v 87.940884 h 16.33183 V -15.592617 Z M 439.82615,8.5283919 c -5.9046,0 -11.30667,1.5076011 -16.20625,4.5227211 -4.89956,3.01512 -8.79409,6.909472 -11.55796,11.934671 -2.76386,5.0252 -4.14546,10.301695 -4.14546,16.080674 0,5.904598 1.38208,11.306686 4.27156,16.206245 2.88949,5.025199 6.78392,8.919607 11.8091,11.809098 4.89958,2.88949 10.3016,4.271573 16.33183,4.271573 6.53275,0 12.43713,-1.758984 17.83921,-5.402254 5.27645,-3.517631 9.29696,-8.291489 11.9352,-14.070457 l -19.47273,-0.125574 c -1.38192,1.13066 -2.88954,2.009931 -4.52271,2.638081 -1.63319,0.753779 -3.7692,1.005107 -6.28179,1.005107 -3.76891,0 -6.90956,-0.879263 -9.42215,-2.638084 -2.51262,-1.758809 -4.14568,-4.2712 -4.89945,-7.41195 h 46.60852 c 0.37687,-2.5126 0.50282,-5.025329 0.50282,-7.789188 -0.25128,-6.281499 -1.88474,-11.809026 -5.15112,-16.582966 -3.26639,-4.648301 -7.28626,-8.166335 -12.18581,-10.678935 -5.02521,-2.5125998 -10.17635,-3.7687621 -15.45281,-3.7687621 z m 121.47061,0 c -5.9046,0 -11.3066,1.5076571 -16.33181,4.3971471 -5.0252,2.889491 -8.9196,6.783898 -11.80909,11.809098 -2.88949,5.025199 -4.27159,10.427268 -4.27159,16.206247 0,5.904598 1.3821,11.306628 4.27159,16.331819 2.88949,5.025199 6.78389,8.919607 11.80909,11.809098 5.02521,2.88949 10.42721,4.271573 16.33181,4.271573 5.77897,0 11.18108,-1.382083 16.20626,-4.271573 5.0252,-2.889491 8.9196,-6.783899 11.80909,-11.809098 2.88949,-5.025191 4.39714,-10.427221 4.39714,-16.331819 0,-5.778979 -1.50765,-11.181048 -4.39714,-16.206247 -2.88949,-5.0252 -6.78389,-8.919607 -11.80909,-11.809098 -5.02518,-2.88949 -10.42729,-4.3971471 -16.20626,-4.3971471 z M 136.6736,9.533499 v 33.040875 c 0,10.301661 2.51284,17.965084 7.53804,23.115902 5.02519,5.150832 11.68338,7.663098 20.10058,7.663098 8.29157,0 15.07539,-2.512266 20.10058,-7.663098 5.0252,-5.150818 7.53804,-12.814241 7.53804,-23.115902 V 9.533499 h -16.33182 v 33.040875 c 0,5.150832 -1.00535,8.919318 -2.76417,11.306289 -1.75882,2.386959 -4.64811,3.517614 -8.54263,3.517614 -4.02016,0 -6.90991,-1.130655 -8.66872,-3.517614 -1.75882,-2.386971 -2.63808,-6.155457 -2.63808,-11.306289 V 9.533499 Z m 65.67506,0 v 62.814768 h 16.33182 V 9.533499 Z M 98.823707,22.578179 c 4.522683,0 8.417263,1.63312 11.432383,4.773869 3.01512,3.14074 4.52272,7.035218 4.52272,11.683524 0,4.77393 -1.5076,8.668351 -4.52272,11.8091 -3.01512,3.140739 -6.9097,4.648295 -11.432383,4.648295 -4.6483,0 -8.542832,-1.507556 -11.557952,-4.648295 -3.140739,-3.140749 -4.648295,-7.03517 -4.648295,-11.8091 0,-0.290518 0.0058,-0.577847 0.01757,-0.862478 0.177128,-4.269457 1.686282,-7.876601 4.630724,-10.821046 3.01512,-3.14076 6.909652,-4.773869 11.557953,-4.773869 z m 186.795843,1.90531 c 4.52266,0 8.41719,1.633119 11.55793,4.773869 3.01514,3.140742 4.64831,7.035218 4.64831,11.683526 0,4.77393 -1.63317,8.668348 -4.64831,11.809098 -3.14074,3.140739 -7.03527,4.648295 -11.55793,4.648295 -4.6483,0 -8.41726,-1.507556 -11.43238,-4.648295 -3.01513,-3.14075 -4.52273,-7.035168 -4.52273,-11.809098 0,-4.648308 1.5076,-8.542784 4.52273,-11.683526 3.01512,-3.14075 6.78408,-4.773869 11.43238,-4.773869 z m 154.70942,0 c 3.14073,0 6.02993,1.004837 8.79377,2.763657 2.76386,1.758818 4.77433,4.145738 6.03065,7.035229 h -29.64884 c 1.25629,-3.01512 3.26636,-5.401982 5.77898,-7.160802 2.51258,-1.758821 5.5278,-2.638084 9.04544,-2.638084 z m 121.09338,0 c 4.52266,0 8.41725,1.633119 11.43236,4.773869 3.01511,3.140742 4.52273,7.035218 4.52273,11.683526 0,4.77393 -1.50762,8.668348 -4.52273,11.809098 -3.01511,3.140739 -6.9097,4.648295 -11.43236,4.648295 -4.64833,0 -8.54284,-1.507556 -11.55795,-4.648295 -3.14076,-3.14075 -4.6483,-7.035168 -4.6483,-11.809098 0,-4.648308 1.50754,-8.542784 4.6483,-11.683526 3.01511,-3.14075 6.90962,-4.773869 11.55795,-4.773869 z"
         style="font-style:normal;font-variant:normal;font-weight:normal;font-stretch:normal;font-size:125.62989044px;line-height:1.25;font-family:NordiquePro-Bold;-inkscape-font-specification:'NordiquePro-Bold, Normal';font-variant-ligatures:normal;font-variant-caps:normal;font-variant-numeric:normal;font-feature-settings:normal;text-align:start;letter-spacing:0px;word-spacing:0px;writing-mode:lr-tb;text-anchor:start;fill:#a1ce4f;fill-opacity:1;stroke:#000000;stroke-width:0.2;stroke-miterlimit:4;stroke-dasharray:none;stroke-opacity:1"
         inkscape:connector-curvature="0" />
      <g
         transform="matrix(0.28165232,0,0,0.28165232,266.4798,12.048999)"
         id="g1552">
        <path
           sodipodi:nodetypes="ccccccccccsccc"
           inkscape:connector-curvature="0"
           id="path1546"
           d="m 193.84815,219.8969 c -6.37927,-1.62894 -11.56024,-4.56329 -15.69766,-8.8909 -3.06331,-3.20399 -4.90958,-6.18205 -6.48285,-10.45655 -1.12587,-3.05897 -1.33172,-4.27571 -1.5059,-8.90131 -0.12604,-3.34681 -0.01,-6.30708 0.31879,-7.88631 1.82934,-8.88504 8.35741,-16.89556 17.24505,-21.16123 4.74345,-2.27671 8.77099,-3.14023 14.69066,-3.14989 6.05827,-0.009 9.1363,0.63318 14.13722,2.95369 8.41295,3.9036 15.28773,11.78785 17.65294,20.24464 1.10223,3.94132 0.99306,11.40239 -0.22694,15.48921 -2.98879,10.01387 -10.72255,17.90784 -20.68135,21.10987 -3.21426,1.03352 -4.28636,1.17104 -10.02518,1.28592 -5.27053,0.10537 -6.96535,-0.01 -9.42492,-0.63714 z"
           style="opacity:1;fill:#0fb8f8;fill-opacity:1;stroke:none;stroke-width:3.2569325;stroke-miterlimit:4;stroke-dasharray:none" />
        <path
           style="opacity:1;fill:url(#radialGradient9483);fill-opacity:1;stroke:none;stroke-width:3.2569325;stroke-miterlimit:4;stroke-dasharray:none"
           d="m 193.84829,219.8969 c -6.37927,-1.62894 -11.56024,-4.56329 -15.69766,-8.8909 -3.06331,-3.20399 -4.90958,-6.18205 -6.48285,-10.45655 -1.12587,-3.05897 -1.33172,-4.27571 -1.5059,-8.90131 -0.12604,-3.34681 -0.01,-6.30708 0.31879,-7.88631 1.82934,-8.88504 8.35741,-16.89556 17.24505,-21.16123 4.74345,-2.27671 8.77099,-3.14023 14.69066,-3.14989 6.05827,-0.009 9.1363,0.63318 14.13722,2.95369 8.41295,3.9036 15.28773,11.78785 17.65294,20.24464 1.10223,3.94132 0.99306,11.40239 -0.22694,15.48921 -2.98879,10.01387 -10.72255,17.90784 -20.68135,21.10987 -3.21426,1.03352 -4.28636,1.17104 -10.02518,1.28592 -5.27053,0.10537 -6.96535,-0.01 -9.42492,-0.63714 z"
           id="path1548"
           inkscape:connector-curvature="0"
           sodipodi:nodetypes="ccccccccccsccc" />
        <path
           sodipodi:nodetypes="ccccccccccsccc"
           inkscape:connector-curvature="0"
           id="path1550"
           d="m 201.40932,204.2196 c -4.71371,-1.14942 -8.54199,-3.21996 -11.59917,-6.27363 -2.26352,-2.26081 -3.62774,-4.3622 -4.79025,-7.37838 -0.83192,-2.15849 -0.98402,-3.01705 -1.11273,-6.28098 -0.0931,-2.36159 -0.007,-4.45042 0.23556,-5.56477 1.35172,-6.26949 6.17538,-11.9219 12.74255,-14.93186 3.50499,-1.6065 6.48098,-2.21582 10.85509,-2.22264 4.47652,-0.006 6.75091,0.44679 10.44614,2.0842 6.21642,2.75447 11.29627,8.31778 13.04395,14.28509 0.81445,2.78109 0.73378,8.0458 -0.16769,10.92956 -2.20845,7.06602 -7.92301,12.63619 -15.28167,14.89562 -2.37505,0.72928 -3.16724,0.82631 -7.40771,0.90737 -3.89445,0.0744 -5.14678,-0.007 -6.96418,-0.44958 z"
           style="opacity:1;fill:url(#radialGradient9499);fill-opacity:1;stroke:none;stroke-width:2.35175061;stroke-miterlimit:4;stroke-dasharray:none" />
      </g>
      <g
         id="g1560"
         transform="matrix(0.28165232,0,0,0.28165232,149.89777,-62.662719)">
        <path
           style="opacity:1;fill:#0fb8f8;fill-opacity:1;stroke:none;stroke-width:3.2569325;stroke-miterlimit:4;stroke-dasharray:none"
           d="m 193.84815,219.8969 c -6.37927,-1.62894 -11.56024,-4.56329 -15.69766,-8.8909 -3.06331,-3.20399 -4.90958,-6.18205 -6.48285,-10.45655 -1.12587,-3.05897 -1.33172,-4.27571 -1.5059,-8.90131 -0.12604,-3.34681 -0.01,-6.30708 0.31879,-7.88631 1.82934,-8.88504 8.35741,-16.89556 17.24505,-21.16123 4.74345,-2.27671 8.77099,-3.14023 14.69066,-3.14989 6.05827,-0.009 9.1363,0.63318 14.13722,2.95369 8.41295,3.9036 15.28773,11.78785 17.65294,20.24464 1.10223,3.94132 0.99306,11.40239 -0.22694,15.48921 -2.98879,10.01387 -10.72255,17.90784 -20.68135,21.10987 -3.21426,1.03352 -4.28636,1.17104 -10.02518,1.28592 -5.27053,0.10537 -6.96535,-0.01 -9.42492,-0.63714 z"
           id="path1554"
           inkscape:connector-curvature="0"
           sodipodi:nodetypes="ccccccccccsccc" />
        <path
           sodipodi:nodetypes="ccccccccccsccc"
           inkscape:connector-curvature="0"
           id="path1556"
           d="m 193.84829,219.8969 c -6.37927,-1.62894 -11.56024,-4.56329 -15.69766,-8.8909 -3.06331,-3.20399 -4.90958,-6.18205 -6.48285,-10.45655 -1.12587,-3.05897 -1.33172,-4.27571 -1.5059,-8.90131 -0.12604,-3.34681 -0.01,-6.30708 0.31879,-7.88631 1.82934,-8.88504 8.35741,-16.89556 17.24505,-21.16123 4.74345,-2.27671 8.77099,-3.14023 14.69066,-3.14989 6.05827,-0.009 9.1363,0.63318 14.13722,2.95369 8.41295,3.9036 15.28773,11.78785 17.65294,20.24464 1.10223,3.94132 0.99306,11.40239 -0.22694,15.48921 -2.98879,10.01387 -10.72255,17.90784 -20.68135,21.10987 -3.21426,1.03352 -4.28636,1.17104 -10.02518,1.28592 -5.27053,0.10537 -6.96535,-0.01 -9.42492,-0.63714 z"
           style="opacity:1;fill:url(#radialGradient975);fill-opacity:1;stroke:none;stroke-width:3.2569325;stroke-miterlimit:4;stroke-dasharray:none" />
        <path
           style="opacity:1;fill:url(#radialGradient977);fill-opacity:1;stroke:none;stroke-width:2.35175061;stroke-miterlimit:4;stroke-dasharray:none"
           d="m 201.40932,204.2196 c -4.71371,-1.14942 -8.54199,-3.21996 -11.59917,-6.27363 -2.26352,-2.26081 -3.62774,-4.3622 -4.79025,-7.37838 -0.83192,-2.15849 -0.98402,-3.01705 -1.11273,-6.28098 -0.0931,-2.36159 -0.007,-4.45042 0.23556,-5.56477 1.35172,-6.26949 6.17538,-11.9219 12.74255,-14.93186 3.50499,-1.6065 6.48098,-2.21582 10.85509,-2.22264 4.47652,-0.006 6.75091,0.44679 10.44614,2.0842 6.21642,2.75447 11.29627,8.31778 13.04395,14.28509 0.81445,2.78109 0.73378,8.0458 -0.16769,10.92956 -2.20845,7.06602 -7.92301,12.63619 -15.28167,14.89562 -2.37505,0.72928 -3.16724,0.82631 -7.40771,0.90737 -3.89445,0.0744 -5.14678,-0.007 -6.96418,-0.44958 z"
           id="path1558"
           inkscape:connector-curvature="0"
           sodipodi:nodetypes="ccccccccccsccc" />
      </g>
    </g>
  </g>
</svg>
